<?xml version="1.0" standalone="no"?>
<!DOCTYPE svg PUBLIC "-//W3C//DTD SVG 1.1//EN" "http://www.w3.org/Graphics/SVG/1.1/DTD/svg11.dtd" >
<svg xmlns="http://www.w3.org/2000/svg" xmlns:xlink="http://www.w3.org/1999/xlink" version="1.1">
<metadata>
Created by FontForge 20161116 at Thu Feb 23 15:13:12 2017
 By Jimmy Wärting
Copyright (c) 2012 by Hannes von Doehren. All rights reserved.
</metadata>
<defs>
<font id="PlutoSansW01-CondLight" horiz-adv-x="1443" >
  <font-face 
    font-family="PlutoSansW01-CondLight"
    font-weight="300"
    font-stretch="normal"
    units-per-em="2048"
    panose-1="2 0 0 0 0 0 0 0 0 0"
    ascent="1536"
    descent="-512"
    x-height="1071"
    cap-height="1393"
    bbox="-63 -406 1978 1839"
    underline-thickness="102"
    underline-position="-714"
    unicode-range="U+0002-25FC"
  />
<missing-glyph horiz-adv-x="748" 
d="M68 0v1365h544v-1365h-544zM136 68h408v1229h-408v-1229z" />
    <glyph glyph-name=".notdef" horiz-adv-x="748" 
d="M68 0v1365h544v-1365h-544zM136 68h408v1229h-408v-1229z" />
    <glyph glyph-name="glyph1" horiz-adv-x="0" 
 />
    <glyph glyph-name="uni000D" unicode="&#xd;" horiz-adv-x="419" 
 />
    <glyph glyph-name="glyph3" horiz-adv-x="0" 
 />
    <glyph glyph-name="glyph3" horiz-adv-x="0" 
 />
    <glyph glyph-name="uni0002" horiz-adv-x="0" 
 />
    <glyph glyph-name="uni0009" unicode="&#x9;" horiz-adv-x="419" 
 />
    <glyph glyph-name="uni000A" unicode="&#xa;" horiz-adv-x="0" 
 />
    <glyph glyph-name="space" unicode=" " horiz-adv-x="419" 
 />
    <glyph glyph-name="exclam" unicode="!" horiz-adv-x="497" 
d="M147 90q0 113 101 113q48 0 75 -30t27 -83q0 -56 -27 -84q-27 -29 -75 -29q-101 0 -101 113zM180 1391h133l-16 -975h-100z" />
    <glyph glyph-name="quotedbl" unicode="&#x22;" horiz-adv-x="770" 
d="M152 1393h106l-4 -492h-98zM512 1393h106l-6 -492h-98z" />
    <glyph glyph-name="numbersign" unicode="#" horiz-adv-x="1224" 
d="M82 330v108h186l113 525h-158v108h180l70 322h102v-13l-65 -309h352l70 322h102v-13l-65 -309h176v-108h-199l-112 -525h167v-108h-190l-70 -330h-102v12l68 318h-355l-69 -330h-105v12l68 318h-164zM375 438h354l111 525h-353z" />
    <glyph glyph-name="dollar" unicode="$" horiz-adv-x="1083" 
d="M98 1022q0 66 25 135q23 63 75 118q49 52 125 87q75 35 175 45v170h88v-166q111 -5 213 -36q104 -32 168 -70l-43 -123q-55 39 -152 70q-93 29 -186 34v-528l80 -23q153 -46 236 -125q83 -78 83 -221q0 -173 -107 -280q-109 -109 -292 -125v-246h-88v242q-63 2 -117 13
q-65 14 -107 29q-62 23 -90 36q-36 17 -67 38l33 127q30 -20 64 -39q30 -17 83 -38q33 -13 96 -28q53 -13 105 -14v551l-133 39q-125 35 -196 115t-71 213zM229 1030q0 -89 50 -142q49 -52 141 -79l78 -25v498q-137 -17 -203 -89t-66 -163zM586 109q117 17 189 87
q73 71 73 187q0 94 -60 151t-182 91l-20 6v-522z" />
    <glyph glyph-name="percent" unicode="%" horiz-adv-x="1505" 
d="M78 1059q0 169 85 260q86 92 220 92t220 -92q85 -91 85 -260q0 -168 -85 -259t-220 -91t-220 91t-85 259zM182 1059q0 -119 56 -183q55 -63 145 -63q92 0 146 63q55 64 55 183q0 121 -55 185q-54 63 -146 63q-89 0 -145 -63q-56 -64 -56 -185zM385 0v12l625 1381h116v-13
l-626 -1380h-115zM817 328q0 171 84 262q84 92 219 92q134 0 220 -92q85 -91 85 -262q0 -86 -22 -149t-64 -108q-41 -44 -96 -68q-53 -23 -123 -23q-135 0 -219 91q-84 92 -84 257zM920 328q0 -122 55 -183t145 -61q93 0 147 61t54 183q0 123 -54 186q-55 64 -147 64
q-89 0 -145 -64q-55 -62 -55 -186z" />
    <glyph glyph-name="ampersand" unicode="&#x26;" horiz-adv-x="1282" 
d="M121 342q0 75 25 132t68 105q41 45 94 80q55 36 108 62q-46 52 -68 79q-33 41 -58 83q-27 46 -41 91q-16 51 -16 103q0 71 24 133t69 107q46 46 110 71q65 25 150 25q77 0 143 -24q63 -23 112 -69q44 -41 71 -106q26 -63 26 -135q0 -73 -20 -124q-21 -55 -55 -96
q-36 -43 -78 -74q-43 -31 -93 -54l-88 -43l314 -352q60 86 107 199q47 112 75 239l104 -61q-29 -127 -83 -249q-52 -119 -124 -218l211 -238v-20h-155l-140 159q-79 -77 -178 -121q-100 -44 -215 -44q-185 0 -292 97t-107 263zM256 356q0 -117 77 -186q78 -70 210 -70
q77 0 152 36t141 102l-344 395q-46 -23 -88 -47q-37 -21 -74 -58q-34 -34 -54 -74t-20 -98zM365 1069q0 -43 15 -83t39 -78q26 -40 52 -72q38 -46 55 -64l117 53q166 76 166 248q0 48 -17 86q-18 41 -48 71q-29 29 -70 47q-38 17 -88 17q-107 0 -164 -63t-57 -162z" />
    <glyph glyph-name="quotesingle" unicode="'" horiz-adv-x="409" 
d="M152 1393h106l-4 -492h-98z" />
    <glyph glyph-name="parenleft" unicode="(" horiz-adv-x="526" 
d="M111 535q0 188 28 338q27 145 70 271q37 109 85 198q43 81 77 122l82 -51q-34 -52 -69 -127q-38 -80 -72 -190q-32 -102 -57 -251q-24 -141 -24 -310t24 -310q26 -152 57 -252q34 -110 72 -190q35 -75 69 -127l-82 -51q-34 41 -77 122q-48 89 -85 198q-42 124 -70 272
q-28 150 -28 338z" />
    <glyph glyph-name="parenright" unicode=")" horiz-adv-x="526" 
d="M76 -344q30 47 68 127t72 190q31 100 57 252q24 141 24 310t-24 310q-25 149 -57 251q-34 110 -72 190t-68 127l80 51q31 -38 76 -122q48 -89 85 -198q43 -126 70 -271q29 -156 29 -338t-29 -338q-28 -148 -70 -272q-37 -109 -85 -198q-45 -84 -76 -122z" />
    <glyph glyph-name="asterisk" unicode="*" horiz-adv-x="880" 
d="M111 1100l28 96l252 -78l-6 275h111l-9 -277l252 80l31 -96l-254 -68l143 -233l-84 -51l-137 237l-135 -237l-82 49l137 237z" />
    <glyph glyph-name="plus" unicode="+" horiz-adv-x="1013" 
d="M106 563v111h347v411h108v-411h346v-111h-346v-409h-108v409h-347z" />
    <glyph glyph-name="comma" unicode="," horiz-adv-x="485" 
d="M139 80q0 56 28 87q27 30 75 30q49 0 76 -34q28 -36 28 -83q0 -48 -13 -107q-11 -52 -32 -124q-14 -50 -40 -116q-21 -54 -36 -81l-78 35l80 288q-43 4 -65 34q-23 31 -23 71z" />
    <glyph glyph-name="hyphen" unicode="-" horiz-adv-x="952" 
d="M150 563v113h653v-113h-653z" />
    <glyph glyph-name="period" unicode="." horiz-adv-x="483" 
d="M141 90q0 113 99 113q104 0 104 -113t-104 -113q-99 0 -99 113z" />
    <glyph glyph-name="slash" unicode="/" horiz-adv-x="876" 
d="M66 0v12l626 1381h117v-13l-625 -1380h-118z" />
    <glyph glyph-name="zero" unicode="0" horiz-adv-x="1251" 
d="M123 694q0 158 30 290q30 134 91 227q64 98 156 149q95 53 225 53q131 0 226 -53q94 -52 157 -149q61 -94 90 -227q28 -130 28 -290t-28 -288q-29 -132 -90 -226t-157 -147q-95 -53 -226 -53q-130 0 -225 53q-94 53 -156 147q-60 93 -91 226q-30 130 -30 288zM252 694
q0 -131 20 -234q21 -108 66 -186q44 -77 116 -121q71 -44 171 -44q99 0 172 44q72 43 115 121q44 79 65 186q20 103 20 234q0 135 -20 238q-21 107 -65 188q-45 81 -115 124q-73 44 -172 44q-100 0 -171 -44q-70 -43 -116 -124q-45 -79 -66 -188q-20 -103 -20 -238z" />
    <glyph glyph-name="one" unicode="1" horiz-adv-x="851" 
d="M51 1114l506 279h102v-1393h-133v1235l-426 -227z" />
    <glyph glyph-name="two" unicode="2" horiz-adv-x="1114" 
d="M111 940q1 105 30 192q28 85 84 149q55 62 135 97q81 35 187 35q105 0 187 -35q80 -34 133 -93q52 -58 79 -138q27 -79 27 -168q0 -138 -64 -249q-62 -108 -190 -230l-397 -379h686v-121h-877v106l490 465q106 99 160 190q55 93 55 210q0 64 -19 126q-18 58 -55 101
t-92 67q-53 23 -131 23t-135 -27q-56 -26 -94 -77q-37 -49 -57 -116q-21 -70 -22 -146z" />
    <glyph glyph-name="three" unicode="3" horiz-adv-x="1126" 
d="M123 76l37 117q30 -17 56 -28q48 -20 81 -31q42 -14 100 -25t117 -11q72 0 138 20q64 20 114 57q50 38 77 93t27 125q0 124 -75 195t-226 71h-309v121h309q61 0 113 22q48 20 82 56q32 33 49 80q16 44 16 94q0 67 -25 116t-70 83q-42 32 -102 49q-57 16 -122 16
q-60 0 -110 -10q-54 -11 -98 -25q-39 -13 -82 -34q-34 -17 -58 -33l-35 115q53 31 162 68q105 36 231 36q207 0 325 -94t118 -270q0 -56 -17 -112q-16 -53 -45 -97q-28 -43 -72 -73q-43 -29 -94 -40q125 -29 198 -115q73 -87 73 -235q0 -91 -35 -166q-35 -74 -98 -125
q-66 -53 -152 -79q-90 -27 -201 -27q-74 0 -132 11q-73 14 -114 26q-47 14 -90 32q-34 14 -61 27z" />
    <glyph glyph-name="four" unicode="4" horiz-adv-x="1249" 
d="M66 307v99l677 987h172v-979h259v-107h-259v-307h-133v307h-716zM205 414h577v850z" />
    <glyph glyph-name="five" unicode="5" horiz-adv-x="1114" 
d="M98 80l39 117q16 -9 56 -30q36 -19 80 -33t103 -25q60 -11 122 -11q66 0 136 19q68 18 119 58q53 41 84 105q31 63 31 158q0 80 -27 134q-26 53 -77 88q-48 34 -116 49q-62 14 -142 14h-330l-8 8l49 662h748v-121h-635l-31 -445h221q108 0 196 -21t152 -68
q65 -48 100 -118q36 -72 36 -178q0 -124 -40 -211q-40 -88 -109 -143q-68 -55 -159 -82q-87 -26 -188 -26q-85 0 -144 11q-75 14 -116 26q-50 15 -88 33q-50 24 -62 30z" />
    <glyph glyph-name="six" unicode="6" horiz-adv-x="1212" 
d="M121 698q0 161 36 291q36 132 103 225q67 94 167 147q98 52 226 52q71 0 132 -13q62 -13 115 -33t91 -43q46 -28 64 -44l-47 -111q-44 42 -135 84q-90 41 -205 41q-102 0 -181 -44q-77 -43 -130 -122q-51 -76 -77 -188q-26 -113 -26 -242v-39q22 39 56 83q35 45 87 88
t119 71q69 29 154 29q203 0 318 -121q116 -122 116 -340q0 -108 -35 -199q-34 -88 -95 -154q-60 -64 -144 -101q-80 -35 -181 -35q-126 0 -225 51t-166 145q-68 95 -102 227q-35 135 -35 295zM264 528q28 -192 125 -308q96 -116 256 -116q67 0 129 28q60 27 104 77t68 116
q25 69 25 144q0 83 -24 148q-25 68 -66 109q-45 45 -103 67q-59 22 -129 22q-84 0 -149 -34q-69 -36 -113 -80q-51 -51 -78 -94q-27 -44 -45 -79z" />
    <glyph glyph-name="seven" unicode="7" horiz-adv-x="964" 
d="M68 1272v121h850v-103l-527 -1290h-149v14l526 1258h-700z" />
    <glyph glyph-name="eight" unicode="8" horiz-adv-x="1202" 
d="M121 377q0 149 77 235q78 87 216 115q-120 23 -186 114t-66 208q0 176 118 270t322 94q203 0 321 -94q117 -93 117 -270q0 -118 -65 -208q-66 -92 -187 -114q142 -29 219 -115q76 -85 76 -235q0 -94 -34 -166q-35 -74 -98 -125q-65 -53 -151 -79q-88 -27 -198 -27
q-111 0 -199 27q-86 26 -151 79q-62 50 -97 125q-34 72 -34 166zM254 393q0 -69 27 -125q28 -57 72 -94q47 -39 111 -60q68 -22 138 -22q71 0 137 22q65 22 111 60q48 40 74 94q26 53 26 125q0 121 -83 199t-265 78q-179 0 -264 -77q-84 -77 -84 -200zM293 1036
q0 -52 17 -96q18 -47 55 -84q36 -36 95 -59q60 -23 142 -23q80 0 140 23t96 59q35 35 54 84q17 44 17 96q0 132 -86 198q-85 66 -221 66q-135 0 -222 -66t-87 -198z" />
    <glyph glyph-name="nine" unicode="9" horiz-adv-x="1212" 
d="M109 924q0 109 34 198q34 88 96 155q59 63 143 100q83 36 181 36q125 0 224 -51q100 -52 167 -145q68 -96 104 -228q36 -133 36 -295q0 -160 -36 -291t-105 -225q-68 -93 -168 -146q-98 -52 -226 -52q-74 0 -133 13q-62 13 -114 33q-53 20 -91 43q-43 26 -63 44l47 110
q45 -43 134 -84q90 -41 206 -41q101 0 180 44q77 43 130 122q52 78 78 188q25 107 25 242v37q-22 -39 -56 -83q-36 -46 -87 -87q-50 -40 -119 -69t-151 -29q-206 0 -321 121t-115 340zM242 924q0 -170 91 -258t232 -88q84 0 147 32q66 34 111 79q51 51 78 94q27 44 45 79
q-28 190 -124 309q-94 117 -253 117q-71 0 -131 -27q-58 -26 -103 -77q-46 -52 -69 -116q-24 -66 -24 -144z" />
    <glyph glyph-name="colon" unicode=":" horiz-adv-x="499" 
d="M147 90q0 53 26 82t73 29q51 0 78 -29q26 -27 26 -82q0 -113 -104 -113q-99 0 -99 113zM147 991q0 53 26 82t73 29q51 0 78 -29q26 -27 26 -82q0 -112 -104 -112q-99 0 -99 112z" />
    <glyph glyph-name="semicolon" unicode=";" horiz-adv-x="512" 
d="M156 80q0 55 27 85t75 30q49 0 76 -34q26 -33 26 -81t-13 -107q-12 -55 -32 -123q-18 -62 -39 -114q-27 -67 -34 -80l-78 35l80 284q-44 5 -66 34t-22 71zM156 991q0 54 25 82q26 29 73 29q51 0 78 -29q26 -27 26 -82q0 -112 -104 -112q-98 0 -98 112z" />
    <glyph glyph-name="less" unicode="&#x3c;" horiz-adv-x="1026" 
d="M88 563v111l789 424h10v-111l-688 -366l688 -367v-111h-10z" />
    <glyph glyph-name="equal" unicode="=" horiz-adv-x="1107" 
d="M156 274v111h796v-111h-796zM156 854v111h796v-111h-796z" />
    <glyph glyph-name="greater" unicode="&#x3e;" horiz-adv-x="1026" 
d="M139 143v111l688 367l-688 366v111h13l786 -424v-111l-786 -420h-13z" />
    <glyph glyph-name="question" unicode="?" horiz-adv-x="833" 
d="M78 1231q19 30 51 65q28 30 72 60q41 27 93 42t120 15q76 0 136 -24q59 -23 102 -70q42 -45 65 -106q22 -59 22 -130q0 -93 -31 -165q-30 -71 -96 -146l-139 -164q-33 -39 -49 -69q-14 -27 -14 -68q0 -15 1 -25q2 -18 5 -30h-113q-2 7 -4.5 20.5t-3.5 18.5q-4 19 -4 45
q0 52 24 93q18 30 66 89l133 162q51 62 71 110q21 51 21 125q0 94 -58 156q-58 63 -163 63q-100 0 -162 -50t-96 -115zM264 90q0 113 98 113q103 0 103 -113t-103 -113q-98 0 -98 113z" />
    <glyph glyph-name="at" unicode="@" horiz-adv-x="1761" 
d="M104 539q0 215 60 387q60 173 166 294t252 187t317 66q169 0 316 -58q145 -57 247 -164q103 -108 160 -257q57 -150 57 -335q0 -171 -31 -289t-85 -198q-52 -77 -123 -114q-67 -35 -146 -35q-83 0 -116 29q-36 32 -54 93q-45 -60 -116 -91t-162 -31q-94 0 -163 36
q-74 38 -125 103q-53 67 -81 156q-28 90 -28 200q0 113 28 203q29 94 81 159q53 66 125 104q73 38 163 38q87 0 156 -27q70 -27 114 -82v93h127v-752q0 -67 18 -100t70 -33q42 0 88 32t80 96q35 65 57 165q23 103 23 239q0 167 -48 301q-48 133 -137 227q-89 93 -215 143
q-127 50 -280 50t-278 -56q-130 -58 -220 -163q-93 -108 -143 -262q-51 -156 -51 -354q0 -195 50 -353q48 -153 142 -263q91 -108 219 -165t281 -57q88 0 172 23q83 22 156 63l33 -90q-163 -94 -361 -94q-176 0 -322 64q-144 63 -251 187q-104 121 -163 294q-59 174 -59 391
zM580 518q0 -83 21 -152q20 -67 61 -120t95 -79q59 -28 124 -28q77 0 139 35q60 34 96 82v539q-34 47 -96 78q-62 32 -139 32q-68 0 -124 -28q-55 -27 -95 -80t-61 -122q-21 -71 -21 -157z" />
    <glyph glyph-name="A" unicode="A" horiz-adv-x="1245" 
d="M49 0l504 1393h152l479 -1393h-133l-115 340h-633l-121 -340h-133zM342 446h559l-272 809z" />
    <glyph glyph-name="B" unicode="B" horiz-adv-x="1214" 
d="M190 0v1393h431q182 0 287 -87q106 -88 106 -272q0 -123 -57 -199q-58 -78 -152 -112q139 -24 222 -111q81 -86 81 -243q0 -173 -101 -271t-307 -98h-510zM326 119h360q145 0 214 68q71 69 71 188q0 141 -84 209q-83 67 -238 67h-323v-532zM326 776h268q131 0 208 63
t77 185q0 129 -72 189q-73 61 -201 61h-280v-498z" />
    <glyph glyph-name="C" unicode="C" horiz-adv-x="1257" 
d="M115 696q0 169 43 301q44 136 121 226q78 91 186 141q107 49 240 49q148 0 263 -64q113 -63 191 -161l-76 -92q-65 77 -155 134q-88 56 -213 56q-217 0 -340 -153t-123 -437q0 -283 123 -436q124 -154 340 -154q123 0 213 57t155 134l76 -92q-78 -98 -191 -161
q-115 -64 -263 -64q-133 0 -240 49q-108 49 -186 141q-77 91 -121 225q-43 132 -43 301z" />
    <glyph glyph-name="D" unicode="D" horiz-adv-x="1380" 
d="M190 0v1393h461q133 0 244 -46q113 -47 195 -135q81 -87 128 -218q46 -129 46 -300q0 -169 -46 -298q-47 -131 -128 -218q-82 -88 -195 -133t-244 -45h-461zM326 121h311q110 0 199 37q90 37 154 109q65 73 101 180q35 105 35 247q0 144 -35 249q-35 106 -101 181
q-65 74 -154 111t-199 37h-311v-1151z" />
    <glyph glyph-name="E" unicode="E" horiz-adv-x="1204" 
d="M190 0v1393h906v-121h-774v-486h647v-120h-647v-545h774v-121h-906z" />
    <glyph glyph-name="F" unicode="F" horiz-adv-x="1140" 
d="M190 0v1393h871v-121h-739v-570h645v-120h-645v-582h-132z" />
    <glyph glyph-name="G" unicode="G" horiz-adv-x="1366" 
d="M113 694q0 171 49 303q50 135 135 226q84 90 201 141q113 49 245 49q146 0 251 -48q108 -49 198 -138l-64 -105q-79 78 -167 121q-87 43 -203 43q-110 0 -202 -40q-95 -41 -161 -116q-67 -76 -106 -185t-39 -251t39 -251q39 -110 106 -184t160 -114q91 -39 197 -39
q104 0 199 33q96 34 159 86v389h-418v121h545v-586q-40 -34 -98 -66q-56 -31 -122 -54q-65 -23 -135 -36q-68 -13 -139 -13q-131 0 -245 48q-116 49 -201 140q-85 92 -135 225q-49 132 -49 301z" />
    <glyph glyph-name="H" unicode="H" horiz-adv-x="1460" 
d="M190 0v1393h136v-633h811v633h133v-1393h-133v639h-811v-639h-136z" />
    <glyph glyph-name="I" unicode="I" horiz-adv-x="516" 
d="M190 0v1393h136v-1393h-136z" />
    <glyph glyph-name="J" unicode="J" horiz-adv-x="1144" 
d="M55 461l129 12q11 -191 88 -282q78 -91 236 -91q157 0 241 96q82 94 82 289v908h136v-906q0 -236 -118 -373q-119 -139 -343 -139q-218 0 -329 126q-112 127 -122 360z" />
    <glyph glyph-name="K" unicode="K" horiz-adv-x="1202" 
d="M190 0v1393h136v-648h141l512 648h141v-21l-542 -688l593 -666v-18h-161l-549 625h-135v-625h-136z" />
    <glyph glyph-name="L" unicode="L" horiz-adv-x="1036" 
d="M190 0v1393h136v-1272h673v-121h-809z" />
    <glyph glyph-name="M" unicode="M" horiz-adv-x="1652" 
d="M190 0v1393h132l503 -736l506 736h131v-1393h-135v1167l-485 -704h-31l-485 704v-1167h-136z" />
    <glyph glyph-name="N" unicode="N" horiz-adv-x="1456" 
d="M190 0v1393h119l821 -1172v1172h136v-1393h-121l-821 1167v-1167h-134z" />
    <glyph glyph-name="O" unicode="O" 
d="M113 694q0 162 45 294q45 131 126 226q81 94 192 147q110 52 245 52q137 0 247 -52q111 -53 192 -147q81 -95 126 -226q45 -132 45 -294q0 -160 -45 -292t-126 -225q-80 -92 -192 -145q-110 -52 -247 -52q-135 0 -245 52q-112 53 -192 145q-81 93 -126 225t-45 292z
M246 694q0 -140 36 -248q37 -110 98 -183q63 -75 149 -115q84 -39 192 -39q107 0 191 39q89 42 151 115q63 75 99 183t36 248t-36 249q-35 108 -99 185q-61 74 -151 116q-86 40 -191 40q-106 0 -192 -40q-87 -40 -149 -116q-62 -75 -98 -185q-36 -109 -36 -249z" />
    <glyph glyph-name="P" unicode="P" horiz-adv-x="1204" 
d="M190 0v1393h510q82 0 159 -30q78 -31 135 -89q58 -60 93 -152q35 -93 35 -217q0 -112 -35 -202q-35 -89 -93 -150t-135 -94t-159 -33h-374v-426h-136zM326 547h348q63 0 120 24q54 23 99 71q44 47 68 113t24 150q0 94 -24 163q-24 68 -68 114q-44 45 -99 67
q-58 23 -120 23h-348v-725z" />
    <glyph glyph-name="Q" unicode="Q" 
d="M113 694q0 162 45 294q45 131 126 226q81 94 192 147q110 52 245 52q137 0 247 -52q111 -53 192 -147q81 -95 126 -226q45 -132 45 -294q0 -136 -33 -251q-34 -118 -92 -204q-62 -91 -142 -151q-81 -61 -185 -88q17 -18 71 -78q40 -45 85 -81q47 -38 103 -63
q58 -26 124 -26q64 0 111 10q54 11 81 25l19 -117q-29 -12 -93 -26q-62 -13 -125 -13q-73 0 -135 24q-63 25 -114 58q-55 36 -97 78q-43 43 -79 82q-14 16 -37.5 42t-24.5 27q-28 31 -47 38q-135 0 -245 52q-112 53 -192 145q-81 93 -126 225t-45 292zM244 694
q0 -140 36 -248t99 -183q62 -74 150 -115q84 -39 192 -39q107 0 191 39q89 41 152 115q64 74 100 183q36 108 36 248t-36 249t-100 185q-63 74 -152 116q-86 40 -191 40q-106 0 -192 -40q-88 -41 -150 -116q-64 -77 -99 -185q-36 -109 -36 -249z" />
    <glyph glyph-name="R" unicode="R" horiz-adv-x="1241" 
d="M190 0v1393h519q83 0 161 -29q74 -28 132 -84q56 -55 91 -138q33 -79 33 -190q0 -96 -30 -172q-29 -74 -83 -131q-52 -55 -122 -87t-150 -38l437 -504v-20h-154l-444 524h-254v-524h-136zM326 635h352q67 0 121 20q58 21 99 61q45 43 67 99q24 60 24 137q0 83 -24 143
q-24 59 -68 99q-44 39 -99 58q-58 20 -120 20h-352v-637z" />
    <glyph glyph-name="S" unicode="S" horiz-adv-x="1101" 
d="M102 94l33 131q35 -22 72 -40q52 -25 93 -40q42 -15 107 -29q57 -12 111 -12q68 0 134 19q63 18 110 53t74 86q26 49 26 117q0 92 -54 152q-56 62 -177 96l-232 63q-136 39 -209 120q-73 80 -73 216q0 76 26 142q27 70 82 123q55 54 141 87t201 33q57 0 116 -9t111 -24
q61 -17 97 -33q47 -21 78 -40l-41 -121q-28 20 -73 39q-31 13 -89 32q-49 16 -97 23q-53 8 -98 8q-83 0 -145 -21q-57 -19 -101 -57q-41 -35 -59 -81q-18 -47 -18 -97q0 -90 51 -141t152 -80l229 -68q157 -46 239 -130q80 -81 80 -226q0 -93 -34 -167t-99 -128t-151 -82
q-87 -28 -193 -28q-68 0 -126 11q-72 14 -118 27q-60 17 -102 37q-47 22 -74 39z" />
    <glyph glyph-name="T" unicode="T" horiz-adv-x="1087" 
d="M41 1272v121h1010v-121h-426v-1272h-136v1272h-448z" />
    <glyph glyph-name="U" unicode="U" horiz-adv-x="1374" 
d="M176 555v838h135v-832q0 -100 22 -188q22 -86 67 -145q46 -60 117 -93t169 -33q97 0 169 35q71 35 117 97q45 61 68 147t23 182v830h135v-838q0 -115 -31 -224q-30 -104 -94 -185q-60 -75 -160 -124q-97 -47 -227 -47q-131 0 -227 42q-95 42 -159 119q-63 76 -93 183
q-31 110 -31 236z" />
    <glyph glyph-name="V" unicode="V" horiz-adv-x="1253" 
d="M61 1393h142l418 -1254l440 1254h145l-506 -1393h-161z" />
    <glyph glyph-name="W" unicode="W" horiz-adv-x="1908" 
d="M61 1393h142l418 -1241l276 761l-162 480h144l403 -1223l434 1223h144l-504 -1393h-144l-256 756l-274 -756h-143z" />
    <glyph glyph-name="X" unicode="X" horiz-adv-x="1222" 
d="M57 0v12l459 684l-459 684v13h154l399 -605l400 605h155v-13l-460 -684l460 -684v-12h-157l-398 602l-397 -602h-156z" />
    <glyph glyph-name="Y" unicode="Y" horiz-adv-x="1214" 
d="M49 1380v13h150l409 -680l410 680h147v-13l-491 -788v-592h-133v590z" />
    <glyph glyph-name="Z" unicode="Z" horiz-adv-x="1064" 
d="M94 0v102l707 1170h-707v121h879v-103l-709 -1169h709v-121h-879z" />
    <glyph glyph-name="bracketleft" unicode="[" horiz-adv-x="606" 
d="M172 -385v1839h352v-113h-239v-1613h239v-113h-352z" />
    <glyph glyph-name="backslash" unicode="\" horiz-adv-x="876" 
d="M66 1380v13h116l627 -1381v-12h-117z" />
    <glyph glyph-name="bracketright" unicode="]" horiz-adv-x="606" 
d="M82 -272h237v1613h-237v113h350v-1839h-350v113z" />
    <glyph glyph-name="asciicircum" unicode="^" horiz-adv-x="985" 
d="M121 834v12l315 547h105l321 -547v-12h-123l-250 450l-247 -450h-121z" />
    <glyph glyph-name="underscore" unicode="_" horiz-adv-x="1167" 
d="M147 -86h871v-113h-871v113z" />
    <glyph glyph-name="grave" unicode="`" horiz-adv-x="1044" 
d="M383 1518h135l144 -281h-119z" />
    <glyph glyph-name="a" unicode="a" horiz-adv-x="1054" 
d="M92 305q0 97 38 170q37 72 103 118q65 46 154 67q93 22 191 22q50 0 95 -7q49 -8 89 -18v52q0 135 -68 198q-69 64 -190 64q-77 0 -154 -18t-139 -52l-27 113q70 34 165 55q93 21 173 21q179 0 275 -99t96 -286v-705h-131v115q-52 -52 -130 -93q-80 -42 -196 -42
q-161 0 -252 88q-92 89 -92 237zM227 317q0 -107 68 -167q67 -60 178 -60q104 0 175 43q75 45 114 90v334q-23 9 -79 17q-53 8 -97 8q-70 0 -140 -16q-62 -14 -114 -47q-49 -31 -77 -82t-28 -120z" />
    <glyph glyph-name="b" unicode="b" horiz-adv-x="1165" 
d="M172 0v1454h131v-508q51 60 130 102q80 42 179 42q100 0 182 -38q80 -37 138 -109q58 -71 89 -173q32 -104 32 -233q0 -130 -32 -235q-31 -102 -89 -175t-138 -110t-182 -37q-103 0 -180 43q-80 45 -129 102v-125h-131zM303 238q42 -55 113 -96q72 -42 157 -42
q160 0 252 114q92 115 92 316q0 204 -92 322q-91 117 -252 117q-86 0 -157 -43t-113 -97v-591z" />
    <glyph glyph-name="c" unicode="c" horiz-adv-x="1040" 
d="M113 537q0 130 34 233q33 101 99 178q64 75 151 113q89 39 197 39q117 0 199 -43q80 -42 147 -115l-66 -100q-52 61 -118 97t-162 36q-159 0 -253 -117q-95 -118 -95 -321q0 -103 24 -185q23 -79 71 -138q47 -57 111 -87q67 -31 144 -31q94 0 160 36t118 97l66 -100
q-67 -73 -147 -115q-82 -43 -199 -43q-110 0 -197 40q-88 40 -151 114q-66 77 -99 178q-34 103 -34 234z" />
    <glyph glyph-name="d" unicode="d" horiz-adv-x="1167" 
d="M115 537q0 133 31 233q31 101 91 173t139 109q82 38 181 38q97 0 176 -41q78 -41 131 -101v506h131v-1454h-131v125q-50 -61 -129 -103q-78 -42 -178 -42q-101 0 -181 37t-139 110q-60 74 -91 175q-31 102 -31 235zM250 530q0 -201 92 -316q91 -114 250 -114q86 0 159 41
q72 41 113 92v598q-43 56 -112 96q-72 42 -160 42q-159 0 -250 -117q-92 -118 -92 -322z" />
    <glyph glyph-name="e" unicode="e" horiz-adv-x="1101" 
d="M113 532q0 126 32 228t95 179q61 75 149 118q87 43 199 43q102 0 180 -35q74 -33 125 -95q48 -58 73 -141q23 -76 23 -170q0 -43 -5 -91q-4 -44 -15 -81h-727q1 -87 24 -161q22 -73 68 -126q45 -52 113 -82q69 -30 165 -30q99 0 174 37t136 90l55 -104q-71 -65 -166 -103
q-93 -37 -215 -37q-126 0 -218 42q-91 42 -151 117t-87 178t-27 224zM248 596h612q4 18 6 38q2 26 2 42q0 66 -17 120q-18 57 -52 97q-35 41 -88 65q-55 25 -123 25q-77 0 -141 -29q-60 -27 -105 -80t-68 -122q-25 -74 -26 -156z" />
    <glyph glyph-name="f" unicode="f" horiz-adv-x="808" 
d="M84 895v111h188v135q0 156 71 245t218 89q73 0 135 -28q58 -26 95 -63l-39 -112q-26 26 -70 55t-102 29q-177 0 -177 -211v-139h336v-111h-336v-895h-131v895h-188z" />
    <glyph glyph-name="g" unicode="g" horiz-adv-x="1167" 
d="M117 573q0 119 31 212t90 163q57 68 138 105q80 37 179 37q100 0 178 -39t129 -99v119h133v-1024q0 -121 -32 -204q-32 -82 -91 -140q-56 -55 -133 -82t-161 -27q-64 0 -126 13q-61 13 -101 28q-46 17 -76 36q-37 23 -54 32l33 121q23 -18 52 -36q30 -19 71 -36
q35 -15 86 -28q50 -13 100 -13q60 0 114 18q56 19 95 55q43 40 66 99q24 61 24 150v170q-53 -60 -131 -101q-79 -41 -176 -41q-99 0 -179 37q-81 38 -138 105q-59 70 -90 162q-31 93 -31 208zM250 573q0 -88 24 -160q24 -71 69 -124q43 -51 108 -80q64 -29 143 -29
q93 0 160 46q68 46 108 96v501q-28 32 -47 50q-34 32 -59 48q-32 20 -73 34q-42 14 -87 14q-160 0 -253 -107q-93 -106 -93 -289z" />
    <glyph glyph-name="h" unicode="h" horiz-adv-x="1179" 
d="M172 0v1454h131v-563q52 93 141 145q93 54 213 54q182 0 271 -110q88 -109 88 -310v-670h-131v647q0 154 -66 236t-207 82q-62 0 -111 -21q-54 -23 -89 -54q-41 -36 -67 -81q-27 -46 -42 -98v-711h-131z" />
    <glyph glyph-name="i" unicode="i" horiz-adv-x="475" 
d="M150 1376q0 47 24 68q23 20 66 20q37 0 60 -20q24 -21 24 -68q0 -46 -24 -66q-25 -20 -60 -20q-41 0 -66 20q-24 20 -24 66zM172 0v1071h131v-1071h-131z" />
    <glyph glyph-name="j" unicode="j" horiz-adv-x="475" 
d="M4 -311q80 49 125 121q43 68 43 196v1065h131v-1061q0 -166 -60 -261q-60 -94 -163 -152zM152 1376q0 48 23 68t65 20q40 0 61 -20q23 -21 23 -68q0 -46 -23 -66t-61 -20q-40 0 -65 20q-23 19 -23 66z" />
    <glyph glyph-name="k" unicode="k" horiz-adv-x="999" 
d="M172 0v1454h131v-852l461 469h151v-22l-481 -482l506 -544v-23h-160l-477 526v-526h-131z" />
    <glyph glyph-name="l" unicode="l" horiz-adv-x="573" 
d="M180 205v1249h133v-1221q0 -79 26 -108t73 -29q37 0 67 14q35 16 53 29l15 -106q-27 -20 -77 -37q-47 -16 -101 -16q-93 0 -141 50t-48 175z" />
    <glyph glyph-name="m" unicode="m" horiz-adv-x="1814" 
d="M172 0v1071h131v-174q50 93 132 143t204 50q252 0 324 -218q47 102 127 160q81 58 202 58q191 0 275 -102t84 -304v-684h-131v664q0 153 -62 227t-201 74q-110 0 -173 -66t-97 -170q2 -14 2 -22v-23v-684h-133v664q0 154 -66 227q-66 74 -194 74q-121 0 -192 -71
t-101 -175v-719h-131z" />
    <glyph glyph-name="n" unicode="n" horiz-adv-x="1179" 
d="M172 0v1071h131v-180q52 93 141 145q93 54 213 54q182 0 271 -110q88 -109 88 -310v-670h-131v647q0 154 -66 236t-205 82q-122 0 -201 -75q-81 -76 -110 -179v-711h-131z" />
    <glyph glyph-name="o" unicode="o" horiz-adv-x="1191" 
d="M113 532q0 134 34 237t99 179q64 75 151 113q89 39 197 39q109 0 199 -39q88 -38 154 -113t100 -179q34 -103 34 -237q0 -130 -34 -233t-100 -177t-154 -112q-90 -39 -199 -39q-108 0 -197 39q-86 38 -151 112q-65 75 -99 177q-34 103 -34 233zM242 532q0 -104 25 -183
t72 -137q45 -56 112 -86q66 -30 143 -30q159 0 257 116q97 115 97 320q0 106 -25 187q-25 80 -72 138q-47 57 -112 87q-68 31 -145 31q-158 0 -255 -117q-97 -116 -97 -326z" />
    <glyph glyph-name="p" unicode="p" horiz-adv-x="1165" 
d="M172 -385v1456h131v-123q51 62 128 104q76 42 179 42q97 0 181 -38q80 -36 140 -110q59 -72 90 -175q32 -105 32 -234q0 -130 -32 -235q-31 -104 -90 -174q-59 -71 -140 -108q-79 -36 -181 -36q-98 0 -177 40q-81 41 -130 99v-508h-131zM303 238q41 -55 112 -95
q73 -41 158 -41q161 0 252 117q93 119 93 322q0 201 -93 317q-92 115 -252 115q-85 0 -157 -42t-113 -95v-598z" />
    <glyph glyph-name="q" unicode="q" horiz-adv-x="1167" 
d="M115 530q0 133 31 235q30 100 90 175q58 73 138 110t181 37q100 0 179 -43q80 -44 130 -104v131h131v-1456h-131v504q-53 -61 -132 -101q-80 -41 -177 -41q-99 0 -181 38q-80 37 -138 109q-59 73 -90 173t-31 233zM250 537q0 -204 92 -322q91 -117 252 -117q87 0 158 43
q70 42 112 97v591q-43 54 -112 96q-73 44 -158 44q-160 0 -252 -115t-92 -317z" />
    <glyph glyph-name="r" unicode="r" horiz-adv-x="780" 
d="M172 0v1071h133v-190q38 103 99 156t159 53q102 0 172 -64l-30 -119q-33 26 -73 42t-81 16q-98 0 -155 -75q-56 -74 -91 -194v-696h-133z" />
    <glyph glyph-name="s" unicode="s" horiz-adv-x="931" 
d="M106 66l31 120q55 -33 130 -61q84 -31 179 -31q118 0 185 57t67 138q0 77 -51 117q-50 39 -137 67l-137 41q-128 39 -192 98q-66 62 -66 181q0 63 24 117t71 95q45 39 114 62t153 23q35 0 89 -7q51 -7 90 -16q45 -11 83 -24q47 -16 64 -27l-35 -117q-51 28 -130 51
q-78 23 -155 23q-113 0 -174 -50q-59 -49 -59 -128q0 -76 47 -111q45 -34 135 -61l139 -43q128 -39 195 -106q65 -65 65 -175q0 -68 -26 -124t-77 -101q-49 -43 -121 -69q-69 -25 -156 -25q-113 0 -201 28q-89 28 -144 58z" />
    <glyph glyph-name="t" unicode="t" horiz-adv-x="847" 
d="M72 961v110h184l14 272h111v-272h373v-110h-373v-668q0 -105 42 -150t124 -45q53 0 113 24q64 26 102 58l39 -108q-64 -43 -127 -67q-66 -25 -156 -25q-122 0 -196 69t-74 230v682h-176z" />
    <glyph glyph-name="u" unicode="u" horiz-adv-x="1177" 
d="M162 401v670h133v-647q0 -155 65 -236q66 -82 203 -82q62 0 113 21q54 22 90 54q42 37 67 80t41 99v711h134v-1071h-134v180q-51 -93 -139 -145q-91 -53 -213 -53q-183 0 -271 109q-89 110 -89 310z" />
    <glyph glyph-name="v" unicode="v" horiz-adv-x="1107" 
d="M66 1071h145l344 -946l344 946h143l-403 -1071h-170z" />
    <glyph glyph-name="w" unicode="w" horiz-adv-x="1757" 
d="M74 1071h145l289 -936l293 936h162l282 -936l297 936h146l-357 -1071h-166l-284 918l-295 -918h-166z" />
    <glyph glyph-name="x" unicode="x" horiz-adv-x="1024" 
d="M72 0v12l344 520l-344 527v12h145l293 -459l295 459h145v-12l-348 -527l348 -520v-12h-147l-293 455l-289 -455h-149z" />
    <glyph glyph-name="y" unicode="y" horiz-adv-x="1079" 
d="M45 -344l25 104q29 -19 75 -36q41 -15 101 -15q86 0 132 55q47 56 81 160l28 86l-436 1061h148l350 -924l317 924h135l-423 -1175q-21 -59 -54 -126q-28 -57 -66 -96q-35 -37 -88 -59q-49 -21 -118 -21q-66 0 -120 20q-52 20 -87 42z" />
    <glyph glyph-name="z" unicode="z" horiz-adv-x="931" 
d="M102 0v102l562 859h-562v110h727v-102l-561 -858h561v-111h-727z" />
    <glyph glyph-name="braceleft" unicode="{" horiz-adv-x="555" 
d="M94 485v90q92 0 132 39t40 113q0 68 -16 132q-19 76 -37 130q-18 53 -37 125q-16 60 -16 117q0 45 12 85q11 38 40 70q30 33 71 50q44 18 104 18h68v-102h-47q-72 0 -107 -42q-35 -43 -35 -104q0 -48 18 -108q5 -15 17.5 -57.5t19.5 -66.5q3 -9 36 -131q18 -66 18 -130
q0 -77 -31 -122t-102 -61q72 -17 102 -61q31 -47 31 -129q0 -62 -18 -128q-33 -122 -36 -131q-4 -15 -17 -58t-20 -65q-18 -58 -18 -108q0 -60 35 -104q34 -43 107 -43h47v-100h-68q-61 0 -104 18t-71 49t-40 72q-12 40 -12 88q0 57 16 117q19 70 37 126t37 131
q16 64 16 132q0 76 -40 113q-39 36 -132 36z" />
    <glyph glyph-name="bar" unicode="|" horiz-adv-x="454" 
d="M172 -385v1839h111v-1839h-111z" />
    <glyph glyph-name="braceright" unicode="}" horiz-adv-x="557" 
d="M100 -297h52q68 0 102 43q35 44 35 104q0 48 -17 108q-26 93 -36 123q-18 56 -37 131q-17 68 -17 128q0 82 31 129q30 44 102 61q-71 16 -102 61t-31 122q0 62 17 130q19 75 37 131q12 38 36 124q17 62 17 108q0 61 -35 104q-34 42 -102 42h-52v102h70q60 0 104 -18
q41 -17 71 -50q29 -32 40 -70q12 -41 12 -85q0 -57 -16 -117q-19 -72 -37 -125q-18 -54 -37 -130q-16 -64 -16 -132q0 -74 39 -113t131 -39v-90q-94 0 -131 -36q-39 -37 -39 -113q0 -68 16 -132q19 -75 37 -131t37 -126q16 -60 16 -117q0 -48 -12 -88q-12 -41 -40 -72
t-71 -49q-44 -18 -104 -18h-70v100z" />
    <glyph glyph-name="asciitilde" unicode="~" horiz-adv-x="929" 
d="M139 575q6 37 21 70q14 32 36 58t51 41q32 16 64 16q46 0 88 -28q44 -29 77 -61q41 -39 70 -62q34 -27 68 -27q51 0 78 38q25 35 41 101l60 -57q-17 -82 -63 -135q-46 -52 -114 -52q-45 0 -84 28q-34 24 -72 61q-37 35 -71 62t-74 27q-41 0 -73 -33q-32 -34 -43 -106z
" />
    <glyph glyph-name="uni00A0" unicode="&#xa0;" horiz-adv-x="419" 
 />
    <glyph glyph-name="exclamdown" unicode="&#xa1;" horiz-adv-x="468" 
d="M131 987q0 54 28 84q27 29 77 29q98 0 98 -113t-98 -113q-50 0 -77 30q-28 31 -28 83zM168 -315l16 977h101l16 -977h-133z" />
    <glyph glyph-name="cent" unicode="&#xa2;" horiz-adv-x="1085" 
d="M113 537q0 130 34 233q33 101 99 178q64 75 151 113q89 39 197 39q15 0 43 -2q19 -1 41 -6l51 215l82 -23l-51 -215q56 -22 97 -53q44 -33 83 -74l-66 -100q-30 35 -65 62q-36 28 -78 44l-201 -846q30 -6 66 -6q94 0 160 36t118 97l66 -100q-67 -73 -147 -115
q-82 -43 -199 -43q-17 0 -47 2q-15 1 -45 7l-60 -256l-82 24l60 252q-141 52 -224 193q-83 140 -83 344zM246 537q0 -153 54 -258t151 -152l198 844q-16 2 -26 3t-29 1q-159 0 -253 -117q-95 -118 -95 -321z" />
    <glyph glyph-name="sterling" unicode="&#xa3;" horiz-adv-x="1124" 
d="M94 168q0 87 49 140q50 55 127 55q22 0 54 -9q26 -7 38 -18q4 72 -12 156q-15 78 -33 176h-172v90h156q-7 43 -17 126q-8 69 -8 130q0 84 21 156q22 76 63 127q45 56 109 85q68 31 154 31q63 0 117 -18q55 -18 98 -45q41 -25 74 -57q39 -38 51 -52l-48 -113
q-21 26 -43 51q-27 30 -57 52q-35 25 -76 41q-42 16 -96 16q-60 0 -103 -22q-45 -23 -73 -63t-43 -95q-14 -52 -14 -119q0 -52 5 -115q3 -33 13 -116h399v-90h-385q19 -112 29 -192q12 -93 6 -179q27 -18 61 -52q45 -45 68 -67q34 -33 72 -57q39 -25 70 -25q87 0 120 91
q33 90 31 245h117q2 -112 -9 -186q-12 -86 -40 -144t-76 -91q-46 -31 -115 -31q-48 0 -93 26t-88 63q-49 42 -79 72q-38 38 -65 58q-10 -44 -27 -85q-16 -39 -39 -70q-22 -29 -55 -47q-31 -17 -78 -17q-77 0 -118 53q-40 52 -40 135zM176 164q0 -40 17 -71q17 -30 57 -30
q25 0 46 16q20 15 32 41t18 58q5 26 10 70q-11 10 -33 19q-21 9 -44 9q-46 0 -74 -29q-29 -31 -29 -83z" />
    <glyph glyph-name="currency" unicode="&#xa4;" horiz-adv-x="1083" 
d="M137 295l115 113q-35 41 -53 95q-19 57 -19 113q0 62 19 117q17 52 53 94l-115 115l82 80l115 -117q39 27 92 46q51 18 111 18q121 0 208 -70l119 123l82 -80l-123 -121q68 -85 68 -205q0 -59 -18 -110q-18 -52 -48 -92l121 -119l-82 -80l-119 121q-86 -68 -208 -68
q-119 0 -203 64l-115 -117zM283 616q0 -52 18 -99q18 -46 52 -80q33 -33 81 -53q45 -19 103 -19q115 0 183 71t68 180q0 113 -68 184q-69 72 -183 72q-58 0 -103 -19q-46 -19 -81 -54q-34 -34 -52 -81q-18 -46 -18 -102z" />
    <glyph glyph-name="yen" unicode="&#xa5;" horiz-adv-x="1060" 
d="M80 1380v13h137l311 -691l314 691h139v-13l-356 -725h270v-92h-301v-151h301v-93h-301v-319h-133v319h-297v93h297v151h-297v92h264z" />
    <glyph glyph-name="brokenbar" unicode="&#xa6;" horiz-adv-x="462" 
d="M176 326h111v-711h-111v711zM176 768v686h111v-686h-111z" />
    <glyph glyph-name="section" unicode="&#xa7;" horiz-adv-x="1130" 
d="M127 596q0 89 46 165q47 78 146 122q-83 23 -135 75q-53 53 -53 152q0 61 29 116q28 54 84 96q58 44 136 67q81 24 187 24q131 0 241 -29q108 -28 173 -61l-37 -111q-24 12 -74 31q-44 17 -93 30q-50 14 -106 21q-68 9 -114 9q-146 0 -222 -59q-75 -58 -75 -132
q0 -65 45 -95t111 -42l270 -51q154 -30 237 -112q83 -81 83 -206q0 -95 -52 -168q-51 -72 -145 -112q89 -30 143 -82t54 -142q0 -72 -34 -128q-34 -57 -94 -94q-58 -36 -143 -58q-83 -21 -178 -21q-60 0 -130 10q-69 10 -116 22q-53 13 -96 30q-45 17 -70 31l31 112
q21 -11 70 -31q31 -13 91 -29q53 -14 107 -23q57 -9 119 -9q67 0 124 12q56 12 97 36q43 26 65 57q23 33 23 79q0 38 -16 63q-17 26 -47 44q-33 20 -74 31q-43 12 -96 24l-250 53q-139 33 -201 99q-61 65 -61 184zM246 608q0 -79 41 -126q40 -45 145 -68l170 -37
q127 4 203 61t76 158q0 89 -62 146q-61 56 -178 79l-127 23q-73 -5 -123 -28q-53 -25 -84 -56q-32 -32 -47 -73q-14 -38 -14 -79z" />
    <glyph glyph-name="dieresis" unicode="&#xa8;" horiz-adv-x="1044" 
d="M221 1374q0 48 24 67q23 19 60 19q36 0 59 -19t23 -67q0 -45 -23 -64q-25 -20 -59 -20q-35 0 -60 20q-24 20 -24 64zM657 1374q0 48 24 67q23 19 62 19q36 0 58 -19t22 -67q0 -45 -22 -64q-23 -20 -58 -20q-37 0 -62 20q-24 20 -24 64z" />
    <glyph glyph-name="copyright" unicode="&#xa9;" horiz-adv-x="1658" 
d="M113 694q0 154 54 286t150 228q97 97 227 151q131 54 283 54q154 0 286 -54q130 -53 228 -151t151 -228q54 -132 54 -286q0 -152 -54 -283q-54 -130 -151 -227q-96 -96 -228 -150t-286 -54q-152 0 -283 54t-227 150t-150 227t-54 283zM199 694q0 -136 48 -251t132 -199
q83 -83 199 -132t249 -49t252 49q117 48 201 132t132 199q48 116 48 251t-48 252q-48 116 -132 202q-83 85 -201 133q-117 48 -252 48t-249 -48q-117 -49 -199 -133q-84 -86 -132 -202q-48 -117 -48 -252zM475 696q0 76 28 144q26 64 76 112t113 74q66 27 144 27
q89 0 156 -29q66 -29 118 -82l-49 -78q-40 42 -95 65t-122 23q-59 0 -106 -19q-49 -20 -82 -53t-53 -81q-19 -45 -19 -103q0 -113 71 -184q72 -72 189 -72q64 0 122 23q55 22 95 63l49 -77q-50 -52 -118 -82q-67 -29 -156 -29q-78 0 -144 27q-65 27 -113 73q-49 47 -76 114
q-28 68 -28 144z" />
    <glyph glyph-name="ordfeminine" unicode="&#xaa;" horiz-adv-x="876" 
d="M150 920q0 122 81 178q83 57 213 57q47 0 86 -10v33q0 78 -32 110q-33 33 -99 33q-47 0 -94 -12t-82 -35l-18 88q18 9 48 19q34 11 57 16q29 6 58 9q27 3 50 3q115 0 161 -56t46 -167v-322q0 -38 10 -52q11 -15 39 -15q10 0 26 8q11 6 31 20l10 -82q-18 -10 -48 -22
q-26 -10 -58 -10q-82 0 -100 86q-27 -32 -73 -60q-42 -26 -110 -26q-95 0 -148 59q-54 60 -54 150zM178 444v84h531v-84h-531zM236 930q0 -62 36 -97q37 -36 101 -36q59 0 96 23q39 24 61 46v203q-36 14 -94 14q-87 0 -143 -34q-57 -35 -57 -119z" />
    <glyph glyph-name="guillemotleft" unicode="&#xab;" horiz-adv-x="931" 
d="M109 604v31l278 405h10l49 -41l-221 -378l221 -381l-49 -41h-10zM473 604v31l277 405h12l47 -41l-219 -378l221 -381l-49 -41h-12z" />
    <glyph glyph-name="logicalnot" unicode="&#xac;" horiz-adv-x="1118" 
d="M162 686v111h799v-521h-109v410h-690z" />
    <glyph glyph-name="uni00AD" unicode="&#xad;" horiz-adv-x="952" 
d="M150 563v113h653v-113h-653z" />
    <glyph glyph-name="registered" unicode="&#xae;" horiz-adv-x="1658" 
d="M113 694q0 154 54 286t150 228q97 97 227 151q131 54 283 54q154 0 286 -54q130 -53 228 -151t151 -228q54 -132 54 -286q0 -152 -54 -283q-54 -130 -151 -227q-96 -96 -228 -150t-286 -54q-152 0 -283 54t-227 150t-150 227t-54 283zM199 694q0 -136 48 -251t132 -199
q83 -83 199 -132t249 -49t252 49q117 48 201 132t132 199q48 116 48 251t-48 252q-48 116 -132 202q-83 85 -201 133q-117 48 -252 48t-249 -48q-117 -49 -199 -133q-84 -86 -132 -202q-48 -117 -48 -252zM561 346v696h311q52 0 94 -13q41 -13 77 -41q35 -27 54 -70
q19 -42 19 -101q0 -57 -20 -96q-21 -41 -52 -67q-28 -24 -68 -40q-36 -14 -73 -16l244 -233v-19h-121l-254 252h-104v-252h-107zM668 678h202q60 0 102 36t42 99q0 73 -43 107t-101 34h-202v-276z" />
    <glyph glyph-name="macron" unicode="&#xaf;" horiz-adv-x="1044" 
d="M311 1305v100h420v-100h-420z" />
    <glyph glyph-name="degree" unicode="&#xb0;" horiz-adv-x="839" 
d="M115 1059q0 84 22 149q22 64 64 111q41 45 97 69q55 23 122 23q134 0 220 -92q85 -91 85 -260q0 -168 -85 -259t-220 -91q-134 0 -219 91q-86 92 -86 259zM213 1059q0 -126 57 -189t150 -63q94 0 151 63q58 64 58 189t-58 191q-57 65 -151 65q-93 0 -150 -65
q-57 -64 -57 -191z" />
    <glyph glyph-name="plusminus" unicode="&#xb1;" horiz-adv-x="1140" 
d="M170 168v113h801v-113h-801zM170 788v113h346v410h109v-410h346v-113h-346v-323h-109v323h-346z" />
    <glyph glyph-name="uni00B2" unicode="&#xb2;" horiz-adv-x="587" 
d="M78 1391q1 100 56 164q54 63 157 63q104 0 153 -60q50 -61 50 -149q0 -66 -27 -120q-27 -55 -92 -109l-168 -150h305v-76h-422v68l227 205q95 80 95 174q0 58 -31 98q-30 39 -92 39q-68 0 -101 -45q-32 -44 -34 -115z" />
    <glyph glyph-name="uni00B3" unicode="&#xb3;" horiz-adv-x="581" 
d="M78 989l20 72q25 -12 67 -26q47 -15 101 -15q66 0 108 33t42 92q0 51 -33 81q-32 29 -98 29h-142v72h142q56 0 84 34t28 75q0 53 -36 80q-35 26 -97 26q-45 0 -82 -8q-33 -7 -84 -35l-18 74q30 13 77 29q48 16 113 16q98 0 155 -45q56 -44 56 -131q0 -52 -25 -90
q-26 -39 -73 -56q54 -12 85 -54q32 -43 32 -109q0 -87 -62 -138t-168 -51q-70 0 -119 18q-69 25 -73 27z" />
    <glyph glyph-name="acute" unicode="&#xb4;" horiz-adv-x="1044" 
d="M383 1237l143 281h136l-160 -281h-119z" />
    <glyph glyph-name="mu" unicode="&#xb5;" horiz-adv-x="1114" 
d="M172 -385v1456h133v-610q0 -173 60 -265t196 -92q110 0 180 64q71 65 105 162v741h133v-1071h-133v147q-101 -167 -326 -167q-133 0 -215 63v-428h-133z" />
    <glyph glyph-name="paragraph" unicode="&#xb6;" horiz-adv-x="935" 
d="M68 838q0 112 60 172q59 59 153 61h206v-1456h-108v989h-98q-92 0 -153 61q-60 60 -60 173zM651 -385v1456h107v-1456h-107z" />
    <glyph glyph-name="periodcentered" unicode="&#xb7;" horiz-adv-x="491" 
d="M145 610q0 113 99 113q104 0 104 -113q0 -112 -104 -112q-99 0 -99 112z" />
    <glyph glyph-name="cedilla" unicode="&#xb8;" horiz-adv-x="1044" 
d="M369 -381l16 59q21 -9 52 -16q27 -6 57 -6q49 0 78 20q30 21 30 64q0 72 -96 72q-23 0 -56 -5q-30 -5 -51 -12l-4 8l45 201h64l-31 -141q11 5 27 6q22 2 28 2q70 0 109 -36t39 -93q0 -73 -52 -110q-53 -38 -126 -38q-63 0 -129 25z" />
    <glyph glyph-name="uni00B9" unicode="&#xb9;" horiz-adv-x="454" 
d="M37 1468l242 138h61v-652h-82v557l-188 -106z" />
    <glyph glyph-name="ordmasculine" unicode="&#xba;" horiz-adv-x="909" 
d="M150 1059q0 174 84 262q86 90 221 90t219 -90t84 -262q0 -170 -84 -260t-219 -90t-221 90q-84 88 -84 260zM190 444v84h531v-84h-531zM242 1059q0 -130 58 -195t155 -65q96 0 154 65q59 67 59 195t-59 195t-154 67q-96 0 -155 -67q-58 -65 -58 -195z" />
    <glyph glyph-name="guillemotright" unicode="&#xbb;" horiz-adv-x="929" 
d="M121 240l221 381l-221 378l49 41h10l279 -405v-31l-279 -405h-10zM483 999l49 41h13l276 -405v-31l-276 -405h-13l-47 41l222 381z" />
    <glyph glyph-name="onequarter" unicode="&#xbc;" horiz-adv-x="1421" 
d="M61 1264l242 137h62v-651h-82v557l-189 -107zM287 0v12l641 1381h86v-13l-641 -1380h-86zM817 137v60l303 454h107v-448h112v-66h-112v-137h-82v137h-328zM905 203h240v364z" />
    <glyph glyph-name="onehalf" unicode="&#xbd;" horiz-adv-x="1370" 
d="M61 1264l242 137h62v-651h-82v557l-189 -107zM287 0v12l641 1381h86v-13l-641 -1380h-86zM848 436q1 101 56 165q54 63 157 63t153 -61t50 -150q0 -65 -28 -119q-27 -53 -91 -109l-168 -149h303v-76h-422v68l229 202q49 45 70 84q23 41 23 92q0 58 -30 98t-93 40
q-69 0 -100 -45t-33 -115z" />
    <glyph glyph-name="threequarters" unicode="&#xbe;" horiz-adv-x="1548" 
d="M100 784l21 72q27 -13 66 -26q47 -15 102 -15q65 0 107 33t42 92q0 52 -32 81q-33 30 -99 30h-141v71h141q56 0 84 34q29 35 29 75q0 53 -36 80q-35 26 -97 26q-45 0 -82 -8q-33 -7 -84 -35l-19 74q30 13 77 29q48 16 114 16q97 0 154 -45t57 -131q0 -50 -26 -90
q-25 -38 -72 -55q52 -12 84 -55t32 -109q0 -86 -61 -137q-63 -52 -168 -52q-71 0 -120 18q-69 25 -73 27zM418 0v12l641 1381h86v-13l-641 -1380h-86zM950 137v60l303 454h107v-448h113v-66h-113v-137h-82v137h-328zM1038 203h240v364z" />
    <glyph glyph-name="questiondown" unicode="&#xbf;" horiz-adv-x="815" 
d="M84 -6q0 91 32 166q31 71 95 145l139 164q32 37 49 70q15 29 15 65q0 17 -1 27q-2 20 -5 31h112q2 -7 4.5 -20.5t3.5 -18.5q4 -19 4 -45q0 -54 -24 -94q-18 -30 -66 -89l-133 -162q-49 -60 -70 -110q-22 -53 -22 -127q0 -92 58 -154q59 -63 163 -63q100 0 162 50
q61 49 96 116l49 -99q-24 -36 -52 -66q-32 -34 -70 -59q-40 -27 -94 -42q-53 -15 -119 -15q-75 0 -137 25q-60 24 -102 69q-43 46 -65 105t-22 131zM358 987q0 113 103 113q98 0 98 -113q0 -112 -98 -112q-103 0 -103 112z" />
    <glyph glyph-name="Agrave" unicode="&#xc0;" horiz-adv-x="1245" 
d="M49 0l504 1393h152l479 -1393h-133l-115 340h-633l-121 -340h-133zM342 446h559l-272 809zM416 1839h135l143 -280h-119z" />
    <glyph glyph-name="Aacute" unicode="&#xc1;" horiz-adv-x="1245" 
d="M49 0l504 1393h152l479 -1393h-133l-115 340h-633l-121 -340h-133zM342 446h559l-272 809zM545 1559l143 280h135l-159 -280h-119z" />
    <glyph glyph-name="Acircumflex" unicode="&#xc2;" horiz-adv-x="1245" 
d="M49 0l504 1393h152l479 -1393h-133l-115 340h-633l-121 -340h-133zM342 446h559l-272 809zM373 1559l188 280h135l187 -280h-113l-143 202l-142 -202h-112z" />
    <glyph glyph-name="Atilde" unicode="&#xc3;" horiz-adv-x="1245" 
d="M49 0l504 1393h152l479 -1393h-133l-115 340h-633l-121 -340h-133zM332 1665q24 55 67 97q46 44 103 44q43 0 76 -21q31 -20 61 -48q26 -25 56 -48q28 -22 59 -22q43 0 74 31q29 29 46 71l50 -59q-27 -57 -69 -99t-101 -42q-41 0 -74 21t-63 48q-38 34 -57 49
q-27 21 -58 21q-45 0 -74 -31q-27 -28 -49 -71zM342 446h559l-272 809z" />
    <glyph glyph-name="Adieresis" unicode="&#xc4;" horiz-adv-x="1245" 
d="M49 0l504 1393h152l479 -1393h-133l-115 340h-633l-121 -340h-133zM328 1696q0 47 23 66q25 20 61 20q33 0 58 -20q24 -20 24 -66t-24 -65q-23 -19 -58 -19q-38 0 -61 19t-23 65zM342 446h559l-272 809zM764 1696q0 47 23 66q25 20 63 20q34 0 57 -20t23 -66
q0 -45 -23 -65q-22 -19 -57 -19q-40 0 -63 19t-23 65z" />
    <glyph glyph-name="Aring" unicode="&#xc5;" horiz-adv-x="1245" 
d="M49 0l490 1354q-50 24 -80 72q-31 50 -31 108q0 84 58 142q59 59 143 59q83 0 142 -59q58 -58 58 -142q0 -60 -30 -108q-30 -47 -82 -72l467 -1354h-133l-115 340h-633l-121 -340h-133zM342 446h559l-272 809zM498 1534q0 -53 39 -92t92 -39t92 39t39 92t-39 92t-92 39
t-92 -39t-39 -92z" />
    <glyph glyph-name="AE" unicode="&#xc6;" horiz-adv-x="1843" 
d="M16 0l746 1393h973v-121h-777v-490h648v-112h-648v-549h777v-121h-904v340h-491l-180 -340h-144zM397 446h434v805z" />
    <glyph glyph-name="Ccedilla" unicode="&#xc7;" horiz-adv-x="1257" 
d="M115 696q0 169 43 301q44 136 121 226q78 91 186 141q107 49 240 49q148 0 263 -64q113 -63 191 -161l-76 -92q-65 77 -155 134q-88 56 -213 56q-217 0 -340 -153t-123 -437q0 -283 123 -436q124 -154 340 -154q123 0 213 57t155 134l76 -92q-78 -98 -191 -161
q-115 -64 -263 -64h-23l-25 -117q11 5 27 6q22 2 29 2q69 0 108 -36t39 -93q0 -73 -52 -110q-53 -38 -126 -38q-63 0 -129 25l16 59q20 -9 53 -16q27 -6 56 -6q50 0 79 20t29 64q0 72 -96 72q-23 0 -56 -5q-28 -4 -50 -12l-4 8l41 183q-119 16 -208 69q-95 57 -160 147
q-66 92 -102 216t-36 278z" />
    <glyph glyph-name="Egrave" unicode="&#xc8;" horiz-adv-x="1204" 
d="M190 0v1393h906v-121h-774v-486h647v-120h-647v-545h774v-121h-906zM434 1839h135l144 -280h-119z" />
    <glyph glyph-name="Eacute" unicode="&#xc9;" horiz-adv-x="1204" 
d="M190 0v1393h906v-121h-774v-486h647v-120h-647v-545h774v-121h-906zM567 1559l144 280h135l-160 -280h-119z" />
    <glyph glyph-name="Ecircumflex" unicode="&#xca;" horiz-adv-x="1204" 
d="M190 0v1393h906v-121h-774v-486h647v-120h-647v-545h774v-121h-906zM389 1559l189 280h135l186 -280h-113l-143 202l-141 -202h-113z" />
    <glyph glyph-name="Edieresis" unicode="&#xcb;" horiz-adv-x="1204" 
d="M190 0v1393h906v-121h-774v-486h647v-120h-647v-545h774v-121h-906zM344 1696q0 46 24 66q25 20 60 20q33 0 58 -20q24 -20 24 -66t-24 -65q-23 -19 -58 -19q-37 0 -60 19q-24 19 -24 65zM780 1696q0 46 24 66q25 20 62 20q35 0 58 -20q22 -19 22 -66q0 -46 -22 -65
t-58 -19q-39 0 -62 19q-24 19 -24 65z" />
    <glyph glyph-name="Igrave" unicode="&#xcc;" horiz-adv-x="516" 
d="M53 1839h135l144 -280h-119zM190 0v1393h136v-1393h-136z" />
    <glyph glyph-name="Iacute" unicode="&#xcd;" horiz-adv-x="516" 
d="M190 0v1393h136v-1393h-136zM197 1559l143 280h135l-160 -280h-118z" />
    <glyph glyph-name="Icircumflex" unicode="&#xce;" horiz-adv-x="516" 
d="M2 1559l188 280h136l186 -280h-113l-143 202l-141 -202h-113zM190 0v1393h136v-1393h-136z" />
    <glyph glyph-name="Idieresis" unicode="&#xcf;" horiz-adv-x="516" 
d="M-47 1696q0 47 23 66q25 20 61 20q33 0 58 -20q24 -20 24 -66t-24 -65q-23 -19 -58 -19q-38 0 -61 19t-23 65zM190 0v1393h136v-1393h-136zM389 1696q0 46 24 66q25 20 62 20q34 0 57 -20t23 -66q0 -45 -23 -65q-22 -19 -57 -19q-39 0 -62 19q-24 19 -24 65z" />
    <glyph glyph-name="Eth" unicode="&#xd0;" horiz-adv-x="1388" 
d="M90 659v80h111v654h461q132 0 243 -46q113 -47 195 -135q81 -87 128 -218q46 -129 46 -300q0 -169 -46 -298q-47 -131 -128 -218q-82 -88 -195 -133t-243 -45h-461v659h-111zM334 121h313q110 0 199 37t155 109t102 180t36 247q0 141 -36 249q-36 107 -102 181
q-67 74 -155 111q-89 37 -199 37h-313v-533h299v-80h-299v-538z" />
    <glyph glyph-name="Ntilde" unicode="&#xd1;" horiz-adv-x="1456" 
d="M190 0v1393h119l821 -1172v1172h136v-1393h-121l-821 1167v-1167h-134zM444 1665q23 53 68 97q46 44 102 44q43 0 76 -21q35 -22 62 -48q26 -25 56 -48q28 -22 58 -22q44 0 75 31q29 29 46 71l49 -59q-28 -59 -68 -99q-42 -42 -102 -42q-40 0 -73 21t-63 48
q-38 34 -57 49q-27 21 -59 21q-44 0 -73 -31q-27 -28 -49 -71z" />
    <glyph glyph-name="Ograve" unicode="&#xd2;" 
d="M113 694q0 162 45 294q45 131 126 226q81 94 192 147q110 52 245 52q137 0 247 -52q111 -53 192 -147q81 -95 126 -226q45 -132 45 -294q0 -160 -45 -292t-126 -225q-80 -92 -192 -145q-110 -52 -247 -52q-135 0 -245 52q-112 53 -192 145q-81 93 -126 225t-45 292z
M246 694q0 -140 36 -248q37 -110 98 -183q63 -75 149 -115q84 -39 192 -39q107 0 191 39q89 42 151 115q63 75 99 183t36 248t-36 249q-35 108 -99 185q-61 74 -151 116q-86 40 -191 40q-106 0 -192 -40q-87 -40 -149 -116q-62 -75 -98 -185q-36 -109 -36 -249zM508 1839
h135l143 -280h-118z" />
    <glyph glyph-name="Oacute" unicode="&#xd3;" 
d="M113 694q0 162 45 294q45 131 126 226q81 94 192 147q110 52 245 52q137 0 247 -52q111 -53 192 -147q81 -95 126 -226q45 -132 45 -294q0 -160 -45 -292t-126 -225q-80 -92 -192 -145q-110 -52 -247 -52q-135 0 -245 52q-112 53 -192 145q-81 93 -126 225t-45 292z
M246 694q0 -140 36 -248q37 -110 98 -183q63 -75 149 -115q84 -39 192 -39q107 0 191 39q89 42 151 115q63 75 99 183t36 248t-36 249q-35 108 -99 185q-61 74 -151 116q-86 40 -191 40q-106 0 -192 -40q-87 -40 -149 -116q-62 -75 -98 -185q-36 -109 -36 -249zM657 1559
l144 280h135l-160 -280h-119z" />
    <glyph glyph-name="Ocircumflex" unicode="&#xd4;" 
d="M113 694q0 162 45 294q45 131 126 226q81 94 192 147q110 52 245 52q137 0 247 -52q111 -53 192 -147q81 -95 126 -226q45 -132 45 -294q0 -160 -45 -292t-126 -225q-80 -92 -192 -145q-110 -52 -247 -52q-135 0 -245 52q-112 53 -192 145q-81 93 -126 225t-45 292z
M246 694q0 -140 36 -248q37 -110 98 -183q63 -75 149 -115q84 -39 192 -39q107 0 191 39q89 42 151 115q63 75 99 183t36 248t-36 249q-35 108 -99 185q-61 74 -151 116q-86 40 -191 40q-106 0 -192 -40q-87 -40 -149 -116q-62 -75 -98 -185q-36 -109 -36 -249zM465 1559
l188 280h135l187 -280h-113l-143 202l-141 -202h-113z" />
    <glyph glyph-name="Otilde" unicode="&#xd5;" 
d="M113 694q0 162 45 294q45 131 126 226q81 94 192 147q110 52 245 52q137 0 247 -52q111 -53 192 -147q81 -95 126 -226q45 -132 45 -294q0 -160 -45 -292t-126 -225q-80 -92 -192 -145q-110 -52 -247 -52q-135 0 -245 52q-112 53 -192 145q-81 93 -126 225t-45 292z
M246 694q0 -140 36 -248q37 -110 98 -183q63 -75 149 -115q84 -39 192 -39q107 0 191 39q89 42 151 115q63 75 99 183t36 248t-36 249q-35 108 -99 185q-61 74 -151 116q-86 40 -191 40q-106 0 -192 -40q-87 -40 -149 -116q-62 -75 -98 -185q-36 -109 -36 -249zM426 1665
q23 53 68 97q46 44 102 44q43 0 76 -21q31 -20 61 -48q22 -20 57 -48q28 -22 58 -22q44 0 75 31q29 29 46 71l49 -59q-27 -57 -69 -99t-101 -42q-41 0 -74 21q-30 19 -62 48t-58 49q-27 21 -58 21q-45 0 -74 -31q-27 -28 -49 -71z" />
    <glyph glyph-name="Odieresis" unicode="&#xd6;" 
d="M113 694q0 162 45 294q45 131 126 226q81 94 192 147q110 52 245 52q137 0 247 -52q111 -53 192 -147q81 -95 126 -226q45 -132 45 -294q0 -160 -45 -292t-126 -225q-80 -92 -192 -145q-110 -52 -247 -52q-135 0 -245 52q-112 53 -192 145q-81 93 -126 225t-45 292z
M246 694q0 -140 36 -248q37 -110 98 -183q63 -75 149 -115q84 -39 192 -39q107 0 191 39q89 42 151 115q63 75 99 183t36 248t-36 249q-35 108 -99 185q-61 74 -151 116q-86 40 -191 40q-106 0 -192 -40q-87 -40 -149 -116q-62 -75 -98 -185q-36 -109 -36 -249zM422 1696
q0 47 23 66q25 20 61 20q33 0 58 -20q24 -20 24 -66t-24 -65q-23 -19 -58 -19q-38 0 -61 19t-23 65zM858 1696q0 46 24 66q25 20 62 20q34 0 57 -20t23 -66q0 -45 -23 -65q-22 -19 -57 -19q-39 0 -62 19q-24 19 -24 65z" />
    <glyph glyph-name="multiply" unicode="&#xd7;" horiz-adv-x="927" 
d="M143 330l246 288l-246 291l78 78l244 -291l244 291l77 -78l-245 -291l245 -288l-77 -80l-244 291l-244 -291z" />
    <glyph glyph-name="Oslash" unicode="&#xd8;" 
d="M113 694q0 162 45 294q45 131 126 226q81 94 192 147q110 52 245 52q102 0 195 -32t165 -91l72 103h100v-13l-104 -151q86 -97 134 -233t48 -302q0 -160 -45 -292t-126 -225q-80 -92 -192 -145q-110 -52 -247 -52q-105 0 -191 29q-88 30 -161 85l-64 -94h-104v12l100 146
q-90 94 -139 230q-49 135 -49 306zM246 694q0 -134 35 -244q34 -107 96 -184l631 918q-118 100 -287 100q-106 0 -192 -40q-87 -40 -149 -116q-62 -75 -98 -185q-36 -109 -36 -249zM442 201q122 -92 279 -92q107 0 191 39q89 42 151 115q63 75 99 183t36 248q0 138 -34 241
q-35 107 -93 181z" />
    <glyph glyph-name="Ugrave" unicode="&#xd9;" horiz-adv-x="1374" 
d="M176 555v838h135v-832q0 -100 22 -188q22 -86 67 -145q46 -60 117 -93t169 -33q97 0 169 35q71 35 117 97q45 61 68 147t23 182v830h135v-838q0 -115 -31 -224q-30 -104 -94 -185q-60 -75 -160 -124q-97 -47 -227 -47q-131 0 -227 42q-95 42 -159 119q-63 76 -93 183
q-31 110 -31 236zM475 1839h135l144 -280h-119z" />
    <glyph glyph-name="Uacute" unicode="&#xda;" horiz-adv-x="1374" 
d="M176 555v838h135v-832q0 -100 22 -188q22 -86 67 -145q46 -60 117 -93t169 -33q97 0 169 35q71 35 117 97q45 61 68 147t23 182v830h135v-838q0 -115 -31 -224q-30 -104 -94 -185q-60 -75 -160 -124q-97 -47 -227 -47q-131 0 -227 42q-95 42 -159 119q-63 76 -93 183
q-31 110 -31 236zM621 1559l143 280h135l-160 -280h-118z" />
    <glyph glyph-name="Ucircumflex" unicode="&#xdb;" horiz-adv-x="1374" 
d="M176 555v838h135v-832q0 -100 22 -188q22 -86 67 -145q46 -60 117 -93t169 -33q97 0 169 35q71 35 117 97q45 61 68 147t23 182v830h135v-838q0 -115 -31 -224q-30 -104 -94 -185q-60 -75 -160 -124q-97 -47 -227 -47q-131 0 -227 42q-95 42 -159 119q-63 76 -93 183
q-31 110 -31 236zM430 1559l188 280h136l186 -280h-113l-143 202l-141 -202h-113z" />
    <glyph glyph-name="Udieresis" unicode="&#xdc;" horiz-adv-x="1374" 
d="M176 555v838h135v-832q0 -100 22 -188q22 -86 67 -145q46 -60 117 -93t169 -33q97 0 169 35q71 35 117 97q45 61 68 147t23 182v830h135v-838q0 -115 -31 -224q-30 -104 -94 -185q-60 -75 -160 -124q-97 -47 -227 -47q-131 0 -227 42q-95 42 -159 119q-63 76 -93 183
q-31 110 -31 236zM387 1696q0 46 24 66q25 20 60 20q33 0 58 -20q24 -20 24 -66t-24 -65q-23 -19 -58 -19q-37 0 -60 19q-24 19 -24 65zM823 1696q0 46 24 66q25 20 62 20q35 0 58 -20q22 -19 22 -66q0 -46 -22 -65t-58 -19q-39 0 -62 19q-24 19 -24 65z" />
    <glyph glyph-name="Yacute" unicode="&#xdd;" horiz-adv-x="1214" 
d="M49 1380v13h150l409 -680l410 680h147v-13l-491 -788v-592h-133v590zM543 1559l143 280h135l-159 -280h-119z" />
    <glyph glyph-name="Thorn" unicode="&#xde;" horiz-adv-x="1202" 
d="M190 0v1393h134v-226h374q84 0 160 -24q73 -23 134 -79q58 -54 93 -141q35 -88 35 -212q0 -112 -35 -197q-34 -82 -93 -140t-134 -84q-79 -28 -160 -28h-374v-262h-134zM324 383h350q64 0 120 19q53 18 99 61q44 41 68 102t24 148q0 91 -24 156t-68 104q-43 38 -99 56
q-57 18 -120 18h-350v-664z" />
    <glyph glyph-name="germandbls" unicode="&#xdf;" horiz-adv-x="1177" 
d="M172 0v940q0 134 33 234t90 166q58 67 135 101t168 34q85 0 157 -32q67 -30 119 -85q51 -56 77 -122q28 -72 28 -144q0 -73 -26 -133q-24 -55 -56 -103q-31 -47 -56 -76q-26 -31 -26 -51q0 -18 41 -50q39 -30 89 -82q47 -49 89 -120q41 -70 41 -162q0 -78 -25 -140
q-24 -60 -71 -105q-44 -43 -108 -67q-60 -23 -136 -23q-93 0 -160 21q-64 20 -104 44l23 113q33 -22 85 -42q51 -20 115 -20q98 0 169 63t71 173q0 79 -40 135q-42 60 -89 102q-73 66 -89 80q-40 34 -40 70q0 32 26 65q35 45 58 78q32 46 57 95q27 53 27 118q0 64 -21 115
t-55 88q-33 36 -81 56t-99 20q-134 0 -210 -112q-75 -111 -75 -302v-940h-131z" />
    <glyph glyph-name="agrave" unicode="&#xe0;" horiz-adv-x="1054" 
d="M92 305q0 97 38 170q37 72 103 118q65 46 154 67q93 22 191 22q50 0 95 -7q49 -8 89 -18v52q0 135 -68 198q-69 64 -190 64q-77 0 -154 -18t-139 -52l-27 113q70 34 165 55q93 21 173 21q179 0 275 -99t96 -286v-705h-131v115q-52 -52 -130 -93q-80 -42 -196 -42
q-161 0 -252 88q-92 89 -92 237zM227 317q0 -107 68 -167q67 -60 178 -60q104 0 175 43q75 45 114 90v334q-23 9 -79 17q-53 8 -97 8q-70 0 -140 -16q-62 -14 -114 -47q-49 -31 -77 -82t-28 -120zM344 1518h135l144 -281h-119z" />
    <glyph glyph-name="aacute" unicode="&#xe1;" horiz-adv-x="1054" 
d="M92 305q0 97 38 170q37 72 103 118q65 46 154 67q93 22 191 22q50 0 95 -7q49 -8 89 -18v52q0 135 -68 198q-69 64 -190 64q-77 0 -154 -18t-139 -52l-27 113q70 34 165 55q93 21 173 21q179 0 275 -99t96 -286v-705h-131v115q-52 -52 -130 -93q-80 -42 -196 -42
q-161 0 -252 88q-92 89 -92 237zM227 317q0 -107 68 -167q67 -60 178 -60q104 0 175 43q75 45 114 90v334q-23 9 -79 17q-53 8 -97 8q-70 0 -140 -16q-62 -14 -114 -47q-49 -31 -77 -82t-28 -120zM469 1237l143 281h136l-160 -281h-119z" />
    <glyph glyph-name="acircumflex" unicode="&#xe2;" horiz-adv-x="1054" 
d="M92 305q0 97 38 170q37 72 103 118q65 46 154 67q93 22 191 22q50 0 95 -7q49 -8 89 -18v52q0 135 -68 198q-69 64 -190 64q-77 0 -154 -18t-139 -52l-27 113q70 34 165 55q93 21 173 21q179 0 275 -99t96 -286v-705h-131v115q-52 -52 -130 -93q-80 -42 -196 -42
q-161 0 -252 88q-92 89 -92 237zM227 317q0 -107 68 -167q67 -60 178 -60q104 0 175 43q75 45 114 90v334q-23 9 -79 17q-53 8 -97 8q-70 0 -140 -16q-62 -14 -114 -47q-49 -31 -77 -82t-28 -120zM297 1237l188 281h136l186 -281h-113l-143 203l-141 -203h-113z" />
    <glyph glyph-name="atilde" unicode="&#xe3;" horiz-adv-x="1054" 
d="M92 305q0 97 38 170q37 72 103 118q65 46 154 67q93 22 191 22q50 0 95 -7q49 -8 89 -18v52q0 135 -68 198q-69 64 -190 64q-77 0 -154 -18t-139 -52l-27 113q70 34 165 55q93 21 173 21q179 0 275 -99t96 -286v-705h-131v115q-52 -52 -130 -93q-80 -42 -196 -42
q-161 0 -252 88q-92 89 -92 237zM227 317q0 -107 68 -167q67 -60 178 -60q104 0 175 43q75 45 114 90v334q-23 9 -79 17q-53 8 -97 8q-70 0 -140 -16q-62 -14 -114 -47q-49 -31 -77 -82t-28 -120zM252 1343q24 57 67 98q46 44 103 44q41 0 76 -22q31 -20 61 -48
q26 -25 56 -48q27 -21 59 -21q45 0 75 30q28 28 46 72l49 -59q-28 -59 -69 -100q-42 -42 -101 -42q-39 0 -74 22q-30 19 -62 48q-24 21 -58 48q-27 21 -58 21q-46 0 -74 -30q-26 -27 -49 -72z" />
    <glyph glyph-name="adieresis" unicode="&#xe4;" horiz-adv-x="1054" 
d="M92 305q0 97 38 170q37 72 103 118q65 46 154 67q93 22 191 22q50 0 95 -7q49 -8 89 -18v52q0 135 -68 198q-69 64 -190 64q-77 0 -154 -18t-139 -52l-27 113q70 34 165 55q93 21 173 21q179 0 275 -99t96 -286v-705h-131v115q-52 -52 -130 -93q-80 -42 -196 -42
q-161 0 -252 88q-92 89 -92 237zM227 317q0 -107 68 -167q67 -60 178 -60q104 0 175 43q75 45 114 90v334q-23 9 -79 17q-53 8 -97 8q-70 0 -140 -16q-62 -14 -114 -47q-49 -31 -77 -82t-28 -120zM244 1374q0 48 23 67t61 19q35 0 58 -19q24 -19 24 -67q0 -44 -24 -64
q-25 -20 -58 -20q-36 0 -61 20q-23 19 -23 64zM680 1374q0 48 23 67t63 19q35 0 57 -19q23 -20 23 -67q0 -44 -23 -64t-57 -20q-38 0 -63 20q-23 19 -23 64z" />
    <glyph glyph-name="aring" unicode="&#xe5;" horiz-adv-x="1054" 
d="M92 305q0 97 38 170q37 72 103 118q65 46 154 67q93 22 191 22q50 0 95 -7q49 -8 89 -18v52q0 135 -68 198q-69 64 -190 64q-77 0 -154 -18t-139 -52l-27 113q70 34 165 55q93 21 173 21q179 0 275 -99t96 -286v-705h-131v115q-52 -52 -130 -93q-80 -42 -196 -42
q-161 0 -252 88q-92 89 -92 237zM227 317q0 -107 68 -167q67 -60 178 -60q104 0 175 43q75 45 114 90v334q-23 9 -79 17q-53 8 -97 8q-70 0 -140 -16q-62 -14 -114 -47q-49 -31 -77 -82t-28 -120zM334 1372q0 84 58 142q59 59 143 59q83 0 142 -59q58 -58 58 -142t-58 -142
q-59 -59 -142 -59q-84 0 -143 59q-58 58 -58 142zM403 1372q0 -53 39 -92t93 -39q53 0 92 39t39 92t-39 92t-92 39q-54 0 -93 -39t-39 -92z" />
    <glyph glyph-name="ae" unicode="&#xe6;" horiz-adv-x="1695" 
d="M92 309q0 91 35 161q35 69 98 116q62 45 152 70t194 26q56 0 102 -7q51 -8 89 -18q2 80 -9 131q-12 59 -42 99q-30 41 -82 62q-53 22 -129 22q-75 0 -153 -20q-77 -19 -138 -48l-25 113q74 34 168 54q97 20 176 20q75 0 135 -19q56 -18 94 -51t60 -79q23 -48 35 -99
q16 40 47 88q29 46 72 83q46 39 101 62q61 25 134 25q103 0 176 -35q72 -35 116 -95q44 -61 65 -140q20 -76 20 -166q0 -60 -6 -102q-5 -37 -14 -70h-678q1 -90 20 -169q18 -77 58 -132q38 -53 98 -83t141 -30q103 0 176 40q75 41 131 93l54 -90q-73 -66 -163 -108
q-92 -42 -206 -42q-73 0 -131 20q-57 19 -102 51q-44 31 -75 74q-30 42 -48 87q-24 -35 -65 -79q-37 -40 -87 -72t-108 -52q-57 -20 -132 -20q-160 0 -257 85t-97 244zM227 315q0 -108 71 -167q70 -58 175 -58q53 0 99 15q43 14 83 41q34 23 64 58q25 29 43 62v289
q-36 9 -75 17q-52 10 -95 10q-75 0 -145 -16q-64 -15 -115 -47q-49 -31 -77 -82t-28 -122zM895 592h567q4 18 6 40q2 28 2 44q0 67 -14 122q-15 60 -46 102q-32 44 -82 70q-49 25 -122 25q-80 0 -138 -36q-59 -36 -96 -94q-39 -62 -58 -130q-19 -70 -19 -143z" />
    <glyph glyph-name="ccedilla" unicode="&#xe7;" horiz-adv-x="1040" 
d="M115 537q0 126 35 233q34 103 98 178t151 113q89 39 197 39q117 0 199 -43q80 -42 147 -115l-65 -100q-51 60 -119 97q-66 36 -162 36q-158 0 -253 -117q-95 -118 -95 -321q0 -103 24 -185q23 -79 71 -138q47 -57 111 -87q67 -31 144 -31q94 0 160 36q68 37 119 97
l65 -100q-67 -73 -147 -115q-82 -43 -199 -43q-17 0 -31 2l-22 -110q11 5 26 6q22 2 29 2q70 0 109 -36q38 -35 38 -93q0 -73 -52 -110q-53 -38 -126 -38q-63 0 -129 25l17 59q21 -9 52 -16q27 -6 56 -6q50 0 79 20q30 21 30 64q0 72 -97 72q-23 0 -56 -5q-28 -4 -50 -12
l-4 8l39 177q-179 30 -284 177t-105 380z" />
    <glyph glyph-name="egrave" unicode="&#xe8;" horiz-adv-x="1101" 
d="M113 532q0 126 32 228t95 179q61 75 149 118q87 43 199 43q102 0 180 -35q74 -33 125 -95q48 -58 73 -141q23 -76 23 -170q0 -43 -5 -91q-4 -44 -15 -81h-727q1 -87 24 -161q22 -73 68 -126q45 -52 113 -82q69 -30 165 -30q99 0 174 37t136 90l55 -104q-71 -65 -166 -103
q-93 -37 -215 -37q-126 0 -218 42q-91 42 -151 117t-87 178t-27 224zM248 596h612q4 18 6 38q2 26 2 42q0 66 -17 120q-18 57 -52 97q-35 41 -88 65q-55 25 -123 25q-77 0 -141 -29q-60 -27 -105 -80t-68 -122q-25 -74 -26 -156zM406 1518h135l143 -281h-119z" />
    <glyph glyph-name="eacute" unicode="&#xe9;" horiz-adv-x="1101" 
d="M113 532q0 126 32 228t95 179q61 75 149 118q87 43 199 43q102 0 180 -35q74 -33 125 -95q48 -58 73 -141q23 -76 23 -170q0 -43 -5 -91q-4 -44 -15 -81h-727q1 -87 24 -161q22 -73 68 -126q45 -52 113 -82q69 -30 165 -30q99 0 174 37t136 90l55 -104q-71 -65 -166 -103
q-93 -37 -215 -37q-126 0 -218 42q-91 42 -151 117t-87 178t-27 224zM248 596h612q4 18 6 38q2 26 2 42q0 66 -17 120q-18 57 -52 97q-35 41 -88 65q-55 25 -123 25q-77 0 -141 -29q-60 -27 -105 -80t-68 -122q-25 -74 -26 -156zM516 1237l143 281h136l-160 -281h-119z" />
    <glyph glyph-name="ecircumflex" unicode="&#xea;" horiz-adv-x="1101" 
d="M113 532q0 126 32 228t95 179q61 75 149 118q87 43 199 43q102 0 180 -35q74 -33 125 -95q48 -58 73 -141q23 -76 23 -170q0 -43 -5 -91q-4 -44 -15 -81h-727q1 -87 24 -161q22 -73 68 -126q45 -52 113 -82q69 -30 165 -30q99 0 174 37t136 90l55 -104q-71 -65 -166 -103
q-93 -37 -215 -37q-126 0 -218 42q-91 42 -151 117t-87 178t-27 224zM248 596h612q4 18 6 38q2 26 2 42q0 66 -17 120q-18 57 -52 97q-35 41 -88 65q-55 25 -123 25q-77 0 -141 -29q-60 -27 -105 -80t-68 -122q-25 -74 -26 -156zM342 1237l188 281h136l186 -281h-113
l-143 203l-141 -203h-113z" />
    <glyph glyph-name="edieresis" unicode="&#xeb;" horiz-adv-x="1101" 
d="M113 532q0 126 32 228t95 179q61 75 149 118q87 43 199 43q102 0 180 -35q74 -33 125 -95q48 -58 73 -141q23 -76 23 -170q0 -43 -5 -91q-4 -44 -15 -81h-727q1 -87 24 -161q22 -73 68 -126q45 -52 113 -82q69 -30 165 -30q99 0 174 37t136 90l55 -104q-71 -65 -166 -103
q-93 -37 -215 -37q-126 0 -218 42q-91 42 -151 117t-87 178t-27 224zM248 596h612q4 18 6 38q2 26 2 42q0 66 -17 120q-18 57 -52 97q-35 41 -88 65q-55 25 -123 25q-77 0 -141 -29q-60 -27 -105 -80t-68 -122q-25 -74 -26 -156zM295 1374q0 48 23 67t61 19q35 0 58 -19
q24 -19 24 -67q0 -44 -24 -64q-25 -20 -58 -20q-36 0 -61 20q-23 19 -23 64zM731 1374q0 48 24 67q23 19 62 19q35 0 57 -19q23 -20 23 -67q0 -44 -23 -64t-57 -20q-37 0 -62 20q-24 20 -24 64z" />
    <glyph glyph-name="igrave" unicode="&#xec;" horiz-adv-x="475" 
d="M39 1518h135l143 -281h-118zM172 0v1071h131v-1071h-131z" />
    <glyph glyph-name="iacute" unicode="&#xed;" horiz-adv-x="475" 
d="M172 0v1071h131v-1071h-131zM174 1237l143 281h136l-160 -281h-119z" />
    <glyph glyph-name="icircumflex" unicode="&#xee;" horiz-adv-x="475" 
d="M-18 1237l188 281h135l187 -281h-113l-143 203l-142 -203h-112zM172 0v1071h131v-1071h-131z" />
    <glyph glyph-name="idieresis" unicode="&#xef;" horiz-adv-x="475" 
d="M-63 1374q0 48 23 67t60 19q36 0 59 -19t23 -67q0 -45 -23 -64q-25 -20 -59 -20q-35 0 -60 20q-23 19 -23 64zM172 0v1071h131v-1071h-131zM373 1374q0 48 23 67t63 19q35 0 57 -19q23 -20 23 -67q0 -44 -23 -64t-57 -20q-38 0 -63 20q-23 19 -23 64z" />
    <glyph glyph-name="eth" unicode="&#xf0;" horiz-adv-x="1120" 
d="M121 469q0 213 99 337t276 124q68 0 128 -26t103 -62q47 -39 78 -80q33 -44 55 -80v16q0 170 -52 299q-54 135 -130 224l-115 -140l-43 43l117 140q-48 44 -89 71q-50 33 -93 49l53 91q51 -16 105 -47q57 -33 100 -70l106 127l45 -41l-106 -129q105 -108 169 -260
q66 -156 66 -357q0 -168 -31 -299t-92 -226t-147 -143q-89 -50 -201 -50q-89 0 -160 35q-74 36 -128 101q-53 63 -83 154q-30 90 -30 199zM252 467q0 -81 20 -144q22 -69 58 -115q39 -50 87 -76q51 -28 109 -28q139 0 222 119q81 117 104 328q-15 30 -45 79q-27 44 -70 87
q-39 39 -94 69q-53 29 -117 29q-120 0 -197 -87q-77 -88 -77 -261z" />
    <glyph glyph-name="ntilde" unicode="&#xf1;" horiz-adv-x="1179" 
d="M172 0v1071h131v-180q52 93 141 145q93 54 213 54q182 0 271 -110q88 -109 88 -310v-670h-131v647q0 154 -66 236t-205 82q-122 0 -201 -75q-81 -76 -110 -179v-711h-131zM315 1343q24 55 68 98q46 44 102 44q41 0 76 -22t62 -48q26 -25 56 -48q27 -21 58 -21q45 0 75 30
q28 28 46 72l49 -59q-29 -61 -68 -100q-42 -42 -102 -42q-38 0 -73 22q-33 21 -63 48t-57 48t-59 21q-45 0 -73 -30q-28 -29 -50 -72z" />
    <glyph glyph-name="ograve" unicode="&#xf2;" horiz-adv-x="1191" 
d="M113 532q0 134 34 237t99 179q64 75 151 113q89 39 197 39q109 0 199 -39q88 -38 154 -113t100 -179q34 -103 34 -237q0 -130 -34 -233t-100 -177t-154 -112q-90 -39 -199 -39q-108 0 -197 39q-86 38 -151 112q-65 75 -99 177q-34 103 -34 233zM242 532q0 -104 25 -183
t72 -137q45 -56 112 -86q66 -30 143 -30q159 0 257 116q97 115 97 320q0 106 -25 187q-25 80 -72 138q-47 57 -112 87q-68 31 -145 31q-158 0 -255 -117q-97 -116 -97 -326zM383 1518h135l144 -281h-119z" />
    <glyph glyph-name="oacute" unicode="&#xf3;" horiz-adv-x="1191" 
d="M113 532q0 134 34 237t99 179q64 75 151 113q89 39 197 39q109 0 199 -39q88 -38 154 -113t100 -179q34 -103 34 -237q0 -130 -34 -233t-100 -177t-154 -112q-90 -39 -199 -39q-108 0 -197 39q-86 38 -151 112q-65 75 -99 177q-34 103 -34 233zM242 532q0 -104 25 -183
t72 -137q45 -56 112 -86q66 -30 143 -30q159 0 257 116q97 115 97 320q0 106 -25 187q-25 80 -72 138q-47 57 -112 87q-68 31 -145 31q-158 0 -255 -117q-97 -116 -97 -326zM532 1237l144 281h135l-160 -281h-119z" />
    <glyph glyph-name="ocircumflex" unicode="&#xf4;" horiz-adv-x="1191" 
d="M113 532q0 134 34 237t99 179q64 75 151 113q89 39 197 39q109 0 199 -39q88 -38 154 -113t100 -179q34 -103 34 -237q0 -130 -34 -233t-100 -177t-154 -112q-90 -39 -199 -39q-108 0 -197 39q-86 38 -151 112q-65 75 -99 177q-34 103 -34 233zM242 532q0 -104 25 -183
t72 -137q45 -56 112 -86q66 -30 143 -30q159 0 257 116q97 115 97 320q0 106 -25 187q-25 80 -72 138q-47 57 -112 87q-68 31 -145 31q-158 0 -255 -117q-97 -116 -97 -326zM342 1237l188 281h136l186 -281h-113l-143 203l-141 -203h-113z" />
    <glyph glyph-name="otilde" unicode="&#xf5;" horiz-adv-x="1191" 
d="M113 532q0 134 34 237t99 179q64 75 151 113q89 39 197 39q109 0 199 -39q88 -38 154 -113t100 -179q34 -103 34 -237q0 -130 -34 -233t-100 -177t-154 -112q-90 -39 -199 -39q-108 0 -197 39q-86 38 -151 112q-65 75 -99 177q-34 103 -34 233zM242 532q0 -104 25 -183
t72 -137q45 -56 112 -86q66 -30 143 -30q159 0 257 116q97 115 97 320q0 106 -25 187q-25 80 -72 138q-47 57 -112 87q-68 31 -145 31q-158 0 -255 -117q-97 -116 -97 -326zM299 1343q24 55 68 98q46 44 102 44q41 0 76 -22q31 -20 61 -48q22 -20 57 -48q27 -21 58 -21
q45 0 75 30q28 28 46 72l49 -59q-28 -59 -69 -100q-42 -42 -101 -42q-39 0 -74 22q-30 19 -62 48q-24 21 -58 48q-27 21 -58 21q-45 0 -74 -30q-26 -27 -49 -72z" />
    <glyph glyph-name="odieresis" unicode="&#xf6;" horiz-adv-x="1191" 
d="M113 532q0 134 34 237t99 179q64 75 151 113q89 39 197 39q109 0 199 -39q88 -38 154 -113t100 -179q34 -103 34 -237q0 -130 -34 -233t-100 -177t-154 -112q-90 -39 -199 -39q-108 0 -197 39q-86 38 -151 112q-65 75 -99 177q-34 103 -34 233zM242 532q0 -104 25 -183
t72 -137q45 -56 112 -86q66 -30 143 -30q159 0 257 116q97 115 97 320q0 106 -25 187q-25 80 -72 138q-47 57 -112 87q-68 31 -145 31q-158 0 -255 -117q-97 -116 -97 -326zM295 1374q0 48 23 67t61 19q35 0 58 -19q24 -19 24 -67q0 -44 -24 -64q-25 -20 -58 -20
q-36 0 -61 20q-23 19 -23 64zM731 1374q0 48 24 67q23 19 62 19q35 0 57 -19q23 -20 23 -67q0 -44 -23 -64t-57 -20q-37 0 -62 20q-24 20 -24 64z" />
    <glyph glyph-name="divide" unicode="&#xf7;" horiz-adv-x="1077" 
d="M139 563v111h799v-111h-799zM432 260q0 109 94 109q95 0 95 -109q0 -108 -95 -108q-94 0 -94 108zM432 977q0 108 94 108q95 0 95 -108q0 -109 -95 -109q-94 0 -94 109z" />
    <glyph glyph-name="oslash" unicode="&#xf8;" horiz-adv-x="1191" 
d="M113 532q0 134 34 237t99 179q64 75 151 113q89 39 197 39q178 0 301 -105l51 74h78v-12l-78 -111q67 -75 101 -178t34 -236q0 -130 -34 -233t-100 -177t-154 -112q-90 -39 -199 -39q-78 0 -145 21q-72 22 -123 57l-35 -49h-78v12l57 82q-75 72 -116 185q-41 112 -41 253
zM242 532q0 -106 27 -189q27 -82 77 -140l475 686q-92 86 -227 86q-158 0 -255 -117q-97 -116 -97 -326zM399 156q83 -60 195 -60q159 0 257 116q97 115 97 320q0 92 -21 168q-20 74 -59 131z" />
    <glyph glyph-name="ugrave" unicode="&#xf9;" horiz-adv-x="1177" 
d="M162 401v670h133v-647q0 -155 65 -236q66 -82 203 -82q62 0 113 21q54 22 90 54q42 37 67 80t41 99v711h134v-1071h-134v180q-51 -93 -139 -145q-91 -53 -213 -53q-183 0 -271 109q-89 110 -89 310zM373 1518h135l143 -281h-119z" />
    <glyph glyph-name="uacute" unicode="&#xfa;" horiz-adv-x="1177" 
d="M162 401v670h133v-647q0 -155 65 -236q66 -82 203 -82q62 0 113 21q54 22 90 54q42 37 67 80t41 99v711h134v-1071h-134v180q-51 -93 -139 -145q-91 -53 -213 -53q-183 0 -271 109q-89 110 -89 310zM522 1237l144 281h135l-160 -281h-119z" />
    <glyph glyph-name="ucircumflex" unicode="&#xfb;" horiz-adv-x="1177" 
d="M162 401v670h133v-647q0 -155 65 -236q66 -82 203 -82q62 0 113 21q54 22 90 54q42 37 67 80t41 99v711h134v-1071h-134v180q-51 -93 -139 -145q-91 -53 -213 -53q-183 0 -271 109q-89 110 -89 310zM332 1237l188 281h135l187 -281h-113l-143 203l-142 -203h-112z" />
    <glyph glyph-name="udieresis" unicode="&#xfc;" horiz-adv-x="1177" 
d="M162 401v670h133v-647q0 -155 65 -236q66 -82 203 -82q62 0 113 21q54 22 90 54q42 37 67 80t41 99v711h134v-1071h-134v180q-51 -93 -139 -145q-91 -53 -213 -53q-183 0 -271 109q-89 110 -89 310zM285 1374q0 48 23 67t61 19q35 0 58 -19q24 -19 24 -67q0 -44 -24 -64
q-25 -20 -58 -20q-36 0 -61 20q-23 19 -23 64zM721 1374q0 48 23 67t63 19q35 0 57 -19q23 -20 23 -67q0 -44 -23 -64t-57 -20q-38 0 -63 20q-23 19 -23 64z" />
    <glyph glyph-name="yacute" unicode="&#xfd;" horiz-adv-x="1079" 
d="M45 -344l25 104q29 -19 75 -36q41 -15 101 -15q86 0 132 55q47 56 81 160l28 86l-436 1061h148l350 -924l317 924h135l-423 -1175q-21 -59 -54 -126q-28 -57 -66 -96q-35 -37 -88 -59q-49 -21 -118 -21q-66 0 -120 20q-52 20 -87 42zM473 1237l143 281h136l-160 -281
h-119z" />
    <glyph glyph-name="thorn" unicode="&#xfe;" horiz-adv-x="1165" 
d="M172 -385v1839h131v-506q51 62 128 104q76 42 179 42q97 0 181 -38q80 -36 140 -110q59 -72 90 -175q32 -105 32 -234q0 -130 -32 -235q-31 -104 -90 -174q-59 -71 -140 -108q-79 -36 -181 -36q-98 0 -177 40q-81 41 -130 99v-508h-131zM303 238q41 -55 112 -95
q73 -41 158 -41q161 0 252 117q93 119 93 322q0 201 -93 317q-92 115 -252 115q-85 0 -157 -42t-113 -95v-598z" />
    <glyph glyph-name="ydieresis" unicode="&#xff;" horiz-adv-x="1079" 
d="M45 -344l25 104q29 -19 75 -36q41 -15 101 -15q86 0 132 55q47 56 81 160l28 86l-436 1061h148l350 -924l317 924h135l-423 -1175q-21 -59 -54 -126q-28 -57 -66 -96q-35 -37 -88 -59q-49 -21 -118 -21q-66 0 -120 20q-52 20 -87 42zM244 1374q0 48 23 67t61 19
q35 0 58 -19q24 -19 24 -67q0 -44 -24 -64q-25 -20 -58 -20q-36 0 -61 20q-23 19 -23 64zM680 1374q0 48 23 67t63 19q35 0 57 -19q23 -20 23 -67q0 -44 -23 -64t-57 -20q-38 0 -63 20q-23 19 -23 64z" />
    <glyph glyph-name="OE" unicode="&#x152;" horiz-adv-x="2088" 
d="M113 694q0 155 46 286q47 133 127 228q83 99 191 151q111 54 240 54q207 0 358 -131v111h903v-121h-774v-490h647v-112h-647v-549h774v-121h-903v109q-151 -129 -358 -129q-129 0 -240 54q-109 53 -191 150q-80 95 -127 227q-46 129 -46 283zM240 694q0 -129 35 -234
q36 -107 101 -186q63 -76 153 -122t194 -46q106 0 197 38q88 37 155 116v870q-67 79 -154 116q-90 38 -198 38q-104 0 -194 -44q-89 -44 -153 -123q-66 -81 -101 -187q-35 -105 -35 -236z" />
    <glyph glyph-name="oe" unicode="&#x153;" horiz-adv-x="1978" 
d="M113 532q0 134 34 237t99 179q64 75 151 113q89 39 195 39q163 0 279 -89t163 -247q45 153 156 244q112 92 272 92q102 0 180 -35q75 -34 125 -96q48 -60 73 -143q24 -81 24 -173q0 -45 -6 -89q-4 -30 -13 -72h-733q0 -92 24 -167q25 -78 69 -129q46 -54 116 -84
q69 -30 162 -30q95 0 171 35t144 94l51 -98q-73 -67 -165 -104q-94 -38 -207 -38q-187 0 -296 89q-108 89 -149 237q-47 -154 -164 -240q-118 -86 -276 -86q-106 0 -195 39q-86 38 -151 112t-99 176t-34 234zM240 532q0 -104 25 -183q24 -77 73 -137q45 -55 113 -86
q66 -30 143 -30q79 0 145 30q67 31 114 86q49 59 74 137q25 79 25 183q0 106 -25 187q-24 79 -74 138q-48 57 -114 87q-68 31 -145 31q-157 0 -256 -117q-98 -116 -98 -326zM1118 592h625q5 22 6 41q2 28 2 41q0 62 -18 120q-17 57 -55 102q-36 44 -89 71q-52 26 -125 26
q-82 0 -143 -29q-66 -32 -108 -82q-45 -54 -68 -127q-26 -80 -27 -163z" />
    <glyph glyph-name="Ydieresis" unicode="&#x178;" horiz-adv-x="1214" 
d="M49 1380v13h150l409 -680l410 680h147v-13l-491 -788v-592h-133v590zM307 1696q0 46 24 66q25 20 60 20q34 0 59 -20q23 -19 23 -66q0 -46 -23 -65t-59 -19q-37 0 -60 19q-24 19 -24 65zM743 1696q0 46 24 66q25 20 62 20q35 0 58 -20q22 -19 22 -66q0 -46 -22 -65
t-58 -19q-39 0 -62 19q-24 19 -24 65z" />
    <glyph glyph-name="circumflex" unicode="&#x2c6;" horiz-adv-x="1044" 
d="M266 1237l189 281h135l186 -281h-112l-144 203l-141 -203h-113z" />
    <glyph glyph-name="tilde" unicode="&#x2dc;" horiz-adv-x="1044" 
d="M225 1343q24 55 68 98q46 44 102 44q41 0 76 -22q31 -20 61 -48q22 -20 57 -48q27 -21 58 -21q45 0 75 30q28 28 46 72l49 -59q-29 -61 -68 -100q-42 -42 -102 -42q-39 0 -74 22q-30 19 -62 48q-30 27 -57 48t-59 21q-45 0 -73 -30q-28 -29 -50 -72z" />
    <glyph glyph-name="uni2000" unicode="&#x2000;" horiz-adv-x="919" 
 />
    <glyph glyph-name="uni2001" unicode="&#x2001;" horiz-adv-x="1839" 
 />
    <glyph glyph-name="uni2002" unicode="&#x2002;" horiz-adv-x="919" 
 />
    <glyph glyph-name="uni2003" unicode="&#x2003;" horiz-adv-x="1839" 
 />
    <glyph glyph-name="uni2004" unicode="&#x2004;" horiz-adv-x="613" 
 />
    <glyph glyph-name="uni2005" unicode="&#x2005;" horiz-adv-x="459" 
 />
    <glyph glyph-name="uni2006" unicode="&#x2006;" horiz-adv-x="306" 
 />
    <glyph glyph-name="uni2007" unicode="&#x2007;" horiz-adv-x="306" 
 />
    <glyph glyph-name="uni2008" unicode="&#x2008;" horiz-adv-x="229" 
 />
    <glyph glyph-name="uni2009" unicode="&#x2009;" horiz-adv-x="367" 
 />
    <glyph glyph-name="uni200A" unicode="&#x200a;" horiz-adv-x="102" 
 />
    <glyph glyph-name="uni2010" unicode="&#x2010;" horiz-adv-x="952" 
d="M150 563v113h653v-113h-653z" />
    <glyph glyph-name="uni2011" unicode="&#x2011;" horiz-adv-x="952" 
d="M150 563v113h653v-113h-653z" />
    <glyph glyph-name="figuredash" unicode="&#x2012;" horiz-adv-x="952" 
d="M150 563v113h653v-113h-653z" />
    <glyph glyph-name="endash" unicode="&#x2013;" horiz-adv-x="1114" 
d="M150 563v113h815v-113h-815z" />
    <glyph glyph-name="emdash" unicode="&#x2014;" horiz-adv-x="1519" 
d="M150 563v113h1220v-113h-1220z" />
    <glyph glyph-name="quoteleft" unicode="&#x2018;" horiz-adv-x="462" 
d="M125 985q0 45 12 107q9 46 31 123q17 59 38 116q21 55 36 82l77 -35l-79 -286q47 -6 68 -36q22 -31 22 -71q0 -117 -103 -117q-51 0 -76 34q-26 35 -26 83z" />
    <glyph glyph-name="quoteright" unicode="&#x2019;" horiz-adv-x="458" 
d="M137 1292q0 56 28 87q27 30 75 30q49 0 76 -34q28 -36 28 -83t-13 -106q-11 -52 -32 -124q-15 -53 -40 -117q-21 -54 -36 -81l-78 35l80 289q-43 4 -65 34q-23 31 -23 70z" />
    <glyph glyph-name="quotesinglbase" unicode="&#x201a;" horiz-adv-x="485" 
d="M139 80q0 56 28 87q27 30 75 30q49 0 76 -34q28 -36 28 -83q0 -48 -13 -107q-11 -52 -32 -124q-14 -50 -40 -116q-21 -54 -36 -81l-78 35l80 288q-43 4 -65 34q-23 31 -23 71z" />
    <glyph glyph-name="quotedblleft" unicode="&#x201c;" horiz-adv-x="772" 
d="M125 1004q0 42 12 102q11 57 30 119q18 61 37 110q21 54 34 78l69 -31l-78 -280q43 -4 64 -32q20 -26 20 -66q0 -111 -94 -111q-47 0 -71 32q-23 30 -23 79zM449 1004q0 42 12 102q13 67 29 119q18 61 37 110q21 54 34 78l70 -31l-76 -280q41 -5 62 -32q22 -28 22 -66
q0 -53 -24 -82t-70 -29q-48 0 -72 32q-24 31 -24 79z" />
    <glyph glyph-name="quotedblright" unicode="&#x201d;" horiz-adv-x="765" 
d="M135 1300q0 109 94 109q46 0 71 -31q24 -30 24 -78q0 -37 -13 -102q-13 -67 -28 -120q-17 -60 -36 -111t-32 -76l-72 31l76 280q-41 5 -62 32q-22 28 -22 66zM461 1300q0 109 92 109q47 0 72 -31q24 -30 24 -78q0 -42 -12 -102t-30 -120q-20 -66 -37 -111
q-23 -59 -31 -76l-72 31l78 280q-43 4 -64 32q-20 26 -20 66z" />
    <glyph glyph-name="quotedblbase" unicode="&#x201e;" horiz-adv-x="794" 
d="M141 61q0 111 95 111q46 0 70 -32t24 -79q0 -37 -13 -102q-13 -63 -28 -119q-16 -56 -36 -110q-16 -43 -32 -78l-71 31l75 282q-41 5 -62 32q-22 28 -22 64zM467 61q0 111 92 111q48 0 72 -32t24 -79q0 -42 -12 -102q-11 -57 -30 -119q-22 -74 -36 -110q-21 -54 -34 -78
l-70 31l78 282q-45 5 -65 32q-19 26 -19 64z" />
    <glyph glyph-name="bullet" unicode="&#x2022;" horiz-adv-x="684" 
d="M188 618q0 87 40 133t112 46q75 0 115 -46q41 -47 41 -133q0 -90 -41 -134t-115 -44q-71 0 -112 44q-40 43 -40 134z" />
    <glyph glyph-name="ellipsis" unicode="&#x2026;" horiz-adv-x="1273" 
d="M141 80q0 53 26 82q25 28 71 28t73 -28t27 -82q0 -111 -100 -111q-45 0 -71 28t-26 83zM539 80q0 54 24 82t72 28q47 0 74 -28q26 -27 26 -82q0 -111 -100 -111q-96 0 -96 111zM936 80q0 53 26 82q25 28 72 28q48 0 73 -28q26 -29 26 -82q0 -55 -26 -83t-73 -28
q-46 0 -72 28t-26 83z" />
    <glyph glyph-name="uni202F" unicode="&#x202f;" horiz-adv-x="367" 
 />
    <glyph glyph-name="guilsinglleft" unicode="&#x2039;" horiz-adv-x="567" 
d="M109 604v31l278 405h10l49 -41l-221 -378l221 -381l-49 -41h-10z" />
    <glyph glyph-name="guilsinglright" unicode="&#x203a;" horiz-adv-x="567" 
d="M121 240l221 381l-221 378l49 41h10l279 -405v-31l-279 -405h-10z" />
    <glyph glyph-name="uni205F" unicode="&#x205f;" horiz-adv-x="459" 
 />
    <glyph glyph-name="Euro" unicode="&#x20ac;" horiz-adv-x="1120" 
d="M106 520v90h89q-2 30 -2 44v44v64h-87v92h93q29 278 152 418q124 141 313 141q114 0 195 -34q86 -36 147 -97l-50 -111q-63 66 -134 92q-69 25 -146 25q-135 0 -225 -106q-91 -108 -115 -328h493l-34 -92h-467v-64v-44q0 -14 2 -44h409l-30 -90h-371q28 -203 116 -309
q87 -105 220 -105q94 0 160 27q65 27 118 72l54 -107q-68 -53 -154 -86q-83 -32 -190 -32q-184 0 -306 137q-120 134 -153 403h-97z" />
    <glyph glyph-name="trademark" unicode="&#x2122;" horiz-adv-x="1486" 
d="M139 1274v84h455v-84h-184v-543h-78v543h-193zM733 731v627h74l219 -318l219 318h74v-627h-80v486l-205 -295h-18l-203 295v-486h-80z" />
    <glyph glyph-name="uni25FC" unicode="&#x25fc;" horiz-adv-x="1075" 
d="M0 0v1075h1075v-1075h-1075z" />
    </font>
</defs>
</svg>
