<?xml version="1.0" standalone="no"?>
<!DOCTYPE svg PUBLIC "-//W3C//DTD SVG 1.1//EN" "http://www.w3.org/Graphics/SVG/1.1/DTD/svg11.dtd" >
<svg xmlns="http://www.w3.org/2000/svg" xmlns:xlink="http://www.w3.org/1999/xlink" version="1.1">
<metadata>
Created by FontForge 20161116 at Thu Feb 23 15:13:12 2017
 By Jimmy Wärting
Copyright (c) 2012 by Hannes von Doehren. All rights reserved.
</metadata>
<defs>
<font id="PlutoSansW01-CondMedium" horiz-adv-x="1282" >
  <font-face 
    font-family="PlutoSansW01-CondMedium"
    font-weight="500"
    font-stretch="normal"
    units-per-em="2048"
    panose-1="2 0 0 0 0 0 0 0 0 0"
    ascent="1536"
    descent="-512"
    x-height="1071"
    cap-height="1393"
    bbox="-86 -406 1929 1839"
    underline-thickness="102"
    underline-position="-714"
    unicode-range="U+0002-25FC"
  />
<missing-glyph horiz-adv-x="748" 
d="M68 0v1365h544v-1365h-544zM136 68h408v1229h-408v-1229z" />
    <glyph glyph-name=".notdef" horiz-adv-x="748" 
d="M68 0v1365h544v-1365h-544zM136 68h408v1229h-408v-1229z" />
    <glyph glyph-name="glyph1" horiz-adv-x="0" 
 />
    <glyph glyph-name="uni000D" unicode="&#xd;" horiz-adv-x="419" 
 />
    <glyph glyph-name="glyph3" horiz-adv-x="0" 
 />
    <glyph glyph-name="glyph3" horiz-adv-x="0" 
 />
    <glyph glyph-name="uni0002" horiz-adv-x="0" 
 />
    <glyph glyph-name="uni0009" unicode="&#x9;" horiz-adv-x="419" 
 />
    <glyph glyph-name="uni000A" unicode="&#xa;" horiz-adv-x="0" 
 />
    <glyph glyph-name="space" unicode=" " horiz-adv-x="419" 
 />
    <glyph glyph-name="exclam" unicode="!" horiz-adv-x="534" 
d="M111 137q0 78 40 121t115 43q76 0 118 -43t42 -121q0 -80 -42 -122t-118 -42q-155 0 -155 164zM137 1393h258l-39 -944h-182z" />
    <glyph glyph-name="quotedbl" unicode="&#x22;" horiz-adv-x="835" 
d="M125 1393h203l-15 -516h-178zM510 1393h201l-13 -516h-180z" />
    <glyph glyph-name="numbersign" unicode="#" horiz-adv-x="1230" 
d="M76 315v197h186l78 362h-143v197h186l70 322h188v-19l-66 -303h228l69 322h189v-19l-66 -303h162v-197h-203l-77 -362h159v-197h-200l-68 -315h-188v20l61 295h-225l-68 -315h-190v20l63 295h-145zM457 512h227l78 362h-227z" />
    <glyph glyph-name="dollar" unicode="$" horiz-adv-x="1079" 
d="M80 995q0 75 24 142q23 64 72 121q48 56 118 93q69 37 163 52v172h153v-166q111 -5 208 -34q103 -31 163 -64l-74 -232q-63 41 -139 64q-77 23 -158 28v-364l74 -25q158 -52 239 -139q78 -84 78 -227q0 -84 -27 -156q-26 -69 -78 -129q-49 -56 -123 -95q-73 -38 -163 -50
v-250h-153v248q-113 11 -209 42q-101 33 -150 64l60 244q60 -42 134 -73q80 -33 165 -40v383l-105 33q-136 44 -204 130t-68 228zM338 1012q0 -59 31 -96q29 -35 88 -58v299q-58 -17 -89 -56q-30 -37 -30 -89zM610 233q52 18 87 59q34 40 34 107q0 55 -30 91t-91 63v-320z
" />
    <glyph glyph-name="percent" unicode="%" horiz-adv-x="1593" 
d="M66 1042q0 91 23 157q24 70 67 117q46 51 102 73q60 24 131 24q70 0 130 -24q59 -24 104 -73q43 -47 67 -117q25 -72 25 -157q0 -178 -92 -273t-234 -95q-141 0 -232 94t-91 274zM254 1042q0 -89 38 -133q37 -43 97 -43q61 0 98 43t37 133q0 91 -37 134t-98 43
q-60 0 -97 -43q-38 -44 -38 -134zM383 0v20l606 1373h219v-19l-604 -1374h-221zM877 346q0 179 91 276t232 97q143 0 234 -97q92 -98 92 -276q0 -85 -25 -157q-23 -67 -67 -114t-104 -71t-130 -24q-141 0 -232 94t-91 272zM1065 346q0 -89 38 -132q37 -42 97 -42q62 0 99 42
q38 43 38 132q0 91 -38 135q-37 43 -99 43q-60 0 -97 -43q-38 -44 -38 -135z" />
    <glyph glyph-name="ampersand" unicode="&#x26;" horiz-adv-x="1361" 
d="M104 354q0 131 77 217t190 148q-65 77 -103 151q-37 73 -37 183q0 68 26 135t75 116t123 79t172 30q185 0 289 -95t104 -267q0 -72 -26 -133t-66 -107q-42 -48 -93 -83t-106 -60l-4 -2l213 -230q59 80 104 166q49 95 82 191l191 -136q-38 -101 -92 -197
q-57 -102 -129 -190l219 -235v-37h-301l-94 106q-81 -55 -184 -91q-95 -33 -216 -33q-96 0 -172 27q-75 26 -130 77t-83 118q-29 70 -29 152zM369 389q0 -83 55 -132q56 -50 147 -50q53 0 100 17q52 19 97 48l-256 289q-62 -32 -104 -73q-39 -38 -39 -99zM483 1032
q0 -60 30 -112q32 -57 71 -101l51 25q70 33 101 81q32 49 32 107q0 66 -39 111t-102 45q-66 0 -105 -45t-39 -111z" />
    <glyph glyph-name="quotesingle" unicode="'" horiz-adv-x="450" 
d="M125 1393h203l-15 -516h-178z" />
    <glyph glyph-name="parenleft" unicode="(" horiz-adv-x="575" 
d="M86 537q0 177 29 331q30 157 71 270q42 115 93 201q50 84 88 127l145 -86q-35 -58 -69 -137q-36 -82 -64 -189q-29 -109 -48 -238q-20 -134 -20 -281q0 -146 20 -280q19 -131 48 -237q29 -109 64 -189q36 -83 69 -138l-145 -86q-37 42 -88 126q-49 83 -93 201
q-41 112 -71 272q-29 156 -29 333z" />
    <glyph glyph-name="parenright" unicode=")" horiz-adv-x="575" 
d="M63 -309q33 55 69 138q37 85 65 189q29 106 48 237q19 127 19 280q0 154 -19 281q-19 129 -48 238q-27 101 -65 189q-34 79 -69 137l146 86q38 -43 88 -127q48 -82 92 -201q43 -118 72 -270q28 -149 28 -331q0 -183 -28 -333q-29 -154 -72 -272q-45 -123 -92 -201
q-51 -84 -88 -126z" />
    <glyph glyph-name="asterisk" unicode="*" horiz-adv-x="901" 
d="M84 1040l53 177l228 -84l-17 260h205l-16 -260l227 84l53 -177l-225 -61l139 -207l-151 -96l-129 221l-129 -221l-152 94l135 213z" />
    <glyph glyph-name="plus" unicode="+" horiz-adv-x="1007" 
d="M84 516v207h319v383h201v-383h318v-207h-318v-381h-201v381h-319z" />
    <glyph glyph-name="comma" unicode="," horiz-adv-x="526" 
d="M106 129q0 83 40 126q41 44 114 44q74 0 116 -46q42 -47 42 -124q0 -55 -15 -123q-18 -80 -35 -134t-46 -126q-19 -48 -48 -98l-143 59l76 270q-49 12 -75 53t-26 99z" />
    <glyph glyph-name="hyphen" unicode="-" horiz-adv-x="956" 
d="M127 516v207h702v-207h-702z" />
    <glyph glyph-name="period" unicode="." horiz-adv-x="530" 
d="M106 137q0 77 41 121q40 43 117 43q76 0 118 -43t42 -121q0 -80 -42 -122t-118 -42t-117 42q-41 43 -41 122z" />
    <glyph glyph-name="slash" unicode="/" horiz-adv-x="933" 
d="M53 0v20l606 1373h220v-19l-605 -1374h-221z" />
    <glyph glyph-name="zero" unicode="0" horiz-adv-x="1249" 
d="M104 694q0 162 33 295q33 135 97 228q64 94 162 145t227 51q130 0 229 -51t163 -145q64 -93 97 -228q33 -133 33 -295t-33 -294q-33 -133 -97 -225q-65 -93 -163 -144q-99 -51 -229 -51q-129 0 -227 51t-162 144q-64 92 -97 225q-33 132 -33 294zM352 694q0 -100 16 -193
q15 -87 48 -150q32 -61 84 -96q50 -34 123 -34q74 0 126 34q53 35 85 96q32 60 47 150q14 81 14 193q0 114 -14 197q-15 91 -47 151q-34 64 -85 98q-52 34 -126 34q-73 0 -123 -34q-51 -34 -84 -98q-33 -63 -48 -151q-16 -94 -16 -197z" />
    <glyph glyph-name="one" unicode="1" horiz-adv-x="899" 
d="M25 1075l514 318h190v-1393h-260v1083l-344 -206z" />
    <glyph glyph-name="two" unicode="2" horiz-adv-x="1138" 
d="M92 920q1 106 34 201q32 91 90 156q58 64 144 100t197 36q113 0 200 -35q82 -33 141 -95q57 -60 84 -142q28 -86 28 -176q0 -132 -58 -240q-55 -103 -182 -227l-283 -269h553v-229h-915v197l448 424q95 87 132 157q40 76 40 168q0 102 -49 164q-50 64 -153 64
q-111 0 -163 -84t-54 -215z" />
    <glyph glyph-name="three" unicode="3" horiz-adv-x="1110" 
d="M90 1325q35 16 71 28q35 12 97 28q56 15 113 23q60 9 116 9q236 0 357 -97t121 -284q0 -106 -54 -192q-53 -85 -141 -113q110 -40 174 -121t64 -225q0 -186 -131 -294q-129 -107 -390 -107q-69 0 -126 10q-71 12 -112 23q-48 12 -93 29q-40 15 -64 26l64 219
q27 -14 56 -27q34 -15 75 -27q40 -12 89 -21q48 -9 101 -9q115 0 191 57q75 56 75 160q0 180 -231 180h-276v229h276q96 0 144 50q49 51 49 118q0 99 -68 147q-67 48 -168 48q-51 0 -98 -10q-51 -11 -92 -25q-39 -13 -77 -30q-36 -16 -52 -25z" />
    <glyph glyph-name="four" unicode="4" horiz-adv-x="1236" 
d="M53 270v172l565 951h345v-922h206v-201h-206v-270h-261v270h-649zM313 471h389v659z" />
    <glyph glyph-name="five" unicode="5" horiz-adv-x="1097" 
d="M78 74l63 217q56 -30 127 -57q81 -31 193 -31q59 0 105 14q53 16 88 44q40 32 61 76q22 45 22 112q0 111 -72 158q-71 46 -190 46h-321l-13 13l56 727h766v-230h-549l-21 -315h115q113 0 207 -23q93 -23 155 -70q63 -48 98 -122q33 -70 33 -178q0 -124 -37 -213
q-38 -90 -107 -149q-70 -59 -163 -86q-94 -27 -207 -27q-77 0 -138 10q-69 11 -117 25q-36 10 -92 31q-31 12 -62 28z" />
    <glyph glyph-name="six" unicode="6" horiz-adv-x="1206" 
d="M102 698q0 160 36 292q35 130 106 225q70 94 171 146t234 52q75 0 135 -11q73 -13 119 -29q56 -19 94 -37q46 -22 66 -36l-72 -213q-45 35 -129 69q-83 34 -180 34q-80 0 -140 -31q-59 -30 -98 -87q-39 -56 -58 -134q-20 -78 -24 -172q20 25 51 55t69 52q40 24 90 39
q53 16 112 16q212 0 323 -120t111 -333q0 -113 -36 -205q-37 -93 -98 -156q-65 -67 -149 -100q-86 -34 -190 -34q-130 0 -232 51q-101 51 -170 145q-69 95 -105 227q-36 133 -36 295zM375 530q22 -139 86 -226q63 -85 174 -85q48 0 91 20q42 19 72 54q29 33 46 82
q16 45 16 100q0 121 -61 179q-62 59 -160 59q-52 0 -95 -20q-41 -19 -75 -47q-29 -24 -56 -59q-13 -17 -38 -57z" />
    <glyph glyph-name="seven" unicode="7" horiz-adv-x="993" 
d="M61 1163v230h887v-185l-477 -1208h-285v25l473 1138h-598z" />
    <glyph glyph-name="eight" unicode="8" horiz-adv-x="1218" 
d="M102 381q0 145 60 228q61 84 186 118q-104 28 -154 113q-51 87 -51 192q0 186 119 284q118 97 348 97q228 0 346 -97q119 -98 119 -284q0 -108 -51 -192q-51 -85 -156 -113q129 -35 190 -118q60 -83 60 -228q0 -186 -130 -294q-129 -107 -378 -107q-251 0 -379 107
q-129 108 -129 294zM365 420q0 -101 66 -164t179 -63q110 0 178 63t68 164q0 90 -58 151q-59 62 -190 62q-126 0 -185 -62q-58 -61 -58 -151zM399 1008q0 -37 12 -73q13 -40 36 -64q26 -28 66 -44q39 -16 95 -16q59 0 98 16t64 44q23 26 36 64q11 33 11 73q0 94 -54 145
t-153 51q-97 0 -154 -51t-57 -145z" />
    <glyph glyph-name="nine" unicode="9" horiz-adv-x="1206" 
d="M90 918q0 111 35 204q35 94 97 157q63 65 150 99q88 35 189 35q131 0 233 -51q103 -51 171 -145q69 -95 105 -228t36 -295q0 -160 -36 -292q-36 -133 -106 -225t-173 -145q-101 -52 -234 -52q-77 0 -135 11q-79 15 -118 28q-59 20 -95 37q-46 22 -66 36l72 213
q42 -31 130 -68q81 -34 181 -34q83 0 140 30q56 29 96 88q39 56 58 134q20 78 24 172q-25 -31 -49 -56q-27 -27 -69 -52q-40 -24 -90 -39t-112 -15q-211 0 -322 120q-112 121 -112 333zM346 918q0 -121 62 -181q60 -59 161 -59q51 0 95 18q38 16 75 46q30 25 57 60
q21 28 38 58q-22 141 -86 227q-64 87 -175 87q-50 0 -93 -20q-40 -19 -71 -54q-30 -35 -47 -82q-16 -45 -16 -100z" />
    <glyph glyph-name="colon" unicode=":" horiz-adv-x="563" 
d="M125 133q0 79 40 119q41 41 114 41q72 0 115 -41q42 -41 42 -119t-42 -120t-115 -42t-114 42q-40 41 -40 120zM125 942q0 79 40 119q41 41 114 41q72 0 115 -41q42 -40 42 -119q0 -78 -42 -120t-115 -42t-114 42q-40 41 -40 120z" />
    <glyph glyph-name="semicolon" unicode=";" horiz-adv-x="563" 
d="M123 942q0 79 40 119q41 41 113 41q73 0 116 -41q42 -40 42 -119q0 -78 -42 -120t-116 -42q-72 0 -113 42q-40 41 -40 120zM129 123q0 79 39 123q39 43 111 43q71 0 112 -45q41 -46 41 -121q0 -55 -13 -119q-12 -59 -35 -131q-18 -56 -46 -123q-24 -57 -45 -96l-139 59
l73 262q-48 12 -73 52q-25 41 -25 96z" />
    <glyph glyph-name="less" unicode="&#x3c;" horiz-adv-x="1040" 
d="M78 514v203l819 395h16v-201l-630 -293l630 -288v-203h-16z" />
    <glyph glyph-name="equal" unicode="=" horiz-adv-x="1110" 
d="M137 229v207h836v-207h-836zM137 803v207h836v-207h-836z" />
    <glyph glyph-name="greater" unicode="&#x3e;" horiz-adv-x="1040" 
d="M125 127v203l633 288l-633 293v201h20l818 -395v-203l-818 -387h-20z" />
    <glyph glyph-name="question" unicode="?" horiz-adv-x="854" 
d="M66 1264q57 57 143 102q89 47 219 47q81 0 147 -27q68 -28 110 -73q44 -47 68 -113q23 -63 23 -143q0 -103 -39 -176q-41 -77 -104 -146l-113 -123q-33 -34 -45 -54t-12 -54q0 -25 6 -55h-211q-9 30 -14 51q-6 27 -6 67q0 53 27 94q28 42 75 95l100 112q42 47 58 80
q18 38 18 103q0 64 -40 104q-41 41 -111 41q-78 0 -134 -41q-54 -39 -96 -94zM211 137q0 77 39 121q39 43 117 43q73 0 115 -43t42 -121q0 -80 -42 -122t-115 -42q-156 0 -156 164z" />
    <glyph glyph-name="at" unicode="@" horiz-adv-x="1738" 
d="M88 539q0 213 58 384q59 174 165 295q108 123 253 188q149 67 323 67t321 -59q146 -58 249 -165q102 -105 160 -257q56 -147 56 -335q0 -169 -33 -290t-90 -198q-58 -78 -135 -112t-170 -34q-90 0 -132 26q-45 28 -73 84q-40 -60 -105 -84q-64 -24 -149 -24
q-89 0 -155 36q-70 38 -119 103q-51 67 -77 157q-27 91 -27 199q0 112 27 203q27 93 77 159q49 65 119 103q68 37 155 37q84 0 139 -17q58 -18 99 -71v72h246v-678q0 -74 10 -100q10 -27 51 -27q31 0 57 26q28 28 50 82q22 55 36 138q13 79 13 196q0 152 -41 275
q-39 117 -118 204q-77 84 -188 128q-112 44 -253 44q-135 0 -248 -48t-194 -143q-79 -93 -127 -237q-46 -139 -46 -327q0 -186 43 -327q44 -144 123 -238t194 -144q113 -49 255 -49q167 0 301 78l59 -162q-163 -94 -360 -94q-187 0 -335 63q-149 63 -251 183
q-103 121 -158 294q-55 172 -55 396zM659 520q0 -124 58 -202q57 -76 149 -76q51 0 91 22t67 55v410q-24 30 -66 52t-92 22q-93 0 -150 -78t-57 -205z" />
    <glyph glyph-name="A" unicode="A" 
d="M25 0l469 1393h301l454 -1393h-260l-88 289h-526l-90 -289h-260zM442 483h396l-195 650z" />
    <glyph glyph-name="B" unicode="B" horiz-adv-x="1265" 
d="M166 0v1393h508q194 0 303 -89q108 -88 108 -280q0 -109 -47 -186q-45 -75 -131 -113q128 -28 201 -113q72 -84 72 -227q0 -181 -109 -284q-107 -101 -317 -101h-588zM428 227h291q103 0 146 46q44 47 44 128q0 187 -213 187h-268v-361zM428 831h205q96 0 143 45
q45 44 45 125q0 86 -43 125q-44 39 -137 39h-213v-334z" />
    <glyph glyph-name="C" unicode="C" horiz-adv-x="1241" 
d="M94 696q0 169 46 301q48 137 128 226q82 91 195 141q111 49 244 49q147 0 265 -63q115 -61 197 -160l-135 -178q-58 64 -131 111q-71 46 -174 46q-172 0 -269 -119q-98 -121 -98 -354q0 -232 98 -353q98 -120 269 -120q103 0 174 46t131 112l135 -178q-82 -99 -197 -160
q-118 -63 -265 -63q-133 0 -244 49q-113 49 -195 141q-81 90 -128 225q-46 132 -46 301z" />
    <glyph glyph-name="D" unicode="D" horiz-adv-x="1394" 
d="M166 0v1393h520q133 0 244 -46t194 -135q81 -87 128 -219q46 -129 46 -299q0 -169 -46 -298q-47 -131 -128 -218q-82 -88 -194 -133t-244 -45h-520zM428 229h225q174 0 276 119q101 117 101 346q0 230 -101 349q-102 120 -276 120h-225v-934z" />
    <glyph glyph-name="E" unicode="E" horiz-adv-x="1208" 
d="M166 0v1393h944v-232h-692v-332h565v-227h-565v-373h692v-229h-944z" />
    <glyph glyph-name="F" unicode="F" horiz-adv-x="1142" 
d="M166 0v1393h909v-232h-657v-426h565v-231h-565v-504h-252z" />
    <glyph glyph-name="G" unicode="G" horiz-adv-x="1343" 
d="M94 694q0 171 49 303q49 133 136 226q85 91 200 141q113 49 246 49q145 0 257 -41t204 -127l-109 -209q-77 67 -154 100q-76 33 -167 33q-184 0 -288 -122q-106 -124 -106 -353q0 -117 29 -207q27 -85 79 -146q48 -57 120 -88q69 -30 153 -30q69 0 134 19q60 18 108 53
v287h-311v227h557v-664q-42 -33 -102 -64q-58 -30 -125 -52t-140 -36q-69 -13 -139 -13q-132 0 -246 48t-200 140q-87 93 -136 225t-49 301z" />
    <glyph glyph-name="H" unicode="H" horiz-adv-x="1470" 
d="M166 0v1393h262v-576h614v576h263v-1393h-263v588h-614v-588h-262z" />
    <glyph glyph-name="I" unicode="I" horiz-adv-x="595" 
d="M166 0v1393h262v-1393h-262z" />
    <glyph glyph-name="J" unicode="J" horiz-adv-x="1138" 
d="M35 467l252 25q7 -145 59 -212t158 -67t163 69q56 68 56 222v889h262v-885q0 -116 -30 -215q-31 -101 -89 -168q-62 -71 -151 -109q-91 -39 -215 -39q-224 0 -342 133q-117 132 -123 357z" />
    <glyph glyph-name="K" unicode="K" horiz-adv-x="1259" 
d="M166 0v1393h262v-590h88l406 590h266v-39l-463 -660l512 -657v-37h-299l-428 573h-82v-573h-262z" />
    <glyph glyph-name="L" unicode="L" horiz-adv-x="1069" 
d="M166 0v1393h262v-1164h608v-229h-870z" />
    <glyph glyph-name="M" unicode="M" horiz-adv-x="1671" 
d="M166 0v1393h256l414 -611l413 611h256v-1393h-262v956l-385 -563h-45l-385 563v-956h-262z" />
    <glyph glyph-name="N" unicode="N" horiz-adv-x="1468" 
d="M166 0v1393h227l645 -955v955h265v-1393h-232l-645 952v-952h-260z" />
    <glyph glyph-name="O" unicode="O" horiz-adv-x="1406" 
d="M94 694q0 162 43 292q44 135 122 227q81 96 191 148t250 52t253 -52t194 -148q79 -94 123 -227q43 -130 43 -292q0 -159 -43 -288q-45 -134 -123 -227q-79 -94 -194 -147q-113 -52 -253 -52t-250 52q-112 53 -191 147q-77 91 -122 227q-43 129 -43 288zM352 694
q0 -237 97 -352t251 -115q77 0 144 29q65 28 112 87q48 61 73 145q26 89 26 206q0 118 -26 208q-25 88 -73 148q-47 59 -112 87t-144 28q-155 0 -251 -115q-97 -117 -97 -356z" />
    <glyph glyph-name="P" unicode="P" horiz-adv-x="1239" 
d="M166 0v1393h573q84 0 166 -31q78 -29 139 -92q59 -61 96 -157q36 -95 36 -224q0 -118 -36 -209q-37 -93 -96 -157q-59 -63 -139 -98q-78 -34 -166 -34h-311v-391h-262zM428 621h256q93 0 158 71t65 197q0 137 -65 205q-66 69 -158 69h-256v-542z" />
    <glyph glyph-name="Q" unicode="Q" horiz-adv-x="1406" 
d="M94 694q0 162 43 292q44 135 122 227q81 96 191 148t250 52t253 -52t194 -148q79 -94 123 -227q43 -130 43 -292q0 -236 -94 -409q-94 -174 -263 -252q42 -44 60 -64q30 -33 64 -58t72 -42q36 -16 83 -16q51 0 98 9t74 21l27 -213q-29 -12 -93 -26q-62 -13 -124 -13
q-104 0 -189 47q-79 44 -148 108q-65 61 -112 118t-78 76q-133 1 -246 55q-108 51 -188 148q-77 94 -120 226q-42 131 -42 285zM346 694q0 -119 27 -206t73 -145t112 -87t142 -29q77 0 144 29q65 28 112 87q48 61 73 145q26 89 26 206q0 118 -26 208q-26 89 -73 147t-112 86
t-144 28t-142 -28q-65 -29 -112 -86q-45 -55 -73 -147q-27 -88 -27 -208z" />
    <glyph glyph-name="R" unicode="R" horiz-adv-x="1259" 
d="M166 0v1393h582q92 0 170 -33t134 -92q57 -60 87 -144t30 -186q0 -88 -23 -154q-25 -72 -67 -124q-44 -54 -101 -91q-56 -36 -128 -53l364 -473v-43h-284l-373 506h-129v-506h-262zM428 713h252q99 0 160 58t61 165q0 114 -61 171q-60 56 -160 56h-252v-450z" />
    <glyph glyph-name="S" unicode="S" horiz-adv-x="1101" 
d="M82 90l59 248q37 -25 76 -44q49 -24 92 -38q49 -16 102 -27q50 -10 101 -10q50 0 90 11q44 12 76 34t52 57t20 78q0 59 -36 103q-35 42 -124 69l-195 60q-149 45 -223 134t-74 239q0 78 30 151q30 74 89 130t149 91t205 35q124 0 235 -30q113 -30 183 -70l-74 -230
q-69 43 -157 67q-93 26 -176 26q-110 0 -168 -46t-58 -116q0 -64 36 -99t108 -57l192 -59q169 -52 248 -148q78 -94 78 -235q0 -92 -36 -172q-37 -83 -101 -139q-65 -57 -158 -91q-89 -32 -203 -32q-69 0 -130 10q-70 11 -123 25q-57 15 -106 36q-52 23 -79 39z" />
    <glyph glyph-name="T" unicode="T" horiz-adv-x="1097" 
d="M45 1161v232h1010v-232h-369v-1161h-262v1161h-379z" />
    <glyph glyph-name="U" unicode="U" horiz-adv-x="1388" 
d="M152 561v832h262v-815q0 -176 65 -266q66 -91 213 -91q150 0 216 96q67 97 67 263v813h262v-832q0 -121 -32 -229q-31 -106 -98 -186q-64 -77 -170 -123t-245 -46q-138 0 -240 42q-103 42 -168 118q-68 79 -100 184t-32 240z" />
    <glyph glyph-name="V" unicode="V" horiz-adv-x="1300" 
d="M31 1393h280l336 -1110l344 1110h283l-465 -1393h-326z" />
    <glyph glyph-name="W" unicode="W" horiz-adv-x="1937" 
d="M31 1393h276l340 -1098l211 637l-143 461h280l305 -1057l330 1057h283l-467 -1393h-283l-192 623l-207 -623h-281z" />
    <glyph glyph-name="X" unicode="X" horiz-adv-x="1288" 
d="M47 0v20l414 674l-414 680v19h295l301 -525l301 525h297v-19l-416 -680l416 -674v-20h-301l-297 522l-299 -522h-297z" />
    <glyph glyph-name="Y" unicode="Y" horiz-adv-x="1220" 
d="M23 1374v19h286l303 -594l301 594h287v-19l-461 -815v-559h-258v557z" />
    <glyph glyph-name="Z" unicode="Z" horiz-adv-x="1120" 
d="M96 0v184l594 979h-594v230h928v-185l-594 -979h594v-229h-928z" />
    <glyph glyph-name="bracketleft" unicode="[" horiz-adv-x="634" 
d="M145 -385v1839h416v-207h-211v-1425h211v-207h-416z" />
    <glyph glyph-name="backslash" unicode="\" horiz-adv-x="933" 
d="M53 1374v19h219l607 -1373v-20h-222z" />
    <glyph glyph-name="bracketright" unicode="]" horiz-adv-x="634" 
d="M74 -178h211v1425h-211v207h415v-1839h-415v207z" />
    <glyph glyph-name="asciicircum" unicode="^" horiz-adv-x="1036" 
d="M96 795v22l324 576h192l328 -576v-22h-235l-189 391l-188 -391h-232z" />
    <glyph glyph-name="underscore" unicode="_" horiz-adv-x="1124" 
d="M127 -68h870v-206h-870v206z" />
    <glyph glyph-name="grave" unicode="`" horiz-adv-x="1044" 
d="M324 1518h254l141 -308h-213z" />
    <glyph glyph-name="a" unicode="a" horiz-adv-x="1062" 
d="M74 299q0 95 36 165t99 117q60 44 151 69q88 24 191 24q31 0 61 -3q43 -4 60 -7v20q0 102 -52 142t-145 40q-73 0 -141 -17q-76 -19 -129 -44l-47 211q83 35 176 54q97 20 180 20q198 0 305 -108q107 -109 107 -304v-678h-254v78q-47 -41 -114 -70q-65 -28 -159 -28
q-159 0 -242 86t-83 233zM338 328q0 -72 41 -107t104 -35q69 0 115 24q47 24 74 54v215q-44 10 -105 10q-99 0 -164 -40t-65 -121z" />
    <glyph glyph-name="b" unicode="b" horiz-adv-x="1193" 
d="M147 0v1454h256v-485q46 52 118 87q69 34 161 34q96 0 171 -37q77 -37 132 -108q54 -69 85 -173q30 -102 30 -235t-30 -237t-85 -175t-132 -109q-73 -36 -171 -36q-97 0 -163 33q-71 36 -116 89v-102h-256zM403 301q28 -33 81 -63q50 -29 110 -29q114 0 179 86t65 237
q0 153 -65 241q-65 87 -179 87q-59 0 -111 -29q-53 -30 -80 -65v-465z" />
    <glyph glyph-name="c" unicode="c" horiz-adv-x="1038" 
d="M92 537q0 131 39 236t108 177q70 73 161 111q93 39 204 39q123 0 209 -44q83 -42 152 -108l-117 -196q-45 45 -103 78q-56 32 -141 32q-106 0 -178 -83t-72 -242t73 -244q72 -84 183 -84q81 0 136 32q58 34 102 78l117 -196q-69 -66 -152 -108q-86 -44 -209 -44
q-111 0 -204 39q-90 38 -161 112q-69 72 -108 177t-39 238z" />
    <glyph glyph-name="d" unicode="d" horiz-adv-x="1193" 
d="M96 537q0 133 30 235q31 104 85 173q56 71 133 108t174 37q87 0 156 -33q72 -34 117 -84v481h256v-1454h-256v102q-44 -53 -115 -89q-65 -33 -158 -33q-99 0 -174 36q-78 37 -133 109q-55 71 -85 175t-30 237zM358 532q0 -151 65 -237t175 -86q58 0 111 28q52 28 82 62
v469q-28 34 -80 63t-113 29q-113 0 -176 -87q-64 -88 -64 -241z" />
    <glyph glyph-name="e" unicode="e" horiz-adv-x="1075" 
d="M92 532q0 125 34 228q35 106 96 179q63 75 151 118q87 43 198 43q110 0 187 -34q79 -35 127 -92q48 -56 72 -137q24 -79 24 -167q0 -110 -29 -217h-606q7 -115 69 -189q59 -71 197 -71q86 0 149 31q59 29 113 73l99 -195q-72 -62 -172 -96q-102 -35 -230 -35
q-123 0 -213 42q-88 41 -149 117q-59 74 -88 178q-29 105 -29 224zM360 653h379q6 24 6 54q0 86 -46 129t-128 43q-97 0 -150 -63q-54 -64 -61 -163z" />
    <glyph glyph-name="f" unicode="f" horiz-adv-x="815" 
d="M70 813v205h163v96q0 174 75 267q76 94 247 94q66 0 129 -17q62 -16 102 -39l-57 -227q-20 15 -57 34q-33 17 -74 17q-52 0 -80 -28q-26 -26 -26 -91v-106h266v-205h-266v-813h-259v813h-163z" />
    <glyph glyph-name="g" unicode="g" horiz-adv-x="1196" 
d="M98 573q0 119 30 214q31 97 85 163q56 68 132 104q77 36 173 36q178 0 273 -99v80h258v-997q0 -127 -36 -217q-36 -91 -99 -149q-64 -59 -148 -86q-89 -28 -184 -28q-148 0 -238 33q-88 32 -139 60l57 227q16 -11 53 -31q25 -14 68 -31q42 -17 80 -26q41 -10 90 -10
t90 10q43 10 76 36q33 25 52 68q20 45 20 109v131q-48 -48 -117 -78q-71 -31 -156 -31q-96 0 -173 36q-76 36 -132 104q-55 67 -85 161t-30 211zM360 573q0 -127 64 -206q63 -78 178 -78q62 0 110 30t79 64v381q-28 34 -76 65t-113 31q-112 0 -177 -77t-65 -210z" />
    <glyph glyph-name="h" unicode="h" horiz-adv-x="1206" 
d="M147 0v1454h256v-508q50 63 133 104q81 40 187 40q177 0 260 -110q82 -109 82 -308v-672h-256v621q0 113 -44 171q-43 56 -142 56q-43 0 -78 -15q-36 -16 -63 -41t-47 -58q-21 -34 -32 -64v-670h-256z" />
    <glyph glyph-name="i" unicode="i" horiz-adv-x="555" 
d="M123 1374q0 74 44 104q42 29 112 29q66 0 107 -29q42 -30 42 -104q0 -73 -42 -103t-107 -30q-69 0 -112 30q-44 30 -44 103zM147 0v1071h259v-1071h-259z" />
    <glyph glyph-name="j" unicode="j" horiz-adv-x="555" 
d="M8 -231q65 48 102 110t37 178v1014h259v-1001q0 -97 -20 -172q-20 -74 -52 -130t-77 -99q-43 -41 -95 -72zM125 1374q0 74 43 104q42 29 108 29q72 0 111 -29q41 -30 41 -104q0 -73 -41 -103t-111 -30q-64 0 -108 30q-43 30 -43 103z" />
    <glyph glyph-name="k" unicode="k" horiz-adv-x="1095" 
d="M147 0v1454h256v-823l334 440h283v-43l-377 -461l406 -524v-43h-301l-345 465v-465h-256z" />
    <glyph glyph-name="l" unicode="l" horiz-adv-x="624" 
d="M152 236v1218h258v-1149q0 -60 19 -82t56 -22q31 0 54 10q28 12 45 22l10 -206q-37 -18 -87 -32q-53 -15 -120 -15q-116 0 -176 57q-59 56 -59 199z" />
    <glyph glyph-name="m" unicode="m" horiz-adv-x="1810" 
d="M147 0v1071h256v-123q50 67 127 104q79 38 183 38q213 0 291 -170q46 82 123 126t190 44q189 0 272 -106q82 -104 82 -304v-680h-256v629q0 117 -42 168t-136 51q-77 0 -121 -41q-42 -40 -67 -107v-20v-680h-256v629q0 117 -45 168t-136 51q-83 0 -135 -47
q-51 -47 -74 -113v-688h-256z" />
    <glyph glyph-name="n" unicode="n" horiz-adv-x="1206" 
d="M147 0v1071h256v-125q50 63 133 104q81 40 187 40q177 0 260 -110q82 -109 82 -308v-672h-258v621q0 115 -43 171t-139 56q-43 0 -79 -15q-37 -15 -64 -41q-27 -25 -47 -58q-21 -34 -32 -64v-670h-256z" />
    <glyph glyph-name="o" unicode="o" horiz-adv-x="1163" 
d="M92 532q0 132 35 239t99 178q65 73 154 112q88 39 200 39q110 0 201 -39q90 -38 156 -112q64 -71 99 -178t35 -239q0 -131 -35 -236q-35 -104 -99 -176q-67 -74 -156 -111q-93 -38 -201 -38q-110 0 -200 38q-88 37 -154 111q-64 72 -99 176q-35 105 -35 236zM346 532
q0 -157 64 -241q63 -82 170 -82q110 0 173 82q62 81 62 241q0 165 -62 246q-63 82 -173 82q-107 0 -170 -82q-64 -84 -64 -246z" />
    <glyph glyph-name="p" unicode="p" horiz-adv-x="1193" 
d="M147 -385v1456h256v-104q45 54 114 90q67 35 159 35q95 0 172 -37t134 -109t87 -175q31 -107 31 -236q0 -131 -31 -236q-30 -103 -87 -173q-58 -71 -134 -108q-75 -36 -172 -36q-90 0 -157 32q-70 33 -116 84v-483h-256zM403 301q29 -35 80 -62q53 -28 111 -28
q114 0 179 87q65 88 65 241q0 151 -65 237t-179 86q-60 0 -111 -27t-80 -65v-469z" />
    <glyph glyph-name="q" unicode="q" horiz-adv-x="1193" 
d="M96 532q0 134 30 237q30 104 85 175t132 109q75 37 171 37q91 0 161 -35t116 -90v106h256v-1456h-256v481q-49 -51 -119 -84q-67 -32 -158 -32q-97 0 -171 35q-76 36 -132 107q-55 69 -85 174q-30 104 -30 236zM358 539q0 -153 65 -242q64 -88 177 -88q60 0 111 30
q53 31 80 64v463q-27 35 -80 65q-52 29 -111 29q-113 0 -177 -85q-65 -86 -65 -236z" />
    <glyph glyph-name="r" unicode="r" horiz-adv-x="841" 
d="M147 0v1071h261v-137q39 82 92 118q56 38 143 38q43 0 90 -13q43 -12 72 -33l-37 -239q-32 19 -72 31t-78 12q-77 0 -130 -51q-50 -49 -80 -144v-653h-261z" />
    <glyph glyph-name="s" unicode="s" horiz-adv-x="929" 
d="M88 59l51 228q60 -34 130 -60q79 -30 159 -30q73 0 113 28q41 29 41 80q0 49 -30 75q-29 25 -91 46l-109 37q-127 40 -190 112q-64 73 -64 185q0 66 25 129q23 57 73 104q49 46 119 71q73 26 166 26q37 0 93 -7q49 -6 95 -15q48 -9 86 -22q30 -10 68 -26l-61 -221
q-58 28 -127 49q-64 20 -139 20q-70 0 -102 -27t-32 -73q0 -36 30 -59q30 -22 89 -43l109 -37q138 -44 195 -120q57 -75 57 -183q0 -68 -29 -132q-29 -63 -81 -111q-54 -50 -126 -76q-74 -27 -166 -27q-111 0 -204 25q-96 26 -148 54z" />
    <glyph glyph-name="t" unicode="t" horiz-adv-x="894" 
d="M61 866v205h177l28 272h211v-272h328v-205h-328v-514q0 -76 32 -111q31 -34 91 -34q46 0 96 19t88 48l64 -206q-71 -42 -136 -64q-70 -24 -175 -24q-69 0 -126 19q-59 20 -101 60q-40 38 -65 106q-24 65 -24 154v547h-160z" />
    <glyph glyph-name="u" unicode="u" horiz-adv-x="1204" 
d="M139 399v672h258v-620q0 -115 43 -171q44 -57 140 -57q40 0 78 16q37 15 64 41q28 27 47 57q21 34 32 64v670h256v-1071h-256v125q-45 -61 -130 -103q-81 -40 -188 -40q-179 0 -261 110q-83 112 -83 307z" />
    <glyph glyph-name="v" unicode="v" horiz-adv-x="1148" 
d="M43 1071h281l251 -829l252 829h279l-367 -1071h-329z" />
    <glyph glyph-name="w" unicode="w" horiz-adv-x="1781" 
d="M55 1071h279l198 -827l205 827h316l186 -827l217 827h279l-324 -1071h-326l-192 735l-209 -735h-324z" />
    <glyph glyph-name="x" unicode="x" horiz-adv-x="1075" 
d="M59 0v20l297 512l-297 521v18h277l201 -399l202 399h277v-18l-301 -521l301 -512v-20h-281l-198 393l-197 -393h-281z" />
    <glyph glyph-name="y" unicode="y" horiz-adv-x="1097" 
d="M27 1071h284l242 -784l231 782q87 0 130 1t130 1l-399 -1157q-26 -75 -58 -135q-32 -61 -75 -101q-45 -42 -100 -62q-60 -22 -136 -22q-57 0 -116 19q-52 17 -92 41l38 196q30 -15 72 -28q39 -12 80 -12q65 0 101 37q35 37 63 118l16 60z" />
    <glyph glyph-name="z" unicode="z" horiz-adv-x="946" 
d="M100 0v184l424 680h-424v207h748v-184l-422 -680h422v-207h-748z" />
    <glyph glyph-name="braceleft" unicode="{" horiz-adv-x="624" 
d="M68 451v157q98 0 141 36t43 110q0 59 -13 114q-15 63 -31 114q-17 54 -31 113q-13 55 -13 113q0 110 66 178t214 68h91v-184h-48q-70 0 -95 -37t-25 -84q0 -45 13 -94q16 -62 31 -107q14 -42 30 -113q14 -61 14 -116q0 -158 -148 -191q148 -33 148 -194q0 -54 -14 -113
q-17 -72 -30 -112q-15 -45 -31 -107q-13 -49 -13 -94q0 -49 25 -86t95 -37h48v-184h-91q-149 0 -214 68q-66 69 -66 188q0 58 13 113q15 63 31 114q16 50 31 116q13 56 13 117q0 73 -43 103q-45 31 -141 31z" />
    <glyph glyph-name="bar" unicode="|" horiz-adv-x="493" 
d="M145 -385v1839h203v-1839h-203z" />
    <glyph glyph-name="braceright" unicode="}" horiz-adv-x="624" 
d="M88 -215h53q65 0 92 37q27 38 27 86q0 46 -14 94q-4 15 -14.5 51t-16.5 56q-13 45 -31 112q-14 53 -14 113q0 84 36 131t113 63q-76 16 -113 64q-36 46 -36 127q0 61 14 116q16 63 31 113q6 20 16.5 56t14.5 51q14 48 14 94q0 47 -27 84t-92 37h-53v184h94q143 0 211 -68
t68 -178q0 -54 -14 -113q-17 -72 -30 -113q-16 -51 -31 -114q-13 -55 -13 -114q0 -74 43 -110q44 -36 141 -36v-157q-96 0 -141 -31q-43 -30 -43 -103q0 -61 13 -117q15 -66 31 -116q12 -38 30 -114q14 -59 14 -113q0 -118 -68 -188q-67 -68 -211 -68h-94v184z" />
    <glyph glyph-name="asciitilde" unicode="~" horiz-adv-x="942" 
d="M102 598q18 72 74 130q55 56 133 56q55 0 95 -23q46 -26 78 -53q39 -32 70 -54q33 -23 69 -23q47 0 78 34q34 37 55 91l88 -123q-24 -88 -83 -141q-60 -54 -130 -54q-49 0 -88 24q-44 27 -75 53q-26 22 -71 53q-34 24 -76 24q-39 0 -77 -32t-56 -91z" />
    <glyph glyph-name="uni00A0" unicode="&#xa0;" horiz-adv-x="419" 
 />
    <glyph glyph-name="exclamdown" unicode="&#xa1;" horiz-adv-x="512" 
d="M96 938q0 78 42 120t118 42q156 0 156 -162q0 -79 -40 -122q-41 -44 -116 -44q-76 0 -118 44t-42 122zM127 -319l39 944h182l37 -944h-258z" />
    <glyph glyph-name="cent" unicode="&#xa2;" horiz-adv-x="1077" 
d="M92 537q0 131 39 236t108 177q70 73 161 111q93 39 204 39h26q9 0 25 -2l54 227l149 -43l-53 -223q46 -22 86 -50q37 -26 74 -61l-117 -196q-26 26 -46 41q-23 17 -52 34l-146 -618h6q81 0 136 32q58 34 102 78l117 -196q-69 -66 -152 -108q-86 -44 -209 -44h-27
q-8 0 -28 2l-60 -254l-147 43l57 248q-138 56 -223 193q-84 135 -84 334zM354 537q0 -95 28 -167q27 -69 77 -110l141 602q-104 -1 -175 -84t-71 -241z" />
    <glyph glyph-name="sterling" unicode="&#xa3;" horiz-adv-x="1142" 
d="M82 197q0 92 52 150q53 59 132 59q19 0 45 -7q22 -6 35 -14q0 58 -10 117q-10 60 -27 127h-166v162h131q-10 51 -15 105q-5 60 -5 114q0 85 22 157q23 74 69 128q47 55 117 86q72 32 167 32q61 0 112 -11q57 -12 104 -30q46 -17 87 -41q41 -23 63 -43l-75 -227
q-37 39 -100 76q-62 37 -144 37q-83 0 -124 -64q-40 -62 -40 -162q0 -36 3 -77q4 -51 7 -80h324v-162h-303q9 -69 16 -160q6 -80 0 -152q21 -14 39 -32q24 -24 44 -39q30 -22 47 -32q23 -13 46 -13q65 0 85 66q20 69 16 192h217q8 -109 -1 -195q-9 -88 -39 -151
q-31 -66 -82 -99q-52 -34 -130 -34q-47 0 -86 19q-41 20 -79 47q-35 25 -71 58q-47 42 -59 52q-39 -82 -89 -128q-53 -48 -145 -48t-141 62t-49 155zM221 188q0 -30 10 -47q11 -18 35 -18q35 0 50 38q16 39 20 81q-22 18 -51 18q-28 0 -46 -19t-18 -53z" />
    <glyph glyph-name="currency" unicode="&#xa4;" horiz-adv-x="1097" 
d="M111 330l106 104q-24 40 -39 85q-14 43 -14 99q0 57 14 100q14 44 39 83l-106 108l149 148l111 -115q36 22 79 34q38 11 91 11q108 0 180 -51l117 121l149 -148l-119 -116q50 -79 50 -175q0 -46 -13 -93q-12 -42 -35 -81l117 -114l-149 -148l-117 117q-77 -47 -180 -47
q-97 0 -170 41l-111 -111zM350 618q0 -82 52 -138t139 -56q86 0 138 56t52 138t-52 138q-53 57 -138 57q-87 0 -139 -57q-52 -56 -52 -138z" />
    <glyph glyph-name="yen" unicode="&#xa5;" horiz-adv-x="1091" 
d="M68 1374v19h266l209 -625l217 625h266v-19l-301 -692h205v-160h-258v-112h258v-160h-258v-250h-260v250h-256v160h256v112h-256v160h202z" />
    <glyph glyph-name="brokenbar" unicode="&#xa6;" horiz-adv-x="503" 
d="M150 326h204v-711h-204v711zM150 768v686h204v-686h-204z" />
    <glyph glyph-name="section" unicode="&#xa7;" horiz-adv-x="1118" 
d="M111 586q0 81 34 149q35 69 107 119q-67 34 -104 88q-35 51 -35 141q0 70 30 130q31 62 89 105q61 45 144 70q84 25 195 25q58 0 122 -8q47 -6 115 -21q52 -12 100 -27q42 -14 79 -32l-69 -213q-29 13 -76 31q-35 13 -91 29q-54 15 -100 22q-54 8 -100 8q-95 0 -141 -30
q-48 -31 -48 -80q0 -25 14 -44q13 -17 36 -28q22 -10 50 -18q18 -5 58 -13l178 -39q159 -38 235 -121q77 -85 77 -202q0 -174 -146 -269q146 -78 146 -223q0 -76 -33 -137q-32 -60 -94 -104q-60 -42 -148 -67q-86 -24 -190 -24q-58 0 -128 10q-67 10 -118 22q-55 13 -99 30
q-45 17 -71 33l57 211q78 -34 164 -61q101 -32 209 -32q92 0 142 29q51 29 51 80q0 58 -58 82q-60 25 -151 47l-168 39q-141 35 -203 104q-61 68 -61 189zM336 612q0 -56 30 -86q32 -32 101 -49l131 -33q77 7 126 49q48 41 48 107t-44 105q-42 38 -122 53l-102 22
q-88 -15 -128 -64t-40 -104z" />
    <glyph glyph-name="dieresis" unicode="&#xa8;" horiz-adv-x="1044" 
d="M158 1370q0 70 40 98q41 29 101 29t103 -29q42 -28 42 -98q0 -67 -42 -97t-103 -30t-101 30t-40 97zM602 1370q0 69 41 98t105 29q58 0 99 -29q40 -28 40 -98q0 -67 -40 -97q-41 -30 -99 -30q-64 0 -105 30t-41 97z" />
    <glyph glyph-name="copyright" unicode="&#xa9;" horiz-adv-x="1622" 
d="M94 694q0 154 54 286q53 130 151 228t226 151q131 54 284 54q154 0 286 -54q130 -53 228 -151t151 -228q54 -132 54 -286q0 -152 -54 -283q-54 -130 -151 -227q-96 -96 -228 -150t-286 -54q-153 0 -284 54q-130 54 -226 150q-97 97 -151 227q-54 131 -54 283zM242 694
q0 -124 43 -228q45 -109 117 -182q75 -76 180 -120q104 -43 227 -43t227 43t181 120q73 73 118 182q43 104 43 228q0 125 -43 229q-45 109 -118 182q-79 79 -181 121q-106 44 -227 44t-227 -44q-103 -43 -180 -121q-72 -73 -117 -182q-43 -104 -43 -229zM455 694
q0 80 27 146q26 64 77 113q50 49 116 74q67 26 144 26q93 0 160 -26q66 -25 119 -71l-84 -149q-28 27 -75 46q-41 17 -97 17q-86 0 -136 -50q-51 -51 -51 -126q0 -74 51 -125q49 -49 136 -49q54 0 97 18q47 19 75 46l84 -152q-51 -42 -119 -70q-64 -26 -160 -26
q-79 0 -144 25q-66 25 -116 74t-77 114q-27 66 -27 145z" />
    <glyph glyph-name="ordfeminine" unicode="&#xaa;" horiz-adv-x="868" 
d="M119 883q0 123 87 184q86 61 234 61h21q6 0 20 -2v25q0 62 -25 84t-73 22q-47 0 -96 -15t-80 -38l-31 156q22 10 54 18q51 12 68 15q24 4 70 10q31 4 58 4q69 0 111 -16q40 -15 68 -48q25 -30 36 -74q10 -41 10 -102v-286q0 -27 8 -43q7 -15 33 -15q11 0 27 8q5 3 31 19
l6 -143q-19 -9 -60 -22q-34 -11 -82 -11q-83 0 -116 78q-30 -32 -72 -55t-102 -23q-95 0 -150 58t-55 151zM166 371v143h551v-143h-551zM268 905q0 -41 27 -62q28 -22 74 -22q38 0 65 12q32 14 47 25v148q-12 5 -29 6q-24 2 -34 2q-59 0 -105 -26q-45 -26 -45 -83z" />
    <glyph glyph-name="guillemotleft" unicode="&#xab;" horiz-adv-x="987" 
d="M84 592v51l283 418h18l94 -53l-180 -390l180 -389l-94 -53h-18zM494 592v51l282 418h21l92 -53l-178 -390l180 -389l-94 -53h-21z" />
    <glyph glyph-name="logicalnot" unicode="&#xac;" horiz-adv-x="1103" 
d="M123 639v207h838l-3 -588h-200v381h-635z" />
    <glyph glyph-name="uni00AD" unicode="&#xad;" horiz-adv-x="956" 
d="M127 516v207h702v-207h-702z" />
    <glyph glyph-name="registered" unicode="&#xae;" horiz-adv-x="1622" 
d="M94 694q0 154 54 286q53 130 151 228t226 151q131 54 284 54q154 0 286 -54q130 -53 228 -151t151 -228q54 -132 54 -286q0 -152 -54 -283q-54 -130 -151 -227q-96 -96 -228 -150t-286 -54q-153 0 -284 54q-130 54 -226 150q-97 97 -151 227q-54 131 -54 283zM242 694
q0 -124 43 -228q45 -109 117 -182q75 -76 180 -120q104 -43 227 -43t227 43t181 120q73 73 118 182q43 104 43 228q0 125 -43 229q-45 109 -118 182q-79 79 -181 121q-106 44 -227 44t-227 -44q-103 -43 -180 -121q-72 -73 -117 -182q-43 -104 -43 -229zM518 346v696h328
q58 0 103 -14q50 -16 84 -44q36 -30 57 -75q20 -43 20 -104q0 -76 -43 -131q-44 -56 -109 -78l172 -211v-39h-206l-176 236h-33v-236h-197zM715 721h123q37 0 59 22q23 23 23 58q0 40 -23 61t-59 21h-123v-162z" />
    <glyph glyph-name="macron" unicode="&#xaf;" horiz-adv-x="1044" 
d="M297 1257v183h448v-183h-448z" />
    <glyph glyph-name="degree" unicode="&#xb0;" horiz-adv-x="833" 
d="M90 1042q0 85 25 157q24 70 67 117q45 50 103 73q60 24 129 24q142 0 234 -96q91 -95 91 -275t-91 -274t-234 -94q-69 0 -129 24q-58 23 -103 71q-43 46 -67 115q-25 72 -25 158zM266 1042q0 -100 41 -147t107 -47q69 0 110 48q41 49 41 146q0 101 -41 148t-110 47
q-66 0 -107 -47t-41 -148z" />
    <glyph glyph-name="plusminus" unicode="&#xb1;" horiz-adv-x="1112" 
d="M137 117v207h838v-207h-838zM137 745v207h320v383h200v-383h318v-207h-318v-260h-200v260h-320z" />
    <glyph glyph-name="uni00B2" unicode="&#xb2;" horiz-adv-x="614" 
d="M63 1370q5 112 66 180q62 68 174 68q116 0 172 -65q55 -64 55 -160q0 -66 -25 -122q-24 -55 -95 -116l-125 -106h262v-129h-463v110l223 201q45 39 62 73q18 36 18 76q0 44 -22 73q-23 30 -70 30q-53 0 -77 -39q-23 -37 -23 -98z" />
    <glyph glyph-name="uni00B3" unicode="&#xb3;" horiz-adv-x="593" 
d="M61 950l37 123q17 -8 69 -23q48 -14 95 -14q53 0 84 25t31 69q0 78 -107 78h-133v125h133q47 0 68 23q20 21 20 55q0 82 -100 82q-44 0 -82 -9q-35 -9 -84 -32l-29 125q28 12 85 27q55 14 124 14q112 0 173 -50t61 -143q0 -51 -27 -90t-73 -55q58 -17 89 -58t31 -114
q0 -90 -64 -144q-66 -55 -190 -55q-68 0 -129 16q-62 16 -82 25z" />
    <glyph glyph-name="acute" unicode="&#xb4;" horiz-adv-x="1044" 
d="M324 1210l143 308h252l-180 -308h-215z" />
    <glyph glyph-name="mu" unicode="&#xb5;" horiz-adv-x="1148" 
d="M150 -385v1456h258v-539q0 -160 36 -235q38 -78 140 -78q70 0 117 41q46 40 73 96v715h258v-1071h-258v82q-53 -54 -124 -78q-72 -24 -163 -24q-16 0 -42 2q-19 1 -37 6v-373h-258z" />
    <glyph glyph-name="paragraph" unicode="&#xb6;" horiz-adv-x="1087" 
d="M57 795q0 132 74 204t184 72h303v-1456h-200v903h-103q-110 0 -184 71t-74 206zM729 -385v1456h199v-1456h-199z" />
    <glyph glyph-name="periodcentered" unicode="&#xb7;" horiz-adv-x="546" 
d="M115 606q0 77 41 121q40 43 116 43t118 -43t42 -121q0 -80 -42 -122t-118 -42t-116 42q-41 43 -41 122z" />
    <glyph glyph-name="cedilla" unicode="&#xb8;" horiz-adv-x="1044" 
d="M352 -383l23 88q25 -10 53 -16q27 -6 55 -6q42 0 66 15t24 48q0 59 -88 59q-30 0 -58 -4q-35 -5 -50 -10l-6 10l51 203h102l-30 -125q18 6 45 6q72 0 112 -38q39 -37 39 -97q0 -76 -56 -116t-142 -40q-24 0 -70 6q-34 4 -70 17z" />
    <glyph glyph-name="uni00B9" unicode="&#xb9;" horiz-adv-x="491" 
d="M25 1444l260 162h102v-686h-141v520l-164 -105z" />
    <glyph glyph-name="ordmasculine" unicode="&#xba;" horiz-adv-x="897" 
d="M123 1042q0 182 92 277q91 94 234 94q142 0 233 -94q92 -95 92 -277q0 -184 -92 -276t-233 -92q-142 0 -234 92t-92 276zM174 371v143h551v-143h-551zM285 1042q0 -111 46 -161q47 -52 118 -52q70 0 116 52q45 51 45 161q0 111 -45 162t-116 51t-118 -51
q-46 -50 -46 -162z" />
    <glyph glyph-name="guillemotright" unicode="&#xbb;" horiz-adv-x="987" 
d="M96 227l180 391l-180 388l94 55h19l283 -418v-51l-283 -416h-19zM508 227l180 391l-180 388l94 55h21l278 -418v-51l-278 -416h-21z" />
    <glyph glyph-name="onequarter" unicode="&#xbc;" horiz-adv-x="1466" 
d="M53 1239l260 162h103v-686h-142v520l-163 -105zM297 0v20l643 1373h145v-19l-641 -1374h-147zM836 127v96l270 463h190v-448h97v-111h-97v-127h-143v127h-317zM979 238h174v301z" />
    <glyph glyph-name="onehalf" unicode="&#xbd;" horiz-adv-x="1449" 
d="M53 1239l260 162h103v-686h-142v520l-163 -105zM297 0v20l643 1373h145v-19l-641 -1374h-147zM887 451q5 114 65 180q61 67 174 67q116 0 173 -64q57 -65 57 -163q0 -65 -27 -121q-26 -53 -96 -114l-125 -107h262v-129h-463v111l223 198q44 40 62 75q18 36 18 77
q0 42 -22 71q-23 31 -70 31q-53 0 -77 -39q-23 -37 -23 -98z" />
    <glyph glyph-name="threequarters" unicode="&#xbe;" horiz-adv-x="1548" 
d="M78 745l37 123q18 -9 68 -23q48 -14 96 -14q52 0 83 25t31 70q0 78 -106 78h-133v124h133q46 0 67 23t21 55q0 82 -101 82q-44 0 -81 -9q-35 -9 -84 -32l-29 125q28 12 85 27q55 14 124 14q112 0 173 -50q60 -50 60 -142q0 -53 -26 -91t-74 -55q58 -17 89 -58
q32 -43 32 -114q0 -90 -65 -144q-64 -54 -189 -54q-72 0 -129 15q-62 16 -82 25zM385 0v20l643 1373h146v-19l-642 -1374h-147zM926 127v96l270 463h190v-448h97v-111h-97v-127h-143v127h-317zM1069 238h174v301z" />
    <glyph glyph-name="questiondown" unicode="&#xbf;" horiz-adv-x="839" 
d="M68 16q0 104 40 178q42 79 105 144l113 123q33 35 45 54t12 54q0 26 -6 56h211q8 -27 14 -52q6 -27 6 -67q0 -54 -27 -94q-28 -42 -75 -95l-100 -110q-40 -45 -59 -81q-19 -37 -19 -103q0 -63 41 -104q40 -40 112 -40q77 0 133 41t97 94l69 -204q-59 -59 -143 -103
q-89 -47 -219 -47q-84 0 -149 27q-64 27 -109 73t-69 113q-23 63 -23 143zM319 938q0 78 42 120t118 42q156 0 156 -162q0 -78 -39 -122t-117 -44q-76 0 -118 44q-42 43 -42 122z" />
    <glyph glyph-name="Agrave" unicode="&#xc0;" 
d="M25 0l469 1393h301l454 -1393h-260l-88 289h-526l-90 -289h-260zM367 1839h254l141 -307h-213zM442 483h396l-195 650z" />
    <glyph glyph-name="Aacute" unicode="&#xc1;" 
d="M25 0l469 1393h301l454 -1393h-260l-88 289h-526l-90 -289h-260zM442 483h396l-195 650zM504 1532l143 307h252l-180 -307h-215z" />
    <glyph glyph-name="Acircumflex" unicode="&#xc2;" 
d="M25 0l469 1393h301l454 -1393h-260l-88 289h-526l-90 -289h-260zM338 1532l178 307h252l178 -307h-192l-111 178l-113 -178h-192zM442 483h396l-195 650z" />
    <glyph glyph-name="Atilde" unicode="&#xc3;" 
d="M25 0l469 1393h301l454 -1393h-260l-88 289h-526l-90 -289h-260zM311 1663q27 65 80 117q53 51 119 51q47 0 82 -20t64 -43q23 -18 59 -43q28 -19 61 -19q43 0 73 27t46 65l78 -102q-34 -75 -84 -122q-49 -46 -115 -46q-44 0 -79 19q-34 18 -67 42q-9 6 -61 42
q-29 20 -57 20q-43 0 -72 -26q-28 -25 -51 -66zM442 483h396l-195 650z" />
    <glyph glyph-name="Adieresis" unicode="&#xc4;" 
d="M25 0l469 1393h301l454 -1393h-260l-88 289h-526l-90 -289h-260zM279 1692q0 71 39 98q41 29 102 29q60 0 103 -29q42 -28 42 -98q0 -68 -42 -98q-41 -29 -103 -29q-63 0 -102 29t-39 98zM442 483h396l-195 650zM723 1692q0 69 41 98t104 29q59 0 100 -29q40 -28 40 -98
q0 -68 -40 -98q-39 -29 -100 -29q-65 0 -104 29q-41 30 -41 98z" />
    <glyph glyph-name="Aring" unicode="&#xc5;" 
d="M25 0l462 1378q-45 56 -45 129q0 84 59 143q58 58 142 58t142 -58q59 -59 59 -143q0 -71 -45 -127l450 -1380h-260l-88 289h-526l-90 -289h-260zM442 483h396l-195 650zM551 1507q0 -38 27 -65t65 -27q37 0 64 27q26 26 26 65q0 38 -26 64t-64 26q-39 0 -65 -26
q-27 -27 -27 -64z" />
    <glyph glyph-name="AE" unicode="&#xc6;" horiz-adv-x="1861" 
d="M-10 0l676 1393h1099v-232h-694v-340h567v-211h-567v-381h694v-229h-940v289h-430l-133 -289h-272zM492 483h333v682z" />
    <glyph glyph-name="Ccedilla" unicode="&#xc7;" horiz-adv-x="1241" 
d="M96 696q0 169 46 301q48 137 128 226q82 91 195 141q111 49 244 49q147 0 265 -63q115 -61 197 -160l-135 -178q-58 64 -131 111q-71 46 -174 46q-172 0 -269 -119t-97 -354q0 -234 97 -353q98 -120 269 -120q103 0 174 46t131 112l135 -178q-82 -99 -197 -160
q-118 -63 -265 -63h-15l-24 -101q18 6 45 6q72 0 112 -38q39 -37 39 -97q0 -76 -56 -116t-142 -40q-24 0 -70 6q-34 4 -70 17l23 88q25 -10 53 -16q27 -6 55 -6q42 0 66 15q25 16 25 48q0 59 -88 59q-31 0 -59 -4q-35 -5 -50 -10l-6 10l47 189q-108 18 -201 76
q-91 56 -157 147q-65 88 -103 212q-37 120 -37 271z" />
    <glyph glyph-name="Egrave" unicode="&#xc8;" horiz-adv-x="1208" 
d="M166 0v1393h944v-232h-692v-332h565v-227h-565v-373h692v-229h-944zM373 1839h254l141 -307h-213z" />
    <glyph glyph-name="Eacute" unicode="&#xc9;" horiz-adv-x="1208" 
d="M166 0v1393h944v-232h-692v-332h565v-227h-565v-373h692v-229h-944zM510 1532l143 307h252l-180 -307h-215z" />
    <glyph glyph-name="Ecircumflex" unicode="&#xca;" horiz-adv-x="1208" 
d="M166 0v1393h944v-232h-692v-332h565v-227h-565v-373h692v-229h-944zM338 1532l178 307h252l178 -307h-192l-111 178l-113 -178h-192z" />
    <glyph glyph-name="Edieresis" unicode="&#xcb;" horiz-adv-x="1208" 
d="M166 0v1393h944v-232h-692v-332h565v-227h-565v-373h692v-229h-944zM279 1692q0 71 39 98q41 29 102 29q60 0 103 -29q42 -28 42 -98q0 -68 -42 -98q-41 -29 -103 -29q-63 0 -102 29t-39 98zM723 1692q0 69 41 98t104 29q59 0 100 -29q40 -28 40 -98q0 -68 -40 -98
q-39 -29 -100 -29q-65 0 -104 29q-41 30 -41 98z" />
    <glyph glyph-name="Igrave" unicode="&#xcc;" horiz-adv-x="595" 
d="M23 1839h253l142 -307h-213zM166 0v1393h262v-1393h-262z" />
    <glyph glyph-name="Iacute" unicode="&#xcd;" horiz-adv-x="595" 
d="M166 0v1393h262v-1393h-262zM184 1532l144 307h252l-181 -307h-215z" />
    <glyph glyph-name="Icircumflex" unicode="&#xce;" horiz-adv-x="595" 
d="M-6 1532l178 307h252l178 -307h-192l-111 178l-113 -178h-192zM166 0v1393h262v-1393h-262z" />
    <glyph glyph-name="Idieresis" unicode="&#xcf;" horiz-adv-x="595" 
d="M-70 1692q0 70 40 98q41 29 102 29q60 0 103 -29q42 -28 42 -98q0 -68 -42 -98q-41 -29 -103 -29q-63 0 -102 29q-40 30 -40 98zM166 0v1393h262v-1393h-262zM375 1692q0 69 41 98t104 29q59 0 100 -29q39 -27 39 -98q0 -69 -39 -98t-100 -29q-65 0 -104 29
q-41 30 -41 98z" />
    <glyph glyph-name="Eth" unicode="&#xd0;" horiz-adv-x="1404" 
d="M70 629v133h104v631h520q133 0 244 -46q112 -47 195 -135q81 -87 128 -219q46 -129 46 -299q0 -169 -46 -298q-47 -131 -128 -218q-82 -88 -195 -133q-112 -45 -244 -45h-520v629h-104zM436 229h226q173 0 277 119q103 118 103 346q0 230 -103 349q-104 120 -277 120
h-226v-401h226v-133h-226v-400z" />
    <glyph glyph-name="Ntilde" unicode="&#xd1;" horiz-adv-x="1468" 
d="M166 0v1393h227l645 -955v955h265v-1393h-232l-645 952v-952h-260zM408 1663q27 67 79 117q53 51 119 51q47 0 82 -20q38 -22 65 -43q29 -23 58 -43q28 -19 61 -19q43 0 73 27t46 65l78 -102q-34 -75 -84 -122q-49 -46 -115 -46q-43 0 -78 19q-38 21 -68 42
q-32 23 -60 42q-29 20 -58 20q-42 0 -71 -26q-30 -27 -52 -66z" />
    <glyph glyph-name="Ograve" unicode="&#xd2;" horiz-adv-x="1406" 
d="M94 694q0 162 43 292q44 135 122 227q81 96 191 148t250 52t253 -52t194 -148q79 -94 123 -227q43 -130 43 -292q0 -159 -43 -288q-45 -134 -123 -227q-79 -94 -194 -147q-113 -52 -253 -52t-250 52q-112 53 -191 147q-77 91 -122 227q-43 129 -43 288zM352 694
q0 -237 97 -352t251 -115q77 0 144 29q65 28 112 87q48 61 73 145q26 89 26 206q0 118 -26 208q-25 88 -73 148q-47 59 -112 87t-144 28q-155 0 -251 -115q-97 -117 -97 -356zM422 1839h254l141 -307h-213z" />
    <glyph glyph-name="Oacute" unicode="&#xd3;" horiz-adv-x="1406" 
d="M94 694q0 162 43 292q44 135 122 227q81 96 191 148t250 52t253 -52t194 -148q79 -94 123 -227q43 -130 43 -292q0 -159 -43 -288q-45 -134 -123 -227q-79 -94 -194 -147q-113 -52 -253 -52t-250 52q-112 53 -191 147q-77 91 -122 227q-43 129 -43 288zM352 694
q0 -237 97 -352t251 -115q77 0 144 29q65 28 112 87q48 61 73 145q26 89 26 206q0 118 -26 208q-25 88 -73 148q-47 59 -112 87t-144 28q-155 0 -251 -115q-97 -117 -97 -356zM584 1532l143 307h252l-180 -307h-215z" />
    <glyph glyph-name="Ocircumflex" unicode="&#xd4;" horiz-adv-x="1406" 
d="M94 694q0 162 43 292q44 135 122 227q81 96 191 148t250 52t253 -52t194 -148q79 -94 123 -227q43 -130 43 -292q0 -159 -43 -288q-45 -134 -123 -227q-79 -94 -194 -147q-113 -52 -253 -52t-250 52q-112 53 -191 147q-77 91 -122 227q-43 129 -43 288zM352 694
q0 -237 97 -352t251 -115q77 0 144 29q65 28 112 87q48 61 73 145q26 89 26 206q0 118 -26 208q-25 88 -73 148q-47 59 -112 87t-144 28q-155 0 -251 -115q-97 -117 -97 -356zM397 1532l178 307h252l179 -307h-193l-111 178l-112 -178h-193z" />
    <glyph glyph-name="Otilde" unicode="&#xd5;" horiz-adv-x="1406" 
d="M94 694q0 162 43 292q44 135 122 227q81 96 191 148t250 52t253 -52t194 -148q79 -94 123 -227q43 -130 43 -292q0 -159 -43 -288q-45 -134 -123 -227q-79 -94 -194 -147q-113 -52 -253 -52t-250 52q-112 53 -191 147q-77 91 -122 227q-43 129 -43 288zM352 694
q0 -237 97 -352t251 -115q77 0 144 29q65 28 112 87q48 61 73 145q26 89 26 206q0 118 -26 208q-25 88 -73 148q-47 59 -112 87t-144 28q-155 0 -251 -115q-97 -117 -97 -356zM371 1663q27 65 80 117q52 51 118 51q47 0 82 -20q38 -22 65 -43q29 -23 58 -43q28 -19 62 -19
q42 0 72 27t46 65l78 -102q-34 -75 -84 -122q-49 -46 -114 -46q-44 0 -79 19q-38 21 -68 42q-31 23 -60 42q-29 20 -58 20q-42 0 -71 -26q-30 -27 -52 -66z" />
    <glyph glyph-name="Odieresis" unicode="&#xd6;" horiz-adv-x="1406" 
d="M94 694q0 162 43 292q44 135 122 227q81 96 191 148t250 52t253 -52t194 -148q79 -94 123 -227q43 -130 43 -292q0 -159 -43 -288q-45 -134 -123 -227q-79 -94 -194 -147q-113 -52 -253 -52t-250 52q-112 53 -191 147q-77 91 -122 227q-43 129 -43 288zM340 1692
q0 70 40 98q41 29 101 29q61 0 104 -29q42 -28 42 -98q0 -68 -42 -98q-41 -29 -104 -29q-62 0 -101 29q-40 30 -40 98zM352 694q0 -237 97 -352t251 -115q77 0 144 29q65 28 112 87q48 61 73 145q26 89 26 206q0 118 -26 208q-25 88 -73 148q-47 59 -112 87t-144 28
q-155 0 -251 -115q-97 -117 -97 -356zM784 1692q0 69 41 98t105 29q58 0 99 -29q40 -28 40 -98q0 -68 -40 -98q-39 -29 -99 -29q-66 0 -105 29q-41 30 -41 98z" />
    <glyph glyph-name="multiply" unicode="&#xd7;" horiz-adv-x="964" 
d="M115 350l225 271l-225 268l143 147l225 -270l224 270l145 -147l-225 -268l225 -271l-145 -147l-224 270l-225 -270z" />
    <glyph glyph-name="Oslash" unicode="&#xd8;" horiz-adv-x="1404" 
d="M94 694q0 162 43 292q44 135 122 227q81 96 191 148t250 52q196 0 340 -104l58 84h182v-19l-123 -178q75 -93 116 -221q40 -126 40 -281q0 -159 -43 -288q-45 -134 -123 -227q-79 -94 -194 -147q-113 -52 -253 -52q-96 0 -172 23q-80 24 -145 67l-47 -70h-186v20l108 158
q-77 95 -121 226q-43 129 -43 290zM352 694q0 -183 60 -295l487 705q-83 61 -199 61q-155 0 -251 -115q-97 -117 -97 -356zM524 274q70 -47 176 -47q77 0 144 29q65 28 112 87q48 61 73 145q26 89 26 206q0 164 -51 277z" />
    <glyph glyph-name="Ugrave" unicode="&#xd9;" horiz-adv-x="1388" 
d="M152 561v832h262v-815q0 -176 65 -266q66 -91 213 -91q150 0 216 96q67 97 67 263v813h262v-832q0 -121 -32 -229q-31 -106 -98 -186q-64 -77 -170 -123t-245 -46q-138 0 -240 42q-103 42 -168 118q-68 79 -100 184t-32 240zM418 1839h254l141 -307h-213z" />
    <glyph glyph-name="Uacute" unicode="&#xda;" horiz-adv-x="1388" 
d="M152 561v832h262v-815q0 -176 65 -266q66 -91 213 -91q150 0 216 96q67 97 67 263v813h262v-832q0 -121 -32 -229q-31 -106 -98 -186q-64 -77 -170 -123t-245 -46q-138 0 -240 42q-103 42 -168 118q-68 79 -100 184t-32 240zM578 1532l143 307h252l-180 -307h-215z" />
    <glyph glyph-name="Ucircumflex" unicode="&#xdb;" horiz-adv-x="1388" 
d="M152 561v832h262v-815q0 -176 65 -266q66 -91 213 -91q150 0 216 96q67 97 67 263v813h262v-832q0 -121 -32 -229q-31 -106 -98 -186q-64 -77 -170 -123t-245 -46q-138 0 -240 42q-103 42 -168 118q-68 79 -100 184t-32 240zM389 1532l178 307h252l178 -307h-192
l-111 178l-112 -178h-193z" />
    <glyph glyph-name="Udieresis" unicode="&#xdc;" horiz-adv-x="1388" 
d="M152 561v832h262v-815q0 -176 65 -266q66 -91 213 -91q150 0 216 96q67 97 67 263v813h262v-832q0 -121 -32 -229q-31 -106 -98 -186q-64 -77 -170 -123t-245 -46q-138 0 -240 42q-103 42 -168 118q-68 79 -100 184t-32 240zM332 1692q0 70 40 98q41 29 101 29
q61 0 104 -29q41 -28 41 -98q0 -69 -41 -98t-104 -29q-62 0 -101 29q-40 30 -40 98zM776 1692q0 69 41 98t105 29q58 0 99 -29q40 -28 40 -98q0 -68 -40 -98q-39 -29 -99 -29q-66 0 -105 29q-41 30 -41 98z" />
    <glyph glyph-name="Yacute" unicode="&#xdd;" horiz-adv-x="1220" 
d="M23 1374v19h286l303 -594l301 594h287v-19l-461 -815v-559h-258v557zM494 1532l143 307h252l-180 -307h-215z" />
    <glyph glyph-name="Thorn" unicode="&#xde;" horiz-adv-x="1236" 
d="M166 0v1393h258v-199h311q85 0 167 -28q76 -26 138 -86q61 -59 95 -150q34 -90 34 -221q0 -118 -34 -207q-35 -91 -95 -151q-63 -63 -138 -91q-82 -31 -167 -31h-311v-229h-258zM424 459h254q98 0 163 62q66 63 66 190q0 67 -18 115t-49 79t-73 46q-45 16 -89 16h-254
v-508z" />
    <glyph glyph-name="germandbls" unicode="&#xdf;" horiz-adv-x="1226" 
d="M147 0v913q0 156 40 261q41 107 108 173q69 67 155 97q90 31 181 31q105 0 183 -37t130 -95t77 -128q26 -72 26 -140t-20 -126q-18 -53 -42 -99t-42 -74q-19 -29 -19 -49q0 -19 33 -51q34 -33 76 -82q41 -49 76 -118q34 -68 34 -157q0 -71 -25 -135q-23 -60 -69 -107
q-45 -46 -110 -72q-63 -25 -144 -25q-96 0 -160 17q-67 18 -105 36l29 209q29 -18 63 -29q36 -12 76 -12q71 0 117 43q47 44 47 114q0 58 -33 107q-36 54 -72 90t-73 78q-33 37 -33 72q0 30 21 66q31 54 46 77q23 37 46 89q20 46 20 101q0 92 -50 150q-50 57 -128 57
q-98 0 -149 -91q-51 -92 -51 -241v-913h-259z" />
    <glyph glyph-name="agrave" unicode="&#xe0;" horiz-adv-x="1062" 
d="M74 299q0 95 36 165t99 117q60 44 151 69q88 24 191 24q31 0 61 -3q43 -4 60 -7v20q0 102 -52 142t-145 40q-73 0 -141 -17q-76 -19 -129 -44l-47 211q83 35 176 54q97 20 180 20q198 0 305 -108q107 -109 107 -304v-678h-254v78q-47 -41 -114 -70q-65 -28 -159 -28
q-159 0 -242 86t-83 233zM287 1518h254l141 -308h-213zM338 328q0 -72 41 -107t104 -35q69 0 115 24q47 24 74 54v215q-44 10 -105 10q-99 0 -164 -40t-65 -121z" />
    <glyph glyph-name="aacute" unicode="&#xe1;" horiz-adv-x="1062" 
d="M74 299q0 95 36 165t99 117q60 44 151 69q88 24 191 24q31 0 61 -3q43 -4 60 -7v20q0 102 -52 142t-145 40q-73 0 -141 -17q-76 -19 -129 -44l-47 211q83 35 176 54q97 20 180 20q198 0 305 -108q107 -109 107 -304v-678h-254v78q-47 -41 -114 -70q-65 -28 -159 -28
q-159 0 -242 86t-83 233zM338 328q0 -72 41 -107t104 -35q69 0 115 24q47 24 74 54v215q-44 10 -105 10q-99 0 -164 -40t-65 -121zM414 1210l143 308h252l-180 -308h-215z" />
    <glyph glyph-name="acircumflex" unicode="&#xe2;" horiz-adv-x="1062" 
d="M74 299q0 95 36 165t99 117q60 44 151 69q88 24 191 24q31 0 61 -3q43 -4 60 -7v20q0 102 -52 142t-145 40q-73 0 -141 -17q-76 -19 -129 -44l-47 211q83 35 176 54q97 20 180 20q198 0 305 -108q107 -109 107 -304v-678h-254v78q-47 -41 -114 -70q-65 -28 -159 -28
q-159 0 -242 86t-83 233zM242 1210l178 308h252l178 -308h-193l-110 179l-113 -179h-192zM338 328q0 -72 41 -107t104 -35q69 0 115 24q47 24 74 54v215q-44 10 -105 10q-99 0 -164 -40t-65 -121z" />
    <glyph glyph-name="atilde" unicode="&#xe3;" horiz-adv-x="1062" 
d="M74 299q0 95 36 165t99 117q60 44 151 69q88 24 191 24q31 0 61 -3q43 -4 60 -7v20q0 102 -52 142t-145 40q-73 0 -141 -17q-76 -19 -129 -44l-47 211q83 35 176 54q97 20 180 20q198 0 305 -108q107 -109 107 -304v-678h-254v78q-47 -41 -114 -70q-65 -28 -159 -28
q-159 0 -242 86t-83 233zM213 1341q27 65 80 117q52 51 119 51q48 0 82 -19q35 -20 64 -43t58 -43t62 -20q43 0 73 27q29 26 46 66l77 -103q-34 -76 -83 -122t-115 -46q-42 0 -79 20q-38 21 -68 42q-31 22 -60 42q-28 19 -57 19q-44 0 -72 -25q-27 -25 -51 -67zM338 328
q0 -72 41 -107t104 -35q69 0 115 24q47 24 74 54v215q-44 10 -105 10q-99 0 -164 -40t-65 -121z" />
    <glyph glyph-name="adieresis" unicode="&#xe4;" horiz-adv-x="1062" 
d="M74 299q0 95 36 165t99 117q60 44 151 69q88 24 191 24q31 0 61 -3q43 -4 60 -7v20q0 102 -52 142t-145 40q-73 0 -141 -17q-76 -19 -129 -44l-47 211q83 35 176 54q97 20 180 20q198 0 305 -108q107 -109 107 -304v-678h-254v78q-47 -41 -114 -70q-65 -28 -159 -28
q-159 0 -242 86t-83 233zM184 1370q0 70 40 98q41 29 102 29q60 0 103 -29q42 -28 42 -98q0 -67 -42 -97t-103 -30q-62 0 -102 30t-40 97zM338 328q0 -72 41 -107t104 -35q69 0 115 24q47 24 74 54v215q-44 10 -105 10q-99 0 -164 -40t-65 -121zM629 1370q0 69 41 98t104 29
q58 0 99 -29q40 -28 40 -98q0 -67 -40 -97q-41 -30 -99 -30q-64 0 -104 30q-41 30 -41 97z" />
    <glyph glyph-name="aring" unicode="&#xe5;" horiz-adv-x="1062" 
d="M74 299q0 95 36 165t99 117q60 44 151 69q88 24 191 24q31 0 61 -3q43 -4 60 -7v20q0 102 -52 142t-145 40q-73 0 -141 -17q-76 -19 -129 -44l-47 211q83 35 176 54q97 20 180 20q198 0 305 -108q107 -109 107 -304v-678h-254v78q-47 -41 -114 -70q-65 -28 -159 -28
q-159 0 -242 86t-83 233zM328 1372q0 84 58 142q59 59 142 59q84 0 143 -59q58 -58 58 -142t-58 -142q-59 -59 -143 -59q-83 0 -142 59q-58 58 -58 142zM338 328q0 -72 41 -107t104 -35q69 0 115 24q47 24 74 54v215q-44 10 -105 10q-99 0 -164 -40t-65 -121zM436 1372
q0 -38 27 -65t65 -27q37 0 64 27q26 26 26 65q0 38 -26 64t-64 26q-39 0 -65 -26q-27 -27 -27 -64z" />
    <glyph glyph-name="ae" unicode="&#xe6;" horiz-adv-x="1636" 
d="M74 307q0 91 37 159q38 69 101 115q62 45 150 68q87 23 185 23q73 0 127 -10q1 118 -49 161t-150 43q-67 0 -141 -18q-70 -17 -129 -41l-45 211q77 32 182 52t197 20q121 0 188 -44q66 -43 107 -118q40 68 117 120q76 52 204 52q107 0 181 -34q76 -35 120 -92
q45 -58 66 -135q20 -73 20 -163q0 -80 -9 -132q-9 -50 -20 -81h-604q1 -61 18 -119q15 -52 46 -91q30 -38 79 -59q50 -22 117 -22q88 0 156 35q70 36 115 78l88 -166q-73 -67 -167 -107q-96 -41 -212 -41q-132 0 -220 54q-85 52 -130 141q-29 -33 -66 -66q-35 -31 -85 -59
q-44 -25 -105 -44q-54 -17 -125 -17q-156 0 -249 80q-95 81 -95 247zM338 324q0 -72 45 -105t100 -33q73 0 119 27q50 29 72 59v209q-16 4 -41 6q-32 2 -51 2q-43 0 -84 -7q-44 -8 -79 -25q-36 -18 -59 -50q-22 -31 -22 -83zM930 643h397q6 30 6 66q0 81 -47 140
q-46 58 -133 58q-57 0 -99 -21t-70 -58t-41 -84q-13 -46 -13 -101z" />
    <glyph glyph-name="ccedilla" unicode="&#xe7;" horiz-adv-x="1038" 
d="M92 537q0 131 39 236t108 177q70 73 161 111q93 39 204 39q123 0 209 -44q83 -42 152 -108l-117 -196q-45 45 -103 78q-56 32 -141 32q-106 0 -178 -83t-72 -242t73 -244q72 -84 183 -84q81 0 136 32q58 34 102 78l117 -196q-69 -66 -152 -108q-86 -44 -209 -44h-4
l-22 -92q18 6 45 6q72 0 112 -38q39 -37 39 -97q0 -76 -56 -116t-143 -40q-23 0 -69 6q-34 4 -70 17l23 88q25 -10 53 -16q27 -6 55 -6q42 0 66 15t24 48q0 59 -88 59q-30 0 -58 -4q-35 -5 -50 -10l-6 10l45 181q-92 17 -165 62q-75 46 -129 117t-84 165q-30 95 -30 211z
" />
    <glyph glyph-name="egrave" unicode="&#xe8;" horiz-adv-x="1075" 
d="M92 532q0 125 34 228q35 106 96 179q63 75 151 118q87 43 198 43q110 0 187 -34q79 -35 127 -92q48 -56 72 -137q24 -79 24 -167q0 -110 -29 -217h-606q7 -115 69 -189q59 -71 197 -71q86 0 149 31q59 29 113 73l99 -195q-72 -62 -172 -96q-102 -35 -230 -35
q-123 0 -213 42q-88 41 -149 117q-59 74 -88 178q-29 105 -29 224zM326 1518h254l141 -308h-213zM360 653h379q6 24 6 54q0 86 -46 129t-128 43q-97 0 -150 -63q-54 -64 -61 -163z" />
    <glyph glyph-name="eacute" unicode="&#xe9;" horiz-adv-x="1075" 
d="M92 532q0 125 34 228q35 106 96 179q63 75 151 118q87 43 198 43q110 0 187 -34q79 -35 127 -92q48 -56 72 -137q24 -79 24 -167q0 -110 -29 -217h-606q7 -115 69 -189q59 -71 197 -71q86 0 149 31q59 29 113 73l99 -195q-72 -62 -172 -96q-102 -35 -230 -35
q-123 0 -213 42q-88 41 -149 117q-59 74 -88 178q-29 105 -29 224zM360 653h379q6 24 6 54q0 86 -46 129t-128 43q-97 0 -150 -63q-54 -64 -61 -163zM451 1210l143 308h252l-180 -308h-215z" />
    <glyph glyph-name="ecircumflex" unicode="&#xea;" horiz-adv-x="1075" 
d="M92 532q0 125 34 228q35 106 96 179q63 75 151 118q87 43 198 43q110 0 187 -34q79 -35 127 -92q48 -56 72 -137q24 -79 24 -167q0 -110 -29 -217h-606q7 -115 69 -189q59 -71 197 -71q86 0 149 31q59 29 113 73l99 -195q-72 -62 -172 -96q-102 -35 -230 -35
q-123 0 -213 42q-88 41 -149 117q-59 74 -88 178q-29 105 -29 224zM276 1210l179 308h252l178 -308h-193l-110 179l-113 -179h-193zM360 653h379q6 24 6 54q0 86 -46 129t-128 43q-97 0 -150 -63q-54 -64 -61 -163z" />
    <glyph glyph-name="edieresis" unicode="&#xeb;" horiz-adv-x="1075" 
d="M92 532q0 125 34 228q35 106 96 179q63 75 151 118q87 43 198 43q110 0 187 -34q79 -35 127 -92q48 -56 72 -137q24 -79 24 -167q0 -110 -29 -217h-606q7 -115 69 -189q59 -71 197 -71q86 0 149 31q59 29 113 73l99 -195q-72 -62 -172 -96q-102 -35 -230 -35
q-123 0 -213 42q-88 41 -149 117q-59 74 -88 178q-29 105 -29 224zM215 1370q0 70 40 98q41 29 101 29q61 0 104 -29q42 -28 42 -98q0 -67 -42 -97t-104 -30q-60 0 -101 30q-40 30 -40 97zM360 653h379q6 24 6 54q0 86 -46 129t-128 43q-97 0 -150 -63q-54 -64 -61 -163z
M659 1370q0 69 41 98t105 29q58 0 99 -29q40 -28 40 -98q0 -67 -40 -97t-99 -30q-65 0 -105 30q-41 30 -41 97z" />
    <glyph glyph-name="igrave" unicode="&#xec;" horiz-adv-x="555" 
d="M23 1518h253l142 -308h-213zM147 0v1071h259v-1071h-259z" />
    <glyph glyph-name="iacute" unicode="&#xed;" horiz-adv-x="555" 
d="M147 0v1071h259v-1071h-259zM152 1210l143 308h252l-180 -308h-215z" />
    <glyph glyph-name="icircumflex" unicode="&#xee;" horiz-adv-x="555" 
d="M-27 1210l179 308h251l179 -308h-193l-110 179l-113 -179h-193zM147 0v1071h259v-1071h-259z" />
    <glyph glyph-name="idieresis" unicode="&#xef;" horiz-adv-x="555" 
d="M-86 1370q0 70 40 98q41 29 101 29q61 0 104 -29q42 -28 42 -98q0 -67 -42 -97t-104 -30q-60 0 -101 30q-40 30 -40 97zM147 0v1071h259v-1071h-259zM358 1370q0 69 41 98t105 29q58 0 99 -29q40 -28 40 -98q0 -67 -40 -97q-41 -30 -99 -30q-64 0 -105 30t-41 97z" />
    <glyph glyph-name="eth" unicode="&#xf0;" horiz-adv-x="1118" 
d="M100 475q0 95 25 182q23 81 72 144q45 58 114 93q67 34 156 34q96 0 164 -43q69 -43 114 -90q-12 110 -53 202q-40 90 -96 156l-90 -111l-68 62l94 115q-38 33 -69 52q-35 21 -70 38l103 166q48 -12 92 -33q46 -21 88 -49l84 102l67 -59l-79 -99q114 -102 189 -265
t75 -374q0 -168 -32 -304t-94 -226q-64 -93 -154 -140q-92 -48 -210 -48q-93 0 -170 34q-76 34 -133 100q-55 64 -87 156q-32 93 -32 205zM356 473q0 -113 48 -183q48 -71 128 -71q94 0 147 90q51 87 66 258q-22 31 -38 50q-25 28 -49 48q-24 19 -56 34q-31 14 -63 14
q-82 0 -132 -59q-51 -60 -51 -181z" />
    <glyph glyph-name="ntilde" unicode="&#xf1;" horiz-adv-x="1206" 
d="M147 0v1071h256v-125q50 63 133 104q81 40 187 40q177 0 260 -110q82 -109 82 -308v-672h-258v621q0 115 -43 171t-139 56q-43 0 -79 -15q-37 -15 -64 -41q-27 -25 -47 -58q-21 -34 -32 -64v-670h-256zM287 1341q27 65 80 117q53 51 118 51q48 0 82 -19q38 -22 65 -43
q29 -23 58 -43t62 -20q42 0 72 27q29 26 46 66l78 -103q-34 -75 -84 -122q-49 -46 -114 -46q-42 0 -79 20q-38 21 -68 42q-31 22 -60 42q-28 19 -58 19q-43 0 -71 -25q-29 -26 -52 -67z" />
    <glyph glyph-name="ograve" unicode="&#xf2;" horiz-adv-x="1163" 
d="M92 532q0 132 35 239t99 178q65 73 154 112q88 39 200 39q110 0 201 -39q90 -38 156 -112q64 -71 99 -178t35 -239q0 -131 -35 -236q-35 -104 -99 -176q-67 -74 -156 -111q-93 -38 -201 -38q-110 0 -200 38q-88 37 -154 111q-64 72 -99 176q-35 105 -35 236zM303 1518
h254l141 -308h-213zM346 532q0 -157 64 -241q63 -82 170 -82q110 0 173 82q62 81 62 241q0 165 -62 246q-63 82 -173 82q-107 0 -170 -82q-64 -84 -64 -246z" />
    <glyph glyph-name="oacute" unicode="&#xf3;" horiz-adv-x="1163" 
d="M92 532q0 132 35 239t99 178q65 73 154 112q88 39 200 39q110 0 201 -39q90 -38 156 -112q64 -71 99 -178t35 -239q0 -131 -35 -236q-35 -104 -99 -176q-67 -74 -156 -111q-93 -38 -201 -38q-110 0 -200 38q-88 37 -154 111q-64 72 -99 176q-35 105 -35 236zM346 532
q0 -157 64 -241q63 -82 170 -82q110 0 173 82q62 81 62 241q0 165 -62 246q-63 82 -173 82q-107 0 -170 -82q-64 -84 -64 -246zM465 1210l143 308h252l-180 -308h-215z" />
    <glyph glyph-name="ocircumflex" unicode="&#xf4;" horiz-adv-x="1163" 
d="M92 532q0 132 35 239t99 178q65 73 154 112q88 39 200 39q110 0 201 -39q90 -38 156 -112q64 -71 99 -178t35 -239q0 -131 -35 -236q-35 -104 -99 -176q-67 -74 -156 -111q-93 -38 -201 -38q-110 0 -200 38q-88 37 -154 111q-64 72 -99 176q-35 105 -35 236zM276 1210
l179 308h252l178 -308h-193l-110 179l-113 -179h-193zM346 532q0 -157 64 -241q63 -82 170 -82q110 0 173 82q62 81 62 241q0 165 -62 246q-63 82 -173 82q-107 0 -170 -82q-64 -84 -64 -246z" />
    <glyph glyph-name="otilde" unicode="&#xf5;" horiz-adv-x="1163" 
d="M92 532q0 132 35 239t99 178q65 73 154 112q88 39 200 39q110 0 201 -39q90 -38 156 -112q64 -71 99 -178t35 -239q0 -131 -35 -236q-35 -104 -99 -176q-67 -74 -156 -111q-93 -38 -201 -38q-110 0 -200 38q-88 37 -154 111q-64 72 -99 176q-35 105 -35 236zM248 1341
q27 65 80 117q52 51 118 51q48 0 82 -19q38 -22 65 -43q29 -23 58 -43t62 -20q42 0 72 27q29 26 46 66l78 -103q-34 -75 -84 -122q-49 -46 -114 -46q-42 0 -79 20q-38 21 -68 42q-32 22 -60 42q-28 19 -58 19q-43 0 -71 -25q-27 -25 -51 -67zM346 532q0 -157 64 -241
q63 -82 170 -82q110 0 173 82q62 81 62 241q0 165 -62 246q-63 82 -173 82q-107 0 -170 -82q-64 -84 -64 -246z" />
    <glyph glyph-name="odieresis" unicode="&#xf6;" horiz-adv-x="1163" 
d="M92 532q0 132 35 239t99 178q65 73 154 112q88 39 200 39q110 0 201 -39q90 -38 156 -112q64 -71 99 -178t35 -239q0 -131 -35 -236q-35 -104 -99 -176q-67 -74 -156 -111q-93 -38 -201 -38q-110 0 -200 38q-88 37 -154 111q-64 72 -99 176q-35 105 -35 236zM215 1370
q0 70 40 98q41 29 101 29q61 0 104 -29q42 -28 42 -98q0 -67 -42 -97t-104 -30q-60 0 -101 30q-40 30 -40 97zM346 532q0 -157 64 -241q63 -82 170 -82q110 0 173 82q62 81 62 241q0 165 -62 246q-63 82 -173 82q-107 0 -170 -82q-64 -84 -64 -246zM659 1370q0 69 41 98
t105 29q58 0 99 -29q40 -28 40 -98q0 -67 -40 -97t-99 -30q-65 0 -105 30q-41 30 -41 97z" />
    <glyph glyph-name="divide" unicode="&#xf7;" horiz-adv-x="1032" 
d="M98 516v207h836v-207h-836zM375 227q0 73 36 110q36 38 103 38q64 0 102 -38q37 -37 37 -110q0 -72 -37 -109q-38 -38 -102 -38q-139 0 -139 147zM375 1010q0 72 36 109q36 38 103 38q64 0 102 -38q37 -37 37 -109q0 -73 -37 -110q-38 -38 -102 -38q-139 0 -139 148z" />
    <glyph glyph-name="oslash" unicode="&#xf8;" horiz-adv-x="1163" 
d="M92 532q0 132 35 239t99 178q65 73 154 112q88 39 200 39q166 0 280 -84l39 55h129v-20l-80 -115q60 -72 91 -173q32 -104 32 -231q0 -131 -35 -236q-35 -104 -99 -176q-67 -74 -156 -111q-93 -38 -201 -38q-148 0 -261 70l-28 -41h-129v20l67 97q-65 71 -101 176
t-36 239zM346 532q0 -121 37 -196l334 477q-58 47 -137 47q-107 0 -170 -82q-64 -84 -64 -246zM461 242q47 -33 119 -33q110 0 173 82q62 81 62 241q0 100 -27 177z" />
    <glyph glyph-name="ugrave" unicode="&#xf9;" horiz-adv-x="1204" 
d="M139 399v672h258v-620q0 -115 43 -171q44 -57 140 -57q40 0 78 16q37 15 64 41q28 27 47 57q21 34 32 64v670h256v-1071h-256v125q-45 -61 -130 -103q-81 -40 -188 -40q-179 0 -261 110q-83 112 -83 307zM315 1518h254l142 -308h-213z" />
    <glyph glyph-name="uacute" unicode="&#xfa;" horiz-adv-x="1204" 
d="M139 399v672h258v-620q0 -115 43 -171q44 -57 140 -57q40 0 78 16q37 15 64 41q28 27 47 57q21 34 32 64v670h256v-1071h-256v125q-45 -61 -130 -103q-81 -40 -188 -40q-179 0 -261 110q-83 112 -83 307zM494 1210l143 308h252l-180 -308h-215z" />
    <glyph glyph-name="ucircumflex" unicode="&#xfb;" horiz-adv-x="1204" 
d="M139 399v672h258v-620q0 -115 43 -171q44 -57 140 -57q40 0 78 16q37 15 64 41q28 27 47 57q21 34 32 64v670h256v-1071h-256v125q-45 -61 -130 -103q-81 -40 -188 -40q-179 0 -261 110q-83 112 -83 307zM293 1210l178 308h252l178 -308h-192l-111 179l-113 -179h-192z
" />
    <glyph glyph-name="udieresis" unicode="&#xfc;" horiz-adv-x="1204" 
d="M139 399v672h258v-620q0 -115 43 -171q44 -57 140 -57q40 0 78 16q37 15 64 41q28 27 47 57q21 34 32 64v670h256v-1071h-256v125q-45 -61 -130 -103q-81 -40 -188 -40q-179 0 -261 110q-83 112 -83 307zM236 1370q0 71 39 98q41 29 102 29q60 0 103 -29q42 -28 42 -98
q0 -67 -42 -97t-103 -30t-102 30q-39 29 -39 97zM680 1370q0 69 41 98t104 29q59 0 100 -29q40 -28 40 -98q0 -67 -40 -97q-41 -30 -100 -30q-63 0 -104 30t-41 97z" />
    <glyph glyph-name="yacute" unicode="&#xfd;" horiz-adv-x="1097" 
d="M27 1071h284l242 -784l231 782q87 0 130 1t130 1l-399 -1157q-26 -75 -58 -135q-32 -61 -75 -101q-45 -42 -100 -62q-60 -22 -136 -22q-57 0 -116 19q-52 17 -92 41l38 196q30 -15 72 -28q39 -12 80 -12q65 0 101 37q35 37 63 118l16 60zM430 1210l143 308h252l-180 -308
h-215z" />
    <glyph glyph-name="thorn" unicode="&#xfe;" horiz-adv-x="1193" 
d="M147 -385v1839h256v-487q45 54 114 90q67 35 159 35q95 0 172 -37t134 -109t87 -175q31 -107 31 -236q0 -131 -31 -236q-30 -103 -87 -173q-58 -71 -134 -108q-75 -36 -172 -36q-90 0 -157 32q-70 33 -116 84v-483h-256zM403 301q29 -35 80 -62q53 -28 111 -28
q114 0 179 87q65 88 65 241q0 151 -65 237t-179 86q-60 0 -111 -27t-80 -65v-469z" />
    <glyph glyph-name="ydieresis" unicode="&#xff;" horiz-adv-x="1097" 
d="M27 1071h284l242 -784l231 782q87 0 130 1t130 1l-399 -1157q-26 -75 -58 -135q-32 -61 -75 -101q-45 -42 -100 -62q-60 -22 -136 -22q-57 0 -116 19q-52 17 -92 41l38 196q30 -15 72 -28q39 -12 80 -12q65 0 101 37q35 37 63 118l16 60zM186 1370q0 70 40 98
q41 29 102 29q60 0 103 -29q42 -28 42 -98q0 -67 -42 -97t-103 -30q-62 0 -102 30t-40 97zM631 1370q0 69 41 98t104 29q59 0 100 -29q39 -27 39 -98q0 -68 -39 -97q-41 -30 -100 -30q-63 0 -104 30t-41 97z" />
    <glyph glyph-name="OE" unicode="&#x152;" horiz-adv-x="2025" 
d="M94 692q0 154 45 286q45 131 125 228q81 97 191 151q111 54 239 54q89 0 158 -23q72 -24 133 -67v72h944v-232h-694v-340h565v-211h-565v-381h692v-229h-942v70q-136 -93 -291 -93q-126 0 -239 55q-112 54 -191 150q-80 97 -125 227q-45 131 -45 283zM342 692
q0 -100 27 -186q28 -90 75 -149q48 -61 117 -98q67 -36 150 -36q87 0 156 34q74 36 118 93v688q-102 127 -276 127q-81 0 -148 -36t-117 -99q-47 -60 -75 -150q-27 -87 -27 -188z" />
    <glyph glyph-name="oe" unicode="&#x153;" horiz-adv-x="1882" 
d="M92 532q0 132 35 239q35 108 97 178q64 73 152 112t199 39q142 0 251 -68t161 -190q54 117 154 187q101 71 239 71q109 0 184 -34q79 -36 127 -94q49 -59 73 -143q24 -82 24 -176q0 -44 -8 -105q-5 -37 -15 -85h-624q0 -54 16 -102q17 -51 48 -91t83 -66t123 -26
q86 0 154 34q72 36 125 79l88 -182q-74 -64 -170 -101q-95 -37 -213 -37q-157 0 -261 67q-101 65 -151 181q-52 -118 -160 -183q-107 -65 -248 -65q-109 0 -199 38q-89 38 -152 110t-97 176q-35 107 -35 237zM340 532q0 -157 67 -241q66 -82 173 -82q110 0 176 82
q65 81 65 241q0 165 -65 246q-66 82 -176 82q-107 0 -173 -82q-67 -84 -67 -246zM1157 643h410q6 33 6 57q0 86 -48 146q-47 59 -139 59q-105 0 -165 -70q-59 -70 -64 -192z" />
    <glyph glyph-name="Ydieresis" unicode="&#x178;" horiz-adv-x="1220" 
d="M23 1374v19h286l303 -594l301 594h287v-19l-461 -815v-559h-258v557zM248 1692q0 70 40 98q41 29 101 29q61 0 104 -29q42 -28 42 -98q0 -68 -42 -98q-41 -29 -104 -29q-62 0 -101 29q-40 30 -40 98zM692 1692q0 69 41 98t105 29q58 0 99 -29q40 -28 40 -98
q0 -68 -40 -98q-39 -29 -99 -29q-66 0 -105 29q-41 30 -41 98z" />
    <glyph glyph-name="circumflex" unicode="&#x2c6;" horiz-adv-x="1044" 
d="M217 1210l178 308h252l178 -308h-192l-111 179l-112 -179h-193z" />
    <glyph glyph-name="tilde" unicode="&#x2dc;" horiz-adv-x="1044" 
d="M190 1341q27 65 80 117q52 51 119 51q48 0 82 -19q38 -22 65 -43q29 -23 58 -43t61 -20q43 0 73 27q29 26 46 66l78 -103q-34 -75 -84 -122q-49 -46 -115 -46q-42 0 -79 20q-34 18 -67 42q-9 6 -61 42q-28 19 -57 19q-44 0 -72 -25q-27 -25 -51 -67z" />
    <glyph glyph-name="uni2000" unicode="&#x2000;" horiz-adv-x="919" 
 />
    <glyph glyph-name="uni2001" unicode="&#x2001;" horiz-adv-x="1839" 
 />
    <glyph glyph-name="uni2002" unicode="&#x2002;" horiz-adv-x="919" 
 />
    <glyph glyph-name="uni2003" unicode="&#x2003;" horiz-adv-x="1839" 
 />
    <glyph glyph-name="uni2004" unicode="&#x2004;" horiz-adv-x="613" 
 />
    <glyph glyph-name="uni2005" unicode="&#x2005;" horiz-adv-x="459" 
 />
    <glyph glyph-name="uni2006" unicode="&#x2006;" horiz-adv-x="306" 
 />
    <glyph glyph-name="uni2007" unicode="&#x2007;" horiz-adv-x="306" 
 />
    <glyph glyph-name="uni2008" unicode="&#x2008;" horiz-adv-x="229" 
 />
    <glyph glyph-name="uni2009" unicode="&#x2009;" horiz-adv-x="367" 
 />
    <glyph glyph-name="uni200A" unicode="&#x200a;" horiz-adv-x="102" 
 />
    <glyph glyph-name="uni2010" unicode="&#x2010;" horiz-adv-x="956" 
d="M127 516v207h702v-207h-702z" />
    <glyph glyph-name="uni2011" unicode="&#x2011;" horiz-adv-x="956" 
d="M127 516v207h702v-207h-702z" />
    <glyph glyph-name="figuredash" unicode="&#x2012;" horiz-adv-x="956" 
d="M127 516v207h702v-207h-702z" />
    <glyph glyph-name="endash" unicode="&#x2013;" horiz-adv-x="1126" 
d="M127 516v207h872v-207h-872z" />
    <glyph glyph-name="emdash" unicode="&#x2014;" horiz-adv-x="1560" 
d="M127 516v207h1307v-207h-1307z" />
    <glyph glyph-name="quoteleft" unicode="&#x2018;" horiz-adv-x="512" 
d="M98 930q0 53 14 123q14 72 34 135q13 43 47 127q22 54 47 98l143 -61l-74 -267q53 -15 76 -55q25 -42 25 -100q0 -81 -40 -124q-41 -44 -116 -44q-74 0 -115 45q-41 46 -41 123z" />
    <glyph glyph-name="quoteright" unicode="&#x2019;" horiz-adv-x="507" 
d="M106 1239q0 83 40 126q41 44 114 44q74 0 116 -46q42 -47 42 -124q0 -55 -15 -123q-18 -80 -35 -134t-46 -126q-19 -48 -48 -98l-143 59l76 270q-49 12 -75 53t-26 99z" />
    <glyph glyph-name="quotesinglbase" unicode="&#x201a;" horiz-adv-x="526" 
d="M106 129q0 83 40 126q41 44 114 44q74 0 116 -46q42 -47 42 -124q0 -55 -15 -123q-18 -80 -35 -134t-46 -126q-19 -48 -48 -98l-143 59l76 270q-49 12 -75 53t-26 99z" />
    <glyph glyph-name="quotedblleft" unicode="&#x201c;" horiz-adv-x="862" 
d="M98 973q0 43 13 111q13 66 31 124q20 64 42 116q24 58 43 89l125 -51l-69 -254q47 -11 68 -46q22 -38 22 -89q0 -71 -35 -112q-34 -40 -100 -40t-103 42q-37 41 -37 110zM485 973q0 43 13 111q13 66 31 124q20 64 42 116t41 89l125 -51l-69 -254q47 -11 69 -46
q23 -37 23 -89q0 -71 -35 -112q-34 -40 -100 -40q-68 0 -104 42t-36 110z" />
    <glyph glyph-name="quotedblright" unicode="&#x201d;" horiz-adv-x="858" 
d="M104 1262q0 71 36 110t102 39q65 0 101 -42t36 -107q0 -51 -12 -114q-10 -52 -31 -124q-17 -59 -41 -116q-24 -58 -43 -89l-125 53l68 250q-46 12 -68 49q-23 38 -23 91zM489 1262q0 71 36 110t100 39q65 0 103 -42q38 -43 38 -107q0 -51 -12 -114q-11 -58 -32 -124
q-20 -64 -42 -116t-41 -89l-125 53l68 250q-48 12 -70 49q-23 38 -23 91z" />
    <glyph glyph-name="quotedblbase" unicode="&#x201e;" horiz-adv-x="878" 
d="M111 88q0 73 34 113q35 41 103 41q65 0 101 -42t36 -112q0 -52 -12 -113q-9 -48 -31 -122q-17 -59 -41 -116q-24 -58 -43 -89l-125 51l68 254q-46 11 -68 46t-22 89zM496 88q0 73 34 113q35 41 101 41q65 0 102 -42q37 -41 37 -112q0 -52 -12 -113q-9 -48 -31 -122
q-17 -59 -41 -116q-24 -58 -43 -89l-125 51l70 254q-48 11 -70 46t-22 89z" />
    <glyph glyph-name="bullet" unicode="&#x2022;" horiz-adv-x="763" 
d="M162 618q0 117 57 180q56 62 162 62t162 -62q57 -63 57 -180q0 -116 -57 -179q-56 -62 -162 -62t-162 62q-57 63 -57 179z" />
    <glyph glyph-name="ellipsis" unicode="&#x2026;" horiz-adv-x="1427" 
d="M109 121q0 73 37 113t108 40q69 0 108 -40q39 -41 39 -113q0 -74 -39 -113t-108 -39q-70 0 -108 39q-37 38 -37 113zM569 121q0 73 37 113t109 40q67 0 106 -40q39 -41 39 -113q0 -74 -39 -113t-106 -39q-146 0 -146 152zM1030 121q0 72 38 113q37 40 108 40
q68 0 105 -40q38 -41 38 -113q0 -73 -38 -113q-37 -39 -105 -39q-70 0 -108 39q-38 40 -38 113z" />
    <glyph glyph-name="uni202F" unicode="&#x202f;" horiz-adv-x="367" 
 />
    <glyph glyph-name="guilsinglleft" unicode="&#x2039;" horiz-adv-x="575" 
d="M84 592v51l283 418h18l94 -53l-180 -390l180 -389l-94 -53h-18z" />
    <glyph glyph-name="guilsinglright" unicode="&#x203a;" horiz-adv-x="575" 
d="M96 227l180 391l-180 388l94 55h19l283 -418v-51l-283 -416h-19z" />
    <glyph glyph-name="uni205F" unicode="&#x205f;" horiz-adv-x="459" 
 />
    <glyph glyph-name="Euro" unicode="&#x20ac;" horiz-adv-x="1112" 
d="M96 469v158h82q-2 24 -2 37v38v33h-80v160h92q38 257 165 387q128 131 325 131q118 0 204 -37q89 -38 150 -98l-88 -207q-52 57 -114 80q-61 23 -121 23q-95 0 -162 -67q-65 -65 -92 -212h401l-57 -160h-359v-33v-38q0 -13 2 -37h324l-51 -158h-252q55 -250 244 -250
q71 0 120 21q51 22 99 61l94 -207q-75 -55 -162 -85q-83 -29 -184 -29q-189 0 -312 126t-167 363h-99z" />
    <glyph glyph-name="trademark" unicode="&#x2122;" horiz-adv-x="1474" 
d="M131 1214v144h455v-144h-160v-483h-135v483h-160zM713 731v627h123l184 -262l184 262h121v-627h-137v375l-156 -215h-26l-154 215v-375h-139z" />
    <glyph glyph-name="uni25FC" unicode="&#x25fc;" horiz-adv-x="1075" 
d="M0 0v1075h1075v-1075h-1075z" />
    </font>
</defs>
</svg>
