<?xml version="1.0" standalone="no"?>
<!DOCTYPE svg PUBLIC "-//W3C//DTD SVG 1.1//EN" "http://www.w3.org/Graphics/SVG/1.1/DTD/svg11.dtd" >
<svg xmlns="http://www.w3.org/2000/svg" xmlns:xlink="http://www.w3.org/1999/xlink" version="1.1">
<metadata>
Created by FontForge 20161116 at Thu Feb 23 15:19:47 2017
 By Jimmy Wärting
HTF Requiema (c) 1991-4 The Hoefler Type Foundry, Inc. Info: www.typography.com
</metadata>
<defs>
<font id="RequiemText-HTF-Roman" horiz-adv-x="212" >
  <font-face 
    font-family="Requiem"
    font-weight="500"
    font-stretch="normal"
    units-per-em="1000"
    panose-1="0 0 0 0 0 0 0 0 0 0"
    ascent="800"
    descent="-200"
    x-height="411"
    cap-height="648"
    bbox="-78.4 -327.75 1357 919.556"
    underline-thickness="17"
    underline-position="-181"
    unicode-range="U+0020-FB02"
  />
<missing-glyph horiz-adv-x="500" 
 />
    <glyph glyph-name=".notdef" horiz-adv-x="500" 
 />
    <glyph glyph-name=".null" horiz-adv-x="0" 
 />
    <glyph glyph-name="nonmarkingreturn" horiz-adv-x="333" 
 />
    <glyph glyph-name="space" unicode=" " horiz-adv-x="226" 
 />
    <glyph glyph-name="exclam" unicode="!" horiz-adv-x="251" 
d="M135 150q0 -2 -5 -2.5t-9.5 0.5t-4.5 2q-2 216 -27 434q-2 16 44 22q42 5 44 -7q-5 -205 -42 -449zM126 -15q-18 0 -30 12.5t-12 28.5q0 17 12.5 30t31.5 13q17 0 29.5 -12.5t12.5 -28.5q0 -17 -13 -30t-31 -13z" />
    <glyph glyph-name="quotedbl" unicode="&#x22;" horiz-adv-x="320" 
d="M38 467q-3 -3 -7.5 -3t-7 3.5t-0.5 7.5l130 203q3 4 14 0t19 -12t4 -13zM144 467q-3 -3 -7.5 -2.5t-6.5 4t0 7.5l140 197q3 5 13.5 0t18 -13.5t3.5 -12.5z" />
    <glyph glyph-name="numbersign" unicode="#" horiz-adv-x="716" 
d="M491 381l-5 -106l-7 -106l164 3q4 0 4 -13t-4 -13q-10 0 -27.5 0.5t-53.5 1.5t-60 2h-24l-15 -215q0 -3 -6 -3.5t-12 1t-6 4.5l16 211l-105 1l-107 -1l-16 -213q0 -2 -5.5 -2.5t-11.5 0.5t-6 4l16 211l-164 -2q-3 0 -3 13t3 13l165 -3l9 107l7 105l-164 -2q-4 0 -3.5 13
t3.5 13l165 -3l15 213q0 2 6 2.5t12 -0.5t6 -4l-17 -211l107 -1l107 1l14 213q0 2 6 2.5t12.5 -1t6.5 -3.5l-17 -211l163 3q4 0 4 -13t-4 -13zM367 382l-108 -1l-8 -106l-7 -106l106 -1l106 -5l9 113l8 105z" />
    <glyph glyph-name="dollar" unicode="$" horiz-adv-x="458" 
d="M224 -19l-3 -46q0 -3 -6 -3.5t-12 1t-6 4.5l4 45q-77 4 -140 58q-3 2 3 121q0 2 4.5 3t9 0t4.5 -2q5 -63 36.5 -102.5t86.5 -46.5l3 52q4 52 8 110.5t5 67.5q-37 22 -53.5 32.5t-42 32.5t-36 46.5t-10.5 54.5q0 61 46.5 108.5t117.5 50.5l3 47q0 2 6 2.5t12.5 -1
t6.5 -3.5l-4 -45q57 -3 98 -28q14 -8 14 -102q0 -2 -5 -3t-10 0t-5 2q-16 92 -101 101q0 2 -2.5 -45t-5 -99t-2.5 -63q80 -47 106 -74q43 -44 43 -102q0 -71 -48.5 -121.5t-124.5 -52.5zM146 455q0 -36 21 -61t61 -50l13 195q-42 -2 -68.5 -24.5t-26.5 -59.5zM242 231
l-16 -219q46 0 77.5 25.5t31.5 70.5q0 39 -24 67t-69 56z" />
    <glyph glyph-name="percent" unicode="%" horiz-adv-x="555" 
d="M197 281q-43 -32 -71 -32q-29 0 -53.5 33.5t-24.5 90.5q0 49 23.5 94.5t64.5 74.5q47 33 71 33q29 0 53.5 -34t24.5 -91q0 -48 -24 -94t-64 -75zM286 276l-186 -304q-2 -2 -8 -0.5t-11 5t-4 5.5l190 302l187 305q1 2 7.5 0t11.5 -5.5t4 -5.5zM418 19q-45 -33 -71 -33
q-29 0 -53.5 34t-24.5 92q0 49 23.5 94t64.5 75q45 33 70 33q29 0 54 -34.5t25 -91.5q0 -48 -24 -94t-64 -75zM172 529q-23 0 -41 -36t-18 -96q0 -49 13 -75.5t35 -26.5q23 0 41 35.5t18 95.5q0 49 -13 76t-35 27zM393 267q-24 0 -41.5 -35t-17.5 -96q0 -103 47 -103
q24 0 42 35.5t18 95.5q0 49 -13 76t-35 27z" />
    <glyph glyph-name="ampersand" unicode="&#x26;" horiz-adv-x="719" 
d="M570 -13q-49 0 -85 25t-73 73q-93 -100 -192 -100q-35 0 -73.5 16t-70.5 54t-32 90q0 57 38.5 103t110.5 74q-67 57 -67 118q0 56 36.5 92t102.5 36q51 0 90.5 -31t39.5 -76q0 -71 -105 -118q74 -45 160 -169q67 90 67 139q0 23 -71 29q-4 0 -3 13q1 5 3 5q44 -6 127 -6
q75 0 112 6q4 0 5 -4.5t0 -9t-3 -4.5q-55 -2 -88.5 -24t-86.5 -96l-48 -68q29 -41 46.5 -62.5t43.5 -40t51 -18.5q44 0 83 23q2 1 5.5 -2t5 -7t-1.5 -7q-63 -53 -127 -53zM256 544q-65 0 -65 -71q0 -47 82 -115q56 33 56 101q0 37 -20 61t-53 24zM214 307q-44 -17 -69.5 -50
t-25.5 -75q0 -58 41 -96.5t104 -38.5q44 0 73.5 14t58.5 46q-6 8 -24 34t-26 37.5t-26 34t-31.5 35.5t-33.5 29.5t-41 29.5z" />
    <glyph glyph-name="quotesingle" unicode="'" horiz-adv-x="227" 
d="M36 471q-5 -5 -11.5 -1.5t-1.5 10.5l145 191q3 5 13 0t17.5 -14t3.5 -13z" />
    <glyph glyph-name="parenleft" unicode="(" horiz-adv-x="401" 
d="M438 -295q-141 65 -234.5 205t-93.5 321t93.5 321t234.5 205q4 2 8 -6.5t0 -10.5q-246 -171 -246 -509t246 -509q4 -2 0 -10.5t-8 -6.5z" />
    <glyph glyph-name="parenright" unicode=")" horiz-adv-x="401" 
d="M-36 -295q-4 -2 -8 6.5t0 10.5q247 171 247 509t-247 509q-4 2 0 10.5t8 6.5q141 -65 234.5 -205t93.5 -321t-93.5 -321t-234.5 -205z" />
    <glyph glyph-name="asterisk" unicode="*" horiz-adv-x="303" 
d="M188 501l33 -99q1 -4 -6.5 -7.5t-9.5 -0.5l-63 83l-87 -61q-4 -2 -10 3.5t-3 9.5l62 83l-87 61q-4 2 0 9.5t9 6.5l102 -31l33 99q1 4 9.5 2.5t8.5 -5.5v-102h107q4 0 5.5 -8t-2.5 -10z" />
    <glyph glyph-name="plus" unicode="+" horiz-adv-x="602" 
d="M311 223l3 -228q0 -3 -13 -3t-13 3l3 228l-235 -3q-4 0 -4 13t4 13l235 -4l-3 229q0 3 13 3t13 -3l-3 -229l235 4q3 0 3 -13t-3 -13z" />
    <glyph glyph-name="comma" unicode="," 
d="M46 -114q-3 0 -3.5 5t0.5 9.5t2 4.5q80 0 80 53q0 22 -35 39q-28 13 -28 34q0 14 10.5 23.5t26.5 9.5q26 0 46 -20.5t20 -55.5q0 -44 -33.5 -73t-85.5 -29z" />
    <glyph glyph-name="hyphen" unicode="-" horiz-adv-x="401" 
d="M205 237l-127 -30q-8 0 -11.5 18.5t4.5 19.5l128 27l126 31q5 1 9 -8t3.5 -18t-3.5 -13z" />
    <glyph glyph-name="period" unicode="." 
d="M105 -15q-17 0 -29 12.5t-12 28.5q0 17 12 30t31 13q18 0 30 -12.5t12 -28.5q0 -17 -13 -30t-31 -13z" />
    <glyph glyph-name="slash" unicode="/" horiz-adv-x="346" 
d="M21 -325q-2 -3 -6 -2.5t-8.5 3t-3.5 5.5l330 1039q2 3 6.5 2.5t9 -3t3.5 -5.5z" />
    <glyph glyph-name="zero" unicode="0" horiz-adv-x="614" 
d="M295 -15q-99 0 -167 70.5t-68 169.5q0 104 74 180t185 76q100 0 168.5 -71t68.5 -169q0 -105 -74.5 -180.5t-186.5 -75.5zM298 450q-69 0 -111.5 -51.5t-42.5 -141.5q0 -115 52 -177.5t121 -62.5t112 51t43 141q0 115 -52 178t-122 63z" />
    <glyph glyph-name="one" unicode="1" horiz-adv-x="386" 
d="M320 -4q-28 4 -117 4q-109 0 -139 -4q-3 -1 -3 4q-2 12 3 15q24 3 33.5 4.5t23.5 7t19 14.5t9 25t4 41v252q0 31 -4.5 48.5t-18 26.5t-25.5 12t-41 6q-4 0 -3 13q1 5 3 5q30 -4 139 -4q89 0 117 4q3 1 4 -3.5t0 -9.5t-2 -5q-52 -5 -70 -21.5t-18 -71.5v-252
q0 -55 17.5 -71t70.5 -21q4 0 2 -14q-2 -5 -4 -5z" />
    <glyph glyph-name="two" unicode="2" horiz-adv-x="500" 
d="M443 13q-5 -17 -20 -17q-12 0 -70 2t-93 2q-146 0 -209 -4q-4 0 -8 11.5t0 13.5q135 70 200 137t65 146q0 56 -29 87.5t-74 31.5q-63 0 -117 -56q-2 -2 -5.5 0.5t-6 7t-0.5 6.5q73 100 162 100q67 0 108.5 -42.5t41.5 -102.5q0 -68 -62.5 -140t-147.5 -123h141
q72 0 92 11.5t24 56.5q0 2 8.5 2t8.5 -2q2 -17 -2 -66t-7 -62z" />
    <glyph glyph-name="three" unicode="3" horiz-adv-x="425" 
d="M42 -174q-3 0 -4 5t-0.5 9.5t1.5 4.5q70 9 119.5 27.5t75.5 43t37 50t11 53.5q0 51 -52.5 83.5t-137.5 21.5q-6 -1 -10 13t1 16q95 29 140.5 78.5t45.5 103.5q0 35 -24.5 60.5t-64.5 25.5q-60 0 -128 -66q-1 -1 -4.5 1.5t-6 6.5t-0.5 6q37 48 83 80t90 32q57 0 98.5 -39
t41.5 -93q0 -49 -38 -94.5t-113 -74.5q82 -7 126 -48.5t44 -100.5q0 -75 -86.5 -140t-244.5 -65z" />
    <glyph glyph-name="four" unicode="4" horiz-adv-x="514" 
d="M376 36v-86q0 -55 18 -71.5t70 -21.5q3 0 2 -13q-2 -5 -4 -5q-35 5 -118 5q-100 0 -138 -5q-3 -1 -3 4q-2 11 2 14q29 4 41.5 6.5t26.5 12t18 27t4 47.5v87h-20q-183 0 -259 -6q-3 0 -7 11t-2 14l352 438q2 3 9.5 2.5t7.5 -5.5v-400h120v-58q-45 0 -120 3zM295 369
l-225 -278h225v278z" />
    <glyph glyph-name="five" unicode="5" horiz-adv-x="427" 
d="M301 381q-27 0 -70.5 15t-66.5 15q-21 0 -36 -22t-15 -49q0 -25 23 -45t109 -61q128 -60 128 -171q0 -83 -75.5 -146t-215.5 -90q-3 0 -5 4.5t-2 8.5t1 5q90 23 153 72t63 120q0 44 -24 74t-88 59q-59 27 -85 52.5t-26 65.5q0 41 22 96q23 55 46 79t52 24q13 0 56 -13.5
t72 -13.5q18 0 26.5 11.5t15.5 42.5q0 1 4.5 1.5t9 -0.5t4.5 -3q-1 -71 -20.5 -101t-55.5 -30z" />
    <glyph glyph-name="six" unicode="6" horiz-adv-x="536" 
d="M149 212q0 -89 41 -145t102 -56q51 0 80.5 40t29.5 104q0 62 -30 100.5t-83 38.5q-28 0 -53 -16q-1 -1 -5 2t-6.5 7t-1.5 4q21 21 51 35t59 14q72 0 113.5 -49.5t41.5 -112.5q0 -78 -63.5 -135.5t-148.5 -57.5q-101 0 -158.5 66.5t-57.5 159.5q0 63 27 127.5t80 127
t140.5 116t198.5 85.5q3 1 6 -3t3 -8t-3 -6q-95 -36 -167 -86.5t-113.5 -109t-62 -119t-20.5 -123.5z" />
    <glyph glyph-name="seven" unicode="7" horiz-adv-x="485" 
d="M137 -171q-4 -4 -15.5 -1.5t-22.5 9.5t-8 11q116 193 307 541h-205q-70 0 -91 -15t-24 -62q0 -1 -4.5 -1.5t-9 0.5t-4.5 2q-1 17 3 72.5t7 67.5q4 16 19 16q12 0 68.5 -1.5t92.5 -1.5q121 0 200 5q3 0 9 -11t4 -15q-138 -252 -326 -616z" />
    <glyph glyph-name="eight" unicode="8" horiz-adv-x="522" 
d="M252 -15q-80 0 -137 47t-57 118q0 55 40 101.5t113 76.5q-57 36 -87.5 73t-30.5 88q0 78 55.5 128t137.5 50q68 0 116 -42.5t48 -103.5q0 -51 -30.5 -89t-93.5 -72q66 -41 102 -81.5t36 -100.5q0 -82 -59.5 -137.5t-152.5 -55.5zM268 637q-46 0 -74.5 -28.5t-28.5 -75.5
q0 -26 10 -48.5t31 -42t39.5 -32.5t50.5 -32q83 52 83 138q0 53 -31.5 87t-79.5 34zM243 309q-108 -53 -108 -159q0 -63 39 -98.5t90 -35.5q61 0 96 33.5t35 85.5q0 25 -10 47.5t-20.5 37t-37 34.5t-38.5 27.5t-46 27.5z" />
    <glyph glyph-name="nine" unicode="9" horiz-adv-x="546" 
d="M72 -173q-4 -1 -6.5 3t-2.5 8.5t3 5.5q332 124 332 423q0 89 -40 138.5t-100 49.5q-56 0 -85.5 -41.5t-29.5 -110.5q0 -61 32 -98t85 -37q30 0 52 12q3 2 7 -0.5t5 -6.5t-1 -6q-20 -21 -50 -34.5t-58 -13.5q-73 0 -115.5 49t-42.5 112q0 81 61.5 141t152.5 60
q98 0 157 -63.5t59 -155.5q0 -64 -22.5 -124.5t-69.5 -119.5t-129.5 -108.5t-193.5 -82.5z" />
    <glyph glyph-name="colon" unicode=":" 
d="M105 285q-18 0 -29.5 12t-11.5 28q0 17 12 30t31 13q18 0 30 -12.5t12 -28.5q0 -17 -13 -29.5t-31 -12.5zM105 -17q-17 0 -29 12.5t-12 28.5q0 17 12 30t31 13q18 0 30 -12.5t12 -28.5q0 -17 -13 -30t-31 -13z" />
    <glyph glyph-name="semicolon" unicode=";" 
d="M105 285q-18 0 -29.5 12t-11.5 28q0 17 12.5 30t30.5 13t30 -12.5t12 -28.5q0 -17 -12.5 -29.5t-31.5 -12.5zM46 -114q-3 0 -3.5 5t0.5 9.5t2 4.5q80 0 80 53q0 22 -35 39q-28 13 -28 34q0 14 10.5 23.5t26.5 9.5q26 0 46 -20.5t20 -55.5q0 -44 -33.5 -73t-85.5 -29z" />
    <glyph glyph-name="less" unicode="&#x3c;" horiz-adv-x="834" 
d="M721 157q-20 0 -33 12t-13 31q0 17 10.5 28t24.5 11q17 0 28 -10q7 11 7 24q0 23 -19.5 39t-51.5 16q-62 0 -105 -91q104 -64 104 -190q0 -57 -26 -93t-66 -36q-22 0 -44.5 13.5t-31.5 32.5q-1 2 2.5 5t7.5 4.5t5 0.5q14 -19 37 -3q35 26 35 107q0 63 -40.5 109
t-100.5 70q43 -56 43 -131q0 -49 -27.5 -78.5t-64.5 -29.5q-11 0 -22.5 3.5t-15.5 3.5q-16 0 -16 -19q0 -14 21 -34q3 -3 -3.5 -10t-9.5 -5q-93 43 -93 129q0 87 100 163l-3 5q-29 -2 -83 -48t-80 -46q-18 0 -32.5 11t-21.5 25t-18.5 25t-24.5 11q-14 0 -24 -11.5t-10 -31.5
q0 -14 2 -22q1 -3 -4 -5t-9.5 -2t-5.5 1q-15 33 -15 65q0 69 57 122.5t126 53.5q43 0 85 -24t68 -69l4 3q-6 31 -29.5 64t-43 65t-19.5 67q0 43 24 72t66 29q21 0 46.5 -11t43.5 -30q3 -4 -3.5 -10.5t-9.5 -4.5q-13 8 -23 2.5t-10 -19.5q0 -11 17.5 -22.5t39 -21t39 -32
t17.5 -53.5q0 -40 -23 -76.5t-53 -48.5q51 -12 95 -33q22 63 59 99t81 36q45 0 75.5 -33t30.5 -79q0 -42 -21 -68.5t-52 -26.5z" />
    <glyph glyph-name="equal" unicode="=" horiz-adv-x="652" 
d="M326 300l-270 -3q-3 0 -3 13t3 13l270 -4l269 4q3 0 3 -13t-3 -13zM326 147l-270 -3q-4 0 -3.5 13t3.5 13l270 -4l269 4q3 0 3.5 -13t-3.5 -13z" />
    <glyph glyph-name="greater" unicode="&#x3e;" horiz-adv-x="834" 
d="M785 141q-1 -1 -5.5 -1t-9.5 2t-4 5q3 12 3 22q0 20 -10.5 31.5t-24.5 11.5q-13 0 -24.5 -11t-18.5 -25t-21.5 -25t-32.5 -11q-26 0 -80 46t-83 48l-3 -5q101 -77 101 -163q0 -85 -95 -129q-3 -2 -9 5t-3 10q22 21 22 34q0 19 -17 19q-4 0 -15.5 -3.5t-22.5 -3.5
q-37 0 -64 29.5t-27 78.5q0 76 42 131q-60 -24 -100 -70t-40 -109q0 -85 37 -109q20 -13 33 5q1 1 5.5 -0.5t8 -4.5t2.5 -5q-9 -19 -31.5 -32.5t-44.5 -13.5q-40 0 -65.5 36t-25.5 93q0 127 103 190q-43 91 -106 91q-31 0 -50 -16t-19 -39q0 -14 6 -24q11 10 28 10
q14 0 25 -11t11 -28q0 -19 -13.5 -31t-33.5 -12q-31 0 -51.5 26t-20.5 69q0 46 30 79t75 33q44 0 81 -36t59 -99q44 21 95 33q-30 12 -52.5 48.5t-22.5 76.5q0 31 17.5 53.5t39 32t39 21t17.5 22.5q0 14 -10.5 19.5t-23.5 -2.5q-3 -2 -9.5 4.5t-3.5 10.5q18 19 43.5 30
t46.5 11q42 0 66.5 -29t24.5 -72q0 -35 -20 -67t-43.5 -65t-29.5 -64l4 -4q26 46 68 70t85 24q69 0 126.5 -53.5t57.5 -122.5q0 -30 -16 -65z" />
    <glyph glyph-name="question" unicode="?" horiz-adv-x="361" 
d="M202 271q-83 -33 -83 -82q0 -16 6 -32q0 -2 -4 -5t-8 -4t-5 1q-24 54 -24 82q0 66 87 104l98 43q29 12 29 33t-40 33l-92 26q-100 28 -100 91q0 27 15 63l5 -1q4 -1 9 -3l5 -2q-2 -7 -2 -18q0 -18 23 -33t90 -35q62 -18 89.5 -47.5t27.5 -79.5q0 -47 -25.5 -75.5
t-100.5 -58.5zM124 -15q-17 0 -29.5 12.5t-12.5 28.5q0 17 13 30t31 13q17 0 30 -12.5t13 -28.5q0 -17 -13.5 -30t-31.5 -13z" />
    <glyph glyph-name="at" unicode="@" horiz-adv-x="662" 
d="M359 223q-23 -33 -54.5 -60.5t-46.5 -27.5q-25 0 -41 20.5t-16 57.5q0 51 38 100t89 85q33 24 55 24q13 0 25 -5q18 21 33 31q1 1 3.5 0t4.5 -3.5t2 -5.5q-31 -139 -38 -188q-13 -90 41 -90q50 0 77 40t27 101q0 99 -62 170.5t-169 71.5q-90 0 -153.5 -76.5t-63.5 -191.5
q0 -109 70 -183t179 -74q83 0 154 54q3 2 7.5 -1t6.5 -8t0 -7q-85 -71 -199 -71q-125 0 -200 78t-75 184q0 125 86 226t212 101q114 0 186 -67.5t72 -162.5q0 -90 -54 -152t-114 -62q-85 0 -82 92zM352 381q-32 0 -61.5 -50.5t-29.5 -102.5q0 -43 20 -43q14 0 38 20.5
t40 45.5l23 119q-14 11 -30 11z" />
    <glyph glyph-name="A" unicode="A" horiz-adv-x="718" 
d="M710 -6q-46 6 -115 6q-103 0 -153 -6q-4 -1 -4.5 4t0.5 10t3 5q53 6 61 11q9 6 9 20q0 26 -38 126l-30 80h-228l-35 -80q-43 -98 -43 -126q0 -16 13.5 -22t50.5 -9q2 0 3.5 -5t0.5 -10t-5 -4q-46 6 -96 6q-52 0 -102 -6q-4 -1 -4.5 4t0.5 10t3 5q48 4 75.5 36.5
t67.5 122.5l217 483q3 6 10 5.5t9 -5.5l185 -483q36 -96 62 -126t86 -34q2 -1 3 -5.5t0 -8.5t-6 -4zM340 533l-113 -256h206z" />
    <glyph glyph-name="B" unicode="B" horiz-adv-x="639" 
d="M347 -4q-18 0 -66.5 2t-59.5 2q-97 0 -147 -6q-5 0 -5.5 4.5t1 9.5t3.5 5q28 3 38.5 4t25 8t17.5 14t8 27t5 41.5v63.5v300v50t-2.5 36.5t-3.5 27.5t-8 18.5t-11 12.5t-17 7t-22 5t-30 3q-2 0 -3.5 4.5t-1 8.5t5.5 4q50 -6 130 -6q10 0 57 2t65 2q90 0 149 -40t59 -111
q0 -43 -36.5 -83.5t-91.5 -56.5q83 -4 136 -48.5t53 -110.5q0 -86 -68 -143t-180 -57zM278 337q-2 0 -3 4.5t0 9.5t3 5q92 0 131.5 28.5t39.5 98.5q0 136 -147 136q-19 0 -40 -4q-8 -34 -8 -143v-306q0 -98 13 -120t70 -22q87 0 128 35t41 121q0 76 -62.5 122t-165.5 35z
" />
    <glyph glyph-name="C" unicode="C" horiz-adv-x="736" 
d="M661 34q-72 -54 -222 -54q-168 0 -271.5 96.5t-103.5 231.5q0 84 47.5 165t136.5 135t195 54q63 0 128 -19t86 -35q5 -5 11.5 -49.5t7.5 -90.5q0 -4 -8 -4t-9 3q-15 67 -76 116t-164 49q-115 0 -189 -77t-74 -210q0 -80 25.5 -145t67 -105t93 -61.5t106.5 -21.5
q82 0 145.5 45t69.5 119q0 2 4.5 2.5t9.5 -0.5t5 -4q-2 -48 -8.5 -92t-12.5 -48z" />
    <glyph glyph-name="D" unicode="D" horiz-adv-x="823" 
d="M386 -4q-19 0 -79 2t-71 2q-112 0 -162 -6q-5 0 -5.5 4.5t1 9.5t3.5 5q28 3 38.5 4t25 8t17.5 14t8 27t5 41.5v63.5v300v50t-2.5 36.5t-3.5 27.5t-8 18.5t-11 12.5t-17 7t-22 5t-30 3q-2 0 -3.5 4.5t-1 8.5t5.5 4q50 -6 171 -6q11 0 73 2t81 2q173 0 267 -88t94 -227
q0 -140 -105 -237.5t-269 -97.5zM369 616q-64 0 -107 -5q-8 -41 -8 -139v-337q0 -40 4 -59t22.5 -31.5t46.5 -15t87 -2.5q111 0 183.5 73t72.5 199q0 155 -80 236t-221 81z" />
    <glyph glyph-name="E" unicode="E" horiz-adv-x="634" 
d="M545 16q-4 -13 -9.5 -17t-18.5 -4q-14 0 -73.5 2.5t-101.5 2.5q-189 0 -277 -6q-4 0 -5 4.5t0.5 9.5t3.5 5q66 7 80 17q20 14 22 73q1 20 1 68v300v62.5t-4.5 41t-7.5 27.5t-17.5 14t-25.5 9.5t-40 4.5q-5 1 -8 1q-2 0 -3.5 4.5t-1 9t5.5 4.5q102 -7 273 -7q118 0 201 7
q-7 -22 -7 -58q0 -30 1 -38q0 -2 -4 -2.5t-9 0.5t-5 2q-6 34 -35.5 45.5t-124.5 11.5h-96q-5 -31 -5 -134v-128h103h32.5t24.5 1.5t18.5 1.5t13 3t8 3t5 5t3 5t2 7t1.5 8q1 2 9 1t10 -3q-6 -23 -6 -62q0 -31 1 -39q1 -2 -4 -3q-12 -3 -14 2q-5 26 -22 34.5t-82 8.5h-103
v-146q0 -64 6.5 -94.5t18.5 -39t37 -8.5h53q78 0 112 7t45.5 21t19.5 51q0 3 12 1q7 -1 6 -4q-10 -60 -19 -93z" />
    <glyph glyph-name="F" unicode="F" horiz-adv-x="607" 
d="M538 531q-5 22 -7 29t-9.5 20t-16 16t-27.5 8t-43.5 5.5t-64.5 0.5h-110q-6 -30 -6 -134v-132h69q63 0 92 6t35 14t11 30q1 1 4.5 1t8.5 -1t6 -2q-9 -32 -9 -74q0 -36 3 -46q1 -4 -3.5 -6t-10 -1t-5.5 4q-5 30 -27.5 38.5t-104.5 8.5h-69v-145v-64.5t4.5 -41t7 -27.5
t17.5 -13t26.5 -9t41.5 -3q2 0 3.5 -5t0.5 -10t-5 -4q-48 6 -129 6q-86 0 -138 -6q-4 -1 -4.5 4t0.5 10t3 5q24 2 34 3.5t22.5 8t16 14t7.5 27.5t4.5 42t0.5 63v300q0 105 -10 126q-10 22 -49 29q-9 1 -43 5q-2 0 -4 5t-1 9t5 4q104 -7 278 -7q42 0 101.5 2.5t73.5 2.5
q21 0 27 -21q3 -13 5.5 -48t4.5 -44q0 -3 -4 -4.5t-8 -1t-5 2.5z" />
    <glyph glyph-name="G" unicode="G" horiz-adv-x="777" 
d="M670 120q0 -53 16 -66q-71 -38 -129.5 -56t-127.5 -18q-166 0 -265.5 95.5t-99.5 231.5q0 63 28.5 126t77.5 114t121 83t152 32q63 0 129.5 -22t88.5 -38q6 -4 8 -46.5t-1 -89.5q0 -3 -4.5 -4t-8.5 0t-4 3q-5 64 -69.5 115.5t-162.5 51.5q-115 0 -189 -77.5t-74 -210.5
q0 -157 83.5 -245t199.5 -88q49 0 81.5 10t43 19.5t13.5 20.5q6 19 6 64q0 36 -0.5 55t-5 37.5t-10 25.5t-20.5 14t-30.5 9t-45.5 4q-6 0 -6 11q2 7 7 7q42 -6 165 -6q76 0 124 6q4 1 5 -5q1 -11 -4 -13q-67 -5 -79.5 -28t-12.5 -122z" />
    <glyph glyph-name="H" unicode="H" horiz-adv-x="887" 
d="M688 0q-87 0 -139 -6q-4 -1 -5 5q-1 11 5 14q28 3 39 6t23 9.5t15 25.5t5 43.5t2 73.5v141h-379v-141q0 -108 12 -131.5t73 -27.5q2 -1 3 -5.5t0 -8.5t-6 -4q-46 6 -115 6q-104 0 -156 -6q-4 -1 -5 5q-1 11 5 14q66 7 79 17q20 14 22 73q1 19 1 68v300q0 105 -10 126
q-10 22 -49 29q-9 1 -43 5q-6 1 -5 12q2 5 5 5q52 -6 156 -6q69 0 115 6q5 0 6 -4t-0.5 -8.5t-3.5 -4.5q-61 -5 -72.5 -28t-11.5 -132v-131h379v131q0 78 -6 107.5t-20.5 38.5t-57.5 14q-6 1 -5 12q2 5 5 5q52 -6 139 -6q85 0 133 6q4 1 5 -4q2 -11 -4 -13q-29 -2 -43 -4
t-27.5 -9.5t-18 -13t-8.5 -26.5t-4 -37.5v-57.5v-12v-300q0 -103 8 -123q9 -24 48 -30q14 -3 45 -5q2 0 3.5 -5t0.5 -10t-5 -4q-48 6 -133 6z" />
    <glyph glyph-name="I" unicode="I" horiz-adv-x="451" 
d="M237 0q-96 0 -148 -6q-5 0 -5.5 4.5t1 9.5t3.5 5q28 3 38.5 4t25 8t17.5 14t8 27t5 41.5v63.5v300v50t-2.5 36.5t-3.5 27.5t-8 18.5t-11 12.5t-17 7t-22 5t-30 3q-2 0 -3.5 4.5t-1 8.5t5.5 4q52 -6 148 -6q77 0 123 6q5 0 6 -4t-1 -8.5t-4 -4.5q-26 -2 -39 -3.5t-25 -10
t-16 -14.5t-7.5 -29t-3.5 -41v-62v-300v-62t3.5 -40.5t7.5 -28.5t16 -14t25 -9.5t39 -3.5q2 0 4 -5t1 -9.5t-6 -4.5q-46 6 -123 6z" />
    <glyph glyph-name="J" unicode="J" horiz-adv-x="415" 
d="M270 471v-300q0 -150 -55 -234.5t-197 -139.5q-4 -1 -6 3t-2 8.5t1 5.5q103 44 137 118t34 239v300v50t-2.5 36.5t-3.5 27.5t-8 18.5t-11 12.5t-17 7t-22 5t-30 3q-2 0 -3.5 4.5t-1 8.5t5.5 4q52 -6 148 -6q75 0 123 6q5 0 6 -4t-1 -8.5t-4 -4.5q-26 -2 -39 -3.5t-25 -10
t-16 -14.5t-7.5 -29t-3.5 -41v-62z" />
    <glyph glyph-name="K" unicode="K" horiz-adv-x="720" 
d="M622 0q-101 0 -154 -6q-4 -1 -5 5q-1 11 5 14q6 1 16 2q14 1 20 2t12 4t5 8t-6 13q-14 21 -120 127l-140 140l152 164q96 104 109 127q9 16 1 20.5t-36 8.5q-10 1 -15 2q-2 0 -3.5 4.5t-1 8.5t5.5 4q32 -4 116 -4q57 0 86 4q5 1 6 -3.5t-1 -9t-4 -4.5q-55 -5 -89.5 -29.5
t-112.5 -106.5q-16 -17 -25 -26l-115 -120l182 -175q106 -103 135 -124q47 -33 107 -38q5 0 4 -11q-1 -7 -5 -7q-47 6 -129 6zM336 -6q-46 6 -115 6q-106 0 -156 -6q-4 -1 -4.5 4t0.5 10t3 5q66 7 80 17q20 14 22 73q1 20 1 68v300v62.5t-4.5 41t-7.5 27.5t-17.5 14
t-25.5 9.5t-40 4.5q-5 1 -8 1q-4 0 -4 12q2 5 5 5q50 -6 156 -6q69 0 115 6q4 1 5 -3.5t0 -9t-3 -4.5q-61 -5 -72.5 -28t-11.5 -132v-300q0 -108 12 -131.5t73 -27.5q2 -1 2.5 -5.5t-0.5 -9t-5 -3.5z" />
    <glyph glyph-name="L" unicode="L" horiz-adv-x="586" 
d="M546 16q-4 -13 -9.5 -17t-18.5 -4q-14 0 -69 2.5t-97 2.5q-198 0 -287 -6q-4 0 -5 4.5t1 9.5t4 5q66 7 79 17q20 14 22 73q1 19 1 68v300v50t-2.5 37t-3.5 27.5t-7.5 18t-10.5 12.5t-17 7t-22 5t-30 3q-6 1 -5 12q2 5 5 5q52 -6 147 -6q77 0 124 6q5 0 6 -4t-0.5 -8.5
t-3.5 -4.5q-16 -1 -25.5 -2t-20 -4t-16 -4.5t-11.5 -8t-8.5 -10t-5.5 -15.5t-3.5 -19t-1.5 -26t-1 -31.5v-39.5v-300q0 -90 10 -112.5t49 -22.5h57q49 0 76.5 1.5t46.5 4.5t28 12t13 18t9 29q0 1 4.5 1.5t8.5 -0.5t4 -3q-6 -54 -14 -83z" />
    <glyph glyph-name="M" unicode="M" horiz-adv-x="967" 
d="M771 0q-95 0 -139 -6q-4 -1 -5 5q-1 11 5 14q16 2 23.5 3t18.5 3t15 6t10 8.5t8 13.5t4.5 19t2.5 26.5t0.5 34t-0.5 44.5l-6 355l-233 -530q-2 -4 -8.5 -4.5t-9.5 5.5l-238 501l-6 -327q-2 -103 11 -127.5t80 -30.5q2 0 3 -5t0 -10t-5 -4q-46 6 -101 6q-82 0 -125 -6
q-4 -1 -5 5q-1 11 5 14q66 7 80 30t16 128l7 351q1 51 -26 77t-85 32q-6 1 -5 13q2 5 5 5q50 -7 179 -7l245 -525l150 343q56 128 71 184q94 -7 179 5q5 0 6 -4.5t-0.5 -9t-3.5 -4.5q-22 -2 -34.5 -3t-25.5 -6t-18.5 -7t-11.5 -13.5t-7.5 -17.5t-2.5 -28t-1 -35.5t1 -48.5
l6 -301q2 -102 10 -122q10 -24 50 -31q14 -2 45 -5q2 0 3 -5t0.5 -10t-4.5 -4q-48 6 -133 6z" />
    <glyph glyph-name="N" unicode="N" horiz-adv-x="858" 
d="M718 471v-300q0 -124 7 -183q0 -2 -3 -3.5t-7.5 -1t-7.5 3.5l-494 516v-332q0 -41 0.5 -58t3.5 -39.5t7.5 -29.5t16 -16t26 -11t39.5 -4q2 0 3.5 -5t0.5 -9.5t-6 -4.5q-46 6 -100 6q-75 0 -125 -6q-5 0 -5.5 4.5t1 9.5t3.5 5q37 4 53 8t27 23t12.5 44t1.5 83v351
q0 33 -38 68.5t-74 40.5q-2 0 -3.5 4.5t-1 8.5t5.5 4q59 -7 140 -7l476 -500v330q0 105 -13.5 129t-80.5 31q-4 0 -4 12q2 5 5 5q50 -6 124 -6q56 0 101 6q5 0 6.5 -4t-0.5 -8.5t-5 -4.5q-24 -2 -38.5 -4.5t-26 -11.5t-16 -16t-7.5 -30t-3.5 -40t-0.5 -58z" />
    <glyph glyph-name="O" unicode="O" horiz-adv-x="862" 
d="M421 -20q-155 0 -256 98.5t-101 232.5q0 84 47 164t135 133.5t194 53.5q155 0 257 -98.5t102 -231.5q0 -63 -28.5 -125.5t-77 -113t-120.5 -82t-152 -31.5zM417 632q-116 0 -189.5 -77.5t-73.5 -210.5q0 -156 87.5 -244.5t203.5 -88.5t190 77t74 210q0 155 -88 244.5
t-204 89.5z" />
    <glyph glyph-name="P" unicode="P" horiz-adv-x="618" 
d="M294 290h-16q-4 0 -4 9.5t4 9.5q2 0 7 -0.5t8 -0.5q90 0 132.5 38t42.5 119q0 76 -41.5 115t-120.5 39q-23 0 -44 -4q-8 -34 -8 -143v-302v-48t1.5 -35t3 -28t7 -18t10.5 -13.5t16.5 -7t22.5 -5.5t31 -3q5 0 4 -11q-1 -7 -5 -7q-47 6 -124 6q-97 0 -147 -6q-5 0 -5.5 4.5
t1 9t3.5 4.5q22 2 30 3t22 5t17.5 7t10.5 12t8 18t3.5 27.5t2.5 36.5v49v301v63.5t-5 41.5t-8 27t-17.5 14t-25 8.5t-38.5 4.5q-2 0 -3.5 4.5t-1 9t5.5 4.5q42 -6 130 -6q11 0 60 2t69 2q100 0 162 -45t62 -120q0 -87 -71.5 -139t-191.5 -52z" />
    <glyph glyph-name="Q" unicode="Q" horiz-adv-x="862" 
d="M1062 -286q-158 0 -306.5 63.5t-342.5 203.5q-153 2 -251 99.5t-98 229.5q0 62 28 125t76 113.5t120 82t152 31.5q155 0 256.5 -98.5t101.5 -232.5q0 -109 -79 -208t-201 -130q182 -120 332 -181t299 -61q101 0 200 27q2 1 5 -3.5t3 -8.5t-4 -6q-163 -46 -291 -46z
M416 631q-117 0 -190 -77t-73 -210q0 -80 25.5 -145t67 -105t93 -61.5t106.5 -21.5q116 0 190 76.5t74 209.5q0 80 -25.5 145t-67.5 105.5t-93.5 62t-106.5 21.5z" />
    <glyph glyph-name="R" unicode="R" horiz-adv-x="701" 
d="M767 -22q-84 0 -153.5 26.5t-116 72.5t-77 99.5t-48.5 116.5q-39 -6 -79 -6q-25 0 -39 2v-118q0 -110 12 -131.5t81 -26.5q2 0 3.5 -5t0.5 -9.5t-6 -4.5q-47 6 -124 6q-97 0 -147 -6q-4 -1 -4.5 4t0.5 10t3 5q28 3 38.5 4t25 8t17.5 13.5t8 27t5 41.5v64v301
q0 92 -9.5 120t-49.5 28q-10 0 -38 -4q-2 0 -4.5 3.5t-2 8.5t4.5 6q54 17 251 17q118 0 192 -38.5t74 -117.5q0 -49 -34 -100.5t-106 -80.5q42 -113 142 -215t181 -102q2 0 3.5 -4.5t0.5 -9.5t-5 -5zM306 623q-11 0 -45 -2q-7 -29 -7 -140v-166h38q203 0 203 137
q0 171 -189 171z" />
    <glyph glyph-name="S" unicode="S" horiz-adv-x="534" 
d="M265 -20q-101 0 -182 67q-2 15 -2 20.5t3.5 47t4.5 64.5q0 2 4.5 3t9 0t4.5 -2q5 -79 48 -124t119 -45q55 0 94 30t39 87q0 39 -22.5 71t-55.5 53t-72.5 44.5t-72.5 46t-55.5 57t-22.5 77.5q0 72 56.5 128.5t140.5 56.5q72 0 131 -32q15 -8 15 -109q0 -2 -5 -3t-10 0
t-5 2q-9 55 -44 83.5t-90 28.5q-49 0 -84.5 -28.5t-35.5 -73.5q0 -44 30.5 -78t73.5 -58.5t86.5 -50.5t74 -66.5t30.5 -93.5q0 -84 -58.5 -143.5t-146.5 -59.5z" />
    <glyph glyph-name="T" unicode="T" horiz-adv-x="720" 
d="M691 589q0 -40 2 -52q0 -1 -4.5 -2t-9 -0.5t-4.5 1.5q-5 25 -15.5 37.5t-44 21t-96.5 8.5h-105v-432q0 -110 12 -131.5t81 -26.5q2 0 3.5 -5t0.5 -9.5t-6 -4.5q-47 6 -123 6q-96 0 -148 -6q-4 -1 -5 5q-1 11 5 14q21 2 29.5 3t22 4.5t17 6.5t10.5 12.5t7.5 18t3 27.5
t2.5 36.5v49.5v432h-110q-89 0 -119.5 -15t-40.5 -53q-2 -1 -6.5 -1t-7.5 1t-3 2q5 25 5 83q0 28 -5 51q-1 2 4 3q8 1 14 -1q3 -14 7 -19.5t22.5 -10t44 -5t85.5 -0.5h303q111 0 134 5t29 30q0 4 13 1q3 -2 4 -3q-8 -37 -8 -82z" />
    <glyph glyph-name="U" unicode="U" horiz-adv-x="838" 
d="M698 480v-250q0 -107 -71 -178.5t-199 -71.5q-118 0 -197.5 70t-79.5 187v234v64t-4.5 41.5t-8 27.5t-17 14t-24.5 8.5t-38 4.5q-3 0 -5 4.5t-1 8.5t6 4q52 -6 147 -6q79 0 124 6q5 0 6 -4t-0.5 -8.5t-3.5 -4.5q-16 -1 -25.5 -2t-20 -4t-16 -4.5t-11.5 -8t-8.5 -10
t-5.5 -15.5t-3.5 -19t-1.5 -26t-1 -31.5v-39.5v-214q0 -111 64.5 -169.5t150.5 -58.5q102 0 154.5 53.5t52.5 157.5v240q0 95 -15.5 119.5t-82.5 31.5q-3 1 -4.5 5t-0.5 8t6 4q52 -6 127 -6q55 0 102 6q5 0 6 -4t-0.5 -8.5t-3.5 -4.5q-67 -6 -82 -31t-15 -120z" />
    <glyph glyph-name="V" unicode="V" horiz-adv-x="740" 
d="M618 470l-218 -483q-2 -5 -9 -5t-9 6l-204 482q-3 6 -8 18q-36 87 -56 109q-27 29 -85 34q-4 0 -4 12q2 5 5 5q47 -6 115 -6q102 0 154 6q5 1 5 -5q2 -11 -4 -12q-52 -7 -60.5 -13.5t-8.5 -19.5q0 -25 41 -126l150 -362l160 362q43 96 43 126q0 16 -14.5 23t-51.5 10
q-2 0 -3.5 4.5t-1 8.5t5.5 4q46 -6 97 -6q50 0 100 6q5 0 6 -4t0 -8t-4 -5q-51 -6 -73 -33t-68 -128z" />
    <glyph glyph-name="W" unicode="W" horiz-adv-x="1041" 
d="M935 470l-202 -483q-2 -4 -8.5 -4.5t-8.5 5.5l-151 424l-187 -425q-2 -4 -9 -4.5t-9 5.5l-193 482q-39 97 -63 126.5t-80 34.5q-2 0 -4 4.5t-1 8.5t6 4q42 -6 107 -6q113 0 160 6q5 0 5.5 -4t-1 -8.5t-3.5 -4.5q-38 -3 -54.5 -10.5t-16.5 -26.5q0 -33 36 -122l143 -356
l148 342l-5 12q-42 100 -58 121q-25 35 -78 40q-2 0 -3 4.5t-0.5 8.5t4.5 4q43 -6 107 -6q122 0 169 6q4 1 5 -3.5t0 -9t-3 -4.5q-48 -4 -65 -12t-17 -30q0 -29 30 -117l121 -356l143 361q36 92 36 116q0 18 -14 26t-51 12q-2 0 -3.5 4.5t-1 8.5t5.5 4q44 -6 99 -6
q46 0 94 6q4 1 5 -4q1 -10 -4 -13q-44 -4 -67.5 -36t-62.5 -125z" />
    <glyph glyph-name="X" unicode="X" horiz-adv-x="741" 
d="M613 0q-115 0 -157 -6q-5 0 -5.5 4.5t1 9.5t3.5 5q50 6 54 22q5 19 -43 94q-7 11 -40 62l-59 91l-81 -113q-72 -100 -79 -121q-8 -25 22 -32q11 -2 33 -4q3 0 4.5 -4.5t0.5 -9t-6 -4.5q-45 6 -100 6q-80 0 -122 -6q-5 0 -6 4.5t0.5 9t4.5 5.5q72 7 101.5 30t107.5 130
l100 138l-91 136q-31 47 -45 66.5t-34 45.5t-30.5 34t-28.5 18.5t-34.5 13.5t-42.5 6q-3 1 -4.5 5t-0.5 8t6 4q50 -6 157 -6q75 0 123 6q4 1 5 -4q2 -11 -4 -13q-52 -5 -55 -25q-2 -21 51 -104q1 -2 33 -51l45 -69l66 92q73 102 78 124q6 21 -23 28l-32 5q-2 0 -3.5 4.5
t-1 8.5t5.5 4q50 -6 122 -6q55 0 101 6q4 1 5 -4q2 -11 -4 -13q-51 -4 -80.5 -18.5t-52 -40.5t-77.5 -102l-84 -117l105 -158q30 -46 43 -64.5t33.5 -45t31 -34.5t29 -19t35.5 -14t43 -5q2 0 3.5 -5t0.5 -10t-5 -4q-48 6 -123 6z" />
    <glyph glyph-name="Y" unicode="Y" horiz-adv-x="763" 
d="M538 470l-109 -152v-147q0 -109 12 -131t81 -27q2 0 3.5 -5t0.5 -9.5t-6 -4.5q-46 6 -124 6q-97 0 -147 -6q-4 -1 -4.5 4t0.5 10t3 5q23 3 30.5 3.5t22 4.5t17.5 6.5t10.5 12t8 18t3 27.5t2.5 36.5v49.5v138l-90 138q-75 115 -109.5 146t-97.5 38q-6 1 -5 12q2 5 5 5
q50 -6 147 -6q76 0 123 6q5 0 6 -4t-0.5 -8.5t-3.5 -4.5q-53 -5 -56 -27q-2 -22 55 -108q7 -11 30 -45l67 -100l86 123q71 102 78 121q7 23 -18 30q-11 3 -36 6q-6 1 -5 12q2 5 5 5q50 -6 123 -6q43 0 91 6q5 0 6 -4t-1 -8.5t-4 -4.5q-62 -5 -94 -31.5t-106 -129.5z" />
    <glyph glyph-name="Z" unicode="Z" horiz-adv-x="700" 
d="M622 16q-4 -13 -9 -17t-18 -4q-16 0 -88 2.5t-122 2.5q-208 0 -314 -6q-5 0 -7.5 6t1.5 11l453 599h-243q-71 0 -103.5 -8.5t-42 -23t-15.5 -49.5l-17 1l-1 1q3 12 3 57q0 27 -4 61q80 -7 235 -7q193 0 299 6q4 1 7 -5t0 -11l-449 -594h260q61 0 92.5 3t50 16.5t23 28.5
t9.5 51q0 1 5 1.5t9.5 -0.5t4.5 -2q0 -23 -6.5 -63.5t-12.5 -56.5z" />
    <glyph glyph-name="bracketleft" unicode="[" horiz-adv-x="360" 
d="M387 -280q-76 28 -263 28v966q187 0 263 28q7 3 9 -4.5t-2 -10.5q-37 -39 -187 -55v-882q150 -16 187 -55q4 -3 2 -10.5t-9 -4.5z" />
    <glyph glyph-name="backslash" unicode="\" horiz-adv-x="331" 
d="M333 -325l-331 1039q-1 3 3.5 5.5t9 3t6.5 -2.5l330 -1039q1 -2 -0.5 -3.5t-4 -3t-5.5 -2t-5 0t-3 2.5z" />
    <glyph glyph-name="bracketright" unicode="]" horiz-adv-x="360" 
d="M-18 -280q-7 -3 -9 4.5t2 10.5q38 40 189 55v882q-146 14 -189 55q-4 3 -2 10.5t9 4.5q78 -28 265 -28v-966q-187 0 -265 -28z" />
    <glyph glyph-name="asciicircum" unicode="^" horiz-adv-x="700" 
d="M630 133q-4 48 -32 63.5t-104 23.5l-96 10l12 -95q9 -75 24 -102t65 -31q3 0 5 -9.5t-5 -9.5q-77 0 -149 24q-74 -24 -150 -24q-3 0 -3 4.5t1.5 9.5t2.5 5q49 4 64.5 31t24.5 102l12 95l-96 -10q-76 -8 -104.5 -23.5t-32.5 -63.5q0 -1 -4.5 -2.5t-9.5 -1.5t-5 3
q0 71 24 143q-24 70 -24 143q0 3 5 3t9.5 -1.5t4.5 -2.5q4 -48 31.5 -63t105.5 -24l96 -11l-12 96q-9 74 -24.5 101.5t-64.5 31.5q-1 0 -2.5 5t-1.5 9.5t3 4.5q72 0 150 -24q77 24 149 24q4 0 4.5 -4.5t-1.5 -9.5t-4 -5q-49 -4 -64.5 -31.5t-24.5 -101.5l-12 -96l97 11
q76 8 104 23.5t32 63.5q0 2 5 3t10.5 1t5.5 -3q0 -65 -25 -143q25 -80 25 -143q0 -3 -5.5 -3t-10.5 1.5t-5 2.5z" />
    <glyph glyph-name="underscore" unicode="_" horiz-adv-x="659" 
d="M329 1l-257 -3q-4 0 -4 14.5t4 14.5l257 -4l258 4q3 0 3 -14.5t-3 -14.5z" />
    <glyph glyph-name="grave" unicode="`" horiz-adv-x="227" 
d="M190 467l-165 173q-4 4 3 13t17.5 14t13.5 0l146 -191q3 -4 0 -7.5t-7.5 -4t-7.5 2.5z" />
    <glyph glyph-name="a" unicode="a" horiz-adv-x="426" 
d="M341 -17q-27 0 -45 16t-21 45q-64 -58 -142 -58q-43 0 -68 24t-25 62q0 99 237 113q2 76 2 110q0 49 -28 65q-19 11 -58 11q-22 0 -40 -8.5t-18 -19.5q0 -7 2.5 -16t2.5 -15q0 -15 -21 -28t-46 -13q-11 0 -18 6t-6 15q2 32 72.5 79t136.5 47q41 0 67.5 -28.5t27.5 -77.5
q0 -21 -3 -119t-2 -126q1 -29 19.5 -36.5t65.5 6.5l6 -10q1 -3 -1 -4q-56 -40 -97 -40zM120 81q0 -50 62 -50q44 0 90 37q2 40 4 97q-90 -7 -123 -28.5t-33 -55.5z" />
    <glyph glyph-name="b" unicode="b" horiz-adv-x="516" 
d="M231 -14q-27 0 -75 9.5t-77 4.5q-6 -1 -9 5.5t-1 12.5q8 22 8 118v445q0 47 -12 58.5t-50 -0.5q-3 -1 -5.5 5.5t0.5 9.5q107 57 135 83q1 1 4.5 0t6.5 -4t3 -5q-6 -23 -6 -143v-224q83 48 154 48t122 -55.5t51 -136.5q0 -89 -73.5 -160t-175.5 -71zM253 360
q-55 0 -100 -28v-262q35 -40 122 -40q59 0 91 40.5t32 119.5q0 82 -40 126t-105 44z" />
    <glyph glyph-name="c" unicode="c" horiz-adv-x="414" 
d="M223 -14q-80 0 -133.5 56t-53.5 138q0 94 78.5 166t189.5 72q34 0 57.5 -11.5t23.5 -23.5q0 -14 -13 -35t-23 -21q-11 0 -50 19.5t-70 19.5q-59 0 -86.5 -35.5t-27.5 -110.5q0 -90 42 -138t101 -48q65 0 123 43q1 1 4.5 -2t5 -7t-0.5 -6q-74 -76 -167 -76z" />
    <glyph glyph-name="d" unicode="d" horiz-adv-x="530" 
d="M393 -16q-11 0 -19 19.5t-11 42.5q-79 -60 -148 -60q-72 0 -125.5 56t-53.5 137q0 92 70.5 161t171.5 69q42 0 84 -11v183q0 47 -12 58.5t-50 -0.5q-1 -1 -3 2.5t-2.5 7t1.5 5.5q104 56 134 83q1 1 4.5 0t7 -4t3.5 -5q-6 -23 -6 -143v-501q0 -34 16.5 -41t61.5 6l5 -9
q2 -7 -1 -8q-96 -48 -128 -48zM362 314q-54 56 -129 56q-56 0 -88 -40t-32 -118q0 -83 46 -129.5t105 -46.5q42 0 98 39v239z" />
    <glyph glyph-name="e" unicode="e" horiz-adv-x="440" 
d="M404 257l-287 -7q-1 -10 -1 -32q0 -92 44 -138.5t106 -46.5q71 0 128 42q1 1 4 -2t5.5 -7t0.5 -5q-29 -32 -76.5 -53.5t-95.5 -21.5q-87 0 -141.5 56.5t-54.5 145.5q0 90 68 160t150 70q72 0 114 -42.5t42 -92.5q0 -2 -6 -26zM227 387q-38 0 -67 -30.5t-40 -84.5l211 5
q-2 41 -30.5 75.5t-73.5 34.5z" />
    <glyph glyph-name="f" unicode="f" horiz-adv-x="323" 
d="M386 633q-10 0 -47 21t-63 21q-52 0 -70 -44.5t-18 -172.5v-58h52q71 0 83 3q2 1 4 -4q6 -17 0 -34q-1 -4 -3 -4q-22 2 -71 2h-65v-264q0 -52 17.5 -67t82.5 -18q4 0 3 -13q-2 -5 -4 -5q-28 4 -133 4q-86 0 -115 -4q-3 -1 -4 4q-1 11 4 14q52 6 63 18t11 67v264
q-13 0 -44 0.5t-35 0.5q-2 -1 -4 3q-4 13 0 21q64 3 83 13v38q0 126 68 210.5t163 84.5q29 0 56.5 -15t27.5 -27q0 -15 -15 -37t-27 -22z" />
    <glyph glyph-name="g" unicode="g" horiz-adv-x="453" 
d="M201 -271q-84 0 -133.5 36t-49.5 82q0 37 31.5 68.5t87.5 47.5q-29 13 -50.5 40t-21.5 42q0 10 16 18.5t44.5 18t38.5 13.5q-113 55 -113 159q0 66 51.5 115.5t130.5 49.5q21 0 57 -6t58 -6q73 0 83 3q5 2 8 -8q7 -22 -2 -39q-3 -6 -7 -5q-11 2 -59 2h-7q33 -39 33 -92
q0 -50 -33.5 -92.5t-87.5 -61.5q-126 -44 -126 -58q0 -15 17.5 -26t52.5 -10l76 2q87 2 125.5 -27.5t38.5 -77.5q0 -78 -81.5 -133t-177.5 -55zM215 392q-88 0 -88 -111q0 -68 35 -107.5t77 -39.5q39 0 60.5 28.5t21.5 78.5q0 71 -30.5 111t-75.5 40zM283 -44l-120 -3
q-64 -29 -64 -85q0 -40 36.5 -68t107.5 -28t112 29.5t41 74.5q0 36 -30.5 58.5t-82.5 21.5z" />
    <glyph glyph-name="h" unicode="h" horiz-adv-x="526" 
d="M408 0q-71 0 -100 -4q-3 -1 -3 4q-2 12 3 15q39 4 50.5 17.5t11.5 66.5v150q0 64 -17 93t-55 29q-25 0 -50.5 -10t-80.5 -43v-219q0 -51 10.5 -65.5t49.5 -18.5q2 0 3.5 -5t0.5 -9.5t-5 -4.5q-25 4 -93 4q-88 0 -116 -4q-3 -1 -3 4q-2 12 2 15q53 5 64.5 17t11.5 67v482
q0 47 -12 58.5t-50 -0.5q-3 -1 -5.5 5.5t0.5 9.5q107 57 135 83q1 1 4 0t6 -4t3 -5q-5 -19 -5 -143l-1 -241q101 74 176 74q102 0 102 -125v-194q0 -53 11 -66.5t62 -17.5q4 0 3 -14q-1 -4 -3 -5q-28 4 -110 4z" />
    <glyph glyph-name="i" unicode="i" horiz-adv-x="273" 
d="M156 550q-18 0 -31 13.5t-13 31.5q0 19 13.5 33.5t32.5 14.5t33 -14t14 -32q0 -19 -14 -33t-35 -14zM145 0q-84 0 -113 -4q-2 0 -2.5 4.5t0.5 9t2 4.5q52 6 63 18t11 67v169q0 47 -12 58t-50 -1q-3 -1 -5.5 5.5t0.5 9.5q105 59 135 87q1 1 4.5 0t6.5 -4t3 -5
q-6 -24 -6 -146v-173q0 -55 11 -67t62 -18q5 0 3 -14q-1 -4 -3 -4q-29 4 -110 4z" />
    <glyph glyph-name="j" unicode="j" horiz-adv-x="265" 
d="M156 550q-19 0 -32 13.5t-13 31.5q0 19 13.5 34t33.5 15q19 0 32.5 -14t13.5 -32q0 -20 -14 -34t-34 -14zM182 272v-265q0 -49 -6 -84.5t-15.5 -61t-32 -51t-45 -43.5t-65.5 -50q-3 -3 -8.5 5.5t-4.5 9.5q64 65 82.5 115t18.5 160v261q0 47 -12 58.5t-50 -0.5
q-3 -1 -6.5 6t0.5 8q104 57 136 87q1 1 4.5 0t6.5 -4t3 -5q-6 -23 -6 -146z" />
    <glyph glyph-name="k" unicode="k" horiz-adv-x="483" 
d="M132 0q-86 0 -115 -4q-3 -1 -4 4q-1 11 3 14q53 6 64.5 18t11.5 67v482q0 46 -12.5 58t-49.5 0q-3 -1 -6.5 6t0.5 9q103 54 136 83q1 1 4 0t6 -4t3 -5q-6 -23 -6 -143v-486q0 -51 10.5 -65.5t49.5 -18.5q2 0 3.5 -5t0.5 -9.5t-5 -4.5q-25 4 -94 4zM496 -4q-25 4 -107 4
q-66 0 -95 -4q-2 0 -3 4.5t0 9t2 4.5q21 3 27.5 8t0 19t-32.5 42l-119 125l112 103q79 73 -7 82q-4 0 -3 14q1 4 3 4q39 -4 88 -4q76 0 95 3q3 0 4 -4t0.5 -8.5t-2.5 -4.5q-54 -5 -143 -88l-79 -74l149 -150q62 -62 112 -66q4 0 2 -14q-2 -5 -4 -5z" />
    <glyph glyph-name="l" unicode="l" horiz-adv-x="259" 
d="M128 0q-82 0 -111 -4q-2 0 -2.5 4.5t0.5 9t2 4.5q52 6 63.5 18t11.5 67v482q0 47 -12 58.5t-50 -0.5q-3 -1 -5.5 5.5t0.5 9.5q107 57 135 83q1 1 4.5 0t6.5 -4t3 -5q-6 -23 -6 -143v-486q0 -55 11 -67t62 -18q5 0 3 -14q-1 -4 -3 -4q-29 4 -113 4z" />
    <glyph glyph-name="m" unicode="m" horiz-adv-x="801" 
d="M779 -4q-28 4 -97 4q-72 0 -100 -4q-3 -1 -3 4q-2 12 3 15q39 4 50.5 17.5t11.5 66.5v144q0 67 -16 94.5t-52 27.5q-54 0 -128 -50q2 -14 2 -22v-194q0 -51 11 -66t52 -18q4 0 2 -14q-2 -5 -4 -5q-28 4 -94 4q-75 0 -104 -4q-2 0 -2.5 4.5t0.5 9.5t2 5q40 4 51 17.5
t11 66.5v150q0 68 -16 95t-57 27q-34 0 -121 -53v-219q0 -51 10.5 -65.5t50.5 -18.5q4 0 3 -14q-2 -5 -4 -5q-28 4 -94 4q-87 0 -115 -4q-3 -1 -3 4q-2 12 2 15q52 5 63.5 17t11.5 67v168q0 48 -12 59t-50 -1q-3 -1 -6.5 6.5t0.5 9.5q65 34 124 86q0 1 3 0t6.5 -4t3.5 -5
q3 -22 5 -76q108 76 164 76q82 0 101 -80q100 75 170 75q104 0 104 -126v-188q0 -52 10.5 -66.5t51.5 -17.5q4 0 2 -14q-2 -5 -4 -5z" />
    <glyph glyph-name="n" unicode="n" horiz-adv-x="540" 
d="M422 0q-71 0 -100 -4q-3 -1 -3 4q-2 12 3 15q40 4 51 17.5t11 66.5v150q0 67 -15 94.5t-57 27.5q-25 0 -50.5 -10t-80.5 -43v-219q0 -51 10.5 -65.5t50.5 -18.5q4 0 3 -14q-2 -5 -4 -5q-28 4 -94 4q-87 0 -115 -4q-3 -1 -3 4q-2 12 2 15q52 5 63.5 17t11.5 67v168
q0 48 -12 59t-50 -1q-3 -1 -6.5 6.5t0.5 9.5q65 34 124 86q0 1 3 0t6.5 -4t3.5 -5q3 -22 5 -76q111 76 177 76q102 0 102 -125v-194q0 -53 11 -66.5t62 -17.5q4 0 2 -14q0 -6 -3 -5q-25 4 -109 4z" />
    <glyph glyph-name="o" unicode="o" horiz-adv-x="512" 
d="M250 -14q-95 0 -154.5 62t-59.5 147q0 91 62 157t163 66q95 0 155.5 -62t60.5 -147q0 -90 -63 -156.5t-164 -66.5zM239 389q-58 0 -90 -44.5t-32 -109.5q0 -102 42.5 -160.5t113.5 -58.5q58 0 89.5 44t31.5 109q0 102 -42.5 161t-112.5 59z" />
    <glyph glyph-name="p" unicode="p" horiz-adv-x="524" 
d="M234 -14q-34 0 -65 9v-150q0 -54 16 -67t85 -15q3 0 3.5 -9t-3.5 -9q-20 1 -67.5 1.5t-67.5 -0.5q-69 -2 -104 -8q-2 -1 -3 3q-3 11 2 14q46 7 54.5 19.5t8.5 68.5v182q-5 2 -36 20l36 53v169q0 47 -12.5 59t-50.5 -1q-1 -1 -3 2.5t-2.5 7t1.5 5.5q68 38 124 89q1 1 4 0
t6.5 -3.5t3.5 -4.5q1 -7 1.5 -19t1 -28.5t0.5 -24.5q75 60 144 60q76 0 127.5 -56t51.5 -133q0 -87 -75.5 -160.5t-180.5 -73.5zM268 355q-46 0 -99 -31v-260q59 -33 124 -33q52 0 83.5 45t31.5 122q0 74 -41.5 115.5t-98.5 41.5z" />
    <glyph glyph-name="q" unicode="q" horiz-adv-x="516" 
d="M404 -254q-67 -2 -101 -8q-2 -1 -3 3q-2 10 2 15q43 6 53 19.5t10 68.5v189q-56 -47 -141 -47q-68 0 -128 51.5t-60 141.5q0 89 69.5 159.5t168.5 70.5q58 0 110 -32q19 17 45 50q3 4 10.5 0.5t6.5 -8.5q-5 -25 -5 -93v-481q0 -54 13 -67.5t74 -15.5q4 0 3 -13
q-2 -5 -4 -5q-13 2 -58 2.5t-65 -0.5zM365 296q-48 70 -133 70q-54 0 -85.5 -36t-31.5 -108q0 -91 47.5 -139.5t107.5 -48.5q57 0 95 29v233z" />
    <glyph glyph-name="r" unicode="r" horiz-adv-x="363" 
d="M327 323q-6 0 -29.5 15t-40.5 15q-32 0 -75 -51v-203q0 -52 17 -67t83 -18q1 0 2 -5t0 -9.5t-4 -3.5q-28 4 -132 4q-87 0 -116 -4q-2 0 -2.5 4.5t0.5 9t2 4.5q52 6 63 18t11 67v169q0 47 -12.5 58.5t-50.5 -1.5q-1 -1 -3 2.5t-2.5 7t1.5 5.5q71 40 124 88q0 1 3.5 -0.5
t7 -4t3.5 -3.5q3 -23 5 -87q82 96 128 96q19 0 36.5 -19.5t17.5 -31.5q0 -14 -14 -34.5t-23 -20.5z" />
    <glyph glyph-name="s" unicode="s" horiz-adv-x="359" 
d="M171 -14q-65 0 -121 30q-6 3 -6 114q0 6 18 2q17 -62 50.5 -91t75.5 -29q70 0 70 69q0 32 -31 59t-68 44t-68 47.5t-31 68.5q0 48 38.5 83t104.5 35q51 0 89 -18q4 -2 8.5 -37t4.5 -66q0 -2 -9 -2.5t-10 1.5q-13 43 -43 70.5t-62 27.5q-26 0 -40.5 -17t-14.5 -46
q0 -25 20 -45.5t49 -35.5t58 -31t49 -42t20 -59q0 -54 -42.5 -93t-108.5 -39z" />
    <glyph glyph-name="t" unicode="t" horiz-adv-x="337" 
d="M198 -14q-49 0 -71.5 24t-21.5 75l4 272q-53 0 -63 -1q-3 0 -5 4t-1.5 8.5t1.5 5.5q63 42 136 122q1 1 4.5 0t6.5 -3t3 -4q-1 -8 -2.5 -25t-3 -37t-2.5 -27h53q75 0 88 4q2 1 3 -3q6 -18 -3 -40q-3 -8 -7 -7q-17 3 -68 3h-66l-4 -249q-1 -76 71 -76q33 0 73 10
q2 0 5 -6.5t0 -9.5q-30 -18 -68.5 -29t-61.5 -11z" />
    <glyph glyph-name="u" unicode="u" horiz-adv-x="513" 
d="M384 -16q-13 0 -21.5 23.5t-9.5 62.5q-36 -35 -80 -59.5t-81 -24.5q-51 0 -82 32t-30 93l3 190q1 38 -9 48t-54 11q-2 0 -4 7t1 8q71 13 123 44q0 1 3.5 -0.5t7 -5t3.5 -5.5q3 -27 3 -96l-2 -157q-1 -69 16 -94.5t62 -25.5q51 0 120 60l3 211q1 38 -8.5 48t-53.5 13
q-1 0 -3 4t-2.5 7.5t1.5 4.5q74 12 124 40q1 0 7 -4.5t6 -7.5q3 -27 3 -99l-2 -228q0 -34 17.5 -41t62.5 6l5 -9q2 -7 -1 -8q-96 -48 -128 -48z" />
    <glyph glyph-name="v" unicode="v" horiz-adv-x="438" 
d="M366 307l-129 -317q-2 -5 -11 -5.5t-10 4.5l-130 318q-19 48 -39 65.5t-58 20.5q-2 0 -3.5 4.5t0 8.5t5.5 4q19 -3 103 -3q64 0 103 4q2 0 2.5 -4.5t-0.5 -9t-2 -4.5q-39 -5 -45.5 -19.5t12.5 -64.5l86 -213l86 213q19 48 12 63.5t-45 20.5q-4 0 -4 12q2 5 4 6
q39 -4 82 -4q58 0 77 3q3 0 4 -4t0.5 -8.5t-2.5 -4.5q-39 -3 -59 -21t-39 -65z" />
    <glyph glyph-name="w" unicode="w" horiz-adv-x="683" 
d="M612 307l-130 -317q-2 -6 -10.5 -6t-10.5 5l-106 290l-117 -289q-2 -5 -11 -5.5t-10 4.5l-130 318q-19 48 -39 65.5t-58 20.5q-2 0 -3.5 4.5t0 8.5t5.5 4q18 -3 102 -3q65 0 104 4q2 0 2.5 -4.5t-0.5 -9t-2 -4.5q-39 -5 -45.5 -19.5t12.5 -64.5l86 -213l90 223
q-17 41 -35.5 56t-54.5 18q-4 0 -3 12q1 5 4 5q21 -3 104 -3q64 0 103 4q2 0 2.5 -4.5t-0.5 -9t-2 -4.5q-39 -5 -46.5 -19.5t9.5 -64.5l75 -208l83 208q19 49 12.5 64t-45.5 20q-4 0 -3 14q2 3 3 4q39 -4 82 -4q59 0 78 3q3 0 4 -4t0.5 -8.5t-1.5 -4.5q-40 -3 -59 -21
t-39 -65z" />
    <glyph glyph-name="x" unicode="x" horiz-adv-x="458" 
d="M455 -4q-24 4 -104 4q-57 0 -82 -4q-3 -1 -4 3.5t0 9.5t2 6q21 3 28.5 8t4.5 19t-22 41q-53 77 -62 88l-60 -74q-32 -37 -30 -57.5t43 -24.5q4 0 3 -14q0 -6 -3 -5q-28 4 -67 4q-67 0 -92 -4q-2 0 -3 4.5t0 9.5t2 5q51 3 118 86l74 91l-99 134q-47 63 -94 67q-4 0 -2 14
q1 4 3 4q25 -4 97 -4q56 0 92 4q3 0 3.5 -4.5t-0.5 -9t-3 -4.5q-21 -3 -28.5 -8.5t-4.5 -19.5t22 -41l57 -79l54 65q20 25 27 41t-2 27.5t-38 14.5q-4 0 -4 12q2 5 4 6q36 -4 72 -4q61 0 86 4q2 0 3 -4.5t0.5 -9t-1.5 -4.5q-50 -4 -118 -87l-67 -82l103 -143q44 -62 94 -66
q3 0 1 -14q-1 -4 -3 -5z" />
    <glyph glyph-name="y" unicode="y" horiz-adv-x="429" 
d="M358 307q-2 -6 -26.5 -61t-46.5 -108.5t-48.5 -124t-45.5 -140.5t-25 -126q-10 -1 -37 -1h-36q-40 -1 -63 -6q-3 0 -4 4.5t-0.5 9t1.5 4.5q33 5 63 29q43 32 82 135l27 70l-113 315q-17 49 -37.5 66t-59.5 20q-2 0 -3.5 4.5t0 8.5t5.5 4q19 -3 103 -3q62 0 99 4
q3 0 3.5 -4.5t-0.5 -9t-3 -4.5q-39 -5 -45 -19.5t11 -64.5l77 -226l93 226q19 48 12 63.5t-47 20.5q-5 0 -3 14q1 4 3 4q39 -4 83 -4q53 0 78 4q2 0 3 -4.5t0.5 -9t-1.5 -4.5q-40 -3 -60 -21t-39 -65z" />
    <glyph glyph-name="z" unicode="z" horiz-adv-x="432" 
d="M385 11q-5 -14 -17 -14q-10 0 -59.5 1.5t-78.5 1.5q-143 0 -195 -3q-4 0 -6 5t0 8l264 371h-107q-54 0 -78.5 -25t-40.5 -77q-4 0 -11 2t-6 4q8 40 11 62q5 42 5 63q52 -3 141 -3q115 0 184 4q4 0 6 -5.5t0 -9.5l-262 -367h133q50 0 82.5 34t39.5 84q0 1 5 1.5t9.5 -0.5
t4.5 -2q0 -14 -10 -68.5t-14 -66.5z" />
    <glyph glyph-name="braceleft" unicode="{" horiz-adv-x="329" 
d="M297 -324q-87 29 -132 76.5t-45 95.5q0 31 30.5 99.5t30.5 107.5q0 137 -139 149q-7 0 -9.5 5t0 10t9.5 5q139 13 139 150q0 39 -30.5 107.5t-30.5 99.5q0 48 45 95.5t132 76.5q2 1 5 -4t3.5 -9.5t-3.5 -6.5q-44 -18 -70.5 -46t-26.5 -55q0 -25 20.5 -96t20.5 -119
q0 -71 -40.5 -125.5t-118.5 -77.5q74 -17 116.5 -74.5t42.5 -127.5q0 -48 -20.5 -119t-20.5 -96q0 -27 26.5 -54.5t70.5 -45.5q4 -2 3.5 -7t-3.5 -10t-5 -4z" />
    <glyph glyph-name="bar" unicode="|" horiz-adv-x="794" 
d="M798 621q-20 4 -46 4q-79 0 -147 -60t-106.5 -159t-38.5 -210v-25v-62t3.5 -40.5t7.5 -28.5t16.5 -14t25.5 -9.5t39 -3.5q2 0 3.5 -5t0.5 -10t-5 -4q-48 6 -124 6q-97 0 -147 -6q-5 0 -5.5 4.5t1 9.5t3.5 5q28 3 38.5 4t25 8t17.5 14t8 27t5 41.5v63.5v25
q0 180 -89.5 303.5t-209.5 123.5q-13 0 -37 -2q-3 0 -5.5 7.5t3.5 9.5q51 18 101 18q106 0 185.5 -80t110.5 -199q41 119 123 196t177 77q34 0 69 -12q4 -2 4 -6t-2.5 -8t-4.5 -3z" />
    <glyph glyph-name="braceright" unicode="}" horiz-adv-x="329" 
d="M149 55q0 -39 30.5 -107.5t30.5 -99.5q0 -48 -46 -95.5t-132 -76.5q-2 -1 -5 3.5t-3.5 9.5t4.5 8q43 18 70.5 46t27.5 54q0 25 -21 96t-21 119q0 70 42 127.5t116 74.5q-78 23 -118 77.5t-40 125.5q0 48 21 119t21 96q0 26 -27.5 54.5t-70.5 46.5q-5 3 -4.5 7.5t3.5 9
t5 3.5q86 -29 132 -76.5t46 -95.5q0 -31 -30.5 -99.5t-30.5 -107.5q0 -137 138 -150q7 0 9.5 -5t0 -10t-9.5 -5q-138 -12 -138 -149z" />
    <glyph glyph-name="asciitilde" unicode="~" horiz-adv-x="380" 
d="M265 276q-24 0 -76 19.5t-84 19.5q-49 0 -63 -66q-3 -1 -11 1t-8 4q4 48 32.5 75t72.5 27q22 0 73.5 -18t76.5 -18q24 0 38 12t22 46q0 1 5 0t9.5 -2.5t4.5 -3.5q-4 -44 -28 -70t-64 -26z" />
    <glyph glyph-name="nbspace" unicode="&#xa0;" horiz-adv-x="113" 
 />
    <glyph glyph-name="exclamdown" unicode="&#xa1;" horiz-adv-x="251" 
d="M123 326q-17 0 -29 12t-12 28q0 17 12.5 30t31.5 13q17 0 29.5 -12.5t12.5 -28.5q0 -17 -13 -29.5t-32 -12.5zM74 -205q5 206 42 450q1 3 10.5 2.5t9.5 -3.5q0 -211 26 -434q2 -16 -44 -22q-42 -5 -44 7z" />
    <glyph glyph-name="cent" unicode="&#xa2;" horiz-adv-x="414" 
d="M238 -13l-3 -46q0 -3 -6 -4t-12 0.5t-6 4.5l3 45q-78 4 -128 58.5t-50 134.5t59 146t148 85l4 55q0 3 6 4t12 -0.5t6 -5.5l-4 -49q2 0 15.5 1.5t21.5 1.5q34 0 57.5 -11.5t23.5 -23.5q0 -14 -13 -35t-23 -21q-12 0 -41 14t-45 19l-22 -325q3 0 9 -0.5t8 -0.5q65 0 123 43
q1 1 4.5 -2t5 -7t-0.5 -6q-67 -69 -152 -75zM229 366q-59 0 -86.5 -35.5t-27.5 -110.5q0 -74 28.5 -119.5t73.5 -61.5l23 326q0 1 -11 1z" />
    <glyph glyph-name="sterling" unicode="&#xa3;" horiz-adv-x="681" 
d="M541 -174q-44 0 -95.5 22.5t-90 49t-84 49t-79.5 22.5q-5 0 -7 -1q-3 -1 -6 -1q-25 -70 -59.5 -105.5t-72.5 -35.5q-29 0 -48.5 17.5t-19.5 38.5q0 36 45 71.5t140 42.5q12 33 31 139l-143 -2q-6 0 -6 13t6 13q153 -6 153 -7l-7 1q16 101 29 150q24 99 84 171
q35 42 82 69t92 27q33 0 54.5 -20t21.5 -46q0 -20 -13.5 -35t-26.5 -20t-15 -2q-51 57 -97 57q-45 0 -66 -48t-46 -212q-8 -48 -19 -89l168 4q6 0 5.5 -13t-5.5 -13q-11 0 -29 1t-56 2t-63 2h-26q-28 -87 -83 -143v-1q3 0 6 0.5t8 0.5q48 0 105.5 -16.5t100.5 -37t90 -37
t77 -16.5q57 0 57 58q0 22 -18 40t-51 28q-1 1 -1 5t2 8t6 4q43 -7 71 -36t28 -60q0 -41 -32 -75t-97 -34z" />
    <glyph glyph-name="currency" unicode="&#xa4;" horiz-adv-x="692" 
d="M11 311q-4 0 -4 13t4 13q91 -5 91 -6l-7 1q27 99 115 168t206 69q54 0 110.5 -16.5t73.5 -29.5q5 -4 11 -46t8 -83q0 -4 -9 -4t-10 3q-12 55 -68.5 100.5t-136.5 45.5q-90 0 -150 -54t-71 -151h18l182 3q3 0 3 -13t-3 -13l-182 3h-19v-6.5v-7v-5.5q0 -29 3 -58h16l182 3
q3 0 3 -13t-3 -13l-182 3l-13 3q21 -100 88.5 -154t152.5 -54q68 0 120 40.5t65 104.5q1 2 9.5 2t8.5 -4q-7 -119 -19 -128q-63 -47 -192 -47t-216.5 67.5t-105.5 167.5l-79 -1q-4 0 -4 13t4 13l75 -2q-1 8 -1 25q0 29 6 54l-20 -1l-40 -4z" />
    <glyph glyph-name="yen" unicode="&#xa5;" horiz-adv-x="658" 
d="M656 534q-24 4 -39 4q-81 0 -145 -70.5t-90 -179.5l183 3q4 0 4 -13t-4 -13l-187 2q-7 -34 -10 -77l197 4q4 0 4 -13t-4 -13l-196 3v-1v-22q0 -87 12.5 -108.5t70.5 -25.5q4 0 3 -14q-1 -4 -3 -5q-45 5 -115 5q-98 0 -135 -5q-3 -1 -3 4q-2 12 3 15q58 6 70.5 25.5
t12.5 108.5v22v1l-197 -3q-4 0 -4 13t4 13l197 -4q-2 41 -9 77l-188 -2q-4 0 -4 13t4 13q149 -5 185 -6q-26 112 -92.5 181.5t-148.5 69.5q-11 0 -31 -2q-2 -1 -4 3.5t-2 9.5t3 5q45 15 87 15q94 0 164.5 -66.5t97.5 -167.5q37 104 105 166.5t147 62.5q28 0 61 -10
q3 -2 2.5 -6t-3 -8t-3.5 -4z" />
    <glyph glyph-name="section" unicode="&#xa7;" horiz-adv-x="525" 
d="M386 -2q3 -9 3 -18q0 -47 -41 -97q-70 -84 -156 -84q-48 0 -88 27t-40 61q0 20 13 34.5t26 19t15 1.5q27 -33 65 -57t70 -24q78 0 78 80q0 33 -28 68.5t-68.5 68.5t-80.5 67.5t-68 77t-28 86.5q0 45 24.5 86.5t63.5 70.5q-2 14 -2 20q0 47 41 95q73 86 165 86
q32 0 53.5 -20t21.5 -46q0 -20 -13.5 -34.5t-26.5 -19.5t-15 -2q-50 56 -94 56q-41 0 -57.5 -19t-16.5 -57q0 -33 28.5 -69t69 -69.5t81 -68.5t69 -78.5t28.5 -86.5q0 -44 -25.5 -85t-66.5 -70zM152 440q-35 -35 -35 -80q0 -37 23 -73.5t57.5 -68t70.5 -61.5t68 -65.5
t44 -68.5q38 33 38 78q0 44 -35.5 91t-79.5 82t-90 81t-61 85z" />
    <glyph glyph-name="dieresis" unicode="&#xa8;" horiz-adv-x="442" 
d="M314 503q-20 0 -33.5 13.5t-13.5 31.5q0 19 14 33.5t35 14.5q20 0 33.5 -14t13.5 -32q0 -19 -14 -33t-35 -14zM127 503q-20 0 -34 13.5t-14 31.5q0 19 14.5 33.5t35.5 14.5q19 0 33 -14t14 -32q0 -19 -14 -33t-35 -14z" />
    <glyph glyph-name="copyright" unicode="&#xa9;" horiz-adv-x="705" 
d="M352 -14q-124 0 -211.5 85.5t-87.5 205.5q0 121 87.5 206.5t211.5 85.5t212.5 -85.5t88.5 -206.5q0 -120 -88.5 -205.5t-212.5 -85.5zM352 549q-115 0 -196.5 -80t-81.5 -192t81.5 -191t196.5 -79q116 0 198 79t82 191q0 113 -82 192.5t-198 79.5zM461 156
q-30 -22 -94 -22q-71 0 -116 40.5t-45 97.5q0 59 46.5 104.5t116.5 45.5q26 0 54 -8.5t36 -14.5q2 -2 5.5 -25t4.5 -43q0 -3 -7.5 -3t-8.5 2q-5 28 -28.5 49t-65.5 21q-47 0 -74.5 -30t-27.5 -83q0 -64 33 -98t81 -34q32 0 57 19.5t27 49.5q0 1 3.5 1.5t7 -0.5t4.5 -2
q-2 -63 -9 -67z" />
    <glyph glyph-name="ordfeminine" unicode="&#xaa;" horiz-adv-x="379" 
d="M127 603q0 -5 2.5 -11.5t2.5 -11.5q0 -12 -17 -22.5t-38 -10.5q-18 0 -18 17q1 24 55 61t104 37q32 0 53 -22t22 -59q0 -16 -2.5 -88.5t-1.5 -93.5t13.5 -26t46.5 6q1 0 3 -3t2.5 -7t-0.5 -5q-43 -30 -74 -30q-21 0 -37 12t-19 33q-45 -42 -101 -42q-32 0 -53.5 18
t-21.5 46q0 35 42.5 61t135.5 32q0 13 1.5 39.5t0.5 34.5q-2 36 -19 47q-13 8 -40 8q-17 0 -29.5 -6t-12.5 -14zM119 408q0 -35 42 -35q29 0 60 26q1 9 2 39t1 38q-65 -5 -85 -22.5t-20 -45.5z" />
    <glyph glyph-name="guillemotleft" unicode="&#xab;" horiz-adv-x="475" 
d="M410 87l-208 115q-3 2 -3 8t4 9l207 114q4 2 7.5 -0.5t3.5 -7t-4 -7.5l-151 -110l151 -105q3 -3 3 -7.5t-3.5 -7.5t-6.5 -1zM255 87l-208 115q-3 2 -3 8t4 9l207 114q4 2 8 -0.5t3.5 -6.5t-4.5 -8l-150 -110l150 -105q4 -4 4 -8t-4 -7t-7 -1z" />
    <glyph glyph-name="registered" unicode="&#xae;" horiz-adv-x="705" 
d="M352 -14q-124 0 -211.5 85.5t-87.5 205.5q0 121 87.5 206.5t211.5 85.5t212.5 -85.5t88.5 -206.5q0 -120 -88.5 -205.5t-212.5 -85.5zM352 549q-115 0 -196.5 -80t-81.5 -192t81.5 -191t196.5 -79q116 0 198 79t82 191q0 113 -82 192.5t-198 79.5zM362 265q-16 -2 -29 -2
h-14v-43q0 -38 6.5 -49t32.5 -13q5 0 3 -12q-2 -3 -4 -4q-17 3 -58 3q-43 0 -69 -3q-2 0 -2.5 4t0.5 8t2 4q27 3 34 13.5t7 48.5v121q0 34 -6 45.5t-21 11.5q-3 0 -17 -2q-2 0 -3 7t1 9q29 8 115 8q118 0 118 -70q0 -48 -55 -71q20 -47 54.5 -87t67.5 -40q2 0 2.5 -8
t-2.5 -8q-63 0 -105 37.5t-58 91.5zM334 399h-13q-2 -9 -2 -53v-62h14q75 0 75 55q0 60 -74 60z" />
    <glyph glyph-name="macron" unicode="&#xaf;" horiz-adv-x="355" 
d="M177 512l-141 -2q-4 0 -4 13t4 13l141 -3l142 3q4 0 4 -13t-4 -13z" />
    <glyph glyph-name="degree" unicode="&#xb0;" horiz-adv-x="236" 
d="M118 491q-38 0 -64 25.5t-26 62.5q0 36 26.5 62t63.5 26t64 -26t27 -62q0 -37 -26.5 -62.5t-64.5 -25.5zM118 647q-29 0 -49.5 -20t-20.5 -48t20.5 -48t49.5 -20t49.5 20t20.5 48t-20.5 48t-49.5 20z" />
    <glyph glyph-name="plusminus" unicode="&#xb1;" horiz-adv-x="741" 
d="M600 -14q-49 0 -71 24t-22 75l2 272q-59 0 -69 -1q-2 0 -3.5 3.5t-1 8t0.5 6.5q78 28 105 60.5t27 69.5q0 54 -49 92.5t-118 38.5t-119.5 -49t-50.5 -110q0 -38 13 -64q38 6 59 6q35 0 58 -11.5t23 -23.5q0 -13 -12 -33t-21 -20q-11 0 -52.5 19.5t-66.5 19.5
q-117 0 -117 -149q0 -90 41.5 -138t101.5 -48q65 0 123 43q1 1 4.5 -2t5 -7t-0.5 -6q-74 -76 -167 -76q-81 0 -134 56t-53 138q0 75 51 138t132 87q-18 36 -18 90q0 79 59.5 143.5t142.5 64.5q85 0 138.5 -62t53.5 -152q0 -8 -2 -26.5t-4 -40t-3 -29.5h52q76 0 89 3
q4 1 4.5 -10t-1.5 -22t-6 -10q-36 3 -72 3h-66l-2 -249q0 -32 14 -52t40 -20q49 0 90 13l6 -7q2 -4 0 -6q-32 -23 -71 -36.5t-63 -13.5z" />
    <glyph glyph-name="twosuperior" unicode="&#xb2;" horiz-adv-x="413" 
d="M356 301q-3 -12 -15 -12q-10 0 -56 1.5t-73 1.5q-96 0 -163 -4q-3 0 -6.5 9.5t-0.5 10.5q105 52 154 102.5t49 109.5q0 42 -19.5 65t-54.5 23q-48 0 -93 -42q-1 -1 -4.5 1t-5.5 5t0 6q61 75 125 75q54 0 84.5 -31.5t30.5 -77.5q0 -52 -46.5 -106.5t-111.5 -92.5h108
q59 0 73.5 6.5t17.5 39.5q0 1 7.5 1t7.5 -1q1 -12 -2 -45.5t-6 -44.5z" />
    <glyph glyph-name="threesuperior" unicode="&#xb3;" horiz-adv-x="344" 
d="M48 185q-4 0 -3.5 8t3.5 8q184 13 184 125q0 39 -30.5 60.5t-94.5 32.5q-2 1 -5 11.5t-1 11.5q60 17 90 45.5t30 61.5q0 26 -20 41.5t-50 15.5q-47 0 -89 -40q-1 -1 -5 1t-6 5t0 6q61 75 126 75q45 0 74 -26.5t29 -67.5q0 -34 -23 -59t-76 -49q112 -29 112 -116
q0 -64 -67 -107t-178 -43z" />
    <glyph glyph-name="acute" unicode="&#xb4;" horiz-adv-x="227" 
d="M36 471q-5 -5 -11.5 -1.5t-1.5 10.5l145 191q3 5 13 0t17.5 -14t3.5 -13z" />
    <glyph glyph-name="mu" unicode="&#xb5;" horiz-adv-x="794" 
d="M798 621q-20 4 -46 4q-79 0 -147 -60t-106.5 -159t-38.5 -210v-25v-62t3.5 -40.5t7.5 -28.5t16.5 -14t25.5 -9.5t39 -3.5q2 0 3.5 -5t0.5 -10t-5 -4q-48 6 -124 6q-97 0 -147 -6q-5 0 -5.5 4.5t1 9.5t3.5 5q28 3 38.5 4t25 8t17.5 14t8 27t5 41.5v63.5v25
q0 180 -89.5 303.5t-209.5 123.5q-13 0 -37 -2q-3 0 -5.5 7.5t3.5 9.5q51 18 101 18q106 0 185.5 -80t110.5 -199q41 119 123 196t177 77q34 0 69 -12q4 -2 4 -6t-2.5 -8t-4.5 -3zM524 735q-20 0 -33.5 13.5t-13.5 31.5q0 19 14 33.5t35 14.5q20 0 33.5 -14t13.5 -32
q0 -19 -14 -33t-35 -14zM337 735q-20 0 -34 13.5t-14 31.5q0 19 14.5 33.5t35.5 14.5q19 0 33 -14t14 -32q0 -19 -14 -33t-35 -14z" />
    <glyph glyph-name="paragraph" unicode="&#xb6;" horiz-adv-x="676" 
d="M439 -20q-174 0 -271.5 85t-97.5 203q0 130 93.5 215.5t275.5 85.5q110 0 179 -21q3 -1 2.5 -5.5t-3.5 -8.5t-5 -4q-15 5 -55 12l-2 -268l2 -270q35 3 55 10q4 1 8 -7.5t-2 -10.5q-48 -16 -179 -16zM531 546q-38 4 -69 4v-551q40 1 69 3l1 272z" />
    <glyph glyph-name="periodcentered" unicode="&#xb7;" 
d="M105 208q-18 0 -29.5 12t-11.5 28q0 17 12 30t31 13q18 0 30 -12.5t12 -28.5q0 -17 -13 -29.5t-31 -12.5z" />
    <glyph glyph-name="cedilla" unicode="&#xb8;" horiz-adv-x="304" 
d="M101 -273q-4 0 -6 4t-1 8.5t3 4.5q37 5 58.5 21.5t26.5 31t5 29.5q0 54 -103 83l72 103l25 -9l-38 -53q51 -16 76.5 -44t25.5 -59q0 -42 -36 -75.5t-108 -44.5z" />
    <glyph glyph-name="onesuperior" unicode="&#xb9;" horiz-adv-x="288" 
d="M150 292q-74 0 -106 -4q-3 -1 -4 3q-1 9 3 13q23 2 32.5 4t20 9t14 19.5t3.5 35.5v189q0 23 -3.5 35.5t-14 19.5t-20 9t-32.5 5q-3 0 -3 11q2 4 4 4q24 -3 106 -3q59 0 95 4q2 0 3 -4t0 -8t-3 -4q-41 -3 -55 -15.5t-14 -53.5v-189q0 -41 14 -53t55 -15q2 0 3 -4t0 -8
t-3 -4q-36 4 -95 4z" />
    <glyph glyph-name="ordmasculine" unicode="&#xba;" horiz-adv-x="407" 
d="M34 494q0 68 48 118t125 50q72 0 119 -47t47 -111q0 -68 -48.5 -117.5t-125.5 -49.5q-72 0 -118.5 46.5t-46.5 110.5zM190 638q-43 0 -63.5 -32.5t-20.5 -82.5q0 -76 29 -119.5t80 -43.5q44 0 65 32.5t21 81.5q0 76 -29.5 120t-81.5 44z" />
    <glyph glyph-name="guillemotright" unicode="&#xbb;" horiz-adv-x="475" 
d="M219 87q-3 -2 -6.5 1t-3.5 7.5t3 7.5l151 105l-151 110q-4 3 -4 7.5t3.5 7t7.5 0.5l207 -114q4 -3 3.5 -9t-3.5 -8zM65 87q-3 -2 -7 1t-4 7t4 8l150 105l-150 110q-4 4 -4.5 8t3.5 6.5t8 0.5l207 -114q4 -3 3.5 -9t-3.5 -8z" />
    <glyph glyph-name="onequarter" unicode="&#xbc;" horiz-adv-x="785" 
d="M150 292q-74 0 -107 -4q-2 0 -2.5 4t0.5 8t2 4q23 2 32.5 4t20 9t14 19.5t3.5 35.5v189q0 23 -3.5 35.5t-14 19.5t-20 9t-32.5 5q-1 0 -2 4t-0.5 8t2.5 4q33 -4 107 -4q59 0 95 4q2 0 3 -4t0 -8t-3 -4q-41 -3 -55 -15.5t-14 -53.5v-189q0 -41 14 -53t55 -15q2 0 3 -4
t0 -8t-3 -4q-36 4 -95 4zM151 -33q-2 -2 -6.5 -0.5t-8 5.5t-2.5 6l482 697q2 2 6.5 0.5t8 -5.5t2.5 -6zM663 27v-63q0 -41 14 -53.5t55 -15.5q5 0 3 -12l-3 -3q-26 3 -94 3q-83 0 -107 -3q-2 0 -3 3.5t0 7.5t2 4q22 2 32 4.5t20.5 9t14 19.5t3.5 36v64h-17q-139 0 -204 -4
q-2 0 -6 8.5t-2 10.5l279 329q2 3 7.5 2t5.5 -5v-301h96v-43q-16 0 -96 2zM600 280l-179 -212h179v212z" />
    <glyph glyph-name="onehalf" unicode="&#xbd;" horiz-adv-x="829" 
d="M150 292q-74 0 -106 -4q-3 -1 -4 3q-1 9 3 13q23 2 32.5 4t20 9t14 19.5t3.5 35.5v189q0 23 -3.5 35.5t-14 19.5t-20 9t-32.5 5q-3 0 -3 11q2 4 4 4q24 -3 106 -3q59 0 95 4q2 0 3 -4t0 -8t-3 -4q-41 -3 -55 -15.5t-14 -53.5v-189q0 -41 14 -53t55 -15q2 0 3 -4t0 -8
t-3 -4q-36 4 -95 4zM151 -33q-2 -2 -6.5 -0.5t-8 5.5t-2.5 6l482 697q2 2 6.5 0.5t8 -5.5t2.5 -6zM772 10q-4 -13 -16 -13q-9 0 -54.5 1.5t-74.5 1.5q-113 0 -163 -3q-3 0 -6.5 10t-0.5 11q105 52 154.5 102t49.5 109q0 42 -20 65t-55 23q-48 0 -92 -41q-1 -1 -4 1t-5.5 5.5
t-0.5 4.5q62 76 126 76q53 0 83 -31.5t30 -78.5q0 -51 -46.5 -106t-110.5 -92h107q59 0 73.5 7.5t18.5 43.5q14 -5 14 -6q3 -26 -7 -90z" />
    <glyph glyph-name="threequarters" unicode="&#xbe;" horiz-adv-x="842" 
d="M48 185q-4 0 -3.5 8t3.5 8q184 13 184 125q0 39 -30.5 60.5t-94.5 32.5q-2 1 -5 11.5t-1 11.5q60 17 90 45.5t30 61.5q0 26 -20 41.5t-50 15.5q-47 0 -89 -40q-1 -1 -5 1t-6 5t0 6q61 75 126 75q45 0 74 -26.5t29 -67.5q0 -34 -23 -59t-76 -49q112 -29 112 -116
q0 -64 -67 -107t-178 -43zM209 -33q-2 -2 -6.5 -0.5t-8 5.5t-2.5 6l482 697q2 2 6.5 0.5t8 -5.5t2.5 -6zM721 27v-63q0 -41 14 -53.5t55 -15.5q5 0 3 -12l-3 -3q-27 3 -94 3q-83 0 -107 -3q-2 0 -3 3.5t0 7.5t2 4q29 3 41 6.5t20.5 18t8.5 44.5v64h-17q-139 0 -204 -4
q-2 0 -6.5 8.5t-2.5 10.5l280 329q2 3 7.5 2t5.5 -5v-301h96v-43q-16 0 -96 2zM658 280l-179 -212h179v212z" />
    <glyph glyph-name="questiondown" unicode="&#xbf;" horiz-adv-x="361" 
d="M236 326q-18 0 -30 12t-12 28q0 17 12.5 30t30.5 13q17 0 30 -12.5t13 -28.5q0 -17 -13 -29.5t-31 -12.5zM280 -229h-3t-5 1t-5 2t-3.5 1.5t-1.5 1.5q3 10 3 17q0 18 -24 33t-91 35q-62 18 -89 47.5t-27 79.5q0 47 25.5 75.5t100.5 58.5q83 33 83 82q0 15 -7 33
q0 2 4 4.5t8 3.5t5 -1q25 -53 25 -82q0 -65 -88 -104l-97 -43q-17 -8 -22.5 -14.5t-5.5 -18.5q0 -22 38 -33l93 -26q100 -28 100 -91q0 -25 -16 -62z" />
    <glyph glyph-name="Agrave" unicode="&#xc0;" horiz-adv-x="718" 
d="M710 -6q-46 6 -115 6q-103 0 -153 -6q-4 -1 -4.5 4t0.5 10t3 5q53 6 61 11q9 6 9 20q0 26 -38 126l-30 80h-228l-35 -80q-43 -98 -43 -126q0 -16 13.5 -22t50.5 -9q2 0 3.5 -5t0.5 -10t-5 -4q-46 6 -96 6q-52 0 -102 -6q-4 -1 -4.5 4t0.5 10t3 5q48 4 75.5 36.5
t67.5 122.5l217 483q3 6 10 5.5t9 -5.5l185 -483q36 -96 62 -126t86 -34q2 -1 3 -5.5t0 -8.5t-6 -4zM340 533l-113 -256h206zM352 699l-165 173q-4 4 3 13t17.5 14t13.5 0l146 -191q3 -4 0 -7.5t-7.5 -4t-7.5 2.5z" />
    <glyph glyph-name="Aacute" unicode="&#xc1;" horiz-adv-x="718" 
d="M710 -6q-46 6 -115 6q-103 0 -153 -6q-4 -1 -4.5 4t0.5 10t3 5q53 6 61 11q9 6 9 20q0 26 -38 126l-30 80h-228l-35 -80q-43 -98 -43 -126q0 -16 13.5 -22t50.5 -9q2 0 3.5 -5t0.5 -10t-5 -4q-46 6 -96 6q-52 0 -102 -6q-4 -1 -4.5 4t0.5 10t3 5q48 4 75.5 36.5
t67.5 122.5l217 483q3 6 10 5.5t9 -5.5l185 -483q36 -96 62 -126t86 -34q2 -1 3 -5.5t0 -8.5t-6 -4zM340 533l-113 -256h206zM370 703q-5 -5 -11.5 -1.5t-1.5 10.5l145 191q3 5 13 0t17.5 -14t3.5 -13z" />
    <glyph glyph-name="Acircumflex" unicode="&#xc2;" horiz-adv-x="718" 
d="M710 -6q-46 6 -115 6q-103 0 -153 -6q-4 -1 -4.5 4t0.5 10t3 5q53 6 61 11q9 6 9 20q0 26 -38 126l-30 80h-228l-35 -80q-43 -98 -43 -126q0 -16 13.5 -22t50.5 -9q2 0 3.5 -5t0.5 -10t-5 -4q-46 6 -96 6q-52 0 -102 -6q-4 -1 -4.5 4t0.5 10t3 5q48 4 75.5 36.5
t67.5 122.5l217 483q3 6 10 5.5t9 -5.5l185 -483q36 -96 62 -126t86 -34q2 -1 3 -5.5t0 -8.5t-6 -4zM340 533l-113 -256h206zM479 699l-113 147l-108 -147q-3 -3 -7.5 -3t-7 3t-0.5 7l117 203q2 4 8.5 3.5t8.5 -4.5l118 -202q2 -3 -1 -6.5t-7 -4t-8 3.5z" />
    <glyph glyph-name="Atilde" unicode="&#xc3;" horiz-adv-x="718" 
d="M710 -6q-46 6 -115 6q-103 0 -153 -6q-4 -1 -4.5 4t0.5 10t3 5q53 6 61 11q9 6 9 20q0 26 -38 126l-30 80h-228l-35 -80q-43 -98 -43 -126q0 -16 13.5 -22t50.5 -9q2 0 3.5 -5t0.5 -10t-5 -4q-46 6 -96 6q-52 0 -102 -6q-4 -1 -4.5 4t0.5 10t3 5q48 4 75.5 36.5
t67.5 122.5l217 483q3 6 10 5.5t9 -5.5l185 -483q36 -96 62 -126t86 -34q2 -1 3 -5.5t0 -8.5t-6 -4zM340 533l-113 -256h206zM440 733q-24 0 -76 19.5t-84 19.5q-49 0 -63 -66q-3 -1 -11 1t-8 4q4 48 32.5 75t72.5 27q22 0 73.5 -18t76.5 -18q24 0 38 12t22 46q0 1 4.5 0
t9.5 -2.5t5 -3.5q-4 -44 -28 -70t-64 -26z" />
    <glyph glyph-name="Adieresis" unicode="&#xc4;" horiz-adv-x="718" 
d="M710 -6q-46 6 -115 6q-103 0 -153 -6q-4 -1 -4.5 4t0.5 10t3 5q53 6 61 11q9 6 9 20q0 26 -38 126l-30 80h-228l-35 -80q-43 -98 -43 -126q0 -16 13.5 -22t50.5 -9q2 0 3.5 -5t0.5 -10t-5 -4q-46 6 -96 6q-52 0 -102 -6q-4 -1 -4.5 4t0.5 10t3 5q48 4 75.5 36.5
t67.5 122.5l217 483q3 6 10 5.5t9 -5.5l185 -483q36 -96 62 -126t86 -34q2 -1 3 -5.5t0 -8.5t-6 -4zM340 533l-113 -256h206zM459 735q-20 0 -33.5 13.5t-13.5 31.5q0 19 14 33.5t35 14.5q20 0 33.5 -14t13.5 -32q0 -19 -14 -33t-35 -14zM272 735q-20 0 -34 13.5t-14 31.5
q0 19 14.5 33.5t35.5 14.5q19 0 33 -14t14 -32q0 -19 -14 -33t-35 -14z" />
    <glyph glyph-name="Aring" unicode="&#xc5;" horiz-adv-x="718" 
d="M710 -6q-46 6 -115 6q-103 0 -153 -6q-4 -1 -4.5 4t0.5 10t3 5q53 6 61 11q9 6 9 20q0 26 -38 126l-30 80h-228l-35 -80q-43 -98 -43 -126q0 -16 13.5 -22t50.5 -9q2 0 3.5 -5t0.5 -10t-5 -4q-46 6 -96 6q-52 0 -102 -6q-4 -1 -4.5 4t0.5 10t3 5q48 4 74 35.5t69 123.5
q6 14 17 37t40 85.5t54.5 117t52 111t42.5 90t16 32.5q-37 4 -61.5 28.5t-24.5 59.5q0 36 26.5 62t64.5 26q37 0 63.5 -26t26.5 -62q0 -34 -24.5 -59t-60.5 -29q0 2 47 -116.5t95 -237.5l47 -119q39 -97 64 -126.5t84 -33.5q2 -1 3 -5.5t0 -8.5t-6 -4zM371 801
q-30 0 -50.5 -20t-20.5 -48q0 -29 20.5 -48.5t50.5 -19.5q29 0 49.5 20t20.5 48t-20.5 48t-49.5 20zM340 533l-113 -256h206z" />
    <glyph glyph-name="AE" unicode="&#xc6;" horiz-adv-x="894" 
d="M814 16q-5 -14 -9.5 -17.5t-16.5 -3.5q-14 0 -73.5 2.5t-101.5 2.5q-189 0 -278 -6q-4 0 -5 4.5t0.5 9.5t3.5 5q66 7 80 17q20 14 22 73q1 20 1 68v79h-234l-55 -81q-7 -10 -19 -27.5t-17.5 -26t-14 -21t-12.5 -20t-8 -16t-5 -15.5q-4 -15 9 -21t48 -9q2 0 2.5 -5
t-1 -9.5t-6.5 -4.5q-44 6 -94 6q-51 0 -103 -6q-9 -1 -3 13q2 6 5 6q49 4 83.5 36t99.5 124l253 362q33 48 33 62q0 13 -22.5 20t-79.5 14q-2 0 -3.5 4.5t-0.5 9t6 4.5q102 -7 310 -7q120 0 200 7q-6 -28 -6 -58q0 -29 1 -37q1 -2 -4 -3q-10 -1 -13 2q-6 34 -36 45.5
t-125 11.5h-95q-6 -30 -6 -134v-128h104q53 0 75.5 4t25.5 8.5t7 21.5q0 3 14 1q4 -1 4 -3q-5 -19 -5 -62q0 -35 1 -39q0 -3 -9 -3t-10 2q-5 26 -22 34.5t-81 8.5h-104v-146q0 -64 7 -95t18.5 -39t37.5 -8h52q78 0 112 7t45.5 21t20.5 51q0 1 4.5 1.5t8.5 -1t4 -3.5
q-11 -70 -20 -93zM437 590l-215 -313h215v313z" />
    <glyph glyph-name="Ccedilla" unicode="&#xc7;" horiz-adv-x="736" 
d="M661 34q-72 -54 -222 -54h-9l-21 -30q51 -16 76.5 -44t25.5 -59q0 -41 -36.5 -75t-108.5 -45q-4 0 -6 4t-1 8.5t3 4.5q53 7 72 31.5t19 50.5q0 54 -103 83l51 73q-152 12 -244.5 106t-92.5 220q0 84 47.5 165t136.5 135t195 54q63 0 128 -19t86 -35q5 -5 11.5 -49.5
t7.5 -90.5q0 -4 -8 -4t-9 3q-15 67 -76 116t-164 49q-115 0 -189 -77t-74 -210q0 -80 25.5 -145t67 -105t93 -61.5t106.5 -21.5q82 0 145.5 45t69.5 119q0 2 4.5 2.5t9.5 -0.5t5 -4q-2 -48 -8.5 -92t-12.5 -48z" />
    <glyph glyph-name="Egrave" unicode="&#xc8;" horiz-adv-x="634" 
d="M545 16q-4 -13 -9.5 -17t-18.5 -4q-14 0 -73.5 2.5t-101.5 2.5q-189 0 -277 -6q-4 0 -5 4.5t0.5 9.5t3.5 5q66 7 80 17q20 14 22 73q1 20 1 68v300v62.5t-4.5 41t-7.5 27.5t-17.5 14t-25.5 9.5t-40 4.5q-5 1 -8 1q-2 0 -3.5 4.5t-1 9t5.5 4.5q102 -7 273 -7q118 0 201 7
q-7 -22 -7 -58q0 -30 1 -38q0 -2 -4 -2.5t-9 0.5t-5 2q-6 34 -35.5 45.5t-124.5 11.5h-96q-5 -31 -5 -134v-128h103h32.5t24.5 1.5t18.5 1.5t13 3t8 3t5 5t3 5t2 7t1.5 8q1 2 9 1t10 -3q-6 -23 -6 -62q0 -31 1 -39q1 -2 -4 -3q-12 -3 -14 2q-5 26 -22 34.5t-82 8.5h-103
v-146q0 -64 6.5 -94.5t18.5 -39t37 -8.5h53q78 0 112 7t45.5 21t19.5 51q0 3 12 1q7 -1 6 -4q-10 -60 -19 -93zM367 699l-165 173q-4 4 3 13t17.5 14t13.5 0l146 -191q3 -4 0 -7.5t-7.5 -4t-7.5 2.5z" />
    <glyph glyph-name="Eacute" unicode="&#xc9;" horiz-adv-x="634" 
d="M545 16q-4 -13 -9.5 -17t-18.5 -4q-14 0 -73.5 2.5t-101.5 2.5q-189 0 -277 -6q-4 0 -5 4.5t0.5 9.5t3.5 5q66 7 80 17q20 14 22 73q1 20 1 68v300v62.5t-4.5 41t-7.5 27.5t-17.5 14t-25.5 9.5t-40 4.5q-5 1 -8 1q-2 0 -3.5 4.5t-1 9t5.5 4.5q102 -7 273 -7q118 0 201 7
q-7 -22 -7 -58q0 -30 1 -38q0 -2 -4 -2.5t-9 0.5t-5 2q-6 34 -35.5 45.5t-124.5 11.5h-96q-5 -31 -5 -134v-128h103h32.5t24.5 1.5t18.5 1.5t13 3t8 3t5 5t3 5t2 7t1.5 8q1 2 9 1t10 -3q-6 -23 -6 -62q0 -31 1 -39q1 -2 -4 -3q-12 -3 -14 2q-5 26 -22 34.5t-82 8.5h-103
v-146q0 -64 6.5 -94.5t18.5 -39t37 -8.5h53q78 0 112 7t45.5 21t19.5 51q0 3 12 1q7 -1 6 -4q-10 -60 -19 -93zM313 703q-5 -5 -11.5 -1.5t-1.5 10.5l145 191q3 5 13 0t17.5 -14t3.5 -13z" />
    <glyph glyph-name="Ecircumflex" unicode="&#xca;" horiz-adv-x="634" 
d="M545 16q-4 -13 -9.5 -17t-18.5 -4q-14 0 -73.5 2.5t-101.5 2.5q-189 0 -277 -6q-4 0 -5 4.5t0.5 9.5t3.5 5q66 7 80 17q20 14 22 73q1 20 1 68v300v62.5t-4.5 41t-7.5 27.5t-17.5 14t-25.5 9.5t-40 4.5q-5 1 -8 1q-2 0 -3.5 4.5t-1 9t5.5 4.5q102 -7 273 -7q118 0 201 7
q-7 -22 -7 -58q0 -30 1 -38q0 -2 -4 -2.5t-9 0.5t-5 2q-6 34 -35.5 45.5t-124.5 11.5h-96q-5 -31 -5 -134v-128h103h32.5t24.5 1.5t18.5 1.5t13 3t8 3t5 5t3 5t2 7t1.5 8q1 2 9 1t10 -3q-6 -23 -6 -62q0 -31 1 -39q1 -2 -4 -3q-12 -3 -14 2q-5 26 -22 34.5t-82 8.5h-103
v-146q0 -64 6.5 -94.5t18.5 -39t37 -8.5h53q78 0 112 7t45.5 21t19.5 51q0 3 12 1q7 -1 6 -4q-10 -60 -19 -93zM449 699l-113 147l-108 -147q-3 -3 -7.5 -3t-7 3t-0.5 7l117 203q2 4 8.5 3.5t8.5 -4.5l118 -202q2 -3 -1 -6.5t-7 -4t-8 3.5z" />
    <glyph glyph-name="Edieresis" unicode="&#xcb;" horiz-adv-x="634" 
d="M545 16q-4 -13 -9.5 -17t-18.5 -4q-14 0 -73.5 2.5t-101.5 2.5q-189 0 -277 -6q-4 0 -5 4.5t0.5 9.5t3.5 5q66 7 80 17q20 14 22 73q1 20 1 68v300v62.5t-4.5 41t-7.5 27.5t-17.5 14t-25.5 9.5t-40 4.5q-5 1 -8 1q-2 0 -3.5 4.5t-1 9t5.5 4.5q102 -7 273 -7q118 0 201 7
q-7 -22 -7 -58q0 -30 1 -38q0 -2 -4 -2.5t-9 0.5t-5 2q-6 34 -35.5 45.5t-124.5 11.5h-96q-5 -31 -5 -134v-128h103h32.5t24.5 1.5t18.5 1.5t13 3t8 3t5 5t3 5t2 7t1.5 8q1 2 9 1t10 -3q-6 -23 -6 -62q0 -31 1 -39q1 -2 -4 -3q-12 -3 -14 2q-5 26 -22 34.5t-82 8.5h-103
v-146q0 -64 6.5 -94.5t18.5 -39t37 -8.5h53q78 0 112 7t45.5 21t19.5 51q0 3 12 1q7 -1 6 -4q-10 -60 -19 -93zM424 735q-20 0 -33.5 13.5t-13.5 31.5q0 19 14 33.5t35 14.5q20 0 33.5 -14t13.5 -32q0 -19 -14 -33t-35 -14zM237 735q-20 0 -34 13.5t-14 31.5q0 19 14.5 33.5
t35.5 14.5q19 0 33 -14t14 -32q0 -19 -14 -33t-35 -14z" />
    <glyph glyph-name="Igrave" unicode="&#xcc;" horiz-adv-x="451" 
d="M237 0q-96 0 -148 -6q-5 0 -5.5 4.5t1 9.5t3.5 5q28 3 38.5 4t25 8t17.5 14t8 27t5 41.5v63.5v300v50t-2.5 36.5t-3.5 27.5t-8 18.5t-11 12.5t-17 7t-22 5t-30 3q-2 0 -3.5 4.5t-1 8.5t5.5 4q52 -6 148 -6q77 0 123 6q5 0 6 -4t-1 -8.5t-4 -4.5q-26 -2 -39 -3.5t-25 -10
t-16 -14.5t-7.5 -29t-3.5 -41v-62v-300v-62t3.5 -40.5t7.5 -28.5t16 -14t25 -9.5t39 -3.5q2 0 4 -5t1 -9.5t-6 -4.5q-46 6 -123 6zM247 699l-165 173q-4 4 3 13t17.5 14t13.5 0l146 -191q3 -4 0 -7.5t-7.5 -4t-7.5 2.5z" />
    <glyph glyph-name="Iacute" unicode="&#xcd;" horiz-adv-x="451" 
d="M237 0q-96 0 -148 -6q-5 0 -5.5 4.5t1 9.5t3.5 5q28 3 38.5 4t25 8t17.5 14t8 27t5 41.5v63.5v300v50t-2.5 36.5t-3.5 27.5t-8 18.5t-11 12.5t-17 7t-22 5t-30 3q-2 0 -3.5 4.5t-1 8.5t5.5 4q52 -6 148 -6q77 0 123 6q5 0 6 -4t-1 -8.5t-4 -4.5q-26 -2 -39 -3.5t-25 -10
t-16 -14.5t-7.5 -29t-3.5 -41v-62v-300v-62t3.5 -40.5t7.5 -28.5t16 -14t25 -9.5t39 -3.5q2 0 4 -5t1 -9.5t-6 -4.5q-46 6 -123 6zM215 703q-5 -5 -11.5 -1.5t-1.5 10.5l145 191q3 5 13 0t17.5 -14t3.5 -13z" />
    <glyph glyph-name="Icircumflex" unicode="&#xce;" horiz-adv-x="451" 
d="M237 0q-96 0 -148 -6q-5 0 -5.5 4.5t1 9.5t3.5 5q28 3 38.5 4t25 8t17.5 14t8 27t5 41.5v63.5v300v50t-2.5 36.5t-3.5 27.5t-8 18.5t-11 12.5t-17 7t-22 5t-30 3q-2 0 -3.5 4.5t-1 8.5t5.5 4q52 -6 148 -6q77 0 123 6q5 0 6 -4t-1 -8.5t-4 -4.5q-26 -2 -39 -3.5t-25 -10
t-16 -14.5t-7.5 -29t-3.5 -41v-62v-300v-62t3.5 -40.5t7.5 -28.5t16 -14t25 -9.5t39 -3.5q2 0 4 -5t1 -9.5t-6 -4.5q-46 6 -123 6zM337 699l-113 147l-108 -147q-3 -3 -7.5 -3t-7 3t-0.5 7l117 203q2 4 8.5 3.5t8.5 -4.5l118 -202q2 -3 -1 -6.5t-7 -4t-8 3.5z" />
    <glyph glyph-name="Idieresis" unicode="&#xcf;" horiz-adv-x="451" 
d="M237 0q-96 0 -148 -6q-5 0 -5.5 4.5t1 9.5t3.5 5q28 3 38.5 4t25 8t17.5 14t8 27t5 41.5v63.5v300v50t-2.5 36.5t-3.5 27.5t-8 18.5t-11 12.5t-17 7t-22 5t-30 3q-2 0 -3.5 4.5t-1 8.5t5.5 4q52 -6 148 -6q77 0 123 6q5 0 6 -4t-1 -8.5t-4 -4.5q-26 -2 -39 -3.5t-25 -10
t-16 -14.5t-7.5 -29t-3.5 -41v-62v-300v-62t3.5 -40.5t7.5 -28.5t16 -14t25 -9.5t39 -3.5q2 0 4 -5t1 -9.5t-6 -4.5q-46 6 -123 6zM320 735q-20 0 -33.5 13.5t-13.5 31.5q0 19 14 33.5t35 14.5q20 0 33.5 -14t13.5 -32q0 -19 -14 -33t-35 -14zM133 735q-20 0 -34 13.5
t-14 31.5q0 19 14.5 33.5t35.5 14.5q19 0 33 -14t14 -32q0 -19 -14 -33t-35 -14z" />
    <glyph glyph-name="Eth" unicode="&#xd0;" horiz-adv-x="823" 
d="M386 -4q-19 0 -79 2t-71 2q-112 0 -162 -6q-5 0 -5.5 4.5t1 9.5t3.5 5q28 3 38.5 4t25 8t17.5 14t8 27t5 41.5v63.5v111l-89 -21q-8 0 -11.5 18.5t4.5 19.5l96 21v151v50t-2.5 36.5t-3.5 27.5t-8 18.5t-11 12.5t-17 7t-22 5t-30 3q-2 0 -3.5 4.5t-1 8.5t5.5 4
q50 -6 171 -6q11 0 73 2t81 2q173 0 267 -88t94 -227q0 -140 -105 -237.5t-269 -97.5zM369 616q-64 0 -107 -5q-8 -41 -8 -139v-133l71 18q5 1 9 -8t3.5 -18t-3.5 -13q-80 -14 -80 -15v-168q0 -40 4 -59t22.5 -31.5t46.5 -15t87 -2.5q111 0 183.5 73t72.5 199q0 155 -80 236
t-221 81z" />
    <glyph glyph-name="Ntilde" unicode="&#xd1;" horiz-adv-x="858" 
d="M718 471v-300q0 -124 7 -183q0 -2 -3 -3.5t-7.5 -1t-7.5 3.5l-494 516v-332q0 -41 0.5 -58t3.5 -39.5t7.5 -29.5t16 -16t26 -11t39.5 -4q2 0 3.5 -5t0.5 -9.5t-6 -4.5q-46 6 -100 6q-75 0 -125 -6q-5 0 -5.5 4.5t1 9.5t3.5 5q37 4 53 8t27 23t12.5 44t1.5 83v351
q0 33 -38 68.5t-74 40.5q-2 0 -3.5 4.5t-1 8.5t5.5 4q59 -7 140 -7l476 -500v330q0 105 -13.5 129t-80.5 31q-4 0 -4 12q2 5 5 5q50 -6 124 -6q56 0 101 6q5 0 6.5 -4t-0.5 -8.5t-5 -4.5q-24 -2 -38.5 -4.5t-26 -11.5t-16 -16t-7.5 -30t-3.5 -40t-0.5 -58zM504 733
q-24 0 -76 19.5t-84 19.5q-49 0 -63 -66q-3 -1 -11 1t-8 4q4 48 32.5 75t72.5 27q22 0 73.5 -18t76.5 -18q24 0 38 12t22 46q0 1 4.5 0t9.5 -2.5t5 -3.5q-4 -44 -28 -70t-64 -26z" />
    <glyph glyph-name="Ograve" unicode="&#xd2;" horiz-adv-x="862" 
d="M421 -20q-155 0 -256 98.5t-101 232.5q0 84 47 164t135 133.5t194 53.5q155 0 257 -98.5t102 -231.5q0 -63 -28.5 -125.5t-77 -113t-120.5 -82t-152 -31.5zM417 632q-116 0 -189.5 -77.5t-73.5 -210.5q0 -156 87.5 -244.5t203.5 -88.5t190 77t74 210q0 155 -88 244.5
t-204 89.5zM432 699l-165 173q-4 4 3 13t17.5 14t13.5 0l146 -191q3 -4 0 -7.5t-7.5 -4t-7.5 2.5z" />
    <glyph glyph-name="Oacute" unicode="&#xd3;" horiz-adv-x="862" 
d="M421 -20q-155 0 -256 98.5t-101 232.5q0 84 47 164t135 133.5t194 53.5q155 0 257 -98.5t102 -231.5q0 -63 -28.5 -125.5t-77 -113t-120.5 -82t-152 -31.5zM417 632q-116 0 -189.5 -77.5t-73.5 -210.5q0 -156 87.5 -244.5t203.5 -88.5t190 77t74 210q0 155 -88 244.5
t-204 89.5zM416 703q-5 -5 -11.5 -1.5t-1.5 10.5l145 191q3 5 13 0t17.5 -14t3.5 -13z" />
    <glyph glyph-name="Ocircumflex" unicode="&#xd4;" horiz-adv-x="862" 
d="M421 -20q-155 0 -256 98.5t-101 232.5q0 84 47 164t135 133.5t194 53.5q155 0 257 -98.5t102 -231.5q0 -63 -28.5 -125.5t-77 -113t-120.5 -82t-152 -31.5zM417 632q-116 0 -189.5 -77.5t-73.5 -210.5q0 -156 87.5 -244.5t203.5 -88.5t190 77t74 210q0 155 -88 244.5
t-204 89.5zM541 699l-113 147l-108 -147q-3 -3 -7.5 -3t-7 3t-0.5 7l117 203q2 4 8.5 3.5t8.5 -4.5l118 -202q2 -3 -1 -6.5t-7 -4t-8 3.5z" />
    <glyph glyph-name="Otilde" unicode="&#xd5;" horiz-adv-x="862" 
d="M421 -20q-155 0 -256 98.5t-101 232.5q0 84 47 164t135 133.5t194 53.5q155 0 257 -98.5t102 -231.5q0 -63 -28.5 -125.5t-77 -113t-120.5 -82t-152 -31.5zM417 632q-116 0 -189.5 -77.5t-73.5 -210.5q0 -156 87.5 -244.5t203.5 -88.5t190 77t74 210q0 155 -88 244.5
t-204 89.5zM498 733q-24 0 -76 19.5t-84 19.5q-49 0 -63 -66q-3 -1 -11 1t-8 4q4 48 32.5 75t72.5 27q22 0 73.5 -18t76.5 -18q24 0 38 12t22 46q0 1 4.5 0t9.5 -2.5t5 -3.5q-4 -44 -28 -70t-64 -26z" />
    <glyph glyph-name="Odieresis" unicode="&#xd6;" horiz-adv-x="862" 
d="M421 -20q-155 0 -256 98.5t-101 232.5q0 84 47 164t135 133.5t194 53.5q155 0 257 -98.5t102 -231.5q0 -63 -28.5 -125.5t-77 -113t-120.5 -82t-152 -31.5zM417 632q-116 0 -189.5 -77.5t-73.5 -210.5q0 -156 87.5 -244.5t203.5 -88.5t190 77t74 210q0 155 -88 244.5
t-204 89.5zM524 735q-20 0 -33.5 13.5t-13.5 31.5q0 19 14 33.5t35 14.5q20 0 33.5 -14t13.5 -32q0 -19 -14 -33t-35 -14zM337 735q-20 0 -34 13.5t-14 31.5q0 19 14.5 33.5t35.5 14.5q19 0 33 -14t14 -32q0 -19 -14 -33t-35 -14z" />
    <glyph glyph-name="Oslash" unicode="&#xd8;" horiz-adv-x="862" 
d="M421 -20q-130 0 -226 73l-80 -86q-2 -2 -6.5 0t-8 5.5t-1.5 5.5l80 88q-115 98 -115 245q0 84 47 164t135 133.5t194 53.5q127 0 225 -72l79 85q2 2 6.5 0t8 -5.5t1.5 -5.5l-79 -87q56 -47 87 -111t31 -134q0 -63 -28.5 -125.5t-77 -113t-120.5 -82t-152 -31.5zM417 632
q-116 0 -189.5 -77.5t-73.5 -210.5q0 -136 72 -228l394 426q-84 90 -203 90zM634 527l-394 -426q82 -90 205 -90q116 0 190 77t74 210q0 136 -75 229z" />
    <glyph glyph-name="Ugrave" unicode="&#xd9;" horiz-adv-x="838" 
d="M698 480v-250q0 -107 -71 -178.5t-199 -71.5q-118 0 -197.5 70t-79.5 187v234v64t-4.5 41.5t-8 27.5t-17 14t-24.5 8.5t-38 4.5q-3 0 -5 4.5t-1 8.5t6 4q52 -6 147 -6q79 0 124 6q5 0 6 -4t-0.5 -8.5t-3.5 -4.5q-16 -1 -25.5 -2t-20 -4t-16 -4.5t-11.5 -8t-8.5 -10
t-5.5 -15.5t-3.5 -19t-1.5 -26t-1 -31.5v-39.5v-214q0 -111 64.5 -169.5t150.5 -58.5q102 0 154.5 53.5t52.5 157.5v240q0 95 -15.5 119.5t-82.5 31.5q-3 1 -4.5 5t-0.5 8t6 4q52 -6 127 -6q55 0 102 6q5 0 6 -4t-0.5 -8.5t-3.5 -4.5q-67 -6 -82 -31t-15 -120zM463 699
l-165 173q-4 4 3 13t17.5 14t13.5 0l146 -191q3 -4 0 -7.5t-7.5 -4t-7.5 2.5z" />
    <glyph glyph-name="Uacute" unicode="&#xda;" horiz-adv-x="838" 
d="M698 480v-250q0 -107 -71 -178.5t-199 -71.5q-118 0 -197.5 70t-79.5 187v234v64t-4.5 41.5t-8 27.5t-17 14t-24.5 8.5t-38 4.5q-3 0 -5 4.5t-1 8.5t6 4q52 -6 147 -6q79 0 124 6q5 0 6 -4t-0.5 -8.5t-3.5 -4.5q-16 -1 -25.5 -2t-20 -4t-16 -4.5t-11.5 -8t-8.5 -10
t-5.5 -15.5t-3.5 -19t-1.5 -26t-1 -31.5v-39.5v-214q0 -111 64.5 -169.5t150.5 -58.5q102 0 154.5 53.5t52.5 157.5v240q0 95 -15.5 119.5t-82.5 31.5q-3 1 -4.5 5t-0.5 8t6 4q52 -6 127 -6q55 0 102 6q5 0 6 -4t-0.5 -8.5t-3.5 -4.5q-67 -6 -82 -31t-15 -120zM432 703
q-5 -5 -11.5 -1.5t-1.5 10.5l145 191q3 5 13 0t17.5 -14t3.5 -13z" />
    <glyph glyph-name="Ucircumflex" unicode="&#xdb;" horiz-adv-x="838" 
d="M698 480v-250q0 -107 -71 -178.5t-199 -71.5q-118 0 -197.5 70t-79.5 187v234v64t-4.5 41.5t-8 27.5t-17 14t-24.5 8.5t-38 4.5q-3 0 -5 4.5t-1 8.5t6 4q52 -6 147 -6q79 0 124 6q5 0 6 -4t-0.5 -8.5t-3.5 -4.5q-16 -1 -25.5 -2t-20 -4t-16 -4.5t-11.5 -8t-8.5 -10
t-5.5 -15.5t-3.5 -19t-1.5 -26t-1 -31.5v-39.5v-214q0 -111 64.5 -169.5t150.5 -58.5q102 0 154.5 53.5t52.5 157.5v240q0 95 -15.5 119.5t-82.5 31.5q-3 1 -4.5 5t-0.5 8t6 4q52 -6 127 -6q55 0 102 6q5 0 6 -4t-0.5 -8.5t-3.5 -4.5q-67 -6 -82 -31t-15 -120zM556 699
l-113 147l-108 -147q-3 -3 -7.5 -3t-7 3t-0.5 7l117 203q2 4 8.5 3.5t8.5 -4.5l118 -202q2 -3 -1 -6.5t-7 -4t-8 3.5z" />
    <glyph glyph-name="Udieresis" unicode="&#xdc;" horiz-adv-x="838" 
d="M698 480v-250q0 -107 -71 -178.5t-199 -71.5q-118 0 -197.5 70t-79.5 187v234v64t-4.5 41.5t-8 27.5t-17 14t-24.5 8.5t-38 4.5q-3 0 -5 4.5t-1 8.5t6 4q52 -6 147 -6q79 0 124 6q5 0 6 -4t-0.5 -8.5t-3.5 -4.5q-16 -1 -25.5 -2t-20 -4t-16 -4.5t-11.5 -8t-8.5 -10
t-5.5 -15.5t-3.5 -19t-1.5 -26t-1 -31.5v-39.5v-214q0 -111 64.5 -169.5t150.5 -58.5q102 0 154.5 53.5t52.5 157.5v240q0 95 -15.5 119.5t-82.5 31.5q-3 1 -4.5 5t-0.5 8t6 4q52 -6 127 -6q55 0 102 6q5 0 6 -4t-0.5 -8.5t-3.5 -4.5q-67 -6 -82 -31t-15 -120zM536 735
q-20 0 -33.5 13.5t-13.5 31.5q0 19 14 33.5t35 14.5q20 0 33.5 -14t13.5 -32q0 -19 -14 -33t-35 -14zM349 735q-20 0 -34 13.5t-14 31.5q0 19 14.5 33.5t35.5 14.5q19 0 33 -14t14 -32q0 -19 -14 -33t-35 -14z" />
    <glyph glyph-name="Yacute" unicode="&#xdd;" horiz-adv-x="763" 
d="M538 470l-109 -152v-147q0 -109 12 -131t81 -27q2 0 3.5 -5t0.5 -9.5t-6 -4.5q-46 6 -124 6q-97 0 -147 -6q-4 -1 -4.5 4t0.5 10t3 5q23 3 30.5 3.5t22 4.5t17.5 6.5t10.5 12t8 18t3 27.5t2.5 36.5v49.5v138l-90 138q-75 115 -109.5 146t-97.5 38q-6 1 -5 12q2 5 5 5
q50 -6 147 -6q76 0 123 6q5 0 6 -4t-0.5 -8.5t-3.5 -4.5q-53 -5 -56 -27q-2 -22 55 -108q7 -11 30 -45l67 -100l86 123q71 102 78 121q7 23 -18 30q-11 3 -36 6q-6 1 -5 12q2 5 5 5q50 -6 123 -6q43 0 91 6q5 0 6 -4t-1 -8.5t-4 -4.5q-62 -5 -94 -31.5t-106 -129.5zM381 703
q-5 -5 -11.5 -1.5t-1.5 10.5l145 191q3 5 13 0t17.5 -14t3.5 -13z" />
    <glyph glyph-name="Thorn" unicode="&#xde;" horiz-adv-x="618" 
d="M294 155h-16q-4 0 -4 9.5t4 9.5q2 0 7 -0.5t8 -0.5q90 0 132.5 38t42.5 119q0 76 -41.5 115t-120.5 39q-28 0 -49 -4q-3 -19 -3 -143v-167q0 -40 0.5 -61.5t5 -41t9 -27.5t18 -15t27 -9t39.5 -4q5 0 4 -11q-1 -7 -5 -7q-46 6 -131 6q-97 0 -147 -6q-5 0 -5.5 4.5t1 9
t3.5 4.5q22 2 30 3t22 5t17.5 7t10.5 12t8 18t3.5 27.5t2.5 36.5v49v301q0 105 -13.5 128.5t-80.5 30.5q-2 0 -3.5 4.5t-1 8.5t5.5 4q50 -6 147 -6q69 0 116 6q4 0 5 -4t-1 -8t-4 -4q-56 -6 -69.5 -25.5t-13.5 -99.5v1q48 4 79 4q100 0 162 -45t62 -120q0 -87 -71.5 -139
t-191.5 -52z" />
    <glyph glyph-name="germandbls" unicode="&#xdf;" horiz-adv-x="551" 
d="M386 -14q-39 0 -69.5 10.5t-43 22t-12.5 19.5q0 16 13 33t26 17q11 0 27.5 -19t37 -38t40.5 -19q64 0 64 80q0 27 -19.5 50t-46.5 41t-54.5 37t-47 45.5t-19.5 58.5q0 30 21 59t45.5 49t45.5 53t21 70q0 58 -35 95.5t-88 37.5q-55 0 -79.5 -47.5t-24.5 -165.5v-376
q0 -48 12.5 -65.5t45.5 -19.5q1 0 2 -5t0 -9.5t-4 -3.5q-28 4 -90 4q-86 0 -115 -4q-3 -1 -4 4q-1 11 4 14q52 6 63 18t11 67v264q-13 0 -44 0.5t-35 0.5q-2 -1 -4 3q-4 13 0 21q6 0 17.5 0.5t17 1t14 1.5t14 2t11 3t9.5 5v38q0 126 68 210.5t163 84.5q61 0 102.5 -39.5
t41.5 -100.5q0 -39 -14.5 -68.5t-35 -48t-41 -35t-35 -38t-14.5 -47.5q0 -25 19 -47.5t46 -40.5t54.5 -37t46.5 -47t19 -62q0 -55 -40.5 -96t-106.5 -41z" />
    <glyph glyph-name="agrave" unicode="&#xe0;" horiz-adv-x="426" 
d="M345 -17q-27 0 -45 16t-21 45q-64 -58 -142 -58q-43 0 -68 24t-25 62q0 99 237 113q2 76 2 110q0 49 -28 65q-19 11 -58 11q-22 0 -40 -8.5t-18 -19.5q0 -7 2.5 -16t2.5 -15q0 -15 -21 -28t-46 -13q-11 0 -18 6t-6 15q2 32 72.5 79t136.5 47q41 0 67.5 -28.5t27.5 -77.5
q0 -21 -3 -119t-2 -126q1 -29 19.5 -36.5t65.5 6.5l6 -10q1 -3 -1 -4q-56 -40 -97 -40zM124 81q0 -50 62 -50q44 0 90 37q2 40 4 97q-90 -7 -123 -28.5t-33 -55.5zM248 467l-157 173q-4 4 3 13t16.5 14t12.5 0l139 -191q3 -4 0 -7.5t-7 -4t-7 2.5z" />
    <glyph glyph-name="aacute" unicode="&#xe1;" horiz-adv-x="426" 
d="M345 -17q-27 0 -45 16t-21 45q-64 -58 -142 -58q-43 0 -68 24t-25 62q0 99 237 113q2 76 2 110q0 49 -28 65q-19 11 -58 11q-22 0 -40 -8.5t-18 -19.5q0 -7 2.5 -16t2.5 -15q0 -15 -21 -28t-46 -13q-11 0 -18 6t-6 15q2 32 72.5 79t136.5 47q41 0 67.5 -28.5t27.5 -77.5
q0 -21 -3 -119t-2 -126q1 -29 19.5 -36.5t65.5 6.5l6 -10q1 -3 -1 -4q-56 -40 -97 -40zM124 81q0 -50 62 -50q44 0 90 37q2 40 4 97q-90 -7 -123 -28.5t-33 -55.5zM189 471q-5 -5 -11 -1.5t-1 10.5l137 191q3 5 13 -0.5t17 -14t3 -12.5z" />
    <glyph glyph-name="acircumflex" unicode="&#xe2;" horiz-adv-x="426" 
d="M345 -17q-27 0 -45 16t-21 45q-64 -58 -142 -58q-43 0 -68 24t-25 62q0 99 237 113q2 76 2 110q0 49 -28 65q-19 11 -58 11q-22 0 -40 -8.5t-18 -19.5q0 -7 2.5 -16t2.5 -15q0 -15 -21 -28t-46 -13q-11 0 -18 6t-6 15q2 32 72.5 79t136.5 47q41 0 67.5 -28.5t27.5 -77.5
q0 -21 -3 -119t-2 -126q1 -29 19.5 -36.5t65.5 6.5l6 -10q1 -3 -1 -4q-56 -40 -97 -40zM124 81q0 -50 62 -50q44 0 90 37q2 40 4 97q-90 -7 -123 -28.5t-33 -55.5zM323 467l-107 147l-103 -147q-3 -3 -7 -3t-6.5 3t-0.5 7l111 203q2 4 8 3.5t8 -4.5l112 -202q2 -3 -0.5 -6.5
t-6.5 -4t-8 3.5z" />
    <glyph glyph-name="atilde" unicode="&#xe3;" horiz-adv-x="426" 
d="M345 -17q-27 0 -45 16t-21 45q-64 -58 -142 -58q-43 0 -68 24t-25 62q0 99 237 113q2 76 2 110q0 49 -28 65q-19 11 -58 11q-22 0 -40 -8.5t-18 -19.5q0 -7 2.5 -16t2.5 -15q0 -15 -21 -28t-46 -13q-11 0 -18 6t-6 15q2 32 72.5 79t136.5 47q41 0 67.5 -28.5t27.5 -77.5
q0 -21 -3 -119t-2 -126q1 -29 19.5 -36.5t65.5 6.5l6 -10q1 -3 -1 -4q-56 -40 -97 -40zM124 81q0 -50 62 -50q44 0 90 37q2 40 4 97q-90 -7 -123 -28.5t-33 -55.5zM289 501q-23 0 -72.5 19.5t-79.5 19.5q-46 0 -60 -66q-3 -1 -10.5 1t-7.5 4q4 48 31 75t69 27q21 0 70 -18
t72 -18t36.5 12t20.5 46q0 1 5 0t9.5 -2.5t4.5 -3.5q-4 -44 -27 -70t-61 -26z" />
    <glyph glyph-name="adieresis" unicode="&#xe4;" horiz-adv-x="426" 
d="M345 -17q-27 0 -45 16t-21 45q-64 -58 -142 -58q-43 0 -68 24t-25 62q0 99 237 113q2 76 2 110q0 49 -28 65q-19 11 -58 11q-22 0 -40 -8.5t-18 -19.5q0 -7 2.5 -16t2.5 -15q0 -15 -21 -28t-46 -13q-11 0 -18 6t-6 15q2 32 72.5 79t136.5 47q41 0 67.5 -28.5t27.5 -77.5
q0 -21 -3 -119t-2 -126q1 -29 19.5 -36.5t65.5 6.5l6 -10q1 -3 -1 -4q-56 -40 -97 -40zM124 81q0 -50 62 -50q44 0 90 37q2 40 4 97q-90 -7 -123 -28.5t-33 -55.5zM312 503q-18 0 -31 13.5t-13 31.5q0 19 13 33.5t33 14.5q19 0 32 -14t13 -32q0 -19 -13.5 -33t-33.5 -14z
M135 503q-19 0 -32.5 13.5t-13.5 31.5q0 19 13.5 33.5t33.5 14.5q18 0 31.5 -14t13.5 -32q0 -19 -13.5 -33t-32.5 -14z" />
    <glyph glyph-name="aring" unicode="&#xe5;" horiz-adv-x="426" 
d="M233 462q-38 0 -64.5 25.5t-26.5 62.5q0 36 26.5 62t64.5 26q37 0 63.5 -26t26.5 -62q0 -37 -26.5 -62.5t-63.5 -25.5zM341 -17q-27 0 -45 16t-21 45q-64 -58 -142 -58q-43 0 -68 24t-25 62q0 99 237 113q2 76 2 110q0 49 -28 65q-19 11 -58 11q-22 0 -40 -8.5t-18 -19.5
q0 -7 2.5 -16t2.5 -15q0 -15 -21 -28t-46 -13q-11 0 -18 6t-6 15q2 32 72.5 79t136.5 47q41 0 67.5 -28.5t27.5 -77.5q0 -21 -3 -119t-2 -126q1 -29 19.5 -36.5t65.5 6.5l6 -10q1 -3 -1 -4q-56 -40 -97 -40zM233 618q-30 0 -50.5 -20t-20.5 -48q0 -29 20.5 -48.5t50.5 -19.5
q29 0 49.5 20t20.5 48t-20.5 48t-49.5 20zM120 81q0 -50 62 -50q44 0 90 37q2 40 4 97q-90 -7 -123 -28.5t-33 -55.5z" />
    <glyph glyph-name="ae" unicode="&#xe6;" horiz-adv-x="672" 
d="M476 -14q-108 0 -168 89q-34 -39 -81 -64t-91 -25q-46 0 -74.5 24.5t-28.5 61.5q0 114 240 146q2 64 2 83q0 31 -16 50q-17 20 -56 20q-27 0 -49.5 -8.5t-22.5 -18.5q0 -4 1 -13t1 -14q0 -10 -4 -13q-9 -11 -28.5 -18.5t-34.5 -7.5q-21 0 -21 12q2 31 73.5 80t134.5 49
q28 0 52.5 -17.5t35.5 -47.5q67 65 147 65q67 0 108.5 -43.5t41.5 -97.5l-4 -32l-281 -40q3 -89 49 -131.5t107 -42.5q68 0 121 43q3 2 8.5 -5t1.5 -10q-29 -34 -73.5 -54t-90.5 -20zM466 391q-47 0 -79 -46t-34 -118l206 29q-2 61 -27 98t-66 37zM273 197
q-97 -15 -129.5 -42t-32.5 -60q0 -28 13.5 -46t38.5 -18q70 0 135 62q-27 51 -25 104z" />
    <glyph glyph-name="ccedilla" unicode="&#xe7;" horiz-adv-x="414" 
d="M248 -12l-27 -38q50 -16 75.5 -44t25.5 -59q0 -42 -36 -75.5t-108 -44.5q-4 0 -6 4t-1 8.5t3 4.5q37 5 58.5 21.5t27 31t5.5 29.5q0 54 -103 83l54 78q-78 3 -129 57.5t-51 135.5q0 94 78.5 166t189.5 72q34 0 57.5 -11.5t23.5 -23.5q0 -14 -13 -35t-23 -21
q-11 0 -50 19.5t-70 19.5q-59 0 -86.5 -35.5t-27.5 -110.5q0 -90 42 -138t101 -48q65 0 123 43q1 1 4.5 -2t5 -7t-0.5 -6q-61 -63 -142 -74z" />
    <glyph glyph-name="egrave" unicode="&#xe8;" horiz-adv-x="440" 
d="M408 257l-287 -7q-1 -10 -1 -32q0 -92 44 -138.5t106 -46.5q71 0 128 42q1 1 4 -2t5.5 -7t0.5 -5q-29 -32 -76.5 -53.5t-95.5 -21.5q-87 0 -141.5 56.5t-54.5 145.5q0 90 68 160t150 70q72 0 114 -42.5t42 -92.5q0 -2 -6 -26zM231 387q-38 0 -67 -30.5t-40 -84.5l211 5
q-2 41 -30.5 75.5t-73.5 34.5zM245 467l-156 173q-4 4 2.5 13t16.5 14t13 0l139 -191q3 -4 0 -7.5t-7.5 -4t-7.5 2.5z" />
    <glyph glyph-name="eacute" unicode="&#xe9;" horiz-adv-x="440" 
d="M408 257l-287 -7q-1 -10 -1 -32q0 -92 44 -138.5t106 -46.5q71 0 128 42q1 1 4 -2t5.5 -7t0.5 -5q-29 -32 -76.5 -53.5t-95.5 -21.5q-87 0 -141.5 56.5t-54.5 145.5q0 90 68 160t150 70q72 0 114 -42.5t42 -92.5q0 -2 -6 -26zM231 387q-38 0 -67 -30.5t-40 -84.5l211 5
q-2 41 -30.5 75.5t-73.5 34.5zM223 471q-5 -5 -11 -1.5t-1 10.5l137 191q3 5 13 -0.5t17 -14t3 -12.5z" />
    <glyph glyph-name="ecircumflex" unicode="&#xea;" horiz-adv-x="440" 
d="M408 257l-287 -7q-1 -10 -1 -32q0 -92 44 -138.5t106 -46.5q71 0 128 42q1 1 4 -2t5.5 -7t0.5 -5q-29 -32 -76.5 -53.5t-95.5 -21.5q-87 0 -141.5 56.5t-54.5 145.5q0 90 68 160t150 70q72 0 114 -42.5t42 -92.5q0 -2 -6 -26zM231 387q-38 0 -67 -30.5t-40 -84.5l211 5
q-2 41 -30.5 75.5t-73.5 34.5zM336 467l-107 147l-103 -147q-2 -3 -6.5 -3t-7 3t-0.5 7l111 203q2 4 8 3.5t8 -4.5l112 -202q2 -3 -0.5 -6.5t-6.5 -4t-8 3.5z" />
    <glyph glyph-name="edieresis" unicode="&#xeb;" horiz-adv-x="440" 
d="M408 257l-287 -7q-1 -10 -1 -32q0 -92 44 -138.5t106 -46.5q71 0 128 42q1 1 4 -2t5.5 -7t0.5 -5q-29 -32 -76.5 -53.5t-95.5 -21.5q-87 0 -141.5 56.5t-54.5 145.5q0 90 68 160t150 70q72 0 114 -42.5t42 -92.5q0 -2 -6 -26zM231 387q-38 0 -67 -30.5t-40 -84.5l211 5
q-2 41 -30.5 75.5t-73.5 34.5zM326 503q-19 0 -32 13.5t-13 31.5q0 19 13.5 33.5t33.5 14.5q18 0 31 -14t13 -32q0 -19 -13 -33t-33 -14zM148 503q-19 0 -32 13.5t-13 31.5q0 19 13.5 33.5t33.5 14.5q18 0 31.5 -14t13.5 -32q0 -19 -13.5 -33t-33.5 -14z" />
    <glyph glyph-name="igrave" unicode="&#xec;" horiz-adv-x="273" 
d="M142 0q-80 0 -107 -4q-2 0 -2.5 4.5t0.5 9t2 4.5q49 6 59.5 18t10.5 67v169q0 47 -11.5 58t-47.5 -1q-3 -1 -5.5 5.5t0.5 9.5q100 59 128 87q1 1 4.5 0t6.5 -4t3 -5q-6 -24 -6 -146v-173q0 -55 10.5 -67t58.5 -18q5 0 3 -14q-1 -4 -3 -4q-27 4 -104 4zM145 467l-156 173
q-4 4 2.5 13t16.5 14t13 0l139 -191q3 -4 0 -7.5t-7.5 -4t-7.5 2.5z" />
    <glyph glyph-name="iacute" unicode="&#xed;" horiz-adv-x="273" 
d="M142 0q-80 0 -107 -4q-2 0 -2.5 4.5t0.5 9t2 4.5q49 6 59.5 18t10.5 67v169q0 47 -11.5 58t-47.5 -1q-3 -1 -5.5 5.5t0.5 9.5q100 59 128 87q1 1 4.5 0t6.5 -4t3 -5q-6 -24 -6 -146v-173q0 -55 10.5 -67t58.5 -18q5 0 3 -14q-1 -4 -3 -4q-27 4 -104 4zM134 471
q-4 -5 -10.5 -1.5t-1.5 10.5l138 191q3 4 12.5 -1t16.5 -13.5t3 -12.5z" />
    <glyph glyph-name="icircumflex" unicode="&#xee;" horiz-adv-x="273" 
d="M142 0q-80 0 -107 -4q-2 0 -2.5 4.5t0.5 9t2 4.5q49 6 59.5 18t10.5 67v169q0 47 -11.5 58t-47.5 -1q-3 -1 -5.5 5.5t0.5 9.5q100 59 128 87q1 1 4.5 0t6.5 -4t3 -5q-6 -24 -6 -146v-173q0 -55 10.5 -67t58.5 -18q5 0 3 -14q-1 -4 -3 -4q-27 4 -104 4zM240 467l-108 147
l-102 -147q-3 -3 -7 -3t-7 3t-1 7l112 203q2 4 8 3.5t8 -4.5l112 -202q2 -3 -0.5 -6.5t-7 -4t-7.5 3.5z" />
    <glyph glyph-name="idieresis" unicode="&#xef;" horiz-adv-x="273" 
d="M142 0q-80 0 -107 -4q-2 0 -2.5 4.5t0.5 9t2 4.5q49 6 59.5 18t10.5 67v169q0 47 -11.5 58t-47.5 -1q-3 -1 -5.5 5.5t0.5 9.5q100 59 128 87q1 1 4.5 0t6.5 -4t3 -5q-6 -24 -6 -146v-173q0 -55 10.5 -67t58.5 -18q5 0 3 -14q-1 -4 -3 -4q-27 4 -104 4zM226 503
q-19 0 -32 13.5t-13 31.5q0 19 13.5 33.5t33.5 14.5q19 0 32 -14t13 -32q0 -19 -13.5 -33t-33.5 -14zM48 503q-19 0 -32 13.5t-13 31.5q0 19 13.5 33.5t33.5 14.5q18 0 31.5 -14t13.5 -32q0 -19 -13.5 -33t-33.5 -14z" />
    <glyph glyph-name="eth" unicode="&#xf0;" horiz-adv-x="496" 
d="M337 27q-55 -41 -123 -41q-72 0 -125 56t-53 137q0 93 70 161.5t172 68.5q32 0 82 -8q-21 70 -55 112l-72 -52q-8 -2 -16.5 13t-2.5 19l69 43q-52 52 -131 52q-15 0 -43.5 -9t-41.5 -21q-6 -7 -11 1q-4 4 1 11q20 30 59 50t76 20q90 0 156 -63l56 36q7 4 15.5 -10.5
t4.5 -20.5l-51 -32q84 -101 84 -248q0 -100 -28 -164t-92 -111zM376 324q-62 46 -144 46q-55 0 -87 -40t-32 -118q0 -83 46 -129.5t105 -46.5q50 0 83 55.5t33 171.5q0 33 -4 61z" />
    <glyph glyph-name="ntilde" unicode="&#xf1;" horiz-adv-x="540" 
d="M426 0q-71 0 -100 -4q-3 -1 -3 4q-2 12 3 15q40 4 51 17.5t11 66.5v150q0 67 -15 94.5t-57 27.5q-25 0 -50.5 -10t-80.5 -43v-219q0 -51 10.5 -65.5t50.5 -18.5q4 0 3 -14q-2 -5 -4 -5q-28 4 -94 4q-87 0 -115 -4q-3 -1 -3 4q-2 12 2 15q52 5 63.5 17t11.5 67v168
q0 48 -12 59t-50 -1q-3 -1 -6.5 6.5t0.5 9.5q65 34 124 86q0 1 3 0t6.5 -4t3.5 -5q3 -22 5 -76q111 76 177 76q102 0 102 -125v-194q0 -53 11 -66.5t62 -17.5q4 0 2 -14q0 -6 -3 -5q-25 4 -109 4zM346 501q-23 0 -72.5 19.5t-79.5 19.5q-46 0 -60 -66q-3 -1 -10.5 1t-7.5 4
q4 48 31 75t69 27q20 0 69 -18t73 -18q23 0 36.5 12t20.5 46q0 1 4.5 0t9 -2.5t4.5 -3.5q-3 -44 -26 -70t-61 -26z" />
    <glyph glyph-name="ograve" unicode="&#xf2;" horiz-adv-x="512" 
d="M254 -14q-95 0 -154.5 62t-59.5 147q0 91 62 157t163 66q95 0 155.5 -62t60.5 -147q0 -90 -63 -156.5t-164 -66.5zM243 389q-58 0 -90 -44.5t-32 -109.5q0 -102 42.5 -160.5t113.5 -58.5q58 0 89.5 44t31.5 109q0 102 -42.5 161t-112.5 59zM249 467l-157 173q-4 4 3 13
t17 14t13 0l138 -191q3 -4 0.5 -7.5t-7 -4t-7.5 2.5z" />
    <glyph glyph-name="oacute" unicode="&#xf3;" horiz-adv-x="512" 
d="M254 -14q-95 0 -154.5 62t-59.5 147q0 91 62 157t163 66q95 0 155.5 -62t60.5 -147q0 -90 -63 -156.5t-164 -66.5zM243 389q-58 0 -90 -44.5t-32 -109.5q0 -102 42.5 -160.5t113.5 -58.5q58 0 89.5 44t31.5 109q0 102 -42.5 161t-112.5 59zM226 471q-5 -5 -11 -1.5
t-1 10.5l138 191q3 4 12.5 -1t16.5 -13.5t3 -12.5z" />
    <glyph glyph-name="ocircumflex" unicode="&#xf4;" horiz-adv-x="512" 
d="M254 -14q-95 0 -154.5 62t-59.5 147q0 91 62 157t163 66q95 0 155.5 -62t60.5 -147q0 -90 -63 -156.5t-164 -66.5zM243 389q-58 0 -90 -44.5t-32 -109.5q0 -102 42.5 -160.5t113.5 -58.5q58 0 89.5 44t31.5 109q0 102 -42.5 161t-112.5 59zM363 467l-107 147l-103 -147
q-3 -3 -7 -3t-6.5 3t-0.5 7l111 203q2 4 8 3.5t8 -4.5l112 -202q2 -3 -0.5 -6.5t-6.5 -4t-8 3.5z" />
    <glyph glyph-name="otilde" unicode="&#xf5;" horiz-adv-x="512" 
d="M254 -14q-95 0 -154.5 62t-59.5 147q0 91 62 157t163 66q95 0 155.5 -62t60.5 -147q0 -90 -63 -156.5t-164 -66.5zM243 389q-58 0 -90 -44.5t-32 -109.5q0 -102 42.5 -160.5t113.5 -58.5q58 0 89.5 44t31.5 109q0 102 -42.5 161t-112.5 59zM318 501q-23 0 -72.5 19.5
t-79.5 19.5q-47 0 -59 -66q-3 -1 -10.5 1t-7.5 4q4 48 30.5 75t68.5 27q21 0 70 -18t73 -18q22 0 35.5 12t21.5 46q0 1 4.5 0t9 -2.5t4.5 -3.5q-4 -44 -26.5 -70t-61.5 -26z" />
    <glyph glyph-name="odieresis" unicode="&#xf6;" horiz-adv-x="512" 
d="M254 -14q-95 0 -154.5 62t-59.5 147q0 91 62 157t163 66q95 0 155.5 -62t60.5 -147q0 -90 -63 -156.5t-164 -66.5zM243 389q-58 0 -90 -44.5t-32 -109.5q0 -102 42.5 -160.5t113.5 -58.5q58 0 89.5 44t31.5 109q0 102 -42.5 161t-112.5 59zM344 503q-19 0 -32 13.5
t-13 31.5q0 19 13 33.5t33 14.5q19 0 32 -14t13 -32q0 -19 -13.5 -33t-32.5 -14zM166 503q-19 0 -32.5 13.5t-13.5 31.5q0 19 14 33.5t34 14.5q18 0 31 -14t13 -32q0 -19 -13.5 -33t-32.5 -14z" />
    <glyph glyph-name="oslash" unicode="&#xf8;" horiz-adv-x="512" 
d="M250 -14q-69 0 -129 41l-9 -13l-18 -28l-9 -13q-2 -2 -6.5 -0.5t-8 5.5t-1.5 6l40 51q-73 62 -73 160q0 91 62 157t163 66q69 0 121 -35l38 48q2 2 6.5 0.5t8 -5.5t1.5 -6l-38 -48q79 -63 79 -163q0 -90 -63 -156.5t-164 -66.5zM239 389q-58 0 -90 -44.5t-32 -109.5
q0 -90 33 -148l196 250q-40 52 -107 52zM358 320l-196 -249q40 -55 111 -55q58 0 89.5 44t31.5 109q0 93 -36 151z" />
    <glyph glyph-name="ugrave" unicode="&#xf9;" horiz-adv-x="513" 
d="M388 -16q-13 0 -21.5 23.5t-9.5 62.5q-36 -35 -80 -59.5t-81 -24.5q-51 0 -82 32t-30 93l3 190q1 38 -9 48t-54 11q-2 0 -4 7t1 8q71 13 123 44q0 1 3.5 -0.5t7 -5t3.5 -5.5q3 -27 3 -96l-2 -157q-1 -69 16 -94.5t62 -25.5q51 0 120 60l3 211q1 38 -8.5 48t-53.5 13
q-1 0 -3 4t-2.5 7.5t1.5 4.5q74 12 124 40q1 0 7 -4.5t6 -7.5q3 -27 3 -99l-2 -228q0 -34 17.5 -41t62.5 6l5 -9q2 -7 -1 -8q-96 -48 -128 -48zM266 467l-157 173q-4 4 2.5 13t16.5 14t13 0l139 -191q3 -4 0 -7.5t-7 -4t-7 2.5z" />
    <glyph glyph-name="uacute" unicode="&#xfa;" horiz-adv-x="513" 
d="M388 -16q-13 0 -21.5 23.5t-9.5 62.5q-36 -35 -80 -59.5t-81 -24.5q-51 0 -82 32t-30 93l3 190q1 38 -9 48t-54 11q-2 0 -4 7t1 8q71 13 123 44q0 1 3.5 -0.5t7 -5t3.5 -5.5q3 -27 3 -96l-2 -157q-1 -69 16 -94.5t62 -25.5q51 0 120 60l3 211q1 38 -8.5 48t-53.5 13
q-1 0 -3 4t-2.5 7.5t1.5 4.5q74 12 124 40q1 0 7 -4.5t6 -7.5q3 -27 3 -99l-2 -228q0 -34 17.5 -41t62.5 6l5 -9q2 -7 -1 -8q-96 -48 -128 -48zM221 471q-3 -3 -7.5 -2.5t-6.5 3.5t1 8l138 191q3 5 12.5 0t16.5 -14t3 -13z" />
    <glyph glyph-name="ucircumflex" unicode="&#xfb;" horiz-adv-x="513" 
d="M388 -16q-13 0 -21.5 23.5t-9.5 62.5q-36 -35 -80 -59.5t-81 -24.5q-51 0 -82 32t-30 93l3 190q1 38 -9 48t-54 11q-2 0 -4 7t1 8q71 13 123 44q0 1 3.5 -0.5t7 -5t3.5 -5.5q3 -27 3 -96l-2 -157q-1 -69 16 -94.5t62 -25.5q51 0 120 60l3 211q1 38 -8.5 48t-53.5 13
q-1 0 -3 4t-2.5 7.5t1.5 4.5q74 12 124 40q1 0 7 -4.5t6 -7.5q3 -27 3 -99l-2 -228q0 -34 17.5 -41t62.5 6l5 -9q2 -7 -1 -8q-96 -48 -128 -48zM360 467l-108 147l-102 -147q-3 -3 -7 -3t-7 3t-1 7l112 203q2 4 8 3.5t8 -4.5l112 -202q2 -3 -0.5 -6.5t-7 -4t-7.5 3.5z" />
    <glyph glyph-name="udieresis" unicode="&#xfc;" horiz-adv-x="513" 
d="M388 -16q-13 0 -21.5 23.5t-9.5 62.5q-36 -35 -80 -59.5t-81 -24.5q-51 0 -82 32t-30 93l3 190q1 38 -9 48t-54 11q-2 0 -4 7t1 8q71 13 123 44q0 1 3.5 -0.5t7 -5t3.5 -5.5q3 -27 3 -96l-2 -157q-1 -69 16 -94.5t62 -25.5q51 0 120 60l3 211q1 38 -8.5 48t-53.5 13
q-1 0 -3 4t-2.5 7.5t1.5 4.5q74 12 124 40q1 0 7 -4.5t6 -7.5q3 -27 3 -99l-2 -228q0 -34 17.5 -41t62.5 6l5 -9q2 -7 -1 -8q-96 -48 -128 -48zM334 503q-19 0 -32 13.5t-13 31.5q0 19 13.5 33.5t33.5 14.5q18 0 31 -14t13 -32q0 -19 -13.5 -33t-32.5 -14zM156 503
q-19 0 -32.5 13.5t-13.5 31.5q0 19 14 33.5t34 14.5q18 0 31.5 -14t13.5 -32q0 -19 -13.5 -33t-33.5 -14z" />
    <glyph glyph-name="yacute" unicode="&#xfd;" horiz-adv-x="429" 
d="M358 307q-2 -6 -26.5 -61t-46.5 -108.5t-48.5 -124t-45.5 -140.5t-25 -126q-10 -1 -37 -1h-36q-40 -1 -63 -6q-3 0 -4 4.5t-0.5 9t1.5 4.5q33 5 63 29q43 32 82 135l27 70l-113 315q-17 49 -37.5 66t-59.5 20q-2 0 -3.5 4.5t0 8.5t5.5 4q19 -3 103 -3q62 0 99 4
q3 0 3.5 -4.5t-0.5 -9t-3 -4.5q-39 -5 -45 -19.5t11 -64.5l77 -226l93 226q19 48 12 63.5t-47 20.5q-5 0 -3 14q1 4 3 4q39 -4 83 -4q53 0 78 4q2 0 3 -4.5t0.5 -9t-1.5 -4.5q-40 -3 -60 -21t-39 -65zM217 471q-3 -3 -7.5 -2.5t-6.5 3.5t1 8l138 191q3 5 12.5 0t16.5 -14
t3 -13z" />
    <glyph glyph-name="thorn" unicode="&#xfe;" horiz-adv-x="509" 
d="M218 -14q-32 0 -65 9v-150q0 -54 16 -67t85 -15q3 0 3.5 -9t-3.5 -9q-20 1 -67.5 1.5t-67.5 -0.5q-69 -2 -104 -8q-2 -1 -3 3q-3 11 2 14q46 7 54.5 19.5t8.5 68.5v182q-8 3 -36 20l36 53v483q0 47 -12 58.5t-50 -0.5q-3 -1 -5.5 5.5t0.5 9.5q107 57 135 83q1 1 4.5 0
t6.5 -4t3 -5q-6 -23 -6 -143v-234q76 58 142 58q76 0 128 -56t52 -133q0 -87 -76 -160.5t-181 -73.5zM252 355q-46 0 -99 -31v-260q60 -33 125 -33q52 0 83 45t31 122q0 74 -41.5 115.5t-98.5 41.5z" />
    <glyph glyph-name="ydieresis" unicode="&#xff;" horiz-adv-x="429" 
d="M362 307q-2 -6 -26.5 -61t-46.5 -108.5t-48.5 -124t-45.5 -140.5t-25 -126q-11 -1 -38 -1h-35q-40 -1 -63 -6q-3 0 -4 4.5t-0.5 9t1.5 4.5q33 5 63 29q43 32 82 135l27 70l-113 315q-17 49 -37.5 66t-59.5 20q-2 0 -3.5 4.5t0 8.5t5.5 4q19 -3 103 -3q62 0 99 4
q3 0 3.5 -4.5t-0.5 -9t-3 -4.5q-39 -5 -45 -19.5t11 -64.5l77 -226l93 226q19 48 12 63.5t-47 20.5q-5 0 -3 14q1 4 3 4q39 -4 83 -4q53 0 78 4q2 0 3 -4.5t0.5 -9t-1.5 -4.5q-40 -3 -60 -21t-39 -65zM326 503q-19 0 -32 13.5t-13 31.5q0 19 13.5 33.5t33.5 14.5
q18 0 31 -14t13 -32q0 -19 -13 -33t-33 -14zM148 503q-19 0 -32 13.5t-13 31.5q0 19 13.5 33.5t33.5 14.5q18 0 31.5 -14t13.5 -32q0 -19 -13.5 -33t-33.5 -14z" />
    <glyph glyph-name="dotlessi" unicode="&#x131;" horiz-adv-x="273" 
d="M145 0q-84 0 -113 -4q-2 0 -2.5 4.5t0.5 9t2 4.5q52 6 63 18t11 67v169q0 47 -12 58t-50 -1q-3 -1 -5.5 5.5t0.5 9.5q105 59 135 87q1 1 4.5 0t6.5 -4t3 -5q-6 -24 -6 -146v-173q0 -55 11 -67t62 -18q5 0 3 -14q-1 -4 -3 -4q-29 4 -110 4z" />
    <glyph glyph-name="Lslash" unicode="&#x141;" horiz-adv-x="586" 
d="M546 16q-4 -13 -9.5 -17t-18.5 -4q-14 0 -69 2.5t-97 2.5q-198 0 -287 -6q-4 0 -5 4.5t1 9.5t4 5q66 7 79 17q20 14 22 73q1 19 1 68v130l-70 -16q-6 0 -9.5 9t-3.5 18.5t5 10.5t14 2.5t27.5 4.5t31.5 4l12 2h-7v135v50t-2.5 37t-3.5 27.5t-7.5 18t-10.5 12.5t-17 7
t-22 5t-30 3q-6 1 -5 12q2 5 5 5q52 -6 147 -6q77 0 124 6q5 0 6 -4t-0.5 -8.5t-3.5 -4.5q-16 -1 -25.5 -2t-20 -4t-16 -4.5t-11.5 -8t-8.5 -10t-5.5 -15.5t-3.5 -19t-1.5 -26t-1 -31.5v-39.5v-112l90 22q5 1 8.5 -8t3.5 -18t-4 -13l-98 -20v-151q0 -90 10 -112.5t49 -22.5
h57q49 0 76.5 1.5t46.5 4.5t28 12t13 18t9 29q0 1 4.5 1.5t8.5 -0.5t4 -3q-6 -54 -14 -83z" />
    <glyph glyph-name="lslash" unicode="&#x142;" horiz-adv-x="259" 
d="M168 361v-262q0 -55 11 -67t62 -18q5 0 3 -14q-1 -4 -3 -4q-29 4 -113 4q-82 0 -111 -4q-2 0 -2.5 4.5t0.5 9t2 4.5q52 6 63.5 18t11.5 67v245l-80 -19q-8 0 -11.5 18.5t4.5 19.5l87 19v199q0 47 -12 58.5t-50 -0.5q-3 -1 -5.5 5.5t0.5 9.5q107 57 135 83q1 1 4.5 0
t6.5 -4t3 -5q-6 -23 -6 -143v-187l91 23q5 1 9 -8t3.5 -18t-3.5 -13z" />
    <glyph glyph-name="OE" unicode="&#x152;" horiz-adv-x="1039" 
d="M960 16q-4 -13 -9.5 -17t-17.5 -4q-14 0 -73.5 2.5t-101.5 2.5q-54 0 -171 -5t-151 -5q-174 0 -273 91.5t-99 229.5q0 140 110.5 240.5t274.5 100.5q33 0 141.5 -5t162.5 -5q119 0 203 7q-8 -22 -8 -58v-37q1 -2 -4 -3q-10 -1 -13 2q-6 34 -36 45.5t-125 11.5h-95
q-6 -37 -6 -134v-128h104q41 0 62 0.5t31.5 7.5t11 8.5t4.5 17.5q1 1 5.5 1.5t8.5 -0.5t4 -3q-6 -22 -6 -62q0 -31 1 -39q1 -1 -2 -2q-14 -4 -17 1q-4 26 -21.5 34.5t-81.5 8.5h-104v-146q0 -64 7 -95t18.5 -39t37.5 -8h53q78 0 112 7t45.5 21t19.5 51q0 1 4.5 1.5t8.5 -1
t4 -3.5q-11 -69 -19 -93zM582 507q0 75 -27 95t-134 20q-112 0 -190 -76.5t-78 -202.5q0 -149 82.5 -235.5t221.5 -86.5q80 0 102.5 22.5t22.5 91.5v372z" />
    <glyph glyph-name="oe" unicode="&#x153;" horiz-adv-x="792" 
d="M594 -14q-109 0 -167 91q-64 -91 -177 -91q-92 0 -153 62.5t-61 146.5q0 90 63.5 156.5t161.5 66.5q116 0 174 -95q31 43 77 69t96 26q66 0 108 -43t42 -98q0 -5 -2.5 -14t-3.5 -12l-278 -6v-8.5v-10.5v-9q0 -95 45.5 -140t108.5 -45q69 0 122 42q1 1 4 -2t5 -7t0 -6
q-28 -34 -73 -53.5t-92 -19.5zM586 391q-41 0 -70 -34.5t-39 -90.5l202 6q-2 44 -28 81.5t-65 37.5zM239 389q-58 0 -90 -44.5t-32 -109.5q0 -102 42.5 -160.5t113.5 -58.5q58 0 88 44t30 109q0 102 -41 161t-111 59z" />
    <glyph glyph-name="Scaron" unicode="&#x160;" horiz-adv-x="534" 
d="M265 -20q-101 0 -182 67q-2 15 -2 20.5t3.5 47t4.5 64.5q0 2 4.5 3t9 0t4.5 -2q5 -79 48 -124t119 -45q55 0 94 30t39 87q0 39 -22.5 71t-55.5 53t-72.5 44.5t-72.5 46t-55.5 57t-22.5 77.5q0 72 56.5 128.5t140.5 56.5q72 0 131 -32q15 -8 15 -109q0 -2 -5 -3t-10 0
t-5 2q-9 55 -44 83.5t-90 28.5q-49 0 -84.5 -28.5t-35.5 -73.5q0 -44 30.5 -78t73.5 -58.5t86.5 -50.5t74 -66.5t30.5 -93.5q0 -84 -58.5 -143.5t-146.5 -59.5zM311 706q-3 -3 -9 -3.5t-9 4.5l-116 201q-2 4 0.5 7.5t7 3.5t7.5 -3l113 -147l108 147q4 4 8.5 3.5t7 -4
t0.5 -7.5z" />
    <glyph glyph-name="scaron" unicode="&#x161;" horiz-adv-x="359" 
d="M171 -14q-65 0 -121 30q-6 3 -6 114q0 6 18 2q17 -62 50.5 -91t75.5 -29q70 0 70 69q0 32 -31 59t-68 44t-68 47.5t-31 68.5q0 48 38.5 83t104.5 35q51 0 89 -18q4 -2 8.5 -37t4.5 -66q0 -2 -9 -2.5t-10 1.5q-13 43 -43 70.5t-62 27.5q-26 0 -40.5 -17t-14.5 -46
q0 -25 20 -45.5t49 -35.5t58 -31t49 -42t20 -59q0 -54 -42.5 -93t-108.5 -39zM194 466q-3 -3 -9 -3.5t-9 4.5l-116 201q-2 4 0.5 7.5t7 3.5t7.5 -3l113 -147l108 147q4 4 8.5 3.5t7 -4t0.5 -7.5z" />
    <glyph glyph-name="Ydieresis" unicode="&#x178;" horiz-adv-x="763" 
d="M538 470l-109 -152v-147q0 -109 12 -131t81 -27q2 0 3.5 -5t0.5 -9.5t-6 -4.5q-46 6 -124 6q-97 0 -147 -6q-4 -1 -4.5 4t0.5 10t3 5q23 3 30.5 3.5t22 4.5t17.5 6.5t10.5 12t8 18t3 27.5t2.5 36.5v49.5v138l-90 138q-75 115 -109.5 146t-97.5 38q-6 1 -5 12q2 5 5 5
q50 -6 147 -6q76 0 123 6q5 0 6 -4t-0.5 -8.5t-3.5 -4.5q-53 -5 -56 -27q-2 -22 55 -108q7 -11 30 -45l67 -100l86 123q71 102 78 121q7 23 -18 30q-11 3 -36 6q-6 1 -5 12q2 5 5 5q50 -6 123 -6q43 0 91 6q5 0 6 -4t-1 -8.5t-4 -4.5q-62 -5 -94 -31.5t-106 -129.5zM512 735
q-20 0 -33.5 13.5t-13.5 31.5q0 19 14 33.5t35 14.5q20 0 33.5 -14t13.5 -32q0 -19 -14 -33t-35 -14zM325 735q-20 0 -34 13.5t-14 31.5q0 19 14.5 33.5t35.5 14.5q19 0 33 -14t14 -32q0 -19 -14 -33t-35 -14z" />
    <glyph glyph-name="Zcaron" unicode="&#x17d;" horiz-adv-x="700" 
d="M622 16q-4 -13 -9 -17t-18 -4q-16 0 -88 2.5t-122 2.5q-208 0 -314 -6q-5 0 -7.5 6t1.5 11l453 599h-243q-71 0 -103.5 -8.5t-42 -23t-15.5 -49.5l-17 1l-1 1q3 12 3 57q0 27 -4 61q80 -7 235 -7q193 0 299 6q4 1 7 -5t0 -11l-449 -594h260q61 0 92.5 3t50 16.5t23 28.5
t9.5 51q0 1 5 1.5t9.5 -0.5t4.5 -2q0 -23 -6.5 -63.5t-12.5 -56.5zM364 706q-3 -3 -9 -3.5t-9 4.5l-116 201q-2 4 0.5 7.5t7 3.5t7.5 -3l113 -147l108 147q4 4 8.5 3.5t7 -4t0.5 -7.5z" />
    <glyph glyph-name="zcaron" unicode="&#x17e;" horiz-adv-x="432" 
d="M385 11q-5 -14 -17 -14q-10 0 -59.5 1.5t-78.5 1.5q-143 0 -195 -3q-4 0 -6 5t0 8l264 371h-107q-54 0 -78.5 -25t-40.5 -77q-4 0 -11 2t-6 4q8 40 11 62q5 42 5 63q52 -3 141 -3q115 0 184 4q4 0 6 -5.5t0 -9.5l-262 -367h133q50 0 82.5 34t39.5 84q0 1 5 1.5t9.5 -0.5
t4.5 -2q0 -14 -10 -68.5t-14 -66.5zM234 466q-3 -3 -9 -3.5t-9 4.5l-116 201q-2 4 0.5 7.5t7 3.5t7.5 -3l113 -147l108 147q4 4 8.5 3.5t7 -4t0.5 -7.5z" />
    <glyph glyph-name="florin" unicode="&#x192;" horiz-adv-x="496" 
d="M469 447q-58 60 -99 60q-26 0 -40.5 -14t-25.5 -60t-19 -137l131 3q4 0 4.5 -12t-3.5 -14l-134 2v-2q-13 -167 -34 -239.5t-65 -125.5q-68 -81 -146 -81q-39 0 -70 20.5t-33 49.5q-2 24 11 39.5t26 16t18 -1.5q23 -30 52 -48.5t54 -18.5q50 0 71 65q16 51 26 220
q3 59 9 106l-113 -2q-4 2 -3.5 14t4.5 12q122 -5 122 -6l-7 1q21 122 67 180q34 42 78 69t89 27q33 0 55.5 -20t24.5 -46q2 -20 -10 -35t-24.5 -20t-15.5 -2z" />
    <glyph glyph-name="circumflex" unicode="&#x2c6;" horiz-adv-x="297" 
d="M259 467l-113 147l-108 -147q-3 -3 -7.5 -3t-7 3t-0.5 7l117 203q2 4 8.5 3.5t8.5 -4.5l118 -202q2 -3 -1 -6.5t-7 -4t-8 3.5z" />
    <glyph glyph-name="caron" unicode="&#x2c7;" horiz-adv-x="297" 
d="M157 466q-3 -3 -9 -3.5t-9 4.5l-116 201q-2 4 0.5 7.5t7 3.5t7.5 -3l113 -147l108 147q4 4 8.5 3.5t7 -4t0.5 -7.5z" />
    <glyph glyph-name="breve" unicode="&#x2d8;" horiz-adv-x="355" 
d="M178 480q-64 0 -104.5 42.5t-40.5 102.5q0 6 7.5 6.5t8.5 -5.5q6 -45 43.5 -71.5t85.5 -26.5q47 0 84.5 26.5t43.5 71.5q1 6 9 5.5t8 -6.5q0 -60 -40.5 -102.5t-104.5 -42.5z" />
    <glyph glyph-name="dotaccent" unicode="&#x2d9;" horiz-adv-x="254" 
d="M127 503q-20 0 -34 13.5t-14 31.5q0 19 14.5 33.5t35.5 14.5q19 0 33 -14t14 -32q0 -19 -14 -33t-35 -14z" />
    <glyph glyph-name="ring" unicode="&#x2da;" horiz-adv-x="236" 
d="M118 477q-38 0 -64 25.5t-26 62.5q0 36 26.5 62t63.5 26t64 -26t27 -62q0 -37 -26.5 -62.5t-64.5 -25.5zM118 633q-29 0 -49.5 -20t-20.5 -48t20.5 -48t49.5 -20t49.5 20t20.5 48t-20.5 48t-49.5 20z" />
    <glyph glyph-name="ogonek" unicode="&#x2db;" horiz-adv-x="239" 
d="M126 -256q-47 0 -75.5 27.5t-28.5 71.5q0 82 169 195q4 2 10 -4.5t2 -10.5q-70 -55 -95.5 -92t-25.5 -75q0 -31 20 -51t50 -20q36 0 68 30q1 2 5.5 -0.5t7.5 -6.5t1 -6q-48 -58 -108 -58z" />
    <glyph glyph-name="tilde" unicode="&#x2dc;" horiz-adv-x="380" 
d="M265 501q-24 0 -76 19.5t-84 19.5q-49 0 -63 -66q-3 -1 -11 1t-8 4q4 48 32.5 75t72.5 27q22 0 73.5 -18t76.5 -18q24 0 38 12t22 46q0 1 5 0t9.5 -2.5t4.5 -3.5q-4 -44 -28 -70t-64 -26z" />
    <glyph glyph-name="hungarumlaut" unicode="&#x2dd;" horiz-adv-x="320" 
d="M38 467q-3 -3 -7.5 -3t-7 3.5t-0.5 7.5l130 203q3 4 14 0t19 -12t4 -13zM144 467q-3 -3 -7.5 -2.5t-6.5 4t0 7.5l140 197q3 5 13.5 0t18 -13.5t3.5 -12.5z" />
    <glyph glyph-name="pi" unicode="&#x3c0;" horiz-adv-x="705" 
d="M352 -14q-124 0 -211.5 85.5t-87.5 205.5q0 121 87.5 206.5t211.5 85.5t212.5 -85.5t88.5 -206.5q0 -120 -88.5 -205.5t-212.5 -85.5zM352 549q-115 0 -196.5 -80t-81.5 -192t81.5 -191t196.5 -79q116 0 198 79t82 191q0 113 -82 192.5t-198 79.5zM369 260h-9
q-2 0 -2.5 4t0 8t1.5 4h9q57 2 57 62t-58 60q-8 0 -18 -2q-3 -12 -3 -54v-122q0 -38 6.5 -49t33.5 -13q1 0 1.5 -4t0 -8t-2.5 -4q-18 3 -59 3q-42 0 -69 -3q-2 0 -3 4t0 8t2 4q27 3 34.5 13.5t7.5 48.5v120q0 39 -7.5 49.5t-34.5 13.5q-1 0 -2 4t0 8t3 4q27 -3 62 -3
q4 0 24.5 1t29.5 1q43 0 73 -20t30 -53q0 -36 -29 -60t-78 -25z" />
    <glyph glyph-name="endash" unicode="&#x2013;" horiz-adv-x="659" 
d="M329 259l-257 -3q-4 0 -4 14.5t4 14.5l257 -4l258 4q3 0 3 -14.5t-3 -14.5z" />
    <glyph glyph-name="emdash" unicode="&#x2014;" horiz-adv-x="916" 
d="M458 259l-386 -3q-4 0 -4 14.5t4 14.5l386 -3l386 3q4 0 4 -14.5t-4 -14.5z" />
    <glyph glyph-name="quoteleft" unicode="&#x2018;" 
d="M79 580q0 -27 37 -46q33 -16 33 -38q0 -15 -12 -25t-29 -10q-29 0 -50.5 22.5t-21.5 60.5q0 48 35.5 79t94.5 35q3 0 3.5 -5t-0.5 -9.5t-2 -4.5q-44 -2 -66 -20t-22 -39z" />
    <glyph glyph-name="quoteright" unicode="&#x2019;" 
d="M35 467q-3 0 -3.5 4.5t0 9.5t2.5 5q44 2 66.5 20t22.5 38q0 26 -39 46q-32 16 -32 38q0 15 12 25.5t29 10.5q29 0 51 -23t22 -61q0 -48 -36.5 -78.5t-94.5 -34.5z" />
    <glyph glyph-name="quotesinglbase" unicode="&#x201a;" 
d="M35 -122q-3 0 -3.5 5t0 9.5t2.5 4.5q44 2 66.5 20t22.5 38q0 26 -39 46q-32 16 -32 38q0 15 12 25.5t29 10.5q29 0 51 -23t22 -61q0 -48 -36.5 -78.5t-94.5 -34.5z" />
    <glyph glyph-name="quotedblleft" unicode="&#x201c;" horiz-adv-x="362" 
d="M231 580q0 -26 38 -46q33 -16 33 -38q0 -15 -12.5 -25t-29.5 -10q-29 0 -50.5 22.5t-21.5 60.5q0 48 36 79t94 35q3 0 3.5 -5t-0.5 -9.5t-2 -4.5q-44 -2 -66 -20t-22 -39zM80 580q0 -27 37 -46q33 -16 33 -38q0 -15 -12 -25t-29 -10q-29 0 -50.5 22.5t-21.5 60.5
q0 48 36 79t94 35q3 0 3.5 -5t0 -9.5t-2.5 -4.5q-44 -2 -66 -20t-22 -39z" />
    <glyph glyph-name="quotedblright" unicode="&#x201d;" horiz-adv-x="362" 
d="M186 467q-3 0 -3.5 4.5t0 9.5t2.5 5q44 2 66.5 20t22.5 38q0 26 -38 46q-18 9 -25 16.5t-7 21.5q0 16 11.5 26t28.5 10q29 0 51 -23t22 -61q0 -48 -36.5 -78.5t-94.5 -34.5zM35 467q-3 0 -3.5 4.5t0 9.5t2.5 5q44 2 66.5 20t22.5 38q0 26 -39 46q-32 16 -32 38
q0 15 12 25.5t29 10.5q29 0 51 -23t22 -61q0 -48 -36.5 -78.5t-94.5 -34.5z" />
    <glyph glyph-name="quotedblbase" unicode="&#x201e;" horiz-adv-x="383" 
d="M186 -122q-3 0 -3.5 5t0 9.5t2.5 4.5q44 2 66.5 20t22.5 38q0 26 -38 46q-18 9 -25 16.5t-7 21.5q0 16 11.5 26t28.5 10q29 0 51 -23t22 -61q0 -48 -36.5 -78.5t-94.5 -34.5zM35 -122q-3 0 -3.5 5t0 9.5t2.5 4.5q44 2 66.5 20t22.5 38q0 26 -39 46q-32 16 -32 38
q0 15 12 25.5t29 10.5q29 0 51 -23t22 -61q0 -48 -36.5 -78.5t-94.5 -34.5z" />
    <glyph glyph-name="dagger" unicode="&#x2020;" horiz-adv-x="443" 
d="M233 446l2 -457q0 -4 -13.5 -3.5t-13.5 3.5l3 457l-180 -2q-3 0 -3 13t3 13l180 -3l-3 186q0 3 13 3.5t13 -3.5l-2 -186l180 3q3 0 3.5 -13t-3.5 -13z" />
    <glyph glyph-name="daggerdbl" unicode="&#x2021;" horiz-adv-x="443" 
d="M232 175l2 -186q0 -4 -13 -3.5t-13 3.5l2 186l-179 -2q-3 0 -4 13t4 13l179 -3v250l-179 -2q-5 0 -4 13t4 13l179 -3l-2 186q0 3 13 3.5t13 -3.5l-2 -186l179 3q4 0 4 -13t-4 -13l-178 2v-250l178 3q4 0 4 -13t-4 -13z" />
    <glyph glyph-name="bullet" unicode="&#x2022;" 
d="M105 285q-18 0 -29.5 12t-11.5 28q0 17 12 30t31 13q18 0 30 -12.5t12 -28.5q0 -17 -13 -29.5t-31 -12.5z" />
    <glyph glyph-name="ellipsis" unicode="&#x2026;" horiz-adv-x="574" 
d="M467 -15q-17 0 -29 12.5t-12 28.5q0 17 12.5 30t31.5 13q17 0 29.5 -12.5t12.5 -28.5q0 -17 -13.5 -30t-31.5 -13zM286 -15q-17 0 -29 12.5t-12 28.5q0 17 12.5 30t30.5 13t30 -12.5t12 -28.5q0 -17 -13 -30t-31 -13zM105 -15q-17 0 -29 12.5t-12 28.5q0 17 12 30t31 13
q18 0 30 -12.5t12 -28.5q0 -17 -13 -30t-31 -13z" />
    <glyph glyph-name="perthousand" unicode="&#x2030;" horiz-adv-x="818" 
d="M197 281q-43 -32 -71 -32q-29 0 -53.5 33.5t-24.5 90.5q0 49 23.5 94.5t64.5 74.5q47 33 71 33q29 0 53.5 -34t24.5 -91q0 -48 -24 -94t-64 -75zM286 276l-186 -304q-2 -2 -8 -0.5t-11 5t-4 5.5l190 302l187 305q1 2 7.5 0t11.5 -5.5t4 -5.5zM681 19q-45 -33 -71 -33
q-29 0 -54 34t-25 92q0 49 24 94t65 75q45 33 70 33q29 0 54 -34.5t25 -91.5q0 -48 -24 -94t-64 -75zM418 19q-45 -33 -71 -33q-29 0 -53.5 34t-24.5 92q0 49 23.5 94t64.5 75q45 33 70 33q29 0 54 -34.5t25 -91.5q0 -48 -24 -94t-64 -75zM172 529q-23 0 -41 -36t-18 -96
q0 -49 13 -75.5t35 -26.5q23 0 41 35.5t18 95.5q0 49 -13 76t-35 27zM656 267q-24 0 -41.5 -35t-17.5 -96q0 -103 47 -103q23 0 41 35.5t18 95.5q0 103 -47 103zM393 267q-24 0 -41.5 -35t-17.5 -96q0 -103 47 -103q24 0 42 35.5t18 95.5q0 49 -13 76t-35 27z" />
    <glyph glyph-name="guilsinglleft" unicode="&#x2039;" horiz-adv-x="320" 
d="M255 87l-208 115q-3 2 -3 8t4 9l207 114q4 2 8 -0.5t3.5 -6.5t-4.5 -8l-150 -110l150 -105q4 -4 4 -8t-4 -7t-7 -1z" />
    <glyph glyph-name="guilsinglright" unicode="&#x203a;" horiz-adv-x="320" 
d="M65 87q-3 -2 -7 1t-4 7t4 8l150 105l-150 110q-4 4 -4.5 8t3.5 6.5t8 0.5l207 -114q4 -3 3.5 -9t-3.5 -8z" />
    <glyph glyph-name="fraction" unicode="&#x2044;" horiz-adv-x="553" 
d="M44 -33q-2 -2 -6.5 -0.5t-8 5.5t-2.5 6l482 697q2 2 6.5 0.5t8 -5.5t2.5 -6z" />
    <glyph glyph-name="trademark" unicode="&#x2122;" horiz-adv-x="578" 
d="M233 616v-22q0 -1 -4 -1.5t-8 -0.5t-4 1q-3 15 -11 22t-30 7h-25v-125q0 -28 5 -36.5t25 -9.5q1 -1 1 -8t-2 -7q-20 2 -45 2q-38 0 -52 -2q-2 0 -2.5 7t1.5 8q20 2 25.5 10t5.5 36v125h-28q-21 0 -30 -7.5t-12 -22.5q-2 -1 -8.5 0t-6.5 2q2 10 2 34q0 15 -2 22l13 2
q1 -7 9 -8.5t35 -1.5h91q26 0 34.5 1.5t9.5 8.5q15 -1 15 -2q-2 -7 -2 -34zM498 438q-37 0 -49 -2q-1 0 -1 8t1 8q18 2 23 10t4 35l-2 98l-69 -157q-2 -1 -7.5 -0.5t-6.5 1.5l-71 155l-2 -97q-1 -25 5 -35t25 -11q2 -1 1.5 -8t-2.5 -7q-18 2 -35 2q-32 0 -44 -2q-1 0 -2 3.5
t-0.5 7.5t1.5 4q19 2 25 11t7 35l2 102q0 11 -9.5 20t-24.5 11q-1 0 -1 8t1 8q15 -3 71 -3l70 -153l40 94q18 42 23 58q40 0 72 4q1 0 1 -8t-1 -8q-23 -2 -28 -10t-4 -36l2 -87q1 -28 6 -36t27 -9q2 0 2.5 -8t-2.5 -8q-20 2 -48 2z" />
    <glyph glyph-name="Omega" unicode="&#x2126;" horiz-adv-x="580" 
d="M645 632q-11 0 -48.5 21t-62.5 21q-53 0 -70.5 -44t-17.5 -172v-58h51q71 0 84 3q8 2 6 -25q-1 -15 -5 -17q-24 2 -71 2h-65v-264q0 -52 17 -67t83 -18q4 0 3 -13q-2 -5 -4 -5q-29 4 -136 4q-66 0 -95 -4q-3 -1 -4 4q-1 11 3 14q40 5 49 18t9 67v264h-182v-264
q0 -53 12.5 -67.5t70.5 -17.5q5 0 3 -14q-1 -4 -3 -4q-29 4 -117 4q-87 0 -116 -4q-2 0 -2.5 4.5t0.5 9t2 4.5q52 6 63 18t11 67v264q-12 0 -43 0.5t-35 0.5q-5 -2 -5 19q-1 5 0 5q5 0 20.5 1t21 1t15.5 1.5t15.5 4t10.5 5.5v15q0 125 73.5 216t168.5 91q57 0 107 -46
q60 57 139 57q30 0 57.5 -15t27.5 -27q0 -15 -15 -37.5t-26 -22.5zM304 670q-56 0 -85.5 -54t-29.5 -181v-35h182v39q0 103 45 181q-45 50 -112 50z" />
    <glyph glyph-name="product" unicode="&#x220f;" horiz-adv-x="720" 
d="M649 592q-7 0 -84.5 5.5t-114.5 5.5h-35v-432v-48t1.5 -35t3 -28t7 -18t10.5 -13.5t16.5 -7t22.5 -5.5t31 -3q2 0 3.5 -5t0.5 -10t-5 -4q-47 6 -124 6q-105 0 -147 -6q-5 0 -5.5 4.5t1 9.5t3.5 5q22 3 29.5 3.5t21.5 4.5t17.5 6.5t11 12t8 18t3 27t2.5 37v49.5v432h-112
q-100 0 -136.5 -13t-60.5 -44q-4 -4 -14 3q-3 3 -1 4q18 21 61.5 58.5t49.5 37.5q7 0 84.5 -5.5t114.5 -5.5h235q70 0 110.5 8t55.5 18t31 30q4 4 13 -3q2 -3 1 -5q-18 -21 -61 -57.5t-49 -36.5z" />
    <glyph glyph-name="summation" unicode="&#x2211;" horiz-adv-x="875" 
d="M627 257l-54 -76q121 -157 190 -157q34 0 62 16q2 1 6 -1.5t6 -6.5t-2 -8q-59 -46 -121 -46q-87 0 -189 135q-54 -62 -109.5 -97.5t-125.5 -35.5q-29 0 -63 11.5t-67 33t-54.5 59t-21.5 83.5q0 65 48 120t134 86q-87 75 -87 141q0 65 43 106.5t120 41.5q61 0 105 -35.5
t44 -88.5q0 -83 -128 -140q79 -67 194 -199q82 106 82 166q0 28 -85 35q-5 0 -4 13q2 5 5 5q49 -7 147 -7q79 0 133 7q4 1 5 -5q1 -11 -4 -13q-65 -3 -106 -29t-103 -114zM333 634q-81 0 -81 -85q0 -55 93 -133q76 43 76 120q0 43 -24.5 70.5t-63.5 27.5zM287 355
q-53 -19 -86.5 -59t-33.5 -89q0 -68 48 -114.5t122 -46.5q54 0 93.5 21t76.5 66q-103 119 -220 222z" />
    <glyph glyph-name="radical" unicode="&#x221a;" horiz-adv-x="820" 
d="M689 0q-69 0 -98 -4q-3 -1 -4 4q-1 11 3 14q45 6 54.5 18t9.5 67v264h-208v-264q0 -51 14.5 -66.5t73.5 -18.5q4 0 3 -13q-2 -5 -4 -5q-28 4 -132 4q-58 0 -87 -4q-3 -1 -4 4q-1 11 3 14q40 5 49 18t9 67v264h-182v-264q0 -53 12.5 -67.5t70.5 -17.5q5 0 3 -14
q-1 -4 -3 -4q-29 4 -117 4q-87 0 -116 -4q-2 0 -2.5 4.5t0.5 9t2 4.5q52 6 63 18t11 67v264q-12 0 -43.5 0.5t-35.5 0.5q-3 -2 -4 14q-1 10 0 10q5 0 20.5 1t21 1t15.5 1.5t15.5 4t10.5 5.5v15q0 125 73.5 216t168.5 91q64 0 116 -52q64 63 141 63q47 0 78 -22q3 2 10 7.5
t12.5 9.5t8.5 7q1 1 4.5 0t6.5 -3.5t3 -4.5q-6 -23 -6 -143v-486q0 -55 11 -67t62 -18q4 0 3 -13q-2 -5 -4 -5q-29 4 -112 4zM654 632q-13 19 -40 32t-57 13q-56 0 -83.5 -51t-27.5 -179v-47h208v232zM304 670q-56 0 -85.5 -53.5t-29.5 -181.5v-35h182v27q0 103 52 187
q-53 56 -119 56z" />
    <glyph glyph-name="approxequal" unicode="&#x2248;" horiz-adv-x="821" 
d="M689 0q-70 0 -98 -4q-3 -1 -4 4q-2 11 3 14q45 6 54 18t9 67v199q0 36 -5.5 50.5t-22.5 14.5h-179v-264q0 -52 17 -67t83 -18q5 0 3 -14q-1 -4 -3 -4q-29 4 -134 4q-70 0 -99 -4q-2 0 -2.5 4.5t0.5 9t2 4.5q40 5 49 18t9 67v264h-182v-264q0 -53 12.5 -67.5t70.5 -17.5
q5 0 3 -14q-1 -4 -3 -4q-29 4 -117 4q-87 0 -116 -4q-2 0 -2.5 4.5t0.5 9t2 4.5q52 6 63 18t11 67v264q-12 0 -43.5 0.5t-35.5 0.5q-3 -2 -4 14q-1 10 0 10q5 0 20.5 1t21 1t15.5 1.5t15.5 4t10.5 5.5v15q0 125 73.5 216t168.5 91q68 0 119 -59q73 70 161 70q31 0 58.5 -15
t27.5 -27q0 -20 -15.5 -41.5t-28.5 -21.5q-11 0 -48 21t-63 21q-120 0 -120 -224v-47h190q58 0 85 24q1 1 4.5 0t6.5 -4t3 -5q-6 -23 -6 -143v-173q0 -56 9.5 -67.5t60.5 -17.5q4 0 3 -13q-2 -5 -4 -5q-29 4 -109 4zM304 670q-56 0 -85.5 -53.5t-29.5 -181.5v-35h182v27
q0 99 54 182q-53 61 -121 61z" />
    <glyph glyph-name="lessequal" unicode="&#x2264;" horiz-adv-x="862" 
d="M724 -180q-72 0 -142.5 37t-168.5 124q-153 3 -251 100.5t-98 229.5q0 84 46.5 164t135 133.5t194.5 53.5q155 0 256.5 -98.5t101.5 -231.5q0 -108 -78.5 -207.5t-201.5 -131.5q64 -60 132 -95.5t123 -35.5q62 0 108 20q2 1 5 -3t3.5 -8t-3.5 -7q-78 -44 -162 -44z
M416 632q-116 0 -189.5 -77.5t-73.5 -210.5q0 -79 25.5 -144t67 -105.5t93 -62t106.5 -21.5q116 0 190 77t74 210q0 80 -25.5 145t-67.5 105.5t-93.5 62t-106.5 21.5z" />
    <glyph glyph-name="lozenge" unicode="&#x25ca;" horiz-adv-x="681" 
d="M540 -14q-49 0 -72 24t-22 75l3 272q-60 0 -70 -1q-3 0 -4 7t0 11q78 28 105.5 60.5t27.5 69.5q0 55 -44 93t-112 38q-69 0 -109.5 -42.5t-40.5 -104.5q0 -36 25 -72q38 -3 64 -16q4 -2 8.5 -37.5t3.5 -65.5q0 -2 -8.5 -2.5t-9.5 1.5q-13 43 -43 70.5t-62 27.5
q-26 0 -40.5 -17t-14.5 -46q0 -25 20.5 -45.5t49.5 -35.5t57.5 -31t49 -42t20.5 -59q0 -54 -43 -93t-109 -39q-65 0 -120 30q-4 2 -7 114q0 6 18 2q34 -120 127 -120q69 0 69 69q0 32 -31 59t-67.5 44t-67.5 47.5t-31 68.5q0 47 36.5 81.5t99.5 36.5q-24 40 -24 90
q0 73 53 134t129 61q83 0 131.5 -61t48.5 -153q0 -10 -3.5 -48t-3.5 -48h51q76 0 88 3q2 1 3 -4q5 -17 -2 -34q-1 -4 -3 -4q-33 3 -73 3h-66l-2 -249q0 -31 14.5 -51.5t40.5 -20.5q42 0 90 15q1 1 3 -2.5t3 -7t-1 -5.5q-32 -23 -70.5 -36.5t-62.5 -13.5z" />
    <glyph glyph-name="uni25FC" unicode="&#x25fc;" horiz-adv-x="410" 
d="M0 410h410v-410h-410v410z" />
    <glyph glyph-name="apple" unicode="&#xf8ff;" horiz-adv-x="967" 
d="M868 0h-767v750h767v-750zM859 -104h-6l-3 20l-10 -21h-2l-10 21l-3 -20h-6l6 34h1l13 -26l13 26h1zM806 -87q0 -18 -17 -18q-7 0 -12 5t-5 12q0 18 18 18q7 0 11.5 -5t4.5 -12zM758 -96l-1 -6q-3 -3 -10 -3q-18 0 -18 17q0 8 5.5 13t12.5 5t11 -3l-2 -5q-3 3 -9 3
q-12 0 -12 -12q0 -13 13 -13q4 0 10 4zM702 -71l-13 -19v-14h-6v14l-14 19l6 1l11 -15l9 14h7zM656 -104h-6v15h-16v-15h-6v33h6v-13h16v13h6v-33zM612 -82q0 -12 -17 -12v-10h-6v33q23 3 23 -11zM576 -104h-6l-4 8h-14l-3 -8h-6l15 34h2zM534 -104h-7l-8 11h-5v-11h-6v33
q23 3 23 -10q0 -7 -7 -10zM491 -101q-6 -4 -13 -4q-18 0 -18 17q0 8 5.5 13t13.5 5q6 0 12 -4l-2 -5q-4 4 -11 4q-12 0 -12 -13q0 -12 13 -12q2 0 6 2v7h-9v5h15v-15zM447 -87q0 -18 -17 -18q-7 0 -12 5t-5 12q0 18 18 18q7 0 11.5 -5t4.5 -12zM400 -82q0 -12 -17 -12v-10
h-6v33q23 3 23 -11zM364 -71l-13 -19v-14h-6v14l-14 19l6 1l11 -15l9 14h7zM323 -71v-5h-12v-28h-6v28h-12v5h30zM267 -71l-12 -34h-1l-11 23l-10 -23h-1l-12 34l6 1l7 -23l10 23h1l10 -23l7 22h6zM211 -71l-12 -34h-1l-11 23l-10 -23h-1l-12 34l6 1l7 -23l10 23h1l10 -23
l7 22h6zM155 -71l-12 -34h-1l-11 23l-10 -23h-1l-12 34l6 1l7 -23l10 23h1l10 -23l7 22h6zM716 -101q0 -4 -4 -4t-4 4t4 4t4 -4zM284 -101q0 -4 -4 -4t-4 4t4 4t4 -4zM559 686q0 8 -1 12q-2 -1 -17 -1t-18 1l-1 -12h2q4 9 10 9q3 0 3 -3v-23q-1 -5 -5 -5v-2h17v2l-4 2
q-1 1 -1 3v23q0 3 3 3t5.5 -2.5t3.5 -4.5l1 -2h2zM504 662v2q-6 -1 -6 5v21l6 5v2h-18v-1v-1l4 -2q1 -1 1 -3v-9h-17v9q1 5 5 5v1v1h-17v-2l4 -2q1 -1 1 -3v-21l-5 -5v-2h17v2q-5 0 -5 5v10h17v-10q-1 -5 -5 -5v-2h18zM439 664l-4 2q-1 1 -1 3v21q1 5 5 5v2h-29l-2 -10l2 -1
q3 8 9 8h4q4 0 4 -3v-10h-4l-6 5h-2v-13h2q0 6 6 6h4v-11q0 -3 -4 -3h-4q-3 0 -5.5 2.5t-3.5 4.5l-1 2l-2 -1l2 -11h30v2zM827 618v6h-685v-6h685zM696 540q0 15 -11.5 26.5t-25.5 11.5q-8 0 -15.5 -5.5t-7.5 -16.5q0 -16 11 -27t26 -11q8 0 15.5 5.5t7.5 16.5zM589 537
q0 12 -14 17q5 3 5 9q0 15 -21 15q-13 0 -13 -11q0 -6 5 -6q4 0 4 3q0 2 -1.5 3.5t-1.5 2.5q0 5 7 5q10 0 10 -12q0 -4 -2 -6q-16 2 -16 -6q0 -6 8 -6q6 0 11 5q6 -4 6 -15q0 -14 -12 -14t-12 9q0 3 3 3l1 -1q2 -1 4 -1q4 0 4 5t-7 5q-9 0 -9 -10q0 -13 16 -13q25 0 25 19z
M295 537q0 12 -14 17q5 3 5 9q0 15 -21 15q-13 0 -13 -11q0 -6 5 -6q4 0 4 3q0 2 -1.5 3.5t-1.5 2.5q0 5 7 5q10 0 10 -12q0 -4 -2 -6q-16 2 -16 -6q0 -6 8 -6q6 0 11 5q6 -4 6 -15q0 -14 -12 -14t-12 9q0 3 3 3l1 -1q2 -1 4 -1q4 0 4 5t-7 5q-9 0 -9 -10q0 -13 16 -13
q25 0 25 19zM820 522q-8 -1 -10 8l-7 35q-1 4 1 6t4 2h2l-1 3h-28l1 -3q7 1 9 -8l3 -15h-24l-3 15q-1 4 1 6t4 2h2l-1 3h-29l1 -3q8 1 10 -8l7 -35q1 -4 -1 -6t-4 -2h-2l1 -3h29l-1 3q-8 -1 -10 8l-3 16h24l3 -16q1 -4 -1 -6t-4 -2h-2l1 -3h29zM498 519l-1 3q-8 -1 -10 8
l-7 35q-1 4 1 6t4 2h2l-1 3h-45v-17h4q-1 13 13 13h4q5 0 6 -6l3 -16h-4q-4 0 -7 2t-4 4l-1 3h-3l5 -23h3q-1 11 8 11h4l3 -17q1 -4 -1 -6t-4 -2h-2l1 -3h29zM202 522q-8 -1 -10 8l-7 35q-1 4 1 6t4 2h2l-1 3h-27q-20 0 -20 -15q0 -13 19 -15l-9 -16q-2 -4 -5.5 -6t-6.5 -2
h-2l1 -3h19l12 23q2 3 5 3l3 -15q1 -4 -1 -6t-4 -2h-2l1 -3h29zM400 521q0 8 -13 9q-4 2 -5 14.5t-5.5 23t-18.5 10.5q-5 0 -9 -3.5t-4 -6.5q0 -5 5 -5q4 0 4 6t5 6t7 -8t4.5 -19.5t9.5 -17.5q-8 0 -14 -6.5t-9 -6.5q-5 0 -5 4q0 2 1 3t1 2q0 5 -5 5t-5 -7q0 -4 5 -8t10 -4
q10 0 15 6.5t10 6.5q4 -7 12 -7q4 0 4 3zM827 475v6h-685v-6h685zM827 378v62h-147v-62h36v28h11v-65h-14v-33h81v33h-14v65h11v-28h36zM648 406v34h-81v-34h11l-15 -23l-15 23h10v34h-62v-34h12l37 -46v-19h-14v-33h81v33h-15v20l37 45h14zM458 308v33h-14v65h14v34h-96
q-21 0 -34 -11.5t-13 -28.5q0 -18 13 -29t34 -11h30v-19h-15v-33h81zM283 308v33h-14v65h14v34h-141v-62h41v28h33v-20h-24v-24h24v-21h-33v28h-41v-61h141zM827 271v6h-685v-6h685zM728 192q0 15 -11.5 26.5t-25.5 11.5q-8 0 -15.5 -5.5t-7.5 -16.5q0 -16 11 -27t26 -11
q8 0 15.5 5.5t7.5 16.5zM203 217q-7 13 -18 13q-15 0 -14 -23q-7 23 -21 23q-12 0 -12 -12l3 -1q0 6 8 6q16 0 24 -33q2 -8 0.5 -11.5t-3.5 -3.5h-3l1 -4h28l-1 4q-7 -2 -10 9q-5 17 -5 25q0 13 9 13q5 0 12 -7zM823 171l-1 3q-8 -1 -10 8l-7 35q-1 4 1 6t4 2h2l-1 3h-45
v-17h4q-1 13 13 13h4q5 0 6 -6l3 -16h-4q-4 0 -7 2t-4 4l-1 3h-3l5 -23h3q-1 11 8 11h4l3 -17q1 -4 -1 -6t-4 -2h-2l1 -3h29zM621 225l-1 3h-29l1 -3q8 1 10 -9l5 -21q5 -20 -11 -20q-14 0 -20 22l-4 19q-1 5 1 7t4 2h2v3h-24l1 -3q9 1 11 -9l4 -19q5 -27 28 -27q24 0 19 24
l-5 22q-1 5 1 7t4 2h3zM522 174q-7 0 -9 10l-7 32q-1 4 1 6.5t5 2.5h2l-1 3h-14l-29 -42l-5 30q-1 4 1 6t4 2l2 1l-1 3h-21l1 -3q7 0 9 -9l8 -45l3 -1l30 44l6 -30q1 -5 -0.5 -7.5t-3.5 -2.5h-2l1 -3h21zM414 171l-1 4q-7 -2 -10 9l-8 31q-3 9 8 10l-1 3h-30q-25 0 -25 -22
q0 -15 11 -25t24 -10h32zM306 174q-8 -1 -10 8l-7 35q-1 4 1 6t4 2h2l-1 3h-27q-20 0 -20 -15q0 -13 19 -15l-9 -16q-2 -4 -5.5 -6t-6.5 -2h-2l1 -3h19l12 23q2 3 5 3l3 -15q1 -4 -1 -6t-4 -2h-2l1 -3h29zM827 127v6h-685v-6h685zM694 46v2q-6 1 -6 5v20l6 6v2h-10l-24 -26
v18q0 2 1.5 3.5t2.5 1.5l2 1v2h-15v-2q6 -1 6 -6v-28h3l25 28v-20l-5 -5v-2h14zM633 48l-4 2q-1 1 -1 3v21q1 5 5 5v2h-29l-2 -10l2 -1q3 8 9 8h4q4 0 4 -3v-10h-4l-6 5h-2v-13h2q0 6 6 6h4v-11q0 -3 -4 -3h-4q-3 0 -5.5 2.5t-3.5 4.5l-1 2l-2 -1l2 -11h30v2zM583 81h-15v-2
l2 -5l-9 -19l-5 10l4 8l6 6v2h-26l1 -2q3 0 7 -6l3 -5l-7 -13l-8 18l2 6v2h-13v-2q4 -1 6 -6l13 -27h1q1 -1 1 0l8 16l9 -16h1l12 27q1 3 3 4.5t3 1.5h1v2zM480 79v2h-15v-2l1 -5l-6 -9l-6 9l3 5v2h-15v-2q5 0 8 -5l8 -12v-8l-5 -6v-2h17v2q-5 0 -5 6v8l8 12zM425 64
q0 18 -20 18t-20 -18q0 -19 20 -19t20 19zM364 46v2q-5 0 -5 5v20l5 6v2h-18q-13 0 -13 -9q0 -5 9 -9l-7 -10l-8 -5v-2h11l7 12q3 4 7 4v-9l-5 -5v-2h17zM309 46v2q-6 1 -6 6v20l6 5v2h-18v-2q6 0 6 -5v-9q-2 0 -4 2l-8 8l1 4v2h-14v-2q5 -1 8 -4l10 -9l-13 -13l-7 -5v-2h17
v2l-2 5l8 8q2 2 4 2v-9q0 -3 -1.5 -4.5t-3.5 -1.5h-1v-2h18zM606 -83q0 8 -11 7v-13q11 0 11 6zM525 -82q0 8 -11 6v-12q11 -1 11 6zM394 -83q0 8 -11 7v-13q11 0 11 6zM564 -92l-5 12l-5 -12h10zM800 -88q0 13 -11 13t-11 -12q0 -13 11 -13t11 12zM441 -88q0 13 -11 13
t-11 -12q0 -13 11 -13t11 12zM176 548h-5q-15 0 -15 15q0 9 8 9t9 -5zM566 553q-3 -4 -7 -4t-4 2q0 3 4 3q5 0 7 -1zM272 553q-3 -4 -7 -4t-4 2q0 3 4 3q5 0 7 -1zM684 535q0 -13 -11 -13q-9 0 -17 11.5t-8 26.5q0 14 11 14q9 0 17 -12t8 -27zM392 384h-11q-13 0 -13 11
t13 11h11v-22zM280 200h-5q-15 0 -15 15q0 9 8 9t9 -5zM716 187q0 -13 -11 -13q-9 0 -17 11.5t-8 26.5q0 14 11 14q9 0 17 -12t8 -27zM393 182q0 -7 -4 -7h-5q-11 0 -18.5 10t-7.5 22q0 17 14 17h6q4 -1 6 -7zM553 79q5 0 0 -9q-5 9 0 9zM352 64h-3q-8 0 -8 8q0 6 7 6
q4 0 4 -4v-10zM417 64q0 -17 -12 -17t-12 17q0 16 12 16t12 -16z" />
    <glyph glyph-name="fi" unicode="&#xfb01;" horiz-adv-x="562" 
d="M431 0q-69 0 -97 -4q-4 0 -4.5 4.5t1 9t2.5 4.5q45 6 54 18t9 67v199q0 36 -5.5 50.5t-22.5 14.5h-180v-264q0 -51 14.5 -66.5t74.5 -18.5q5 0 3 -14q-1 -4 -3 -4q-29 4 -123 4q-86 0 -115 -4q-3 -1 -4 4q-1 11 4 14q52 6 63 18t11 67v264q-13 0 -44 0.5t-35 0.5
q-2 -1 -4 3q-4 13 0 21q6 0 17.5 0.5t17 1t14 1.5t14 2t11 3t9.5 5v26q0 124 83.5 215.5t181.5 91.5q30 0 57.5 -15t27.5 -27q0 -20 -15 -41.5t-29 -21.5q-11 0 -48 21t-62 21q-121 0 -121 -224v-47h191q59 0 84 24q1 1 4.5 0t7 -4t3.5 -5q-7 -27 -7 -143v-173q0 -55 11 -67
t63 -18q4 0 3 -13q-2 -5 -4 -5q-29 4 -113 4z" />
    <glyph glyph-name="fl" unicode="&#xfb02;" horiz-adv-x="562" 
d="M431 0q-69 0 -97 -4q-4 0 -4.5 4.5t1 9t2.5 4.5q45 6 54 18t9 67v264h-208v-264q0 -51 14.5 -66.5t74.5 -18.5q5 0 3 -14q-1 -4 -3 -4q-29 4 -123 4q-86 0 -115 -4q-3 -1 -4 4q-1 11 4 14q52 6 63 18t11 67v264q-13 0 -44 0.5t-35 0.5q-2 -1 -4 3q-4 13 0 21
q6 0 17.5 0.5t17 1t14 1.5t14 2t11 3t9.5 5v26q0 126 73 216.5t168 90.5q50 0 78 -23q27 22 31 25q1 1 4.5 0t7 -3.5t3.5 -4.5q-7 -27 -7 -143v-486q0 -55 11 -67t63 -18q4 0 3 -13q-2 -5 -4 -5q-29 4 -113 4zM396 632q-13 19 -39.5 32t-56.5 13q-57 0 -84.5 -51t-27.5 -179
v-47h208v232z" />
  </font>
</defs>
</svg>
